<svg viewBox="0 0 226.79 176.31" xmlns="http://www.w3.org/2000/svg"><path d="m25.4 59.82s1.93-5.82 0-5.82c-3.86 0-3.86 5.79 0 5.79z" fill="#2a2530"/><path d="m24.46 59a1.59 1.59 0 0 1 -1.2-.95c.13.33.27.65.41 1a6.88 6.88 0 0 0 .94 1.36c1.86 2.24 5.71-.15 4.84-2.82-.58-1.76-.85-4.08-2.94-4.68a3.55 3.55 0 0 0 -2.59.38c1-.46.17-.09-.1 0l-.4.08c.73-.13-.23 0-.32 0-3.07 0-3.71 3.76-1.46 5.39a6.92 6.92 0 0 0 4.53 1.67c1.9-.21 3.33-1.33 4.83-2.43a2.93 2.93 0 0 0 -.69-5.29c-1.8-.72-3.46-1.41-5.34-.51s-1.88 3.62-1.88 5.44a2.93 2.93 0 0 0 3.67 2.79c1.77-.43 3.69-1.32 4.55-3a4.21 4.21 0 0 0 -.74-5 4.54 4.54 0 0 0 -5.18-.63c-2 1-3 3.11-3.62 5.08-1.14 3.57 4.45 5.08 5.58 1.54a4 4 0 0 1 .49-1.15c.19-.3.19-.31 0-.06a5.1 5.1 0 0 1 .46-.47c-.33.25-.37.3-.12.14-.65.38.12.06-.71.16h.27c-.08 0-1.18-.37-.86-.2a1.68 1.68 0 0 1 -.61-2.22c-.16.24-.11.17.16-.2-.41.47.55-.34-.05 0-.07 0-.75.33-.23.14a7.36 7.36 0 0 1 -.92.25l3.67 2.8c0-.5 0-1 0-1.5 0-.19.12-.93 0 0a.75.75 0 0 0 0-.16 2.17 2.17 0 0 1 -1 1.25 1.38 1.38 0 0 1 -1.45.25 4.56 4.56 0 0 1 .6.18c.59.19 1.16.43 1.73.66l-.78-5.29-1.42 1.06c-.1.07-1.12.67-.71.5-.59.24.64.2 0 0 .21.1.14 0-.22-.13a10.16 10.16 0 0 1 -1.1-.75c-.49 1.8-1 3.6-1.46 5.4a9.4 9.4 0 0 0 3.74-.83c-1 .45-2.21 1.09-3.49-1-.49-.81-.19-.47-.08-.1.19.65.38 1.3.59 1.94l4.85-2.79c.12.14.24.47 0-.06a12.06 12.06 0 0 0 -.52-1.16 3.46 3.46 0 0 0 -2.18-1.66 2.9 2.9 0 0 0 -1.54 5.58z" fill="#2a2530"/><path d="m46.53 45.59c-11.53 2.14-9.75 20.78 2.47 19.09 6.22-.86 11.7-6.88 9-13.21-2.53-5.92-9.77-7-15-4.16-3.29 1.78-.36 6.78 2.92 5 2.53-1.37 5.49-1 6.88 1.69s-3.13 4.88-5.07 5-3.23-1.38-3.36-3.27a4.13 4.13 0 0 1 3.71-4.58c3.67-.68 2.11-6.27-1.54-5.59z" fill="#2a2530"/><path d="m23.47 57s3.86-5.79 0-5.79-3.86 5.79 0 5.79z" fill="#2a2530"/><path d="m25.4 56.26s3.86-5.79 0-5.79-3.86 5.79 0 5.79z" fill="#2a2530"/><path d="m94.93 19.2c0 4.43-1.2 10.59 3.67 12.94 6.74 3.25 16.62 1.65 23.48-.18a2.89 2.89 0 0 0 2.13-2.79c-.22-2.92 1-5.81.31-8.66-.61-2.54-3.62-3.86-5.82-4.62-6-2.06-13.29-.39-19.45-.29-3.73.06-3.73 5.85 0 5.79 4.67-.08 9.3-.56 14-.42.74 0 5.74.19 5.76 1.54 0 2.23-.73 4.35-.56 6.66.71-.93 1.42-1.86 2.12-2.8a42.88 42.88 0 0 1 -17.46 1.06c-4-.57-2.38-5-2.36-8.23 0-3.73-5.76-3.73-5.79 0z" fill="#2a2530"/><path d="m98.77 28h12.58c-.26-1.93-.51-4.24-.77-6.14a57.43 57.43 0 0 1 -9.9.48c-3.74 0-3.74 5.66 0 5.66h17.4v-6a100 100 0 0 0 -20.15 2.24c-3.66.72-2.19 6.3 1.46 5.58a98.07 98.07 0 0 1 18.41-1.93c3.73 0 3.69-5.7 0-5.7h-17.09v5.6c3.86 0 7.62.31 11.43-.36 3.28-.58 2.4-5.24-.79-5.24h-12.58c-3.86 0-3.86 5.79 0 5.79z" fill="#2a2530"/><g fill="#efece2"><path d="m162.42 80.46c20.05 1.43 40.05 1.92 60-.82 3.68-.5 2.11-6.08-1.54-5.58-19.42 2.65-39 2-58.48.61-3.73-.27-3.7 5.53 0 5.79z"/><path d="m163.22 133.13c20-1.17 39.89-.75 59.87-.72 3.73 0 3.73-5.78 0-5.79-20 0-39.91-.45-59.87.71-3.71.22-3.73 6 0 5.8z"/><path d="m6.73 86.87c18.42-.79 36.52-3.68 54.92-.82 3.65.57 5.22-5 1.54-5.59-19-2.94-37.45-.2-56.46.61-3.72.16-3.74 6 0 5.8z"/><path d="m6.16 137.4c19.88-.48 40.48-.71 59.79-.71 3.86 0 3.86-5.8 0-5.8-19.31 0-39.84.24-59.72.71-3.73.09-3.81 5.89-.07 5.8z"/><path d="m12.06 84.64c-2.76 4.1-5.79 8-8.54 12.1-2.1 3.11 2.92 6 5 2.93 2.75-4.1 5.78-8 8.54-12.1 2.09-3.11-2.93-6-5-2.93z"/><path d="m24.87 84.64c-8 10.62-18 19.69-23.49 32-1.49 3.38 3.5 6.34 5 2.92 5.43-12.29 15.53-21.43 23.49-32 2.25-3-2.79-5.87-5-2.93z"/><path d="m37 83.93c-9 17.19-22.48 31.31-32.74 47.69-2 3.17 3 6.08 5 2.92 10.23-16.37 23.74-30.49 32.74-47.69 1.72-3.3-3.27-6.23-5-2.92z"/><path d="m48.77 83.91c-6.69 16.58-19.92 29.16-28.17 44.86-1.74 3.3 3.26 6.23 5 2.92 8.5-16.18 21.85-29.13 28.76-46.24 1.4-3.47-4.21-5-5.59-1.54z"/><path d="m201.37 78.24c-11.53 16.9-23.68 33.21-38.06 47.81-2.63 2.66 1.47 6.76 4.09 4.09 14.74-14.95 27.16-31.67 39-49 2.12-3.09-2.91-6-5-2.92z"/><path d="m217.48 79.79q-18.48 23.73-39.14 45.55c-2.57 2.71 1.52 6.81 4.09 4.09q20.65-21.86 39.15-45.55c2.26-2.91-1.81-7-4.1-4.09z"/><path d="m221 95.44c-9.93 10.83-19.48 21.66-30.6 31.32-2.83 2.45 1.29 6.53 4.09 4.1 11.13-9.66 20.68-20.5 30.61-31.32 2.52-2.75-1.57-6.85-4.1-4.1z"/></g><path d="m218.91 114c-3.44 3.52-6 8.08-10.09 10.93-3 2.13-.15 7.15 2.92 5 4.57-3.19 7.42-7.9 11.26-11.84 2.61-2.67-1.48-6.77-4.09-4.09z" fill="#fff"/><path d="m56.49 92.4c-5.2 13-12.59 26.29-21.83 36.91-2.43 2.8 1.64 6.92 4.1 4.09 9.95-11.4 17.71-25.4 23.31-39.46 1.39-3.48-4.22-5-5.58-1.54z" fill="#efece2"/><path d="m56.49 115.83c-1.05 4.58-3.89 8.61-6.66 12.33-2.23 3 2.81 5.88 5 2.92 3.06-4.12 6.07-8.64 7.23-13.71.83-3.64-4.75-5.18-5.58-1.54z" fill="#efece2"/><path d="m187 80.42c-4.52 8.65-11.39 15.58-18.65 22-2.8 2.48 1.31 6.56 4.1 4.1 7.55-6.73 14.79-14.11 19.55-23.18 1.73-3.3-3.27-6.23-5-2.92z" fill="#efece2"/><path d="m178.3 77.81c-3.35 4.91-7.52 9.12-11.7 13.31-2.65 2.64 1.45 6.74 4.09 4.09a101.49 101.49 0 0 0 12.61-14.47c2.11-3.1-2.91-6-5-2.93z" fill="#efece2"/><path d="m173 54.4c10.15-.13 20.22-1.54 30.38-.87 3.73.25 3.7-5.55 0-5.79-10.16-.68-20.23.74-30.38.86-3.74 0-3.74 5.84 0 5.8z" fill="#2a2530"/><path d="m175.13 63c8.09-1.51 16.33-1.63 24.05-1.63 3.86 0 3.86-5.79 0-5.79-7.72 0-17.17.23-25.76 1.84-3.67.69-1.94 6.27 1.71 5.58z" fill="#2a2530"/><path d="m139.71 56.61c-26.35-9.61-57.92-7.44-74.38 17.86-17.95 27.6-8.75 65.57 22 78.66 28.62 12.18 65.66 3.73 79-25.83 11.88-26.38.64-60-26.79-70.6a2.77 2.77 0 0 0 -2.81.74 2 2 0 0 0 -.19.22 2.93 2.93 0 0 0 .59 4.54 6.08 6.08 0 0 0 1.19.61c3.39 1.49 6.34-3.5 2.93-5a6.77 6.77 0 0 1 -1.2-.61c.2 1.52.39 3 .59 4.55-.27.3 12.29 10.27 13.37 11.43 4.24 4.56 6.93 10.45 8.83 16.3 3.87 11.92 2.72 25.51-2.39 36.86-12.54 27.84-49.81 31.89-74.82 19.66-27.2-13.29-28.88-47.73-13.95-70.68 14.29-22 44.7-21 66.49-13.13 3.52 1.28 5-4.32 1.54-5.58z" fill="#2a2530"/><path d="m137.11 73.44c-22.87-9.34-53.93-7.44-63.33 19.56-8.53 24.56 8.71 45.84 32.62 50.9 21.67 4.58 45.65-5.83 48.57-29.22 2.06-16.53-3.24-42.62-24.14-42.94-3.74-.06-3.73 5.73 0 5.79 15.9.25 19.31 20.93 18.75 33.23-1 22.16-21.68 30.67-41.64 27.55-21.62-3.31-36.88-24.1-27.94-45.19 9.56-22.59 36.21-22 55.59-14.09 3.46 1.41 5-4.19 1.54-5.59z" fill="#2a2530"/><path d="m114.76 96.39c4.3 2.43 7.66 6.79 6.8 12-.83 5-5.21 6.08-9.51 4.74-5.5-1.7-9.47-7.13-6.4-12.58s9.86-4.55 14.35-1.55c3.13 2.07 6-2.95 2.93-5-7.52-5-17.08-4.24-22.23 3.62-5.27 8 .5 17.09 8.24 20.45 7.3 3.18 15.11.91 17.91-6.84s-2.45-16.07-9.12-19.83c-3.26-1.83-6.17 3.17-2.92 5z" fill="#2a2530"/><path d="m77.9 32.68c-14.22-.1-28.42-1.09-42.65-.84-7.7.13-18.49-.37-24.84 4.89-7.26 6-8.61 14.9-9.07 23.84-.78 15.15-1.03 30.43-1.17 45.6-.17 19.83-2.43 52.1 16.83 64.55 7.82 5.05 19.3 4 28.12 4.66 15.56 1.14 31.2 1 46.79.8 29.47-.34 59-.68 88.46-.52 10 .06 25.12 2 34.37-2.86 6.63-3.49 8.78-10.69 10-17.62 1.45-8 1.21-16.19 1.18-24.24 0-11.63.36-23.24.63-34.87.41-17.65 1-40.64-9.53-55.92-8.27-11.94-30-8.31-42.28-8.31h-14.28c-8 0-15.42 4.36-15.93-8.15-.28-6.73 1-13-4.12-18.13-6.09-6.15-15.94-5.66-23.9-5.46-9.27.23-18.85.73-28.07 1.72-16.07 1.73-13 21.22-12.72 33 .08 3.72 5.87 3.75 5.79 0-.15-6.64-2.44-19.7 2.26-25.35 3.44-4.14 15.67-2.41 20.4-2.74 9.15-.64 21.44-3 29.92 1.42 7.71 4.06 4.26 17.74 5.49 24.89 1.13 6.62 8.6 6.57 13.63 6 9.54-1.06 19.22-.61 28.81-.61 7.9 0 16.22-.69 24 1.18 9.22 2.23 11 14.64 12.89 22.32 5.49 22.09.67 46.47 1.32 69 .26 9 .15 18.21-1.85 27-3.63 15.86-25.32 12.05-38 12-29.46-.22-59 .13-88.46.52-14.42.2-28.84.17-43.24-.58-15.8-.83-32.36.19-38.51-17.54-4.55-13.19-4.11-28.62-4.17-42.33-.12-15.48 1-30.93 1.1-46.4.07-7.59.48-15.51 5.81-21.44 4.3-4.77 13-4.08 18.77-4.42 15.38-.92 30.87.6 46.26.71 3.74 0 3.73-5.77 0-5.79z" fill="#2a2530"/></svg>