<svg xmlns="http://www.w3.org/2000/svg" viewBox="0 0 69.97 572.35"><defs><style>.cls-1{fill:#2a2530;}</style></defs><g id="Layer_2" data-name="Layer 2"><g id="illustrations_graphics" data-name="illustrations/graphics"><circle class="cls-1" cx="63.87" cy="6.1" r="6.1"/><path class="cls-1" d="M63.87,43.94a6.1,6.1,0,1,1,6.1-6.1A6.11,6.11,0,0,1,63.87,43.94Z"/><circle class="cls-1" cx="63.87" cy="69.58" r="6.1"/><path class="cls-1" d="M63.87,107.41a6.1,6.1,0,1,1,6.1-6.1A6.11,6.11,0,0,1,63.87,107.41Z"/><path class="cls-1" d="M63.87,139.15a6.1,6.1,0,1,1,6.1-6.1A6.11,6.11,0,0,1,63.87,139.15Z"/><circle class="cls-1" cx="63.87" cy="164.79" r="6.1"/><path class="cls-1" d="M63.87,202.63a6.11,6.11,0,1,1,6.1-6.11A6.11,6.11,0,0,1,63.87,202.63Z"/><circle class="cls-1" cx="63.87" cy="228.26" r="6.1"/><path class="cls-1" d="M63.87,266.1A6.1,6.1,0,1,1,70,260,6.11,6.11,0,0,1,63.87,266.1Z"/><path class="cls-1" d="M63.87,297.84a6.1,6.1,0,1,1,6.1-6.1A6.11,6.11,0,0,1,63.87,297.84Z"/><circle class="cls-1" cx="63.87" cy="323.47" r="6.1"/><path class="cls-1" d="M63.87,361.31a6.1,6.1,0,1,1,6.1-6.1A6.11,6.11,0,0,1,63.87,361.31Z"/><circle class="cls-1" cx="63.87" cy="386.95" r="6.1"/><path class="cls-1" d="M63.87,424.79a6.1,6.1,0,1,1,6.1-6.1A6.11,6.11,0,0,1,63.87,424.79Z"/><path class="cls-1" d="M63.87,456.52a6.1,6.1,0,1,1,6.1-6.1A6.11,6.11,0,0,1,63.87,456.52Z"/><path class="cls-1" d="M63.87,488.26a6.1,6.1,0,1,1,6.1-6.1A6.11,6.11,0,0,1,63.87,488.26Z"/><circle class="cls-1" cx="63.87" cy="513.9" r="6.1"/><circle class="cls-1" cx="63.87" cy="545.64" r="6.1"/><path class="cls-1" d="M3.72,18.23c9.84-6.56,12.53-7.89,24.35-10.07S51.24,4.77,63.3,7.39c2.39.52,3.07-3.21.68-3.73A78.07,78.07,0,0,0,29.63,4C23.42,5.42,18.07,6.22,12.19,8.89c-6,2.75-5.15,2.57-10.62,6.22-2,1.36.12,4.48,2.15,3.12Z"/><path class="cls-1" d="M34.68,27.57c-3.9-.82-16.31-2.29-20.09-3.77-4-1.58-8.71-2.6-11.75-7.53C1.55,14.18-.89,17,.33,19.12c3.55,6.08,6.55,5.08,11,7.18,4.67,2.21,17.81,4,22.66,5,2.4.5,3.09-3.23.69-3.74Z"/><path class="cls-1" d="M3.72,50.23c9.84-6.56,12.53-7.89,24.35-10.07s23.17-3.39,35.23-.77c2.39.52,3.07-3.21.68-3.73A78.07,78.07,0,0,0,29.63,36c-6.21,1.44-11.56,2.24-17.44,4.91-6,2.75-5.15,2.57-10.62,6.22-2,1.36.12,4.48,2.15,3.12Z"/><path class="cls-1" d="M34.68,59.57c-3.9-.82-16.31-2.29-20.09-3.77-4-1.58-8.71-2.6-11.75-7.53C1.55,46.18-.89,49,.33,51.12c3.55,6.08,6.55,5.08,11,7.18,4.67,2.21,17.81,4,22.66,5,2.4.5,3.09-3.23.69-3.74Z"/><path class="cls-1" d="M3.72,82.23c9.84-6.56,12.53-7.89,24.35-10.07s23.17-3.39,35.23-.77c2.39.52,3.07-3.21.68-3.73A78.07,78.07,0,0,0,29.63,68c-6.21,1.44-11.56,2.24-17.44,4.91-6,2.75-5.15,2.57-10.62,6.22-2,1.36.12,4.48,2.15,3.12Z"/><path class="cls-1" d="M34.68,91.57c-3.9-.82-16.31-2.29-20.09-3.77-4-1.58-8.71-2.6-11.75-7.53C1.55,78.18-.89,81,.33,83.12c3.55,6.08,6.55,5.08,11,7.18,4.67,2.21,17.81,4,22.66,5,2.4.5,3.09-3.23.69-3.74Z"/><path class="cls-1" d="M3.72,114.23c9.84-6.56,12.53-7.89,24.35-10.07s23.17-3.39,35.23-.77c2.39.52,3.07-3.21.68-3.73a78.07,78.07,0,0,0-34.35.32c-6.21,1.44-11.56,2.24-17.44,4.91-6,2.75-5.15,2.57-10.62,6.22-2,1.36.12,4.48,2.15,3.12Z"/><path class="cls-1" d="M34.68,123.57c-3.9-.82-16.31-2.29-20.09-3.77-4-1.58-8.71-2.6-11.75-7.53-1.29-2.09-3.73.76-2.51,2.85,3.55,6.08,6.55,5.08,11,7.18,4.67,2.21,17.81,4,22.66,5,2.4.5,3.09-3.23.69-3.74Z"/><path class="cls-1" d="M3.72,144.23c9.84-6.56,12.53-7.89,24.35-10.07s23.17-3.39,35.23-.77c2.39.52,3.07-3.21.68-3.73a78.07,78.07,0,0,0-34.35.32c-6.21,1.44-11.56,2.24-17.44,4.91-6,2.75-5.15,2.57-10.62,6.22-2,1.36.12,4.48,2.15,3.12Z"/><path class="cls-1" d="M34.68,153.57c-3.9-.82-16.31-2.29-20.09-3.77-4-1.58-8.71-2.6-11.75-7.53-1.29-2.09-3.73.76-2.51,2.85,3.55,6.08,6.55,5.08,11,7.18,4.67,2.21,17.81,4,22.66,5,2.4.5,3.09-3.23.69-3.74Z"/><path class="cls-1" d="M3.72,176.23c9.84-6.56,12.53-7.89,24.35-10.07s23.17-3.39,35.23-.77c2.39.52,3.07-3.21.68-3.73a78.07,78.07,0,0,0-34.35.32c-6.21,1.44-11.56,2.24-17.44,4.91-6,2.75-5.15,2.57-10.62,6.22-2,1.36.12,4.48,2.15,3.12Z"/><path class="cls-1" d="M34.68,185.57c-3.9-.82-16.31-2.29-20.09-3.77-4-1.58-8.71-2.6-11.75-7.53-1.29-2.09-3.73.76-2.51,2.85,3.55,6.08,6.55,5.08,11,7.18,4.67,2.21,17.81,4,22.66,5,2.4.5,3.09-3.23.69-3.74Z"/><path class="cls-1" d="M3.72,208.23c9.84-6.56,12.53-7.89,24.35-10.07s23.17-3.39,35.23-.77c2.39.52,3.07-3.21.68-3.73a78.07,78.07,0,0,0-34.35.32c-6.21,1.44-11.56,2.24-17.44,4.91-6,2.75-5.15,2.57-10.62,6.22-2,1.36.12,4.48,2.15,3.12Z"/><path class="cls-1" d="M34.68,217.57c-3.9-.82-16.31-2.29-20.09-3.77-4-1.58-8.71-2.6-11.75-7.53-1.29-2.09-3.73.76-2.51,2.85,3.55,6.08,6.55,5.08,11,7.18,4.67,2.21,17.81,4,22.66,5,2.4.5,3.09-3.23.69-3.74Z"/><path class="cls-1" d="M3.72,240.23c9.84-6.56,12.53-7.89,24.35-10.07s23.17-3.39,35.23-.77c2.39.52,3.07-3.21.68-3.73a78.07,78.07,0,0,0-34.35.32c-6.21,1.44-11.56,2.24-17.44,4.91-6,2.75-5.15,2.57-10.62,6.22-2,1.36.12,4.48,2.15,3.12Z"/><path class="cls-1" d="M34.68,249.57c-3.9-.82-16.31-2.29-20.09-3.77-4-1.58-8.71-2.6-11.75-7.53-1.29-2.09-3.73.76-2.51,2.85,3.55,6.08,6.55,5.08,11,7.18,4.67,2.21,17.81,4,22.66,5,2.4.5,3.09-3.23.69-3.74Z"/><path class="cls-1" d="M3.72,271.23c9.84-6.56,12.53-7.89,24.35-10.07s23.17-3.39,35.23-.77c2.39.52,3.07-3.21.68-3.73a78.07,78.07,0,0,0-34.35.32c-6.21,1.44-11.56,2.24-17.44,4.91-6,2.75-5.15,2.57-10.62,6.22-2,1.36.12,4.48,2.15,3.12Z"/><path class="cls-1" d="M34.68,280.57c-3.9-.82-16.31-2.29-20.09-3.77-4-1.58-8.71-2.6-11.75-7.53-1.29-2.09-3.73.76-2.51,2.85,3.55,6.08,6.55,5.08,11,7.18,4.67,2.21,17.81,4,22.66,5,2.4.5,3.09-3.23.69-3.74Z"/><path class="cls-1" d="M3.72,303.23c9.84-6.56,12.53-7.89,24.35-10.07s23.17-3.39,35.23-.77c2.39.52,3.07-3.21.68-3.73a78.07,78.07,0,0,0-34.35.32c-6.21,1.44-11.56,2.24-17.44,4.91-6,2.75-5.15,2.57-10.62,6.22-2,1.36.12,4.48,2.15,3.12Z"/><path class="cls-1" d="M34.68,312.57c-3.9-.82-16.31-2.29-20.09-3.77-4-1.58-8.71-2.6-11.75-7.53-1.29-2.09-3.73.76-2.51,2.85,3.55,6.08,6.55,5.08,11,7.18,4.67,2.21,17.81,4,22.66,5,2.4.5,3.09-3.23.69-3.74Z"/><path class="cls-1" d="M3.72,335.23c9.84-6.56,12.53-7.89,24.35-10.07s23.17-3.39,35.23-.77c2.39.52,3.07-3.21.68-3.73a78.07,78.07,0,0,0-34.35.32c-6.21,1.44-11.56,2.24-17.44,4.91-6,2.75-5.15,2.57-10.62,6.22-2,1.36.12,4.48,2.15,3.12Z"/><path class="cls-1" d="M34.68,344.57c-3.9-.82-16.31-2.29-20.09-3.77-4-1.58-8.71-2.6-11.75-7.53-1.29-2.09-3.73.76-2.51,2.85,3.55,6.08,6.55,5.08,11,7.18,4.67,2.21,17.81,4,22.66,5,2.4.5,3.09-3.23.69-3.74Z"/><path class="cls-1" d="M3.72,367.23c9.84-6.56,12.53-7.89,24.35-10.07s23.17-3.39,35.23-.77c2.39.52,3.07-3.21.68-3.73a78.07,78.07,0,0,0-34.35.32c-6.21,1.44-11.56,2.24-17.44,4.91-6,2.75-5.15,2.57-10.62,6.22-2,1.36.12,4.48,2.15,3.12Z"/><path class="cls-1" d="M34.68,376.57c-3.9-.82-16.31-2.29-20.09-3.77-4-1.58-8.71-2.6-11.75-7.53-1.29-2.09-3.73.76-2.51,2.85,3.55,6.08,6.55,5.08,11,7.18,4.67,2.21,17.81,4,22.66,5,2.4.5,3.09-3.23.69-3.74Z"/><path class="cls-1" d="M3.72,399.23c9.84-6.56,12.53-7.89,24.35-10.07s23.17-3.39,35.23-.77c2.39.52,3.07-3.21.68-3.73a78.07,78.07,0,0,0-34.35.32c-6.21,1.44-11.56,2.24-17.44,4.91-6,2.75-5.15,2.57-10.62,6.22-2,1.36.12,4.48,2.15,3.12Z"/><path class="cls-1" d="M34.68,408.57c-3.9-.82-16.31-2.29-20.09-3.77-4-1.58-8.71-2.6-11.75-7.53-1.29-2.09-3.73.76-2.51,2.85,3.55,6.08,6.55,5.08,11,7.18,4.67,2.21,17.81,4,22.66,5,2.4.5,3.09-3.23.69-3.74Z"/><path class="cls-1" d="M3.72,431.23c9.84-6.56,12.53-7.89,24.35-10.07s23.17-3.39,35.23-.77c2.39.52,3.07-3.21.68-3.73a78.07,78.07,0,0,0-34.35.32c-6.21,1.44-11.56,2.24-17.44,4.91-6,2.75-5.15,2.57-10.62,6.22-2,1.36.12,4.48,2.15,3.12Z"/><path class="cls-1" d="M34.68,440.57c-3.9-.82-16.31-2.29-20.09-3.77-4-1.58-8.71-2.6-11.75-7.53-1.29-2.09-3.73.76-2.51,2.85,3.55,6.08,6.55,5.08,11,7.18,4.67,2.21,17.81,4,22.66,5,2.4.5,3.09-3.23.69-3.74Z"/><path class="cls-1" d="M3.72,463.23c9.84-6.56,12.53-7.89,24.35-10.07s23.17-3.39,35.23-.77c2.39.52,3.07-3.21.68-3.73a78.07,78.07,0,0,0-34.35.32c-6.21,1.44-11.56,2.24-17.44,4.91-6,2.75-5.15,2.57-10.62,6.22-2,1.36.12,4.48,2.15,3.12Z"/><path class="cls-1" d="M34.68,472.57c-3.9-.82-16.31-2.29-20.09-3.77-4-1.58-8.71-2.6-11.75-7.53-1.29-2.09-3.73.76-2.51,2.85,3.55,6.08,6.55,5.08,11,7.18,4.67,2.21,17.81,4,22.66,5,2.4.5,3.09-3.23.69-3.74Z"/><path class="cls-1" d="M3.72,495.23c9.84-6.56,12.53-7.89,24.35-10.07s23.17-3.39,35.23-.77c2.39.52,3.07-3.21.68-3.73a78.07,78.07,0,0,0-34.35.32c-6.21,1.44-11.56,2.24-17.44,4.91-6,2.75-5.15,2.57-10.62,6.22-2,1.36.12,4.48,2.15,3.12Z"/><path class="cls-1" d="M34.68,504.57c-3.9-.82-16.31-2.29-20.09-3.77-4-1.58-8.71-2.6-11.75-7.53-1.29-2.09-3.73.76-2.51,2.85,3.55,6.08,6.55,5.08,11,7.18,4.67,2.21,17.81,4,22.66,5,2.4.5,3.09-3.23.69-3.74Z"/><path class="cls-1" d="M3.72,527.23c9.84-6.56,12.53-7.89,24.35-10.07s23.17-3.39,35.23-.77c2.39.52,3.07-3.21.68-3.73a78.07,78.07,0,0,0-34.35.32c-6.21,1.44-11.56,2.24-17.44,4.91-6,2.75-5.15,2.57-10.62,6.22-2,1.36.12,4.48,2.15,3.12Z"/><path class="cls-1" d="M34.68,536.57c-3.9-.82-16.31-2.29-20.09-3.77-4-1.58-8.71-2.6-11.75-7.53-1.29-2.09-3.73.76-2.51,2.85,3.55,6.08,6.55,5.08,11,7.18,4.67,2.21,17.81,4,22.66,5,2.4.5,3.09-3.23.69-3.74Z"/><path class="cls-1" d="M3.72,559.23c9.84-6.56,12.53-7.89,24.35-10.07s23.17-3.39,35.23-.77c2.39.52,3.07-3.21.68-3.73a78.07,78.07,0,0,0-34.35.32c-6.21,1.44-11.56,2.24-17.44,4.91-6,2.75-5.15,2.57-10.62,6.22-2,1.36.12,4.48,2.15,3.12Z"/><path class="cls-1" d="M34.68,568.57c-3.9-.82-16.31-2.29-20.09-3.77-4-1.58-8.71-2.6-11.75-7.53-1.29-2.09-3.73.76-2.51,2.85,3.55,6.08,6.55,5.08,11,7.18,4.67,2.21,17.81,4,22.66,5,2.4.5,3.09-3.23.69-3.74Z"/></g></g></svg>