<svg viewBox="0 0 33.13 91.24" xmlns="http://www.w3.org/2000/svg"><path d="m27.2 46.67a27.81 27.81 0 0 0 -1-7.08c-.16-.39-.33-.87-.55-1.48a18.51 18.51 0 0 0 -2.5-5 6 6 0 0 0 -10.71 1.57c-.78 2-1.21 4.14-1.83 6.32v8.4q.1 7.35.24 14.7c0 1.78.86 2.71 2.34 2.67s2.15-1 2.13-2.83c-.05-4.84-.07-9.68-.1-14.52v-.16c0-1.42 0-2.83 0-4.24 0-.38 0-.75.09-1.22.06-1.35.14-2.41.22-3.18a9.31 9.31 0 0 1 1.51-4.95 1.55 1.55 0 0 1 2.66.31c.31.52.59 1.07.86 1.64.3.61.55 1.18.78 1.73s.44 1 .69 1.51h-.03c1.66 4.79.76 7.07.76 7.07.08 1.64.16 3.27.2 4.9.18 7.27.42 14.55.4 21.82 0 2.77-1.4 5.62-2.16 8.29-1 3.6-4.09 4.45-7.7 3.48a9.44 9.44 0 0 1 -6.9-6.65 38.39 38.39 0 0 1 -1.69-9.23c-.36-8.44-.38-16.88-.52-25.32a11.87 11.87 0 0 1 .06-1.22v-3h-.09c0-.79.08-1.57.11-2.36.08-1.89.15-3.76.36-5.61.47-4.31 1.07-19.87 3.17-23.82 2.3-4.33 5.49-5.59 10.15-4.13 5.49 1.72 8.62 5.47 9.31 11.07.34 2.8.5 5.63.63 8.47.16 2.39.43 3.18.71 5.78.5 0 2.85.3 3.34.3 1.85-.71.53-1.66.63-3.95-.15-3.51-.24-6.94-.67-10.33-1.04-8.09-5.28-13.65-13.42-15.86-6.14-1.67-11.27.44-14.38 5.99-2.89 5.17-3.6 22.13-4.13 27.88-.08.79-.17 1.57-.17 2.37l.07 7.34h.08c0 3.39-.06 6.73 0 10.07.15 7 .19 14 .63 20.93a18.49 18.49 0 0 0 4.51 11.29 13.25 13.25 0 0 0 12.07 4.69 9.75 9.75 0 0 0 8.42-7.75c.74-3.68 2-7.5 2-11.25-.06-8.44-.36-16.89-.6-25.45z" fill="#fff"/></svg>