<svg xmlns="http://www.w3.org/2000/svg" viewBox="0 0 286 33.5"><defs><style>.cls-1{fill:#8dbbb9;fill-rule:evenodd;}</style></defs><g id="Layer_2" data-name="Layer 2"><g id="illustrations_graphics" data-name="illustrations/graphics" transform="translate(0, 31)"><path class="cls-1" d="M404.82.94h0V.82h-.5s0,.12,0,.12-.05,0-.07,0-.06,0-.07,0,0-.12,0-.12H404a.48.48,0,0,1,0,.12s-.06,0-.07,0h-.07V.82h-.07s-.05,0-.07,0h-.43a.48.48,0,0,1,0,.12s-.06,0-.07,0h-.07a.48.48,0,0,0,0-.12s-.05,0-.07,0h-.63s0,.12,0,.12h-.08s0-.12,0-.12h-.14a.16.16,0,0,1-.07,0h-.49s0,.11,0,.12-.06,0-.07,0-.06,0-.07,0,0-.1,0-.12h-.07a.22.22,0,0,1-.08,0s-.06,0-.07,0,0,.12,0,.12a.09.09,0,0,1-.07,0s-.06,0-.07,0,0-.12,0-.12h-.35s-.05,0-.07,0h-.14s-.05,0-.07,0-.05,0-.07,0-.07,0-.08,0,0-.12,0-.12h-.07s-.06,0-.07,0a.57.57,0,0,1,0,.13h-.14s-.05,0-.07,0h-.14s-.05,0-.07,0h-.07s-.06,0-.07,0,0,.1,0,.12-.06,0-.07,0-.06,0-.07,0,0-.11,0-.12-.06,0-.07,0a.22.22,0,0,0-.08,0h-.14s0,0-.07,0h-.42V.71h-.07s0,.12,0,.12h-.14s0,0-.07,0h-.64s-.05,0-.07,0a.48.48,0,0,1,0-.12s-.06,0-.07,0h-.07V.83s-.07,0-.07,0h-.07s0-.12,0-.12-.06,0-.08,0,0,0-.07,0h-.21s-.05,0-.07,0a.48.48,0,0,1,0,.12s-.06,0-.07,0-.05,0-.07,0h-.28a.16.16,0,0,0-.07,0s-.06,0-.07,0a.48.48,0,0,1,0-.12s-.07,0-.08,0a.48.48,0,0,1,0,.12s-.06,0-.07,0a.16.16,0,0,0-.07,0h-.49s0,0-.07,0-.05,0-.07,0-.07,0-.07,0a.48.48,0,0,1,0-.12V.59h-.14s0,.09,0,.12-.07,0-.08,0a.48.48,0,0,1,0,.12s0,0-.07,0h-.21V.71H395s0,.12,0,.12h-.56s-.07,0-.08,0,0-.12,0-.12,0,0-.07,0h-.35V.83s-.06,0-.07,0h-.14s-.07,0-.07,0a.48.48,0,0,1,0-.12h-.43a.48.48,0,0,1,0,.12s-.06,0-.07,0h-.07s-.05,0-.07,0h-.14V.71s-.06,0-.07,0h-.07s0,.11,0,.12-.06,0-.07,0h-.07s0-.11,0-.12-.07,0-.07,0h-.15s-.06,0-.07,0,0,.12,0,.12,0,0-.07,0h-.63s-.07,0-.07,0,0-.12,0-.12-.07,0-.07,0,0,.11,0,.12-.07,0-.08,0a.48.48,0,0,0,0-.12s-.06,0-.07,0h-.14s-.05,0-.07,0,0,.11,0,.12-.06,0-.07,0H391s-.06,0-.07,0,0-.1,0-.12-.06,0-.07,0h-.35a.22.22,0,0,1-.08,0s-.06,0-.07,0,0,.12,0,.12a.09.09,0,0,1-.07,0s0-.1,0-.12-.06,0-.07,0,0,.12,0,.12-.06,0-.07,0H390s-.06,0-.07,0,0-.1,0-.12-.06,0-.07,0V.83s-.06,0-.07,0-.05,0-.07,0h-.14s-.05,0-.07,0-.06,0-.07,0,0-.1,0-.12-.07,0-.08,0h-.35s-.06,0-.07,0,0,.11,0,.13-.06,0-.07,0h-.14s0,0-.07,0V.71h-.07a.56.56,0,0,0,0,.13s-.06,0-.07,0,0-.11,0-.13-.06,0-.07,0-.07,0-.08,0,0,.11,0,.13-.06,0-.07,0a.56.56,0,0,0,0-.13h-.14a.48.48,0,0,1,0,.12s-.05,0-.07,0-.05,0-.07,0h-.14s-.06,0-.07,0,0-.11,0-.12-.06,0-.07,0a.09.09,0,0,0-.07,0s-.07,0-.07,0,0,.12,0,.12-.06,0-.07,0,0-.11,0-.12-.06,0-.07,0-.06,0-.08,0,0,.1,0,.12-.06,0-.07,0h-.21s-.05,0-.07,0,0-.11,0-.12-.06,0-.07,0V.84s-.06,0-.07,0V.72s-.06,0-.07,0h-.07s-.05,0-.07,0h-.36a.48.48,0,0,1,0,.12h-.07s0-.12,0-.12-.05,0-.07,0h-.07s0,0-.07,0H386s-.06,0-.07,0,0,.11,0,.12-.05,0-.07,0h-.14V.72s-.06,0-.07,0-.05,0-.07,0h-.07s0,0-.07,0-.06,0-.08,0,0,.1,0,.12-.05,0-.07,0-.05,0-.07,0h-.14s-.06,0-.07,0,0-.1,0-.12-.06,0-.07,0-.06,0-.07,0,0,.1,0,.12-.06,0-.07,0h-.14s-.05,0-.07,0-.06,0-.07,0,0-.1,0-.12-.07,0-.08,0-.06,0-.07,0a.48.48,0,0,1,0,.12s-.05,0-.07,0h-.14a.48.48,0,0,0,0-.12s-.06,0-.07,0H384V.84H384V.72s-.06,0-.07,0,0,.1,0,.12-.06,0-.07,0h-.07s-.07,0-.07,0a.48.48,0,0,1,0-.12h-.14a.22.22,0,0,0-.08,0h-.07s-.06,0-.07,0,0,.12,0,.12h-.07s-.05,0-.07,0,0-.11,0-.12-.06,0-.07,0h-.21s0,0-.07,0-.06,0-.07,0,0,.1,0,.12-.06,0-.07,0-.06,0-.07,0,0-.1,0-.12-.06,0-.07,0-.05,0-.07,0h-.22s-.06,0-.07,0,0,.12,0,.12-.05,0-.07,0H382s0-.1,0-.12-.06,0-.07,0,0-.1,0-.12-.06,0-.07,0h-.14s-.06,0-.07,0,0,.11,0,.12a.16.16,0,0,1-.07,0s-.06,0-.08,0-.06,0-.07,0,0,.12,0,.12-.05,0-.07,0h-.07a.48.48,0,0,0,0-.12s-.06,0-.07,0a.48.48,0,0,1,0,.12s-.06,0-.07,0a.48.48,0,0,0,0-.12s-.06,0-.07,0-.05,0-.07,0h-.35s-.07,0-.07,0a.47.47,0,0,0,0,.12.16.16,0,0,1-.07,0h-.08a.48.48,0,0,0,0-.12s-.05,0-.07,0-.05,0-.07,0a.16.16,0,0,1-.07,0h-1s-.05,0-.07,0-.06,0-.07,0V.84s-.05,0-.07,0-.05,0-.07,0,0-.1,0-.12-.06,0-.07,0h-.07s0,.12,0,.12-.06,0-.07,0-.05,0-.07,0-.05,0-.07,0,0-.11,0-.12-.06,0-.07,0h-.08a.16.16,0,0,1-.07,0s-.06,0-.07,0a.57.57,0,0,1,0,.13h-.07a.57.57,0,0,0,0-.13h-.07s-.05,0-.07,0,0-.1,0-.11-.06,0-.07,0H378s-.07,0-.07,0,0,.11,0,.11-.06,0-.07,0h-.21s-.05,0-.07,0-.06,0-.08,0,0-.1,0-.11-.06,0-.07,0,0,.11,0,.11-.05,0-.07,0-.05,0-.07,0h-.07s-.05,0-.07,0h-.78s0-.12,0-.12-.06,0-.07,0-.05,0-.07,0a.48.48,0,0,1,0,.12s-.06,0-.07,0H376s-.05,0-.07,0h-.28a.16.16,0,0,0-.07,0s-.07,0-.07,0a.48.48,0,0,1,0-.12s-.06,0-.08,0h-.14s0-.1,0-.12h-.07s0,.11,0,.12-.05,0-.07,0,0,.1,0,.12-.05,0-.07,0-.06,0-.07,0,0-.12,0-.12-.05,0-.07,0h-.07s0-.1,0-.12-.07,0-.07,0,0,.11,0,.12V.73s-.06,0-.07,0,0,0-.07,0h-.29s0-.1,0-.12-.05,0-.07,0,0,0-.07,0-.06,0-.07,0,0-.1,0-.12-.06,0-.07,0,0,.1,0,.12-.06,0-.07,0,0,.11,0,.12-.05,0-.07,0-.06,0-.07,0,0-.11,0-.12-.06,0-.07,0-.06,0-.07,0,0,.11,0,.12a.16.16,0,0,1-.07,0s0,0-.07,0H373s-.05,0-.07,0-.06,0-.07,0,0-.1,0-.12-.06,0-.07,0-.07,0-.07,0,0,.11,0,.12a.16.16,0,0,1-.07,0h-.15s-.06,0-.07,0a.48.48,0,0,0,0-.12s-.05,0-.07,0h-.21s0,0-.07,0-.06,0-.07,0,0,.12,0,.12-.05,0-.07,0H371s-.06,0-.07,0,0-.11,0-.12-.05,0-.07,0h-.07s0,.11,0,.12-.06,0-.07,0-.05,0-.07,0h-.5a.48.48,0,0,0,0-.12s-.06,0-.07,0-.06,0-.07,0,0,.1,0,.12-.06,0-.07,0h-.71s-.05,0-.07,0-.06,0-.07,0,0-.1,0-.12-.06,0-.07,0h-.14s-.06,0-.07,0,0,.11,0,.12-.06,0-.07,0h-.22a.16.16,0,0,1-.07,0s-.06,0-.07,0a.48.48,0,0,0,0-.12s0,0-.07,0-.06,0-.07,0,0,.12,0,.12-.06,0-.07,0a.48.48,0,0,0,0-.12h-.07s0,.11,0,.12-.06,0-.07,0-.05,0-.07,0h-.28s0-.09,0-.12-.06,0-.07,0,0-.09,0-.12h-.15s0,.1,0,.12-.06,0-.07,0,0,.12,0,.12-.06,0-.07,0a.48.48,0,0,0,0-.12h-.07s0,.1,0,.12h-.07s-.05,0-.07,0,0-.1,0-.12H367V.73s-.06,0-.07,0h-.21s-.07,0-.07,0a.56.56,0,0,1,0-.13h-.07s0,.11,0,.13h-.08s-.06,0-.07,0,0-.12,0-.13-.05,0-.07,0-.06,0-.07,0,0-.09,0-.12-.06,0-.07,0,0,.12,0,.12,0,0-.07,0h-.07s-.06,0-.07,0,0,.12,0,.13-.05,0-.07,0h-.07s-.05,0-.07,0h-.14s-.06,0-.08,0,0-.11,0-.12-.05,0-.07,0,0,0-.07,0-.05,0-.07,0-.05,0-.07,0,0,.1,0,.12-.06,0-.07,0h-.14s-.05,0-.07,0-.06,0-.07,0a.48.48,0,0,1,0-.12s-.05,0-.07,0-.05,0-.07,0,0,.1,0,.12-.07,0-.07,0h-.07a.16.16,0,0,0-.07,0h-.22s-.05,0-.07,0a.48.48,0,0,0,0-.12s-.06,0-.07,0,0-.1,0-.12h-.07s0,.09,0,.12-.05,0-.07,0h-.42s0,.11,0,.12-.07,0-.07,0h-.08a.48.48,0,0,0,0-.12s-.06,0-.07,0h-.21s-.05,0-.07,0,0,.11,0,.12-.06,0-.07,0h-.21s-.05,0-.07,0,0-.11,0-.12-.06,0-.07,0-.06,0-.07,0,0-.1,0-.12-.06,0-.07,0a.48.48,0,0,0,0,.12s-.06,0-.08,0a.16.16,0,0,0-.07,0,.48.48,0,0,1,0,.12s0,0-.07,0-.05,0-.07,0-.06,0-.07,0V.62H362s-.06,0-.07,0a.48.48,0,0,0,0,.12h-.5s-.05,0-.07,0,0,0-.07,0,0-.1,0-.12-.06,0-.07,0V.74h-.07s0-.12,0-.12-.05,0-.07,0h-.28s0,0-.07,0,0,.11,0,.12-.07,0-.07,0h-.07s0-.11,0-.12-.07,0-.08,0a.16.16,0,0,1-.07,0s0,0-.07,0h-.21s0-.1,0-.12-.06,0-.07,0,0,.11,0,.12-.06,0-.07,0-.05,0-.07,0-.05,0-.07,0,0,.11,0,.12-.06,0-.07,0h-.07s0-.1,0-.12-.06,0-.07,0,0,0-.07,0h-.57V.5s-.06,0-.07,0-.06,0-.07,0,0,.11,0,.12-.06,0-.07,0h-.14s-.05,0-.07,0-.06,0-.08,0,0-.1,0-.12-.06,0-.07,0-.06,0-.07,0,0,.12,0,.12-.05,0-.07,0h-.14s-.05,0-.07,0h-1.56a.16.16,0,0,0-.07,0s0,.11,0,.12-.06,0-.07,0a.48.48,0,0,0,0-.12s-.06,0-.07,0h-1.84s-.05,0-.07,0,0-.11,0-.12-.06,0-.07,0a.48.48,0,0,1,0,.12h-.07s-.05,0-.07,0-.05,0-.07,0,0,.1,0,.12-.06,0-.07,0,0-.1,0-.12-.06,0-.07,0-.05,0-.07,0a.48.48,0,0,1,0-.12s-.07,0-.07,0,0,.12,0,.12-.05,0-.07,0h-.14s-.06,0-.07,0,0-.11,0-.12-.07,0-.08,0a.48.48,0,0,1,0,.12s-.06,0-.07,0a.16.16,0,0,0-.07,0h-.14s0,0-.07,0h-1.77s-.06,0-.07,0,0-.12,0-.12-.06,0-.07,0,0,.11,0,.12-.05,0-.07,0h-.92V.51s-.06,0-.07,0h-.14s-.06,0-.07,0a.48.48,0,0,0,0,.12h-.28s-.07,0-.08,0,0-.12,0-.12h-.07s-.06,0-.07,0,0,.12,0,.12,0,0-.07,0h-.28s-.05,0-.07,0-.06,0-.07,0,0-.1,0-.12-.06,0-.07,0h-.07s-.07,0-.07,0a.48.48,0,0,0,0,.12s-.05,0-.07,0h-.29s0,0-.07,0a.48.48,0,0,0,0-.12s-.06,0-.07,0-.05,0-.07,0h-.14s-.06,0-.07,0V.63s-.06,0-.07,0,0-.1,0-.12-.06,0-.07,0h-.07s-.07,0-.07,0a.48.48,0,0,0,0,.12.16.16,0,0,1-.07,0s-.07,0-.08,0,0-.12,0-.12-.06,0-.07,0,0,.1,0,.12-.06,0-.07,0-.05,0-.07,0-.06,0-.07,0V.51h-.14s-.05,0-.07,0,0,.11,0,.12-.06,0-.07,0H347V.51s-.06,0-.07,0h-.07s0,.11,0,.12-.07,0-.07,0h-.07s0-.11,0-.12h-.08s0,.12,0,.12,0,0-.07,0h-.7s-.05,0-.07,0-.07,0-.07,0a.48.48,0,0,1,0-.12s-.06,0-.08,0a.16.16,0,0,1-.07,0s0,.12,0,.12-.06,0-.07,0h-.07s-.05,0-.07,0h-.14s-.06,0-.07,0,0-.1,0-.11-.06,0-.07,0V.63s-.06,0-.07,0h-.07s0-.11,0-.11-.06,0-.07,0h-.07a.48.48,0,0,0,0,.12s-.07,0-.07,0h-.08a.48.48,0,0,0,0-.12s-.06,0-.07,0h-.07s-.06,0-.07,0,0,.11,0,.12-.06,0-.07,0h-.14s-.05,0-.07,0,0,0-.07,0-.06,0-.07,0,0-.11,0-.11-.06,0-.07,0,0,.1,0,.11-.06,0-.07,0-.05,0-.07,0h-.07a.22.22,0,0,1-.08,0s0,0-.07,0,0-.1,0-.11-.06,0-.07,0-.06,0-.07,0,0,.1,0,.11-.06,0-.07,0h-.14a.09.09,0,0,1-.07,0s0-.11,0-.12-.06,0-.07,0-.06,0-.07,0,0-.12,0-.12,0,0-.07,0h-.07s0,.09,0,.12-.06,0-.07,0,0,.09,0,.12-.07,0-.07,0a.22.22,0,0,0-.08,0s0-.12,0-.12-.06,0-.07,0a.48.48,0,0,1,0,.12s-.06,0-.07,0a.16.16,0,0,0-.07,0s0-.12,0-.12-.06,0-.07,0-.06,0-.07,0,0,.1,0,.12-.06,0-.07,0h-.14s-.06,0-.07,0,0-.11,0-.12-.06,0-.07,0h-.29a.16.16,0,0,0-.07,0,.48.48,0,0,1,0,.12s-.05,0-.07,0,0,0-.07,0h-.14V.52s-.06,0-.07,0-.06,0-.07,0,0,.1,0,.12-.06,0-.07,0V.52s-.06,0-.07,0-.06,0-.07,0,0,.1,0,.12-.06,0-.07,0,0-.12,0-.12-.06,0-.07,0-.05,0-.07,0h-.15s-.06,0-.07,0a.48.48,0,0,1,0,.12s-.06,0-.07,0,0-.11,0-.12-.06,0-.07,0h-.21s-.06,0-.07,0V.64s-.07,0-.07,0,0-.12,0-.12-.05,0-.07,0h-.71s-.06,0-.07,0V.64h-.07s-.05,0-.07,0,0-.11,0-.12H339s0,.12,0,.12h-.14s-.05,0-.07,0,0-.11,0-.12-.07,0-.08,0h-.14s-.05,0-.07,0a.48.48,0,0,1,0,.12s-.06,0-.07,0h-.14s0,0-.07,0,0-.11,0-.12-.06,0-.07,0h-.07s-.07,0-.07,0,0,.11,0,.12a.16.16,0,0,1-.07,0h-.14s-.07,0-.07,0a.48.48,0,0,1,0-.12s-.06,0-.08,0h-.14a.48.48,0,0,1,0,.12s-.06,0-.07,0a.48.48,0,0,0,0-.12s-.06,0-.07,0h-.07a.48.48,0,0,1,0,.12s-.06,0-.07,0-.05,0-.07,0H337V.52s-.06,0-.07,0-.05,0-.07,0h-.29s-.05,0-.07,0,0,.1,0,.12-.06,0-.07,0-.06,0-.07,0,0-.11,0-.12-.05,0-.07,0h-.85s-.06,0-.07,0,0,.12,0,.12-.05,0-.07,0h-.14V.52s-.06,0-.07,0-.05,0-.07,0h-.14a.16.16,0,0,1-.07,0s-.06,0-.07,0a.48.48,0,0,0,0,.12s-.07,0-.08,0h-.07s-.06,0-.07,0a.48.48,0,0,0,0-.12s0,0-.07,0h-.07s-.05,0-.07,0h-.42s0-.09,0-.12h-.07a.48.48,0,0,0,0,.12s-.07,0-.08,0,0,.12,0,.12-.06,0-.07,0,0-.09,0-.12,0,0-.07,0-.06,0-.07,0,0,.1,0,.12h-.14s0-.09,0-.12-.06,0-.07,0-.05,0-.07,0h-.07s-.05,0-.07,0-.06,0-.07,0,0-.09,0-.11h-.28s0,.09,0,.12-.06,0-.08,0-.05,0-.07,0,0,.09,0,.11-.06,0-.07,0,0-.11,0-.11-.05,0-.07,0-.05,0-.07,0-.06,0-.07,0,0,.11,0,.11,0,0-.07,0h-.07V.53s-.06,0-.07,0-.05,0-.07,0H332a.16.16,0,0,0-.07,0h-.29s-.05,0-.07,0,0,.1,0,.12-.06,0-.07,0h-.07s-.05,0-.07,0,0-.11,0-.12-.06,0-.07,0h-.21s-.05,0-.07,0-.07,0-.07,0,0,.11,0,.12a.16.16,0,0,1-.07,0h-.07s0-.1,0-.12-.06,0-.08,0,0-.1,0-.12h-.07V.53s0,0-.07,0-.05,0-.07,0a.48.48,0,0,0,0-.12h-.07V.53s-.06,0-.07,0,0-.12,0-.12h-.07s0,.1,0,.12-.06,0-.07,0h-.14s-.05,0-.07,0h-.07s-.07,0-.07,0,0,.12,0,.12-.07,0-.07,0a.47.47,0,0,1,0-.12s-.06,0-.08,0h-.28s-.05,0-.07,0-.06,0-.07,0,0,.1,0,.12-.06,0-.07,0V.53s-.06,0-.07,0-.05,0-.07,0h-.57s-.06,0-.07,0,0,.12,0,.12-.06,0-.07,0,0-.1,0-.12-.06,0-.07,0-.06,0-.07,0,0,.12,0,.12-.06,0-.07,0,0-.1,0-.12-.06,0-.07,0h-.5s-.05,0-.07,0h-.07s-.06,0-.07,0V.65h-.07s-.05,0-.07,0,0-.11,0-.12-.06,0-.07,0-.05,0-.07,0-.05,0-.07,0h-.36s-.06,0-.07,0,0,.12,0,.12-.06,0-.07,0,0-.1,0-.12-.06,0-.07,0H326s-.05,0-.07,0-.06,0-.07,0,0,.1,0,.12-.07,0-.08,0a.48.48,0,0,0,0-.12s-.05,0-.07,0,0-.1,0-.12h-.14s0,.12,0,.12-.06,0-.07,0-.05,0-.07,0h-1.63a.16.16,0,0,1-.07,0,.16.16,0,0,1-.07,0s-.06,0-.07,0,0-.12,0-.12h-.07s0,.11,0,.12-.06,0-.07,0h-.28s0,0-.07,0-.06,0-.07,0,0-.1,0-.12h-.07s0,.12,0,.12-.07,0-.07,0a.22.22,0,0,1-.08,0h-.07a.16.16,0,0,1-.07,0,.47.47,0,0,0,0-.12h-.35a.48.48,0,0,0,0,.12s-.06,0-.07,0h-.42a.57.57,0,0,1,0-.13h-.15a.56.56,0,0,1,0,.13h-.14s0,0-.07,0h-.07s-.06,0-.07,0,0-.11,0-.13-.06,0-.07,0h-.43s0-.09,0-.12h-.07a.48.48,0,0,1,0,.12s-.06,0-.07,0h-.07s0,.11,0,.13-.06,0-.07,0h-.07s0,0-.07,0V.41h-.07V.54h-.14s-.06,0-.07,0a.48.48,0,0,1,0-.12s-.05,0-.07,0-.07,0-.07,0a.48.48,0,0,0,0,.12h-.14s-.07,0-.08,0,0-.13,0-.12h-.07a.16.16,0,0,0-.07,0s0,.1,0,.12-.06,0-.07,0h-.07s-.05,0-.07,0-.06,0-.07,0V.42s-.05,0-.07,0-.06,0-.07,0a.48.48,0,0,0,0,.12s-.05,0-.07,0h-.5a.48.48,0,0,0,0-.12s-.06,0-.07,0-.05,0-.07,0h-.07s-.06,0-.07,0,0,.1,0,.12-.06,0-.07,0h-.07s-.06,0-.07,0,0-.11,0-.12-.06,0-.07,0,0,.11,0,.12-.06,0-.07,0-.07,0-.07,0a.48.48,0,0,1,0-.12h-.08a.16.16,0,0,0-.07,0,.48.48,0,0,1,0,.12s-.06,0-.07,0a.48.48,0,0,0,0-.12s-.06,0-.07,0a.16.16,0,0,0-.07,0,.48.48,0,0,1,0,.12s-.06,0-.07,0-.05,0-.07,0h-.35s-.05,0-.07,0-.07,0-.07,0a.48.48,0,0,1,0-.12h-.15a.16.16,0,0,0-.07,0s-.06,0-.07,0a.48.48,0,0,1,0,.12s-.05,0-.07,0h-.42s0,0-.07,0-.06,0-.07,0a.48.48,0,0,1,0-.12s-.06,0-.07,0,0,.1,0,.12-.06,0-.07,0a.22.22,0,0,1-.08,0h-.28s-.05,0-.07,0-.06,0-.07,0V.42s-.05,0-.07,0-.05,0-.07,0-.06,0-.07,0a.48.48,0,0,0,0,.12H315s0,0-.07,0,0-.11,0-.12-.07,0-.07,0,0,.11,0,.12-.07,0-.08,0h-.07a.16.16,0,0,1-.07,0s0-.11,0-.12-.05,0-.07,0,0,0-.07,0,0,0-.07,0-.06,0-.07,0,0-.11,0-.12-.05,0-.07,0-.06,0-.07,0,0,.1,0,.12-.06,0-.07,0,0,.1,0,.12-.06,0-.07,0-.05,0-.07,0H314s0,0-.07,0-.06,0-.08,0,0-.1,0-.12-.06,0-.07,0,0,.12,0,.12-.06,0-.07,0a.48.48,0,0,0,0-.12h-.07V.54s-.06,0-.07,0,0-.1,0-.12-.06,0-.07,0,0,0-.07,0h-.21s-.05,0-.07,0-.06,0-.07,0,0,.11,0,.12-.06,0-.07,0a.16.16,0,0,1-.07,0h-.08s-.05,0-.07,0-.05,0-.07,0,0-.1,0-.12-.06,0-.07,0,0,.12,0,.12-.06,0-.07,0-.05,0-.07,0h-.14s-.05,0-.07,0H312s-.05,0-.07,0h-.08a.16.16,0,0,1-.07,0s-.05,0-.07,0,0-.1,0-.12-.05,0-.07,0,0,.1,0,.12h-.07s0-.11,0-.12-.05,0-.07,0-.06,0-.07,0,0-.09,0-.12h-.14s0,0-.07,0-.07,0-.07,0,0,.12,0,.12-.06,0-.07,0-.07,0-.07,0,0,.1,0,.12h-.15a.16.16,0,0,1-.07,0s-.06,0-.07,0,0-.11,0-.11-.05,0-.07,0a.16.16,0,0,0-.07,0s-.06,0-.07,0,0,.1,0,.11-.06,0-.07,0-.05,0-.07,0h-.21a.16.16,0,0,0-.07,0h-.29s0,0-.07,0-.06,0-.07,0,0-.12,0-.12-.05,0-.07,0h-.14V.55s-.06,0-.07,0V.43s-.06,0-.07,0-.05,0-.07,0,0,.11,0,.12-.06,0-.07,0,0,0-.07,0h-.21s0-.12,0-.12-.06,0-.08,0a.08.08,0,0,0-.07,0s-.06,0-.07,0,0,.12,0,.12h-.42s-.05,0-.07,0-.07,0-.07,0a.48.48,0,0,1,0-.12s0,0-.07,0-.07,0-.07,0,0,.12,0,.12-.06,0-.08,0,0-.11,0-.12-.05,0-.07,0,0-.11,0-.12h-.07s0,.12,0,.12-.06,0-.07,0a.48.48,0,0,1,0,.12s-.05,0-.07,0h-.28s-.05,0-.07,0-.06,0-.07,0,0-.11,0-.12-.06,0-.07,0,0,.11,0,.12-.07,0-.07,0H307s0-.12,0-.12a.11.11,0,0,0-.08,0s0,.12,0,.12h-.21s0,0-.07,0-.06,0-.07,0V.43H306s-.06,0-.07,0,0,.11,0,.12-.07,0-.07,0h-.08a.48.48,0,0,0,0-.12s-.06,0-.07,0a.16.16,0,0,1-.07,0,.48.48,0,0,0,0-.12h-.07V.43h-.42V.19h-.29s0,.1,0,.12,0,0-.07,0-.05,0-.07,0,0,.12,0,.12-.05,0-.07,0h-.14s-.06,0-.07,0,0,.1,0,.12-.05,0-.07,0-.06,0-.07,0,0-.11,0-.12-.06,0-.07,0-.07,0-.07,0,0-.1,0-.12H304s-.06,0-.07,0a.48.48,0,0,0,0,.12V.55a.11.11,0,0,1-.08,0s0-.1,0-.12,0,0-.07,0h-.28s-.06,0-.07,0V.55s-.06,0-.07,0a.48.48,0,0,1,0-.12V.31h-.14s0,.1,0,.12-.06,0-.07,0-.06,0-.07,0a.48.48,0,0,0,0,.12s-.05,0-.07,0-.05,0-.07,0-.06,0-.08,0,0-.1,0-.12-.06,0-.07,0h-.07s0,0-.07,0a.48.48,0,0,1,0,.12s-.06,0-.07,0h-.07V.43s-.06,0-.07,0-.05,0-.07,0h-.14s0-.1,0-.12-.07,0-.07,0,0,.11,0,.12-.06,0-.07,0-.05,0-.07,0h-.08s-.05,0-.07,0,0,.11,0,.12-.06,0-.07,0a.48.48,0,0,0,0-.12s-.05,0-.07,0-.05,0-.07,0h-1.34s-.06,0-.07,0,0,.11,0,.12-.06,0-.07,0,0-.11,0-.12-.06,0-.07,0-.05,0-.07,0h-.29s0,0-.07,0-.06,0-.07,0V.55s-.05,0-.07,0,0,0-.07,0,0-.1,0-.12h-.07s-.05,0-.07,0V.31s-.06,0-.07,0a.09.09,0,0,0-.07,0s-.07,0-.07,0,0,.11,0,.12h-.29a.16.16,0,0,0-.07,0h-.28s-.05,0-.07,0h-.07s-.05,0-.07,0-.05,0-.07,0-.07,0-.07,0,0,.12,0,.12a.16.16,0,0,0-.07,0H298a.48.48,0,0,1,0-.12s-.07,0-.08,0h-.07s-.05,0-.07,0h-.07s-.05,0-.07,0,0-.11,0-.12-.06,0-.07,0-.06,0-.07,0,0,.11,0,.12-.05,0-.07,0-.05,0-.07,0,0,0-.07,0,0,0-.07,0-.06,0-.07,0,0,.1,0,.12-.06,0-.07,0,0-.1,0-.12-.07,0-.07,0-.06,0-.08,0,0,0-.07,0-.06,0-.07,0,0-.12,0-.12,0,0-.07,0-.06,0-.07,0a.48.48,0,0,1,0,.12s-.05,0-.07,0h-.21s-.06,0-.07,0,0-.11,0-.12-.06,0-.07,0,0,.11,0,.12-.06,0-.07,0h-1.7s-.05,0-.07,0-.06,0-.07,0a.48.48,0,0,1,0-.12h-.07s-.07,0-.07,0a.48.48,0,0,0,0,.12s-.05,0-.07,0H293s-.07,0-.08,0,0,.1,0,.12h-.07a.48.48,0,0,0,0-.12s-.06,0-.07,0-.05,0-.07,0h-.14s0,0-.07,0,0-.11,0-.12-.06,0-.07,0-.05,0-.07,0h-.07V.44s-.06,0-.07,0H292s-.07,0-.08,0,0-.12,0-.12-.06,0-.07,0,0,.1,0,.12-.05,0-.07,0-.05,0-.07,0-.05,0-.07,0-.06,0-.07,0V.32h-.28s-.05,0-.07,0-.06,0-.07,0a.48.48,0,0,0,0,.12h-.14s-.06,0-.08,0a.48.48,0,0,0,0-.12s-.05,0-.07,0,0,0-.07,0,0-.09,0-.12-.05,0-.07,0,0,.11,0,.12-.05,0-.07,0-.06,0-.07,0,0,.12,0,.12-.05,0-.07,0h-.07a.09.09,0,0,1-.07,0s0-.1,0-.12-.06,0-.07,0V.44s-.06,0-.07,0,0,0-.07,0H290a.22.22,0,0,1-.08,0h-.07a.16.16,0,0,1-.07,0s0-.1,0-.12-.06,0-.07,0,0,.12,0,.12-.06,0-.07,0a.48.48,0,0,0,0-.12s-.06,0-.07,0-.06,0-.07,0,0,.12,0,.12-.05,0-.07,0h-.21s0,0-.07,0h-.07s-.06,0-.08,0a.47.47,0,0,0,0-.12s-.06,0-.07,0-.06,0-.07,0,0,.12,0,.12-.05,0-.07,0h-.07s0,0-.07,0h-.71a.57.57,0,0,0,0-.13s-.06,0-.07,0-.06,0-.07,0a.57.57,0,0,1,0,.13h-.49s-.05,0-.07,0-.06,0-.07,0a.48.48,0,0,1,0-.12s-.06,0-.07,0-.06,0-.07,0,0,.1,0,.12-.06,0-.08,0V.33s-.06,0-.07,0a.48.48,0,0,1,0,.12h-.28s0-.11,0-.12-.06,0-.07,0,0,0-.07,0h-.07V.45s-.06,0-.07,0h-.14s-.07,0-.07,0a.47.47,0,0,1,0-.12s-.06,0-.08,0H286a.48.48,0,0,1,0,.12h-.07a.16.16,0,0,0-.07,0h-.56s-.07,0-.07,0,0-.12,0-.12a.16.16,0,0,0-.07,0H285s0,.11,0,.12-.07,0-.08,0a.16.16,0,0,0-.07,0h-1.13s-.05,0-.07,0-.06,0-.07,0V.33h-.14s-.05,0-.07,0-.06,0-.07,0,0,.11,0,.12a.16.16,0,0,1-.07,0h-.07s0-.11,0-.12-.07,0-.07,0h-.07s0,.11,0,.12-.07,0-.08,0a.48.48,0,0,0,0-.12s-.06,0-.07,0a.48.48,0,0,1,0,.12s-.05,0-.07,0,0,0-.07,0h-.07a.48.48,0,0,0,0-.12s-.06,0-.07,0-.05,0-.07,0h-.07s-.06,0-.07,0,0,.1,0,.12-.06,0-.07,0-.05,0-.07,0,0,0-.07,0-.07,0-.07,0a.48.48,0,0,1,0-.12h-.07s-.06,0-.08,0a.48.48,0,0,1,0,.12s-.05,0-.07,0,0,0-.07,0h-.49s-.06,0-.07,0a.48.48,0,0,1,0-.12s-.06,0-.07,0,0,.12,0,.12-.06,0-.07,0,0,0-.07,0H281s-.06,0-.07,0a.48.48,0,0,0,0-.12s-.05,0-.07,0h-.07s-.06,0-.07,0,0,.1,0,.12-.06,0-.07,0,0,0-.07,0h-.21V.33s-.06,0-.07,0h-.07s0,.12,0,.12-.06,0-.07,0-.07,0-.07,0,0-.12,0-.12-.06,0-.07,0,0,.11,0,.12-.06,0-.08,0-.05,0-.07,0h-.21s-.06,0-.07,0,0-.12,0-.12-.07,0-.07,0V.45h-.35s-.07,0-.07,0,0-.12,0-.12-.07,0-.08,0,0,.12,0,.12,0,0-.07,0h-.07s-.06,0-.07,0a.48.48,0,0,0,0-.12h-.07V.45s-.06,0-.07,0,0-.11,0-.12-.05,0-.07,0h-.07s-.06,0-.07,0,0,.11,0,.12-.06,0-.07,0-.07,0-.07,0,0-.11,0-.12h-.07a.48.48,0,0,0,0,.12H278a.16.16,0,0,1-.07,0,.48.48,0,0,0,0-.12s0,0-.07,0-.06,0-.07,0a.48.48,0,0,0,0-.12s-.05,0-.07,0-.06,0-.07,0,0,.1,0,.12,0,.1,0,.12-.06,0-.07,0h-.28s-.05,0-.07,0-.06,0-.07,0,0-.1,0-.12-.06,0-.07,0-.06,0-.07,0,0,.11,0,.12-.07,0-.08,0h-.07s0,0-.07,0-.05,0-.07,0,0-.1,0-.11-.06,0-.07,0V.45s-.06,0-.07,0-.05,0-.07,0V.34s-.06,0-.07,0-.05,0-.07,0h-.07s0,0-.07,0,0,0-.07,0-.07,0-.07,0,0,.11,0,.11a.22.22,0,0,1-.08,0H276a.16.16,0,0,1-.07,0,.16.16,0,0,1-.07,0s-.06,0-.07,0,0-.11,0-.11-.06,0-.07,0,0,.11,0,.11-.05,0-.07,0h-.07s-.05,0-.07,0-.06,0-.07,0,0-.1,0-.11-.06,0-.07,0-.06,0-.07,0,0-.11,0-.12-.06,0-.07,0V.45s-.07,0-.07,0h-.08a.16.16,0,0,0-.07,0s0-.12,0-.12-.06,0-.07,0a.48.48,0,0,1,0,.12h-.07a.16.16,0,0,0-.07,0h-.14s-.05,0-.07,0-.06,0-.07,0V.34s-.05,0-.07,0-.07,0-.07,0,0,.12,0,.12h-.07s0-.11,0-.12-.06,0-.07,0h-.07s-.06,0-.07,0,0,.11,0,.12h-.29s0-.11,0-.12-.06,0-.07,0h-.28s-.07,0-.07,0,0,.12,0,.12h-.21a.48.48,0,0,1,0-.12s-.06,0-.07,0,0-.1,0-.12h-.15a.48.48,0,0,1,0,.12s-.06,0-.07,0a.48.48,0,0,1,0,.12h-.14s0-.11,0-.12-.06,0-.07,0h-.14s0,0-.07,0,0,.11,0,.12-.06,0-.07,0h-.78s-.05,0-.07,0h-.07s-.06,0-.07,0,0,.11,0,.12-.06,0-.07,0,0-.11,0-.12-.07,0-.07,0h-.07a.16.16,0,0,0-.07,0H271s0,0-.07,0,0-.1,0-.12-.06,0-.07,0,0-.1,0-.12-.06,0-.07,0,0-.1,0-.12-.06,0-.07,0V.22s-.06,0-.07,0,0,.1,0,.12-.06,0-.07,0,0,.11,0,.12h-.07s-.05,0-.07,0V.34s-.06,0-.07,0h-.07s0,.11,0,.12-.06,0-.07,0h-.29s-.06,0-.07,0,0-.12,0-.12-.05,0-.07,0h-.49s-.07,0-.07,0a.48.48,0,0,0,0,.12h-.64s-.06,0-.07,0,0-.11,0-.12-.05,0-.07,0h-.07s-.07,0-.07,0a.48.48,0,0,0,0,.12h-.07s0-.12,0-.12-.07,0-.07,0a.48.48,0,0,0,0,.12h-.22a.48.48,0,0,0,0-.12h-.07s0,.12,0,.12h-.35s0-.11,0-.12-.05,0-.07,0h-.14s-.06,0-.07,0a.48.48,0,0,0,0,.12h-.07s0-.12,0-.12h-.08s-.05,0-.07,0-.06,0-.07,0,0,.12,0,.12h-.14s-.06,0-.07,0V.34h-.14s-.06,0-.07,0a.48.48,0,0,0,0,.12h-.14s-.06,0-.07,0,0-.12,0-.12h-.07s-.06,0-.07,0a.48.48,0,0,0,0,.12H266a.48.48,0,0,0,0-.12s-.05,0-.07,0h-.07s-.06,0-.07,0,0,.12,0,.12h-.07s0-.11,0-.11h-.21s-.06,0-.07,0,0-.1,0-.13-.05,0-.07,0a.57.57,0,0,0,0,.13s-.06,0-.07,0H265s-.05,0-.07,0,0,.1,0,.12-.06,0-.07,0-.06,0-.07,0,0-.12,0-.12h-.07s-.06,0-.07,0V.47h-.07s-.06,0-.07,0,0-.12,0-.12-.06,0-.07,0-.07,0-.07,0,0-.1,0-.12-.06,0-.07,0,0,.11,0,.12-.06,0-.07,0h-.07s0,.11,0,.12-.07,0-.08,0,0-.11,0-.12,0,0-.07,0h-.21a.48.48,0,0,1,0,.12s-.06,0-.07,0h-.07s-.06,0-.07,0V.35s-.06,0-.07,0,0,.1,0,.12-.06,0-.07,0h-.07s-.07,0-.07,0a.48.48,0,0,1,0-.12h-.15a.47.47,0,0,1,0,.12s-.06,0-.07,0H263s-.06,0-.07,0,0-.11,0-.12-.06,0-.07,0h-.21V.47s-.06,0-.07,0-.05,0-.07,0h-.14s-.06,0-.07,0,0-.11,0-.12-.06,0-.07,0a.48.48,0,0,1,0-.12.11.11,0,0,0-.08,0s0,.09,0,.12h-.49s0,.11,0,.12-.06,0-.07,0h-.14s-.06,0-.07,0a.48.48,0,0,1,0-.12s-.06,0-.07,0h-.22s-.06,0-.07,0,0-.1,0-.12h-.14s0,.09,0,.12-.06,0-.07,0h-.07s0,0-.07,0h-.07V.47s-.06,0-.07,0,0-.11,0-.12h-.21s-.07,0-.07,0a.48.48,0,0,0,0,.12h-.15s-.05,0-.07,0a.48.48,0,0,0,0-.12h-.14a.48.48,0,0,1,0,.12s-.06,0-.07,0h-.07s-.05,0-.07,0h-.21V.35h-.14s0,.11,0,.12-.07,0-.07,0h-.07s0-.11,0-.12h-.29s0,.11,0,.12-.06,0-.07,0h-.14s-.05,0-.07,0h-.07s-.07,0-.07,0a.48.48,0,0,1,0-.12h-.07s0,.1,0,.12-.06,0-.07,0,0-.11,0-.12-.06,0-.07,0-.06,0-.07,0,0-.09,0-.12-.06,0-.08,0,0,.1,0,.12,0,.1,0,.12-.06,0-.07,0H258a.48.48,0,0,0,0-.12h-.28V.47s-.06,0-.07,0,0-.1,0-.12h-.14s0,.1,0,.12-.07,0-.07,0-.06,0-.07,0,0-.1,0-.12-.06,0-.07,0a.48.48,0,0,1,0-.12h-.08s0,.1,0,.12H257s0,.12,0,.12,0,0-.07,0,0,0-.07,0-.06,0-.07,0V.35h-.21s0,.11,0,.12a.09.09,0,0,1-.07,0s0-.11,0-.12h-.07V.47s-.06,0-.07,0h-.07s0-.11,0-.12h-.07a.48.48,0,0,0,0,.12s-.07,0-.07,0h-.08a.16.16,0,0,1-.07,0s0-.11,0-.12-.06,0-.07,0h-.14s-.06,0-.07,0V.47h-.14s-.05,0-.07,0,0-.11,0-.12-.06,0-.07,0h-.07s0,0-.07,0h-.29s0,.12,0,.12-.06,0-.07,0-.06,0-.07,0,0-.12,0-.12h-.07s0,.11,0,.12-.06,0-.07,0-.05,0-.07,0,0,0-.07,0,0-.1,0-.12h-.21a.48.48,0,0,0,0,.12s-.06,0-.07,0a.16.16,0,0,1-.07,0s-.06,0-.07,0a.48.48,0,0,1,0-.12s-.07,0-.08,0H254a.16.16,0,0,0-.07,0h-.07s0,0-.07,0,0,.1,0,.12-.06,0-.07,0-.06,0-.07,0,0-.11,0-.12-.06,0-.07,0V.48s-.06,0-.07,0h-.07s-.05,0-.07,0h-.07s-.07,0-.07,0a.48.48,0,0,1,0-.12.22.22,0,0,0-.08,0,.16.16,0,0,0-.07,0,.47.47,0,0,1,0,.12s-.06,0-.07,0-.06,0-.07,0,0-.12,0-.12-.05,0-.07,0h-.14s-.05,0-.07,0,0,.1,0,.12-.06,0-.07,0V.36h-.07V.48s-.07,0-.07,0a.48.48,0,0,1,0-.12s-.07,0-.07,0,0,.12,0,.12h-.07s-.06,0-.07,0a.48.48,0,0,1,0-.12s-.06,0-.08,0V.48s-.06,0-.07,0-.06,0-.07,0,0-.12,0-.12h-.14s-.05,0-.07,0h-.07s0,0-.07,0,0,.1,0,.12-.06,0-.07,0V.36s-.06,0-.07,0-.05,0-.07,0h-.07a.16.16,0,0,0-.07,0h-.71V.48h-.07a.48.48,0,0,1,0-.12s-.05,0-.07,0h-1s-.07,0-.07,0a.48.48,0,0,1,0-.12h-.07s0,.12,0,.12h-.5s-.06,0-.07,0,0,.12,0,.12-.07,0-.07,0V.36h-.57a.16.16,0,0,0-.07,0s0,.11,0,.12-.06,0-.07,0a.48.48,0,0,0,0-.12s-.06,0-.07,0,0,0-.07,0h-.35s-.06,0-.07,0,0-.1,0-.12h-.07s0,.12,0,.12-.06,0-.07,0-.05,0-.08,0h-1.27s-.05,0-.07,0a.48.48,0,0,0,0-.12h-.14V.36s-.06,0-.07,0,0-.1,0-.12h-.07V.36s-.06,0-.07,0,0,0-.07,0h-.92s-.05,0-.07,0-.06,0-.07,0a.48.48,0,0,0,0,.12h-.07s-.06,0-.08,0-.06,0-.07,0a.48.48,0,0,0,0-.12s-.06,0-.07,0a.48.48,0,0,0,0-.12H244s0,.1,0,.12H244s-.06,0-.07,0,0,.12,0,.12-.06,0-.07,0,0-.11,0-.12-.05,0-.07,0h-.28a.16.16,0,0,1-.07,0h-.07s-.07,0-.07,0a.48.48,0,0,0,0,.12s-.06,0-.08,0,0-.1,0-.12,0,0-.07,0V.48s-.06,0-.07,0a.48.48,0,0,0,0-.12s-.06,0-.07,0a.48.48,0,0,0,0-.12h-.07s0,.12,0,.12-.06,0-.07,0-.06,0-.07,0,0-.11,0-.12h-.21s0,.12,0,.12-.06,0-.07,0h-.14a.16.16,0,0,1-.07,0H242s-.05,0-.07,0h-.07s-.05,0-.07,0-.06,0-.07,0V.49h-.14s-.06,0-.07,0,0-.11,0-.12-.06,0-.07,0h-.29V.25a.48.48,0,0,0,0-.12.48.48,0,0,0,0-.12s-.05,0-.07,0V.37h-.7s0,0-.07,0-.06,0-.08,0,0,.1,0,.12-.06,0-.07,0,0-.12,0-.12-.06,0-.07,0H240s-.06,0-.07,0,0,.1,0,.12-.06,0-.07,0h-.21V.37s-.06,0-.07,0h-.07a.16.16,0,0,0-.07,0h-.78s-.05,0-.07,0-.07,0-.07,0a.48.48,0,0,1,0-.12h-.07s-.07,0-.07,0a.48.48,0,0,0,0,.12s-.05,0-.07,0h-.08a.16.16,0,0,0-.07,0h-.77s0,0-.07,0h-.08s-.06,0-.07,0,0,.12,0,.12,0,0-.07,0H237V.37s-.06,0-.07,0h-.07s-.05,0-.07,0h-.57s-.06,0-.07,0,0,.1,0,.12-.06,0-.07,0H236s-.06,0-.07,0V.37h-.42s-.06,0-.07,0,0,.1,0,.12-.07,0-.07,0-.06,0-.07,0,0-.1,0-.12-.07,0-.08,0H235s0,0-.07,0-.06,0-.07,0,0,.11,0,.12-.06,0-.07,0,0-.09,0-.12-.06,0-.07,0,0,0-.07,0-.06,0-.07,0,0-.1,0-.12-.06,0-.07,0,0,.1,0,.12-.06,0-.07,0,0-.11,0-.12-.07,0-.07,0,0,0-.07,0a.48.48,0,0,0,0,.12s-.06,0-.08,0,0,0-.07,0,0,.11,0,.12-.05,0-.07,0,0-.1,0-.12-.05,0-.07,0-.05,0-.07,0,0,0-.07,0,0-.11,0-.12-.06,0-.07,0-.06,0-.07,0,0,.1,0,.12h-.21s-.06,0-.07,0,0-.1,0-.12-.07,0-.07,0a.48.48,0,0,0,0,.12s-.06,0-.07,0,0,.1,0,.12-.06,0-.08,0,0-.1,0-.12-.05,0-.07,0,0,0-.07,0h-.56s0,0-.07,0-.05,0-.07,0-.07,0-.07,0,0-.12,0-.12h-.07s-.06,0-.08,0a.48.48,0,0,1,0,.12s-.06,0-.07,0h-.7s-.05,0-.07,0h-.29a.16.16,0,0,1-.07,0s-.06,0-.07,0,0-.11,0-.11a.09.09,0,0,0-.07,0s0,.1,0,.11-.06,0-.07,0h-1.48s-.06,0-.08,0a.48.48,0,0,0,0-.12s-.06,0-.07,0H229s-.05,0-.07,0,0,.1,0,.12-.06,0-.07,0h-.21s-.06,0-.07,0,0-.11,0-.12-.06,0-.07,0-.06,0-.07,0,0,.1,0,.12-.06,0-.07,0-.06,0-.08,0,0-.1,0-.12-.06,0-.07,0-.06,0-.07,0a.48.48,0,0,1,0,.12s-.05,0-.07,0H228s0,0-.07,0h-.71a.48.48,0,0,0,0-.12s-.06,0-.07,0a.48.48,0,0,1,0,.12s-.06,0-.07,0h-.42V.26s-.06,0-.07,0,0,.11,0,.12-.06,0-.07,0H225s-.06,0-.07,0,0-.12,0-.12-.06,0-.07,0,0,.1,0,.12-.06,0-.07,0H224s0,0-.07,0-.06,0-.07,0,0-.1,0-.12-.06,0-.07,0-.06,0-.07,0,0,.11,0,.12,0,0-.07,0h-.14a.16.16,0,0,1-.07,0h-.15s0,0-.07,0-.06,0-.07,0,0,.1,0,.12,0,0-.07,0,0-.1,0-.12-.05,0-.07,0-.05,0-.07,0,0,0-.07,0,0-.1,0-.12-.06,0-.07,0-.07,0-.07,0,0,.12,0,.12-.05,0-.07,0h-.07a.16.16,0,0,1-.07,0s-.05,0-.07,0-.07,0-.07,0,0-.12,0-.12h-.08s-.06,0-.07,0,0,.12,0,.12-.05,0-.07,0H222s-.05,0-.07,0h-.49s0,.1,0,.12-.07,0-.08,0h-.07V.38s0-.1,0-.11-.06,0-.07,0-.06,0-.07,0V.38h-.49s-.05,0-.07,0-.05,0-.07,0-.07,0-.07,0,0-.11,0-.11-.06,0-.08,0,0,.1,0,.11-.05,0-.07,0,0,0-.07,0h-.14s-.05,0-.07,0h-.71s-.06,0-.07,0,0-.11,0-.12-.06,0-.07,0a.48.48,0,0,1,0,.12s-.06,0-.07,0-.05,0-.07,0h-.71a.16.16,0,0,0-.07,0h-.14s0,0-.07,0-.06,0-.07,0,0,.1,0,.12-.06,0-.07,0-.06,0-.07,0,0-.11,0-.12-.06,0-.07,0-.05,0-.07,0h-.14s-.06,0-.07,0,0,.1,0,.12-.07,0-.08,0-.06,0-.07,0,0-.11,0-.12-.06,0-.07,0h-.56a.16.16,0,0,0-.07,0s-.07,0-.07,0a.48.48,0,0,1,0-.12s-.06,0-.07,0,0,.1,0,.12-.06,0-.07,0a.22.22,0,0,1-.08,0h-.56V.27s-.06,0-.07,0V.39s-.06,0-.07,0h-.14s-.07,0-.08,0,0-.12,0-.12-.06,0-.07,0,0,.1,0,.12-.06,0-.07,0h-.63s-.07,0-.07,0a.48.48,0,0,1,0-.12h-.07s-.06,0-.07,0a.48.48,0,0,0,0,.12s-.07,0-.08,0h-.07a.48.48,0,0,0,0-.12s-.06,0-.07,0h-.07s-.06,0-.07,0,0,.1,0,.12-.06,0-.07,0h-.07s-.06,0-.07,0,0-.12,0-.12-.05,0-.07,0h-.14V.39h-.07s0-.12,0-.12h-.07s-.07,0-.07,0a.48.48,0,0,0,0,.12h-.29s-.05,0-.07,0-.06,0-.07,0,0-.1,0-.12-.06,0-.07,0h-.07s-.06,0-.07,0V.39h-.92s0,0-.07,0,0-.11,0-.12-.06,0-.07,0h-.07s0,.12,0,.12-.07,0-.07,0h-.07a.16.16,0,0,1-.07,0h-.57V.27s-.06,0-.07,0h-.07a.48.48,0,0,0,0,.12s-.06,0-.07,0-.05,0-.07,0h-.29a.16.16,0,0,1-.07,0s-.06,0-.07,0,0-.1,0-.12-.06,0-.07,0-.06,0-.07,0,0,.11,0,.12-.06,0-.07,0V.27s-.06,0-.07,0h-.14s0,0-.07,0,0,.11,0,.11-.06,0-.07,0h-.07a.16.16,0,0,1-.07,0h-.15s-.06,0-.07,0,0-.11,0-.11a.08.08,0,0,0-.07,0s-.06,0-.07,0V.4h-.21s0,0-.07,0-.07,0-.07,0a.48.48,0,0,1,0-.12s-.06,0-.07,0,0,.1,0,.12h-.07s0-.12,0-.12-.07,0-.07,0-.05,0-.07,0,0,.11,0,.12h-.08a.16.16,0,0,0-.07,0h-.56s-.06,0-.07,0,0-.11,0-.12-.06,0-.07,0-.06,0-.07,0,0,.1,0,.12H207V.28s-.06,0-.07,0-.05,0-.07,0-.06,0-.07,0,0,.1,0,.12h-.43a.48.48,0,0,0,0-.12s-.06,0-.07,0,0-.12,0-.12-.06,0-.07,0,0,.1,0,.12h-.07a.48.48,0,0,1,0,.12H206s0-.11,0-.12-.06,0-.07,0h-.14s-.05,0-.07,0-.06,0-.07,0,0,.1,0,.12h-.36s0-.12,0-.12-.05,0-.07,0,0-.1,0-.12-.06,0-.07,0a.48.48,0,0,1,0,.12s-.06,0-.07,0V.4h-.42s0-.11,0-.12-.06,0-.07,0h-.07s-.07,0-.08,0,0,.12,0,.12h-.14s-.05,0-.07,0,0-.1,0-.12-.06,0-.07,0V.4H204V.28s-.06,0-.07,0h-.07V.4h-.21s0-.1,0-.12-.06,0-.07,0,0,.11,0,.12h-.07a.48.48,0,0,1,0-.12h-.07s-.07,0-.08,0,0,.12,0,.12h-.28V.28s-.06,0-.07,0,0,.1,0,.12h-1.27s-.06,0-.07,0,0-.1,0-.12-.06,0-.07,0,0,.12,0,.12h-1s0-.11,0-.12-.07,0-.07,0h-.07s0-.1,0-.12h-.08V.28a.48.48,0,0,1,0,.12h-.07s0,0-.07,0h-1.76s0-.1,0-.12h-.15s0,.12,0,.12-.05,0-.07,0-.05,0-.07,0,0,.1,0,.11,0,0-.07,0,0-.09,0-.11-.06,0-.07,0h-.21a.57.57,0,0,1,0-.13s-.06,0-.07,0h-.07s-.07,0-.07,0,0,.09,0,.12h-.57s0,.11,0,.12-.06,0-.07,0h-.07V.41h-.57s-.05,0-.07,0,0-.11,0-.12h-.14s0,.1,0,.12-.06,0-.07,0h-.21V.29h-.14s0,.11,0,.12-.06,0-.07,0,0,.1,0,.12-.06,0-.07,0,0-.1,0-.12h-.43s-.06,0-.07,0V.29H195s0,.1,0,.12-.06,0-.07,0h-.14s-.05,0-.07,0,0-.11,0-.12h-.21s0,.1,0,.12-.07,0-.08,0-.06,0-.07,0,0-.12,0-.12h-.21s0,.1,0,.12-.06,0-.07,0h-.21s-.06,0-.07,0,0-.11,0-.12h-.07s0,.11,0,.12-.06,0-.07,0h-.14s-.07,0-.08,0,0-.12,0-.12h-.07s0,.1,0,.12-.06,0-.07,0h-.14s-.05,0-.07,0,0-.11,0-.12h-.28s0,.1,0,.12-.06,0-.07,0,0,0-.07,0h-.36a.48.48,0,0,0,0-.12h-.07s0,.12,0,.12h-.07s-.06,0-.07,0,0-.12,0-.12h-.28s0,.1,0,.12-.06,0-.07,0h-.07s-.06,0-.07,0a.48.48,0,0,1,0-.12h-.15s0,.1,0,.12-.06,0-.07,0-.06,0-.07,0,0-.1,0-.12h-.07a.48.48,0,0,1,0,.12s-.06,0-.07,0h-.78s-.06,0-.07,0,0-.1,0-.12h-.07a.48.48,0,0,1,0,.12s-.06,0-.07,0,0,.1,0,.12-.05,0-.07,0,0-.1,0-.12-.06,0-.07,0h-.14s-.05,0-.07,0,0-.11,0-.12-.06,0-.07,0h-.36s-.05,0-.07,0,0,.11,0,.12-.06,0-.07,0,0,0-.07,0h-.42s-.05,0-.07,0,0-.11,0-.12h-.07a.48.48,0,0,0,0,.12h-.92s-.05,0-.07,0h-.07s-.07,0-.08,0,0-.12,0-.12h-.14s0,.12,0,.12,0,0-.07,0h-.14s0,0-.07,0h-1.48a.22.22,0,0,1-.08,0s0-.11,0-.11h-.07s0,.11,0,.11,0,0-.07,0h-.07a.16.16,0,0,1-.07,0h-.07s-.05,0-.07,0,0-.1,0-.11-.06,0-.07,0H185V.42s-.06,0-.07,0,0,0-.07,0h-.14s0,0-.07,0-.06,0-.08,0,0-.11,0-.12-.06,0-.07,0-.06,0-.07,0,0,.1,0,.12-.06,0-.07,0H184s-.05,0-.07,0h-.07s0,0-.07,0,0,.11,0,.12h-.07a.48.48,0,0,1,0-.12s-.05,0-.07,0-.07,0-.08,0,0,.12,0,.12h-.07s-.06,0-.07,0,0-.12,0-.12h-.14s-.05,0-.07,0a.48.48,0,0,1,0,.12s-.06,0-.07,0h-.07V.42s-.06,0-.07,0h-.07s-.05,0-.07,0H181.8s-.05,0-.07,0-.06,0-.07,0,0,.1,0,.12-.07,0-.07,0,0-.11,0-.12-.07,0-.08,0h-.07s0,0-.07,0h-.92s-.06,0-.07,0,0-.1,0-.12-.06,0-.07,0a.48.48,0,0,1,0,.12s-.06,0-.07,0h-.56s-.06,0-.07,0,0-.11,0-.12h-.08s0,.12,0,.12h-.42s-.06,0-.07,0,0-.1,0-.12-.06,0-.07,0V.42s-.06,0-.07,0h-.5a.48.48,0,0,0,0-.12s-.06,0-.07,0-.06,0-.07,0,0,.11,0,.12-.06,0-.07,0h-.14s-.05,0-.07,0,0-.11,0-.12-.06,0-.07,0h-.07s0,.12,0,.12-.06,0-.07,0,0-.11,0-.12h-.07a.48.48,0,0,0,0,.12s-.06,0-.07,0,0-.1,0-.12-.07,0-.08,0a.48.48,0,0,1,0,.12s-.06,0-.07,0h-.35s0,0-.07,0-.06,0-.07,0,0-.1,0-.12-.06,0-.07,0-.06,0-.07,0,0,.11,0,.12-.06,0-.07,0h-.36a.16.16,0,0,1-.07,0,.48.48,0,0,0,0-.12s-.06,0-.07,0h-.07a.48.48,0,0,1,0,.12s-.06,0-.07,0h-.07s0,0-.07,0h-.21s0,0-.07,0,0-.11,0-.12h-.07a.57.57,0,0,0,0,.13h-.15a.16.16,0,0,0-.07,0h-.85s0-.12,0-.12-.05,0-.07,0a.09.09,0,0,0-.07,0s0,.1,0,.12-.06,0-.07,0H174s-.06,0-.07,0,0-.11,0-.12-.06,0-.07,0a.08.08,0,0,0-.07,0s-.07,0-.07,0,0,.12,0,.12h-.85s-.07,0-.07,0a.48.48,0,0,1,0-.12s-.06,0-.07,0,0,.1,0,.12-.07,0-.08,0h-.14s-.05,0-.07,0a.48.48,0,0,0,0-.12s-.06,0-.07,0h-.07s-.06,0-.07,0,0,.1,0,.12-.06,0-.07,0-.06,0-.07,0,0-.11,0-.12-.06,0-.07,0-.07,0-.07,0,0,.11,0,.12a.16.16,0,0,1-.07,0h-.07s0,0-.07,0h-.64s-.05,0-.07,0-.07,0-.07,0a.48.48,0,0,1,0-.12s-.06,0-.07,0,0,.1,0,.12-.06,0-.07,0-.06,0-.07,0,0-.1,0-.12-.07,0-.07,0-.07,0-.08,0a.48.48,0,0,1,0,.12s-.05,0-.07,0h-.14s-.06,0-.07,0,0-.1,0-.12-.06,0-.07,0-.06,0-.07,0,0,.1,0,.12-.06,0-.07,0H170s-.07,0-.07,0a.48.48,0,0,1,0-.12s-.06,0-.07,0,0,.1,0,.12-.06,0-.07,0h-.29s-.06,0-.07,0,0-.12,0-.12h-.07s0,0-.07,0,0,.11,0,.12-.06,0-.07,0h-.07s0,0-.07,0h-.78V.31s-.06,0-.07,0-.05,0-.07,0a.48.48,0,0,0,0,.12s-.06,0-.07,0,0,.1,0,.12H168s0,0-.07,0,0-.11,0-.12-.06,0-.07,0-.05,0-.07,0h-1s-.05,0-.07,0h-.07s-.07,0-.08,0,0-.12,0-.12-.06,0-.07,0,0,.12,0,.12-.05,0-.07,0h-.14s-.06,0-.07,0,0,.11,0,.12-.06,0-.07,0a.09.09,0,0,1-.07,0s-.06,0-.07,0V.43h-.21s-.06,0-.07,0,0,.11,0,.12-.07,0-.07,0-.07,0-.08,0,0-.1,0-.12,0,0-.07,0h-.21s0-.09,0-.12h-.07s0,.12,0,.12-.06,0-.07,0,0,.12,0,.12-.05,0-.07,0H165V.43s-.06,0-.07,0h-.07s-.05,0-.07,0h-.29s0,.12,0,.12h-.07a.48.48,0,0,0,0-.12h-.21s0,0-.07,0h-.57s0-.1,0-.12h-.07V.56h-.21s0-.11,0-.12-.06,0-.07,0-.05,0-.07,0,0-.11,0-.12-.06,0-.07,0V.44s-.06,0-.07,0-.05,0-.07,0h-.36s0,0-.07,0,0-.11,0-.12-.06,0-.07,0-.06,0-.07,0,0,.1,0,.12,0,0-.07,0,0,.1,0,.12h-.07s0-.1,0-.12h-1.55a.22.22,0,0,1-.08,0s-.05,0-.07,0,0-.1,0-.12-.06,0-.07,0h-.07s-.05,0-.07,0,0,.11,0,.12-.06,0-.07,0h-2.05s-.05,0-.07,0,0-.11,0-.12-.06,0-.07,0H158V.44s-.06,0-.07,0-.05,0-.07,0h-.57V.32s-.06,0-.07,0V.44s-.06,0-.07,0h-.71s-.06,0-.07,0V.56h-.07s0-.11,0-.12-.05,0-.07,0h-.35s-.07,0-.07,0,0-.12,0-.12-.07,0-.07,0,0,.11,0,.12-.06,0-.08,0a.48.48,0,0,0,0-.12h-.07s0,.12,0,.12h-1.06s-.06,0-.07,0,0,.11,0,.12h-.07s-.06,0-.07,0,0-.1,0-.12-.06,0-.07,0V.32s-.06,0-.07,0V.44s-.06,0-.07,0h-.07s-.05,0-.07,0h-.28a.22.22,0,0,1-.08,0h-.84s-.06,0-.08,0,0-.11,0-.13-.06,0-.07,0a.56.56,0,0,1,0,.13h-.07a.16.16,0,0,0-.07,0h-1s0,.1,0,.12h-.07s0-.12,0-.12-.06,0-.07,0,0-.1,0-.12,0,0-.07,0-.06,0-.07,0,0,.09,0,.12h-.07s-.05,0-.07,0-.05,0-.07,0-.07,0-.07,0,0,.12,0,.12h-.36s-.06,0-.07,0,0-.12,0-.12,0,0-.07,0h-.14V.57s-.06,0-.07,0,0,0-.07,0-.06,0-.07,0V.45h-.07s-.05,0-.07,0-.06,0-.07,0,0,.1,0,.12-.06,0-.07,0h-.15s-.05,0-.07,0,0-.11,0-.12-.06,0-.07,0h-.07s0,0-.07,0-.06,0-.07,0,0,.1,0,.12-.06,0-.07,0h-.07s0,0-.07,0-.06,0-.07,0,0-.11,0-.12-.06,0-.07,0h-.36a.48.48,0,0,1,0,.12s-.06,0-.07,0-.06,0-.07,0,0-.1,0-.12-.06,0-.07,0h-.07s0,0-.07,0,0,.11,0,.12h-.07V.45s-.06,0-.07,0,0,.12,0,.12-.06,0-.07,0,0-.1,0-.12-.06,0-.07,0h-.43s0,0-.07,0a.48.48,0,0,1,0,.12h-.07V.45h-.21s-.06,0-.07,0V.57h-.07s-.07,0-.07,0,0-.11,0-.12a.16.16,0,0,0-.07,0s-.07,0-.07,0,0-.1,0-.12h-.15s0,.1,0,.12-.06,0-.07,0h-.42s0,0-.07,0,0,.11,0,.12-.06,0-.07,0-.05,0-.07,0H146s-.06,0-.07,0,0-.1,0-.12-.06,0-.07,0-.07,0-.08,0,0,.12,0,.12-.06,0-.07,0,0-.12,0-.12-.06,0-.07,0,0,.12,0,.12-.06,0-.07,0,0-.12,0-.12-.05,0-.07,0,0,0-.07,0,0-.11,0-.12-.06,0-.07,0-.06,0-.07,0,0,.1,0,.12-.06,0-.07,0,0,.12,0,.12,0,0-.07,0,0,0-.07,0-.06,0-.07,0,0-.09,0-.12h-.14s-.06,0-.08,0,0,.12,0,.12-.06,0-.07,0,0-.12,0-.12h-.28s0-.09,0-.12-.06,0-.07,0h-.07s0,.1,0,.12-.06,0-.07,0-.05,0-.07,0-.07,0-.07,0,0,.1,0,.12H144s-.07,0-.07,0a.48.48,0,0,1,0-.12s-.05,0-.07,0h-.71V.57h-.07s0-.12,0-.12h-.14s-.07,0-.07,0a.48.48,0,0,0,0,.12s-.07,0-.08,0a.48.48,0,0,0,0-.12s0,0-.07,0a.16.16,0,0,1-.07,0h-.35s-.06,0-.07,0a.48.48,0,0,0,0,.12s-.07,0-.07,0,0-.11,0-.12a.16.16,0,0,0-.07,0h-.36s0,.12,0,.12-.06,0-.07,0a.57.57,0,0,0,0-.13s-.06,0-.07,0h-.21s0,0-.07,0h-.07s-.06,0-.07,0a.57.57,0,0,0,0,.13h-.07s-.06,0-.07,0a.56.56,0,0,1,0-.13s-.06,0-.07,0h-.15s-.06,0-.07,0a.56.56,0,0,1,0,.13h-.07s-.06,0-.07,0a.57.57,0,0,0,0-.13h-.21s-.05,0-.07,0h-.07s0,.12,0,.13-.05,0-.07,0h-.07a.56.56,0,0,1,0-.13s-.06,0-.07,0h-.14a.11.11,0,0,0-.08,0s-.06,0-.07,0,0,.12,0,.12h-.07a.16.16,0,0,1-.07,0s0-.11,0-.12-.06,0-.07,0h-.21s-.05,0-.07,0h-.07s-.06,0-.07,0,0,.1,0,.12-.06,0-.07,0,0-.12,0-.12-.07,0-.07,0h-.07a.16.16,0,0,0-.07,0H137s0,.11,0,.12-.07,0-.07,0h-.08a.48.48,0,0,0,0-.12s0,0-.07,0-.05,0-.07,0h-.07s0,0-.07,0h-.28s-.06,0-.07,0V.34s-.06,0-.07,0,0,.1,0,.12-.06,0-.07,0h-1a.48.48,0,0,1,0-.12s-.07,0-.07,0,0,.11,0,.12h-.22s-.05,0-.07,0-.06,0-.07,0,0,.12,0,.12,0,0-.07,0-.05,0-.07,0-.06,0-.07,0V.46h-.07s-.06,0-.07,0,0,.12,0,.12-.05,0-.07,0H134s0-.11,0-.12-.06,0-.07,0-.05,0-.07,0h-.08s0,.12,0,.12-.06,0-.07,0-.06,0-.07,0,0-.12,0-.12-.06,0-.07,0,0,.1,0,.12-.06,0-.07,0-.05,0-.07,0h-.49s0-.11,0-.12-.07,0-.07,0,0,.11,0,.12-.07,0-.08,0h-.14a.16.16,0,0,1-.07,0h-.07s0,0-.07,0,0-.1,0-.12-.06,0-.07,0h-.28s-.07,0-.07,0,0,.12,0,.12a.16.16,0,0,1-.07,0h-.07s-.06,0-.08,0,0-.1,0-.12-.06,0-.07,0-.06,0-.07,0,0,.12,0,.12,0,0-.07,0h-.07a.48.48,0,0,0,0-.12s-.06,0-.07,0,0,.12,0,.12-.06,0-.07,0-.06,0-.07,0,0-.11,0-.12-.05,0-.07,0h-.07V.58s-.06,0-.07,0H131a.16.16,0,0,1-.07,0s-.05,0-.07,0-.07,0-.08,0,0-.12,0-.12h-.42s-.06,0-.07,0,0-.09,0-.11h-.14s-.06,0-.07,0,0,.1,0,.11-.06,0-.07,0,0,.09,0,.12h-.29s0-.12,0-.12-.05,0-.07,0h-.21s-.05,0-.07,0,0,.1,0,.12-.06,0-.07,0h-.07s0,0-.07,0a.48.48,0,0,1,0-.12s-.06,0-.07,0h-.07s0,.11,0,.12-.06,0-.07,0h-.15s-.06,0-.07,0,0-.12,0-.12,0,0-.07,0h-.14s-.06,0-.07,0a.48.48,0,0,1,0,.12h-.07V.47h-.14s0,.11,0,.12h-.07a.48.48,0,0,1,0-.12h-.07s-.06,0-.07,0,0,.1,0,.12-.06,0-.07,0h-.07s-.06,0-.08,0a.48.48,0,0,0,0-.12h-.07s0,.12,0,.12h-.07a.16.16,0,0,1-.07,0s0-.11,0-.12-.06,0-.07,0h-.14s-.06,0-.07,0,0,.1,0,.12-.06,0-.07,0h-.07s0,0-.07,0-.06,0-.07,0a.48.48,0,0,1,0-.12h-.14s-.06,0-.08,0,0,.1,0,.12-.06,0-.07,0h-.07s0,0-.07,0-.06,0-.07,0,0-.12,0-.12h-.07s0,.11,0,.12,0,0-.07,0h-.21s-.06,0-.07,0,0-.11,0-.12H126a.48.48,0,0,0,0,.12.16.16,0,0,1-.07,0h-.22s0,0-.07,0-.06,0-.07,0,0-.12,0-.12h-.07s0,.11,0,.12-.05,0-.07,0-.06,0-.07,0V.47h-.14s0,.11,0,.12-.06,0-.07,0h-.07s-.06,0-.07,0,0-.11,0-.12h-.15a.48.48,0,0,1,0,.12s-.06,0-.07,0a.48.48,0,0,0,0-.12h-.21s-.06,0-.07,0,0,.1,0,.12-.06,0-.07,0h-.07s-.06,0-.07,0,0-.11,0-.12h-.5a.48.48,0,0,1,0,.12s0,0-.07,0h-.14s0,0-.07,0,0-.11,0-.12h-.21s0,.11,0,.12,0,0-.07,0h-.07V.47H123s0,.1,0,.12-.07,0-.07,0,0-.11,0-.12h-.15V.59s-.06,0-.07,0,0-.11,0-.12h-.07s-.06,0-.07,0,0-.1,0-.12,0,0-.07,0,0,.1,0,.12-.05,0-.07,0,0,.11,0,.12-.06,0-.07,0,0-.11,0-.12-.06,0-.07,0h-.14s0,.1,0,.12-.06,0-.07,0H122s-.07,0-.07,0a.48.48,0,0,1,0-.12V.35h-.15a.48.48,0,0,1,0,.12s-.06,0-.07,0h-.07s-.06,0-.07,0,0,.12,0,.12,0,0-.07,0h-.14a.09.09,0,0,1-.07,0s-.07,0-.07,0a.48.48,0,0,1,0-.12H121s0,0-.07,0h-.78s-.07,0-.07,0,0,.12,0,.12-.06,0-.07,0h-.08a.48.48,0,0,0,0-.12h-.14s0,.12,0,.12,0,0-.07,0,0,0-.07,0-.06,0-.07,0V.47h-.07s0,.12,0,.12,0,0-.07,0h-.07s0,0-.07,0-.05,0-.07,0-.06,0-.07,0,0-.12,0-.12-.07,0-.07,0,0,.11,0,.12a.16.16,0,0,1-.07,0s-.05,0-.07,0,0-.12,0-.12-.06,0-.08,0a.08.08,0,0,0-.07,0s-.06,0-.07,0,0,.12,0,.12-.06,0-.07,0,0-.12,0-.12-.05,0-.07,0h-.07s-.05,0-.07,0,0,0-.07,0-.06,0-.07,0V.6H118a.16.16,0,0,0-.07,0h-.08s-.05,0-.07,0,0-.11,0-.12-.06,0-.07,0h-.21s0,0-.07,0-.06,0-.07,0,0,.11,0,.12,0,0-.07,0,0,0-.07,0h-.07s-.06,0-.07,0a.48.48,0,0,1,0-.12s-.06,0-.07,0-.07,0-.07,0a.48.48,0,0,0,0,.12s-.06,0-.08,0h-.21a.16.16,0,0,1-.07,0s0-.11,0-.12-.06,0-.07,0V.6s-.06,0-.07,0,0,0-.07,0h-.07s-.07,0-.07,0a.48.48,0,0,1,0-.12s-.07,0-.07,0,0,.12,0,.12H116s-.07,0-.08,0,0-.12,0-.12-.06,0-.07,0a.48.48,0,0,1,0,.12s0,0-.07,0h-.14s0,0-.07,0-.06,0-.07,0V.48s-.06,0-.07,0,0,.11,0,.12-.05,0-.07,0h-.14s-.06,0-.07,0a.48.48,0,0,1,0-.12s-.07,0-.07,0H115s0,.11,0,.12-.06,0-.08,0-.05,0-.07,0h-.07s-.06,0-.07,0,0-.12,0-.12-.06,0-.07,0V.6h-.35s0,0-.07,0-.06,0-.07,0,0-.11,0-.12-.06,0-.07,0-.07,0-.07,0a.48.48,0,0,0,0,.12s-.06,0-.08,0h-.14a.16.16,0,0,1-.07,0s0-.11,0-.12-.06,0-.07,0-.06,0-.07,0,0,.11,0,.12,0,0-.07,0h-.07s-.07,0-.07,0,0-.12,0-.12-.06,0-.07,0,0,.1,0,.12-.06,0-.07,0-.07,0-.07,0a.48.48,0,0,1,0-.12s-.07,0-.07,0a.48.48,0,0,0,0,.12h-.5s0,0-.07,0a.48.48,0,0,0,0-.12s-.06,0-.07,0-.05,0-.07,0h-.07V.6s-.06,0-.07,0-.07,0-.07,0,0-.12,0-.12h-.07s-.06,0-.07,0a.48.48,0,0,0,0,.12s-.07,0-.08,0h-.07s0,0-.07,0-.06,0-.07,0,0-.12,0-.12-.06,0-.07,0,0,.11,0,.12-.05,0-.07,0h-.21s-.06,0-.07,0,0-.11,0-.12-.06,0-.07,0,0,.12,0,.12-.06,0-.07,0,0,0-.07,0h-.29a.16.16,0,0,1-.07,0h-.07s0,0-.07,0,0-.11,0-.12h-.07V.6h-.21s0,0-.07,0h-.07s-.06,0-.07,0,0-.11,0-.12-.06,0-.07,0-.07,0-.07,0a.48.48,0,0,0,0,.12.11.11,0,0,1-.08,0V.48s-.06,0-.07,0,0,.12,0,.12,0,0-.07,0h-.63s0,0-.07,0,0-.11,0-.12-.06,0-.08,0h-.21s0,0-.07,0,0,.11,0,.13h-.21s-.06,0-.07,0,0-.11,0-.13-.06,0-.07,0-.07,0-.07,0,0,.12,0,.13a.16.16,0,0,1-.07,0h-.36s0,0-.07,0h-.07s-.06,0-.07,0,0-.11,0-.13-.06,0-.07,0V.36h-.07a.57.57,0,0,0,0,.13s-.06,0-.07,0,0,.1,0,.12-.06,0-.07,0h-.07s0,0-.07,0V.49s-.07,0-.07,0,0,.11,0,.12-.06,0-.07,0,0,.11,0,.12-.07,0-.07,0,0-.12,0-.12-.07,0-.08,0a.16.16,0,0,0-.07,0h-.21s0,0-.07,0h-.07s0,0-.07,0-.06,0-.07,0V.73s-.07,0-.07,0,0-.12,0-.12-.06,0-.07,0h-.07a.16.16,0,0,0-.07,0h-.29s0-.1,0-.12-.06,0-.07,0a.48.48,0,0,1,0,.12s-.06,0-.07,0,0,0-.07,0,0,0-.07,0,0,.1,0,.12-.06,0-.07,0,0-.1,0-.12-.06,0-.07,0,0,0-.07,0h-.07s0,0-.07,0h-.07s-.06,0-.07,0,0-.11,0-.12-.07,0-.08,0a.48.48,0,0,1,0,.12s-.05,0-.07,0,0,0-.07,0h-.49s-.06,0-.07,0a.48.48,0,0,1,0-.12s-.06,0-.07,0,0,.11,0,.12-.06,0-.07,0a.16.16,0,0,1-.07,0h-.92s-.06,0-.07,0a.48.48,0,0,1,0-.12s-.07,0-.08,0a.48.48,0,0,1,0,.12s0,0-.07,0,0,0-.07,0h-1.2s0,0-.07,0,0-.11,0-.12-.06,0-.07,0h-.07V.61s-.06,0-.07,0,0,0-.07,0-.07,0-.07,0,0-.12,0-.12h-.07s-.05,0-.07,0-.06,0-.08,0,0,.1,0,.12-.06,0-.07,0H100s-.06,0-.07,0,0-.12,0-.12-.06,0-.07,0,0,.11,0,.12-.06,0-.07,0h-.35s0,0-.07,0,0-.11,0-.12h-.07a.48.48,0,0,0,0,.12h-.21s-.07,0-.08,0,0-.12,0-.12-.06,0-.07,0,0,.12,0,.12,0,0-.07,0h-.77s-.07,0-.08,0a.48.48,0,0,0,0-.12s0,0-.07,0-.06,0-.07,0,0,.12,0,.12h-.07s-.05,0-.07,0-.06,0-.07,0,0-.1,0-.12-.06,0-.07,0V.61s-.06,0-.07,0-.06,0-.07,0V.49h-.07s-.05,0-.07,0a.48.48,0,0,0,0,.12s-.06,0-.07,0h-.07a.16.16,0,0,1-.07,0H96.8s0,0-.07,0h-.07s-.06,0-.07,0,0,.11,0,.13-.06,0-.07,0h-.14s0-.11,0-.13-.06,0-.07,0,0-.09,0-.12-.06,0-.07,0H96.1a.22.22,0,0,1-.08,0s-.06,0-.07,0a.56.56,0,0,1,0,.13s-.06,0-.07,0a.48.48,0,0,1,0,.12h-.07s0-.1,0-.12h-.49s0,0-.07,0H95a.16.16,0,0,0-.07,0,.48.48,0,0,1,0,.12s0,0-.07,0,0,0-.07,0h-.21s0,0-.07,0,0-.11,0-.12-.06,0-.07,0-.07,0-.07,0,0,.11,0,.12a.16.16,0,0,1-.07,0h-.14a.16.16,0,0,0-.07,0s-.06,0-.07,0a.48.48,0,0,1,0-.12s-.06,0-.08,0,0,0-.07,0h-.07s0,0-.07,0-.06,0-.07,0,0-.1,0-.12h-.14s-.06,0-.07,0,0,.11,0,.12,0,0-.07,0-.06,0-.07,0,0,.11,0,.12-.06,0-.07,0,0,0-.07,0h-.15s-.06,0-.07,0,0-.12,0-.12,0,0-.07,0-.06,0-.07,0V.74H92.7a.16.16,0,0,1-.07,0s0-.11,0-.12-.06,0-.07,0,0-.1,0-.12h-.35s0,.1,0,.12-.06,0-.07,0-.06,0-.08,0-.06,0-.07,0,0,.12,0,.12h-.07s-.06,0-.07,0,0-.12,0-.12,0,0-.07,0h-.14s-.06,0-.07,0,0,.1,0,.12-.06,0-.07,0-.06,0-.07,0,0-.1,0-.12-.06,0-.07,0-.06,0-.07,0,0,.1,0,.12-.06,0-.07,0-.06,0-.07,0,0-.1,0-.12-.07,0-.07,0H89.59s0,0-.07,0-.06,0-.07,0a.48.48,0,0,0,0,.12s-.06,0-.07,0,0-.1,0-.12-.06,0-.07,0,0,0-.07,0h-.07s0,0-.07,0H89s0,0-.07,0,0,0-.07,0,0-.1,0-.12-.06,0-.07,0V.62s-.06,0-.07,0H88.6s0,0-.07,0h-.14s-.06,0-.07,0,0,.11,0,.12-.06,0-.07,0,0-.11,0-.12-.07,0-.07,0h-.5s-.05,0-.07,0h-.07s-.05,0-.07,0-.06,0-.07,0,0,.11,0,.12-.06,0-.07,0,0-.11,0-.12-.06,0-.07,0h-.07s-.06,0-.07,0,0,.11,0,.12-.07,0-.08,0a.48.48,0,0,0,0-.12s-.06,0-.07,0a.16.16,0,0,1-.07,0h-.21s0-.1,0-.12-.06,0-.07,0-.05,0-.07,0h-.07s0,.12,0,.12-.06,0-.07,0,0,0-.07,0-.07,0-.07,0,0,.1,0,.12-.06,0-.07,0,0-.1,0-.12-.06,0-.07,0,0-.1,0-.12-.06,0-.08,0,0,.12,0,.12,0,0-.07,0,0,0-.07,0H85.7s0,0-.07,0-.06,0-.07,0,0-.1,0-.12-.06,0-.07,0V.62s-.06,0-.07,0h-.07s0,0-.07,0-.07,0-.07,0,0,.1,0,.12-.06,0-.07,0,0-.1,0-.12-.06,0-.08,0,0,0-.07,0h-.14s-.06,0-.07,0,0-.11,0-.12-.06,0-.07,0,0,0-.07,0,0,0-.07,0,0,.1,0,.12-.06,0-.07,0,0,0-.07,0h-.5s-.06,0-.07,0,0-.12,0-.12-.06,0-.07,0,0,.1,0,.12-.06,0-.07,0,0,.09,0,.12h-.07s-.05,0-.07,0,0-.11,0-.12-.06,0-.07,0-.06,0-.07,0a.48.48,0,0,1,0-.12s-.07,0-.07,0,0,.09,0,.12-.05,0-.07,0-.07,0-.07,0,0,.12,0,.12h-.07s-.07,0-.08,0,0-.12,0-.12H80a.16.16,0,0,0-.07,0,.48.48,0,0,1,0,.12s-.06,0-.07,0a.48.48,0,0,0,0-.12s-.06,0-.07,0-.06,0-.07,0,0,.1,0,.12-.06,0-.07,0-.06,0-.07,0,0-.1,0-.12-.06,0-.07,0h-.14s0,0-.07,0,0,.11,0,.12-.06,0-.07,0-.07,0-.08,0,0-.12,0-.12H79s0,0-.07,0a.48.48,0,0,1,0,.12s-.06,0-.07,0,0,0-.07,0H78.7V.63s-.06,0-.07,0,0,0-.07,0h-.28s0,.11,0,.12-.07,0-.07,0,0,0-.07,0,0-.11,0-.12-.06,0-.08,0,0,0-.07,0h-.07s-.06,0-.07,0,0,.11,0,.12-.06,0-.07,0,0,0-.07,0,0,0-.07,0-.06,0-.07,0V.63h-.5a.48.48,0,0,1,0,.12s-.06,0-.07,0h-.07s-.05,0-.07,0h-.42s0,0-.07,0,0-.11,0-.12-.06,0-.07,0-.07,0-.07,0a.48.48,0,0,0,0,.12s-.07,0-.07,0a.48.48,0,0,1,0-.12s-.06,0-.08,0h-.14a.16.16,0,0,0-.07,0s0,.11,0,.12-.06,0-.07,0-.06,0-.07,0,0-.11,0-.12,0,0-.07,0h-.07V.75s-.06,0-.07,0-.07,0-.07,0,0-.12,0-.12h-.07s-.06,0-.07,0a.48.48,0,0,0,0,.12s-.06,0-.07,0-.07,0-.07,0a.48.48,0,0,1,0-.12s-.06,0-.08,0-.06,0-.07,0,0,.12,0,.12H75s0,0-.07,0,0-.1,0-.12-.06,0-.07,0-.06,0-.07,0,0,.12,0,.12,0,0-.07,0H74.6s-.06,0-.07,0,0-.12,0-.13,0,0-.07,0,0,0-.07,0h-.14s-.06,0-.07,0,0,.11,0,.13-.07,0-.08,0-.06,0-.07,0a.56.56,0,0,0,0-.13s0,0-.07,0h-.14s0,0-.07,0,0,.11,0,.13-.06,0-.07,0-.06,0-.07,0a.57.57,0,0,1,0-.13h-.07V.76H72.41s-.07,0-.07,0a.48.48,0,0,1,0-.12s-.07,0-.07,0,0,.1,0,.12-.07,0-.07,0a.22.22,0,0,0-.08,0s-.06,0-.07,0,0-.12,0-.12a.09.09,0,0,0-.07,0s-.06,0-.07,0,0,.12,0,.12h-.14s-.06,0-.07,0,0-.11,0-.12-.06,0-.07,0-.06,0-.07,0,0,.1,0,.12-.06,0-.07,0,0,0-.07,0h-.21s-.06,0-.08,0a.48.48,0,0,0,0-.12h-.07s0,.12,0,.12h-.14s0,0-.07,0-.06,0-.07,0,0-.11,0-.12-.06,0-.07,0,0-.1,0-.12-.07,0-.07,0V.64a.48.48,0,0,1,0,.12s-.06,0-.07,0,0,0-.07,0h-.14s-.07,0-.07,0a.48.48,0,0,1,0-.12h-.07s-.06,0-.08,0a.48.48,0,0,1,0,.12s-.06,0-.07,0a.16.16,0,0,0-.07,0s0-.12,0-.12-.06,0-.07,0a.48.48,0,0,1,0,.12s-.06,0-.07,0h-.07V.64s-.06,0-.07,0V.76h-.07V.64s-.05,0-.07,0h-.35a.22.22,0,0,0-.08,0s-.05,0-.07,0,0,.1,0,.12-.06,0-.07,0h-.07s-.06,0-.07,0,0-.12,0-.12-.05,0-.07,0h-.92s0,0-.07,0,0,.11,0,.12h-.07V.64h-.28s-.07,0-.07,0a.48.48,0,0,0,0,.12H67.1a.16.16,0,0,1-.07,0,.48.48,0,0,0,0-.12s0,0-.07,0,0,0-.07,0H66.4s-.06,0-.07,0,0,.1,0,.12-.06,0-.07,0-.06,0-.08,0,0-.1,0-.12-.06,0-.07,0H66s-.05,0-.07,0a.48.48,0,0,1,0,.12H65.9V.64s-.05,0-.07,0,0,0-.07,0,0,.11,0,.12-.06,0-.07,0h-.14s0,0-.07,0,0-.11,0-.12-.06,0-.07,0,0,0-.07,0-.07,0-.07,0a.48.48,0,0,0,0,.12s-.07,0-.07,0,0-.1,0-.12-.07,0-.08,0-.06,0-.07,0,0,.12,0,.12a.09.09,0,0,1-.07,0s0-.1,0-.12-.06,0-.07,0,0,0-.07,0,0,0-.07,0,0,.11,0,.12-.06,0-.07,0h-.07V.64s-.06,0-.07,0,0,0-.07,0-.07,0-.07,0a.48.48,0,0,0,0,.12s-.06,0-.07,0,0-.1,0-.12-.06,0-.07,0-.06,0-.08,0,0,.11,0,.12-.06,0-.07,0h-.07a.56.56,0,0,0,0-.13H64s0,.11,0,.13-.06,0-.07,0h-.35s-.07,0-.07,0,0-.12,0-.13a.16.16,0,0,0-.07,0s-.07,0-.07,0a.56.56,0,0,0,0,.13.16.16,0,0,0-.07,0h-.15s0,0-.07,0,0-.11,0-.13-.06,0-.07,0h-.07s0,0-.07,0,0,.11,0,.13-.06,0-.07,0,0,0-.07,0V.64s-.06,0-.07,0-.06,0-.07,0,0,.11,0,.13-.06,0-.07,0h-.36s0-.12,0-.12-.06,0-.07,0H62s0,0-.07,0h-.07s0,0-.07,0,0,0-.07,0-.06,0-.07,0V.77s-.07,0-.07,0,0-.12,0-.12-.05,0-.07,0-.05,0-.07,0,0,.11,0,.12-.07,0-.07,0-.05,0-.07,0h-.57s-.06,0-.07,0,0-.12,0-.12-.05,0-.07,0h-.14s-.05,0-.07,0-.07,0-.07,0a.48.48,0,0,0,0,.12h-.07s-.06,0-.08,0-.06,0-.07,0,0-.12,0-.12-.06,0-.07,0,0,.12,0,.12-.06,0-.07,0,0-.12,0-.12,0,0-.07,0h-.21V.77s-.06,0-.07,0,0-.11,0-.12-.06,0-.07,0,0,0-.07,0h-.21s0,.11,0,.12-.06,0-.08,0,0,0-.07,0H59s0,0-.07,0-.06,0-.07,0V.65s-.06,0-.07,0,0,.11,0,.12,0,0-.07,0,0,0-.07,0H58s0,0-.07,0-.06,0-.07,0V.65s-.06,0-.07,0,0,.11,0,.12-.05,0-.07,0h-.07s-.05,0-.07,0h-.21s0-.11,0-.12-.07,0-.07,0,0,.11,0,.12-.06,0-.08,0h-.84s-.07,0-.07,0a.48.48,0,0,1,0-.12s-.07,0-.08,0,0,.12,0,.12h-.28s-.06,0-.07,0,0-.12,0-.12-.07,0-.07,0V.77H55.3a.22.22,0,0,1-.08,0s-.06,0-.07,0,0-.12,0-.12-.06,0-.07,0,0,.12,0,.12h-.21s0,0-.07,0h-.07s-.06,0-.07,0,0-.11,0-.12-.06,0-.07,0h-.07s-.06,0-.07,0a.48.48,0,0,0,0,.12s-.06,0-.07,0a.16.16,0,0,1-.07,0h-.22s-.06,0-.07,0a.48.48,0,0,0,0-.12s-.06,0-.07,0,0,.12,0,.12-.05,0-.07,0-.05,0-.07,0,0,.11,0,.12-.06,0-.07,0,0-.09,0-.12-.06,0-.07,0-.05,0-.07,0h-.21s0,0-.07,0,0-.11,0-.12-.07,0-.08,0-.06,0-.07,0V.77s-.06,0-.07,0a.48.48,0,0,0,0-.12s-.05,0-.07,0H53s-.06,0-.07,0,0,.11,0,.12-.06,0-.07,0,0,0-.07,0h-.14s0,0-.07,0h-.29s0,0-.07,0h-.07s-.06,0-.07,0,0-.12,0-.12,0,0-.07,0H51.9s0,0-.07,0V.78h-.07a.48.48,0,0,1,0-.12s-.06,0-.07,0-.06,0-.07,0,0,.11,0,.12a.16.16,0,0,1-.07,0h-.14s-.06,0-.07,0a.48.48,0,0,1,0-.12s-.07,0-.08,0a.48.48,0,0,1,0,.12s0,0-.07,0h-.14s0-.12,0-.12-.06,0-.07,0-.06,0-.07,0V.78H50s0-.12,0-.12-.06,0-.07,0h-.07s-.05,0-.07,0h-.21s0,0-.07,0,0,0-.07,0-.07,0-.07,0,0,.12,0,.12-.07,0-.07,0,0-.11,0-.12-.07,0-.08,0a.48.48,0,0,1,0,.12s-.06,0-.07,0h-.28s-.06,0-.07,0,0-.11,0-.12-.06,0-.07,0-.06,0-.07,0,0,.1,0,.12-.06,0-.07,0,0,0-.07,0h-.92s-.06,0-.07,0,0-.11,0-.12-.06,0-.07,0,0,.11,0,.12-.07,0-.07,0H47.3s-.06,0-.07,0,0-.11,0-.12-.06,0-.07,0a.48.48,0,0,1,0,.12s-.06,0-.07,0h-.85a.48.48,0,0,0,0-.12s-.06,0-.07,0H46.1s-.06,0-.07,0,0,.1,0,.12-.06,0-.07,0h-.42s-.06,0-.07,0,0-.1,0-.12-.06,0-.07,0-.06,0-.07,0,0,.1,0,.12-.07,0-.08,0h-.49s-.06,0-.07,0,0-.12,0-.12-.06,0-.07,0,0,.11,0,.12-.06,0-.07,0h-.14s0,0-.07,0,0-.11,0-.12h-.08s0,.12,0,.12h-.21s-.06,0-.07,0,0-.12,0-.12h-.07s-.06,0-.07,0,0,.12,0,.12-.05,0-.07,0-.06,0-.07,0V.66s-.06,0-.07,0,0,.11,0,.12-.06,0-.07,0-.06,0-.07,0,0-.1,0-.12-.07,0-.07,0h-.07s-.07,0-.08,0,0,.12,0,.12-.05,0-.07,0h-.14s-.06,0-.07,0,0-.1,0-.12-.06,0-.07,0h-.28s-.07,0-.07,0a.48.48,0,0,0,0,.12s-.06,0-.07,0,0-.1,0-.12-.06,0-.07,0,0,.12,0,.12-.07,0-.07,0h-.08s0,0-.07,0h-.56V.66s-.06,0-.07,0-.06,0-.07,0,0,.11,0,.12-.06,0-.07,0a.16.16,0,0,1-.07,0H41s0,0-.07,0h-.07s0,0-.07,0-.06,0-.07,0,0-.1,0-.12-.06,0-.07,0V.78s-.06,0-.07,0h-.21a.22.22,0,0,0-.08,0,.57.57,0,0,0,0-.13h-.14s-.06,0-.07,0,0,.11,0,.13-.06,0-.07,0-.05,0-.07,0h-.07s-.05,0-.07,0-.06,0-.07,0,0-.1,0-.11-.06,0-.07,0a.09.09,0,0,0-.07,0s-.07,0-.07,0,0,.11,0,.11h-.22s-.05,0-.07,0,0-.11,0-.12-.05,0-.07,0,0-.11,0-.12H39.1s0,.09,0,.12H39s-.05,0-.07,0-.06,0-.07,0a.48.48,0,0,1,0,.12h-.21s0,0-.07,0V.67s-.07,0-.07,0,0,.11,0,.12-.06,0-.07,0H37.9s-.06,0-.07,0,0-.12,0-.12-.07,0-.07,0V.79s-.07,0-.07,0,0-.12,0-.12a.16.16,0,0,0-.07,0s0,0-.07,0,0,.11,0,.12-.06,0-.07,0,0,0-.07,0h-.64V.67s-.06,0-.07,0-.05,0-.07,0-.05,0-.07,0-.07,0-.07,0,0,.11,0,.12a.16.16,0,0,1-.07,0h-.15s-.05,0-.07,0-.06,0-.07,0,0-.12,0-.12-.05,0-.07,0h-.21s-.06,0-.07,0,0,.11,0,.12-.05,0-.07,0-.05,0-.07,0h-1.7V.91s-.06,0-.07,0,0-.11,0-.12-.06,0-.07,0H32.38a.48.48,0,0,0,0-.12s-.06,0-.07,0a.48.48,0,0,1,0,.12s-.06,0-.07,0a.48.48,0,0,0,0-.12s-.06,0-.07,0a.48.48,0,0,1,0,.12s-.06,0-.07,0S32,.8,32,.79s0-.12,0-.12-.06,0-.07,0V.79s-.06,0-.07,0,0-.11,0-.12-.05,0-.07,0-.05,0-.07,0a.48.48,0,0,0,0,.12s-.06,0-.07,0,0,.1,0,.12-.06,0-.07,0,0-.09,0-.12-.07,0-.07,0-.05,0-.07,0h-.15a.16.16,0,0,1-.07,0s-.05,0-.07,0,0-.1,0-.12-.06,0-.07,0,0,.12,0,.12-.06,0-.07,0S31,.8,31,.79V.67H30.9s-.06,0-.07,0a.48.48,0,0,0,0,.12s-.07,0-.07,0,0-.11,0-.12a.16.16,0,0,0-.07,0h-.07s0,.12,0,.12-.07,0-.07,0h-.07a.16.16,0,0,1-.07,0h-.64a.16.16,0,0,1-.07,0h-.14s-.07,0-.07,0a.48.48,0,0,0,0,.12s-.07,0-.07,0,0-.12,0-.12h-.15a.16.16,0,0,1-.07,0h-.07s-.05,0-.07,0,0-.1,0-.12-.06,0-.07,0V.79s-.06,0-.07,0-.05,0-.07,0V.67s-.06,0-.07,0h-.14a.16.16,0,0,1-.07,0h-.14s0,.1,0,.12-.07,0-.08,0a.16.16,0,0,0-.07,0h-.14s-.05,0-.07,0S28,.78,28,.8s0,.11,0,.11-.05,0-.07,0h-.07s-.06,0-.07,0,0-.1,0-.11-.06,0-.07,0,0,0-.07,0h-.21a.22.22,0,0,0-.08,0h-1a.48.48,0,0,1,0,.12s-.06,0-.07,0a.48.48,0,0,0,0-.12s-.05,0-.07,0-.06,0-.07,0,0-.12,0-.12a.09.09,0,0,0-.07,0s0,.09,0,.12h-.21s-.05,0-.07,0h-.07s0,0-.07,0-.06,0-.07,0,0,.1,0,.12-.06,0-.07,0-.07,0-.07,0,0-.1,0-.12-.06,0-.08,0,0-.12,0-.12-.06,0-.07,0,0,.1,0,.12,0,0-.07,0,0,.1,0,.12-.06,0-.07,0,0-.12,0-.12-.06,0-.07,0-.05,0-.07,0H25V.92s-.06,0-.07,0V.8s-.06,0-.07,0h-.35a.22.22,0,0,0-.08,0h-.07s-.05,0-.07,0-.05,0-.07,0,0,.1,0,.12-.06,0-.07,0a.48.48,0,0,0,0-.12s-.06,0-.07,0a.48.48,0,0,1,0,.12s-.06,0-.07,0V.8s-.06,0-.07,0,0,0-.07,0h-.21s-.06,0-.07,0a.48.48,0,0,0,0,.12s-.06,0-.07,0,0-.11,0-.12-.06,0-.08,0-.06,0-.07,0,0,.1,0,.12-.06,0-.07,0h-.07s-.05,0-.07,0-.06,0-.07,0,0-.12,0-.12S23,.8,23,.8h-.35s-.06,0-.07,0,0,.11,0,.12-.07,0-.07,0h-.08s-.06,0-.07,0a.48.48,0,0,0,0-.12s-.05,0-.07,0-.06,0-.07,0,0-.1,0-.12h-.14V.8S22,.8,22,.8s0,0-.07,0-.05,0-.07,0h-.43s0,0-.07,0a.16.16,0,0,0-.07,0s0,.11,0,.12-.06,0-.07,0-.06,0-.07,0,0-.1,0-.12-.06,0-.07,0S21,.79,21,.8s0,.12,0,.12-.07,0-.07,0V.8h-.07s-.06,0-.07,0a.48.48,0,0,0,0,.12s-.05,0-.07,0,0,0-.07,0-.07,0-.07,0,0-.12,0-.12h-.07s-.07,0-.08,0,0,.12,0,.12,0,0-.07,0-.05,0-.07,0-.06,0-.07,0V.8H20s-.06,0-.07,0,0,.12,0,.12-.05,0-.07,0H19.8s-.06,0-.07,0,0-.1,0-.12-.06,0-.07,0-.07,0-.07,0,0,.12,0,.12a.16.16,0,0,1-.07,0,.22.22,0,0,1-.08,0s-.05,0-.07,0,0-.1,0-.12-.05,0-.07,0-.05,0-.07,0-.05,0-.07,0,0-.1,0-.12-.06,0-.07,0a.48.48,0,0,1,0,.12h-.21s-.05,0-.07,0,0,0-.07,0-.06,0-.07,0a.48.48,0,0,0,0,.12.09.09,0,0,1-.07,0s0-.1,0-.12-.06,0-.07,0,0,.12,0,.12-.06,0-.08,0,0,0-.07,0h-.14s0,0-.07,0,0-.1,0-.12-.06,0-.07,0H18s-.05,0-.07,0h-.28a.16.16,0,0,0-.07,0h-.22a.16.16,0,0,0-.07,0,.48.48,0,0,1,0,.12h-.14s-.06,0-.07,0,0-.11,0-.12-.06,0-.07,0H16.9s0,0-.07,0h-.07a.48.48,0,0,1,0-.12s-.07,0-.07,0,0,.11,0,.12H16s-.05,0-.07,0-.05,0-.07,0-.07,0-.07,0,0,.12,0,.12h-.14a.48.48,0,0,1,0-.12s-.07,0-.07,0h-.08s0,0-.07,0H14.14s-.06,0-.07,0V.93h-.14s0-.11,0-.12-.06,0-.07,0h-.07s-.07,0-.07,0,0,.11,0,.12h-.29s0-.1,0-.12,0,0-.07,0,0,0-.07,0h-.35s-.06,0-.07,0a.48.48,0,0,0,0,.12H12.8s0-.11,0-.12a.16.16,0,0,0-.07,0h-.36s-.06,0-.07,0,0,.12,0,.12h-.21s0-.11,0-.12-.06,0-.07,0H12V.93s-.06,0-.07,0h-.64a.48.48,0,0,0,0-.12s-.05,0-.07,0H11S11,.8,11,.81s0,.1,0,.12-.06,0-.07,0h-.35s0-.11,0-.12-.07,0-.08,0h-.07s0,.12,0,.12h-.07a.48.48,0,0,0,0-.12s-.06,0-.07,0h-.07s0,.12,0,.12h-.07V.81s-.06,0-.07,0H9.83s-.05,0-.07,0a.48.48,0,0,0,0,.12H9.62s0-.11,0-.12-.06,0-.07,0-.06,0-.08,0-.06,0-.07,0,0,.12,0,.12H9.26a.48.48,0,0,0,0-.12s0,0-.07,0H9.05V.93S9,.93,9,.93H8.84s0-.12,0-.12H8.7s0,0-.07,0a.48.48,0,0,0,0,.12H8.48a.48.48,0,0,0,0-.12s-.05,0-.07,0H8.34s-.06,0-.07,0,0,.12,0,.12H7.92s-.07,0-.07,0,0-.11,0-.12a.16.16,0,0,0-.07,0s-.07,0-.07,0a.48.48,0,0,0,0,.12H7.64s-.07,0-.07,0a.48.48,0,0,1,0-.12H7.35s-.06,0-.07,0,0,.12,0,.12,0,0-.07,0H7.07V.81S7,.82,7,.82s-.06,0-.07,0,0,.1,0,.11-.06,0-.07,0H6.72s-.06,0-.07,0,0-.1,0-.11-.06,0-.07,0,0,.11,0,.11-.07,0-.08,0H5.87V.82H5.8s0,.11,0,.12-.06,0-.07,0H5.09S5,1,5,.94,5,.83,5,.82H5V.94s-.06,0-.07,0,0,0-.07,0H4.67s0-.12,0-.12H4.6s0,.12,0,.12H4.52s-.06,0-.07,0,0-.12,0-.12H4.38a.48.48,0,0,1,0,.12s0,0-.07,0H4.17s-.06,0-.07,0,0-.11,0-.12H4V.94S4,.94,4,.94H3.11s0,0-.07,0S3,.83,3,.82H3V.94h-.5s-.05,0-.07,0,0,0-.07,0,0-.1,0-.12H2.19s0,.11,0,.12,0,0-.07,0-.06,0-.07,0V.82H1.91s0,.11,0,.12-.06,0-.07,0H1.13s-.06,0-.07,0V.82H1S1,.93,1,.94.94.94.92.94H.78s0-.11,0-.12H.71s0,.11,0,.12S.64.94.64.94H.56S.5,1,.49.94s0-.1,0-.12H.42a.48.48,0,0,1,0,.12S.36.94.35.94H0V2H.42s0-.11,0-.12.07,0,.07,0,.06,0,.08,0,0,.1,0,.12H.92s0-.1,0-.12S1,1.9,1,1.9s.06,0,.07,0,0,.11,0,.12h.21s.07,0,.07,0a.48.48,0,0,1,0,.12h.14a.48.48,0,0,0,0-.12h.08s.06,0,.07,0,0,.12,0,.12H1.7A.48.48,0,0,1,1.7,2s.05,0,.07,0H2V1.9s.06,0,.07,0S2,2,2.05,2H2.4s0-.11,0-.12.06,0,.07,0,0,0,.08,0h.07s.06,0,.07,0,0,.1,0,.12h.14s0-.12,0-.12.06,0,.07,0V2h.71a.48.48,0,0,1,0-.12s.06,0,.07,0,.06,0,.07,0a.48.48,0,0,0,0,.12h.42s.06,0,.07,0,0-.12,0-.12a.16.16,0,0,1,.07,0h.07s0,.1,0,.12h.07s0-.12,0-.12h.08a.48.48,0,0,0,0,.12s.06,0,.07,0a.48.48,0,0,0,0,.12s.05,0,.07,0,.06,0,.07,0,0,.09,0,.12H5s0-.1,0-.12.06,0,.07,0,.06,0,.07,0,0-.11,0-.12.06,0,.07,0,0,0,.07,0h.29s0-.11,0-.12.06,0,.07,0,.06,0,.07,0a.48.48,0,0,0,0,.12H5.8s0,0,.07,0h.07S6,2,6,2s0,.1,0,.11h.07s0-.09,0-.11h.57s0,0,.07,0,0,0,.07,0,0-.1,0-.12.06,0,.07,0V2s.06,0,.07,0h.21s.05,0,.07,0h.14s.05,0,.07,0h.07s.06,0,.08,0a.4.4,0,0,0,0,.11s.06,0,.07,0a.48.48,0,0,1,0-.12h.07s0,0,.07,0h.14S8,2,8,2h.92S9,2,9,2h.14s0,.11,0,.12.06,0,.07,0,0,.1,0,.12h.07s0-.11,0-.12.06,0,.07,0,0-.11,0-.12h.15a.16.16,0,0,0,.07,0s0,0,.07,0,0-.1,0-.12.06,0,.07,0,0,.12,0,.12.06,0,.07,0,.05,0,.07,0,.05,0,.07,0H10S10,2,10,2V1.89s.07,0,.07,0,0,.12,0,.12.05,0,.07,0h.07s.06,0,.07,0,0-.1,0-.12.06,0,.07,0,0,.12,0,.12.06,0,.07,0,0,0,.08,0h.56s.06,0,.07,0,0-.1,0-.12.06,0,.07,0V2s.06,0,.07,0,.07,0,.07,0a.48.48,0,0,0,0-.12h.07s.07,0,.08,0,0,.12,0,.12.05,0,.07,0h1.48s.05,0,.07,0,.06,0,.07,0a.48.48,0,0,0,0-.12h.07s.07,0,.07,0a.48.48,0,0,1,0,.12s.05,0,.07,0h.5S14,2,14,2s0-.11,0-.12.06,0,.07,0h.07s.07,0,.07,0a.48.48,0,0,1,0,.12s0,0,.07,0h.78s.06,0,.07,0a.48.48,0,0,0,0-.12s0,0,.07,0,.05,0,.07,0,.07,0,.07,0,0,.12,0,.12h.5s0,.09,0,.12h.07s0-.12,0-.12S16,2,16,2s0-.12,0-.12.05,0,.07,0h.07V2s.06,0,.07,0H17S17,2,17,2s0-.11,0-.12.06,0,.07,0a.16.16,0,0,1,.07,0h.14s.05,0,.07,0,.07,0,.08,0a.48.48,0,0,0,0,.12s.05,0,.07,0h.07s0,.11,0,.12h.07a.48.48,0,0,1,0-.12s.05,0,.07,0,0-.1,0-.12h.14V2S18,2,18,2s0-.11,0-.12H18s0,0,.07,0h.21s.05,0,.07,0H19s.05,0,.07,0h.07s.06,0,.07,0a.48.48,0,0,1,0,.12h.14s0-.1,0-.12h.22s.06,0,.07,0,0,.12,0,.12h.07s.05,0,.07,0,0-.1,0-.12h.07V2h.07a.48.48,0,0,1,0-.12h.21s.06,0,.07,0a.48.48,0,0,1,0,.12h.29a.48.48,0,0,1,0-.12h.14s0,.12,0,.12h.14s.06,0,.07,0,0-.12,0-.12h.35a.48.48,0,0,1,0,.12h.07s0-.12,0-.12h.57s0,0,.07,0h.07s0,.11,0,.12h.21s.06,0,.07,0a.48.48,0,0,0,0-.12h.71s.06,0,.07,0V2h.07s0-.11,0-.12h.07s.05,0,.07,0h2s0,.11,0,.12h.07s0-.11,0-.12h.07s.07,0,.08,0a.48.48,0,0,0,0,.12h.21s0-.12,0-.12h.7s.07,0,.07,0a.48.48,0,0,1,0,.12h.08a.16.16,0,0,1,.07,0h.14s.06,0,.07,0,0-.12,0-.12h.07s0,.11,0,.12h.28a.48.48,0,0,0,0-.12h.07s.06,0,.07,0,0,.1,0,.12h.22a.48.48,0,0,1,0-.12s.06,0,.07,0a.48.48,0,0,0,0,.12s0,0,.07,0h.14s0,.1,0,.12h.07s0-.12,0-.12.06,0,.07,0,0-.11,0-.12.06,0,.07,0h.28s0,.12,0,.13h.07s.07,0,.07,0a.57.57,0,0,0,0-.13h.57s.06,0,.07,0A.57.57,0,0,1,29,2h.35a.22.22,0,0,0,.08,0h.28s.05,0,.07,0V1.87s.06,0,.07,0H30s.07,0,.07,0a.48.48,0,0,1,0,.12s.05,0,.07,0,.07,0,.07,0,0-.12,0-.12.06,0,.07,0,0,.11,0,.12.07,0,.07,0h.15s.05,0,.07,0a.48.48,0,0,1,0-.12s.06,0,.07,0h.07V2s.06,0,.07,0h.07s.05,0,.07,0S31,2,31,2V1.87s.06,0,.07,0S31,2,31,2s.06,0,.07,0,.05,0,.07,0h.14s0-.11,0-.12.07,0,.08,0h.07a.48.48,0,0,0,0,.12s.06,0,.07,0h.35s.05,0,.07,0S32,2,32,2s0-.12,0-.12h.43a.48.48,0,0,0,0,.12s.06,0,.07,0,0,0,.07,0a.48.48,0,0,1,0-.12s.06,0,.07,0h.07V2s.06,0,.07,0,0,0,.07,0V1.87s.06,0,.07,0h.35s.06,0,.08,0a.48.48,0,0,0,0,.12s.06,0,.07,0a.48.48,0,0,1,0-.12s.06,0,.07,0h.07s.06,0,.07,0,0,.1,0,.12.06,0,.07,0,.06,0,.07,0,0-.1,0-.12.06,0,.07,0,.05,0,.07,0h.21s.07,0,.07,0a.48.48,0,0,1,0,.12s.05,0,.07,0h.15a.48.48,0,0,1,0-.12s.06,0,.07,0h.07a.48.48,0,0,0,0,.12s.06,0,.07,0,.05,0,.07,0h.14s0,0,.07,0S35,2,35,2s0-.12,0-.12,0,0,.07,0h.07a.48.48,0,0,0,0-.12s.06,0,.07,0,.07,0,.07,0a.48.48,0,0,1,0,.12h.15a.48.48,0,0,1,0-.12s0,0,.07,0,0,0,.07,0,.06,0,.07,0v.12h.28V1.75s.06,0,.07,0v.12h.21s0-.11,0-.12a.16.16,0,0,1,.07,0h.07s.07,0,.08,0a.48.48,0,0,0,0,.12h.14s0-.12,0-.12h.07s0,0,.07,0,0,.11,0,.12.06,0,.07,0h.57s0,0,.07,0h.07a.48.48,0,0,1,0-.12s.06,0,.07,0h.07a.48.48,0,0,0,0,.12s.06,0,.07,0H38s.06,0,.07,0,0-.11,0-.12.06,0,.07,0,.07,0,.07,0,0,.11,0,.12h.07s.06,0,.08,0h.07a.16.16,0,0,1,.07,0,.48.48,0,0,0,0,.12s.06,0,.07,0h.07s0-.1,0-.12.06,0,.07,0,0-.1,0-.12h.07s0,.09,0,.12,0,0,.07,0,.06,0,.07,0a.48.48,0,0,0,0-.12s0,0,.07,0,.06,0,.07,0,0,.1,0,.11.06,0,.07,0,0-.11,0-.11.07,0,.07,0,0,.11,0,.11.06,0,.07,0h.07s.06,0,.08,0a.4.4,0,0,1,0-.11s.06,0,.07,0h.14s0,0,.07,0,.06,0,.07,0,0,.11,0,.11,0,0,.07,0h.07s.07,0,.07,0,0-.11,0-.11,0,0,.07,0h.07a.48.48,0,0,1,0,.12s.06,0,.07,0,.06,0,.07,0,0,.1,0,.12h.15s0,0,.07,0,0-.1,0-.12,0,0,.07,0,0,0,.07,0,0-.1,0-.12.06,0,.07,0h.21s.06,0,.07,0,0,.12,0,.12.05,0,.07,0h.21s.05,0,.07,0a.22.22,0,0,0,.08,0s.06,0,.07,0,0-.12,0-.12.06,0,.07,0,0,.11,0,.12.06,0,.07,0,.06,0,.07,0a.48.48,0,0,1,0-.12h.07v.12h.07s.06,0,.07,0,0-.11,0-.12,0,0,.07,0h.14s.06,0,.07,0,0,.11,0,.12.06,0,.07,0,.07,0,.07,0a.48.48,0,0,0,0-.12h.08s0,.12,0,.12.06,0,.07,0,0-.1,0-.12,0,0,.07,0h.21v.12s.06,0,.07,0h.07s0,0,.07,0h2.19s0,0,.07,0,.06,0,.07,0,0,.1,0,.12.07,0,.08,0a.48.48,0,0,1,0-.12s.06,0,.07,0,.05,0,.07,0,.05,0,.07,0,.05,0,.07,0,.06,0,.07,0V1.74s.06,0,.07,0,0,.1,0,.12.06,0,.07,0,0,0,.07,0h.5a.16.16,0,0,0,.07,0s0-.11,0-.12.06,0,.07,0a.48.48,0,0,0,0,.12s.06,0,.07,0a.16.16,0,0,1,.07,0s0,.1,0,.12.06,0,.07,0h.07V1.86s.06,0,.07,0H47s0,0,.07,0,.07,0,.07,0,0,.12,0,.12h.07s.07,0,.08,0,0-.12,0-.12,0,0,.07,0H50.2a.22.22,0,0,1,.08,0h.14s0,0,.07,0a.48.48,0,0,0,0,.12s.06,0,.07,0,.06,0,.07,0V1.86h.21s0,0,.07,0,.07,0,.07,0a.48.48,0,0,0,0-.12.08.08,0,0,1,.07,0s.07,0,.07,0,0,.11,0,.12h.29s0,0,.07,0h.14s0-.11,0-.11h.07v.11s.05,0,.07,0h.42a.16.16,0,0,0,.07,0h.43s0,0,.07,0,.06,0,.07,0a.48.48,0,0,1,0,.12s0,0,.07,0S53,2,53,2s0-.1,0-.12.06,0,.07,0S53,2,53,2s.06,0,.07,0,0,0,.07,0,0-.11,0-.12.07,0,.08,0a.16.16,0,0,0,.07,0s0,0,.07,0,0-.1,0-.12.06,0,.07,0,0,.12,0,.12.06,0,.07,0,0,0,.07,0,0,0,.07,0,0,0,.07,0,.06,0,.07,0V1.73s.06,0,.07,0,0,.11,0,.12.06,0,.07,0h.14s0,0,.07,0h.08a.16.16,0,0,0,.07,0,.48.48,0,0,1,0-.12s.06,0,.07,0,.06,0,.07,0,0,.11,0,.12.06,0,.07,0,0,0,.07,0,.06,0,.07,0V1.73h.21s0,.11,0,.12.06,0,.07,0,0-.11,0-.12.06,0,.07,0,0,.12,0,.12.07,0,.07,0,.05,0,.07,0,.06,0,.07,0,0-.1,0-.12.07,0,.08,0,0,.12,0,.12.06,0,.07,0h.07s.05,0,.07,0h.35s0,0,.07,0,0-.11,0-.12H56a.48.48,0,0,1,0,.12h.07s.07,0,.07,0a.48.48,0,0,0,0-.12s0,0,.07,0h.22a.48.48,0,0,0,0,.12h.07V1.73s.06,0,.07,0,0,.1,0,.12.06,0,.07,0V1.73s.06,0,.07,0h.07v.12s.06,0,.07,0,0,0,.07,0h.64s0,0,.07,0,.06,0,.07,0,0-.11,0-.12,0,0,.07,0h.07v.12s.06,0,.07,0,.05,0,.07,0h.29a.16.16,0,0,0,.07,0s0-.1,0-.12,0,0,.07,0,.05,0,.07,0h.21v.12s.06,0,.07,0h.07s.06,0,.07,0,0-.11,0-.12.06,0,.07,0,.06,0,.07,0,0,.1,0,.12.06,0,.07,0,.07,0,.07,0a.48.48,0,0,0,0-.12s.06,0,.08,0h.42s0,0,.07,0v.12s.06,0,.07,0h.07s.07,0,.07,0a.48.48,0,0,0,0-.12s.07,0,.07,0,0,.12,0,.12h.14s.06,0,.08,0a.48.48,0,0,1,0-.12s.06,0,.07,0h.07s.06,0,.07,0,0,.1,0,.12.06,0,.07,0,.06,0,.07,0,0-.12,0-.12a.09.09,0,0,1,.07,0v.12s.06,0,.07,0,0-.11,0-.12.06,0,.07,0,0,0,.07,0h.21s0,.11,0,.12.07,0,.07,0h.08s.06,0,.07,0,0-.12,0-.12.06,0,.07,0,0,.12,0,.12h.07s.06,0,.07,0,0-.12,0-.12a.09.09,0,0,1,.07,0s.06,0,.07,0v.12s.06,0,.07,0,0-.11,0-.12.06,0,.07,0,.05,0,.07,0,.06,0,.07,0,0,.1,0,.12.06,0,.07,0,0-.12,0-.12.07,0,.07,0,.05,0,.07,0,0,.11,0,.12.07,0,.08,0a.16.16,0,0,1,.07,0h.42s.05,0,.07,0h.14s0,0,.07,0,.06,0,.07,0,0,.1,0,.11.06,0,.07,0,.06,0,.08,0,0-.1,0-.12.05,0,.07,0h.21s0,0,.07,0h1s0-.1,0-.12.06,0,.07,0,0,.12,0,.12.06,0,.07,0,0,.11,0,.12.06,0,.07,0,.07,0,.07,0V1.84s0,0,.07,0h.36s0,0,.07,0,.06,0,.07,0,0,.12,0,.12.06,0,.07,0,0-.11,0-.12,0,0,.07,0,0,0,.07,0V2s.06,0,.07,0,0-.11,0-.12.06,0,.07,0H66a.16.16,0,0,0,.07,0h.08s0,0,.07,0,0,.11,0,.12.06,0,.07,0h.07a.16.16,0,0,0,.07,0s0-.11,0-.12.06,0,.07,0H68s.07,0,.07,0a.48.48,0,0,0,0-.12s.07,0,.07,0a.48.48,0,0,1,0,.12h.43s0,0,.07,0,.06,0,.07,0V2h.07s.06,0,.07,0,0-.11,0-.12.06,0,.07,0h.64V1.72s.06,0,.07,0,.06,0,.07,0v.12h.07s0,0,.07,0,.06,0,.07,0a.48.48,0,0,0,0-.12s.07,0,.07,0,0,.11,0,.12a.16.16,0,0,0,.07,0,.22.22,0,0,1,.08,0h1.41s.06,0,.07,0V1.72s.06,0,.07,0,0,.12,0,.12.07,0,.07,0V1.72s.06,0,.07,0,0,.11,0,.12a.16.16,0,0,0,.07,0s0,0,.07,0h.07s0,0,.07,0,.07,0,.08,0,0-.12,0-.12.06,0,.07,0,0,.1,0,.12,0,0,.07,0,0,.1,0,.12,0,0,.07,0V1.84a.48.48,0,0,1,0-.12s.06,0,.07,0a.09.09,0,0,1,.07,0s.06,0,.07,0v.12s0,0,.07,0,.06,0,.07,0a.48.48,0,0,0,0-.12s0,0,.07,0,.06,0,.07,0,0,.1,0,.12.06,0,.07,0,.06,0,.07,0,0-.11,0-.12.06,0,.07,0a.22.22,0,0,1,.08,0h.14a.16.16,0,0,1,.07,0,.48.48,0,0,0,0,.12s.06,0,.07,0,0,0,.07,0h.07s.06,0,.07,0,0-.11,0-.13.06,0,.07,0H74s.06,0,.07,0,0,.11,0,.13.06,0,.07,0a.11.11,0,0,0,.08,0s.06,0,.07,0a.48.48,0,0,1,0-.12h.28v.12s.06,0,.07,0h.07s0,0,.07,0,.05,0,.07,0,.06,0,.07,0,0-.12,0-.12a.16.16,0,0,0,.07,0s.07,0,.07,0a.48.48,0,0,1,0,.12.16.16,0,0,0,.07,0h.08s.06,0,.07,0,0,.12,0,.12,0,0,.07,0,0,0,.07,0,0-.1,0-.12.05,0,.07,0,0,0,.07,0,0-.1,0-.12.06,0,.07,0h.21s.06,0,.07,0,0,.12,0,.12a.16.16,0,0,0,.07,0s0,0,.07,0h.15s0,0,.07,0a.48.48,0,0,1,0-.12s.06,0,.07,0a.16.16,0,0,0,.07,0h.28s0,0,.07,0,.06,0,.07,0a.48.48,0,0,1,0,.12h.14s0,0,.07,0,0-.11,0-.12.07,0,.07,0a.22.22,0,0,0,.08,0s.06,0,.07,0,0,.11,0,.12.06,0,.07,0a.48.48,0,0,1,0-.12s.06,0,.07,0,0,0,.07,0h.07s.06,0,.07,0,0,.11,0,.12.06,0,.07,0,0,0,.07,0h.14V1.71h.07a.48.48,0,0,1,0,.12.16.16,0,0,0,.07,0h.57V1.71s.06,0,.07,0h.07v.12h.07a.48.48,0,0,0,0-.12h.28s.07,0,.08,0,0,.12,0,.12h.07s.06,0,.07,0,0-.12,0-.12.06,0,.07,0,0,.1,0,.12.06,0,.07,0a.48.48,0,0,1,0-.12s.06,0,.07,0v.12s.06,0,.07,0h.07V1.71s.06,0,.07,0h.07v.12h.07a.48.48,0,0,0,0-.12h.36a.16.16,0,0,1,.07,0h.07s.06,0,.07,0,0,.12,0,.12,0,0,.07,0h.21s0,0,.07,0,0-.11,0-.12h.07s0,.12,0,.12H81s.05,0,.07,0,0-.11,0-.12.07,0,.08,0h.21s.05,0,.07,0a.48.48,0,0,0,0,.12s.06,0,.07,0h.21s0,0,.07,0,.06,0,.07,0,0-.11,0-.12.06,0,.07,0h.5s.05,0,.07,0,.06,0,.07,0,0,.1,0,.12.06,0,.07,0V1.71s.06,0,.07,0,0,0,.07,0,0,.11,0,.12.06,0,.07,0h.07s.06,0,.07,0,0-.11,0-.12.06,0,.07,0a.22.22,0,0,1,.08,0h.21s0,0,.07,0,.06,0,.07,0,0,.1,0,.12.06,0,.07,0V1.71s.06,0,.07,0h.07s0,0,.07,0,.07,0,.07,0,0,.12,0,.12H84s.06,0,.07,0,0-.11,0-.12.07,0,.08,0a.08.08,0,0,1,.07,0s.06,0,.07,0a.48.48,0,0,0,0,.12s0,0,.07,0h.14s.06,0,.07,0,0-.12,0-.12.05,0,.07,0h.14v.12s.06,0,.07,0h.07s.06,0,.07,0,0-.11,0-.12.07,0,.07,0,.07,0,.08,0,0,.11,0,.12.06,0,.07,0a.08.08,0,0,0,.07,0s.06,0,.07,0,0-.12,0-.12h.21s.06,0,.07,0,0,.11,0,.12.06,0,.07,0,.07,0,.07,0,0-.11,0-.12a.16.16,0,0,1,.07,0h.07s0,0,.07,0h.43s.06,0,.07,0,0,.11,0,.12.06,0,.07,0a.09.09,0,0,0,.07,0s.06,0,.07,0V1.7s0,0,.07,0,.07,0,.07,0a.48.48,0,0,1,0,.12s0,0,.07,0H87s0-.11,0-.12.06,0,.08,0,.06,0,.07,0,0,.11,0,.12.06,0,.07,0h.14s0,0,.07,0,0-.11,0-.12.06,0,.07,0h.07v.12s.06,0,.07,0h.07s0,0,.07,0,.07,0,.07,0,0-.12,0-.12H88s.06,0,.08,0a.48.48,0,0,0,0,.12s.06,0,.07,0h.07s0,.1,0,.12h.07a.48.48,0,0,1,0-.12s.06,0,.07,0,0-.12,0-.12.06,0,.07,0,0,.1,0,.12H89s.07,0,.07,0,0,.1,0,.12,0,0,.08,0a.48.48,0,0,1,0-.12s.06,0,.07,0,0,0,.07,0,.05,0,.07,0,.06,0,.07,0,0-.12,0-.12h.49s0,.12,0,.12h.07a.48.48,0,0,0,0-.12h.36s.06,0,.07,0,0,.12,0,.12.06,0,.07,0,0-.11,0-.12,0,0,.07,0H91s0,.11,0,.12.07,0,.08,0h.14a.16.16,0,0,0,.07,0s0-.11,0-.12.06,0,.07,0h.07s.06,0,.07,0,0,.12,0,.12,0,0,.07,0,.05,0,.07,0,.06,0,.07,0a.48.48,0,0,0,0-.12h.5a.48.48,0,0,0,0,.12h.07s0-.12,0-.12,0,0,.07,0h.42s.06,0,.07,0,0,.11,0,.12.06,0,.07,0H93s.07,0,.08,0,0-.12,0-.12,0,0,.07,0h.21v.12s.06,0,.07,0h.07V1.7s.06,0,.07,0,0,0,.07,0h.07s.06,0,.07,0,0,.1,0,.12.06,0,.07,0h.07s.06,0,.07,0a.48.48,0,0,0,0-.12s.07,0,.08,0h.14a.16.16,0,0,1,.07,0h.07s0,0,.07,0,0,.1,0,.12.06,0,.07,0V1.7s.06,0,.07,0h.07v.12s.06,0,.07,0,.07,0,.07,0a.48.48,0,0,0,0-.12.16.16,0,0,1,.07,0H95a.22.22,0,0,1,.08,0,.16.16,0,0,0,.07,0,.48.48,0,0,1,0-.12s.06,0,.07,0,.06,0,.07,0,0,.1,0,.12.06,0,.07,0h.14s.05,0,.07,0H96s0-.12,0-.12.06,0,.07,0,0,.12,0,.12h.21s0,0,.07,0h.14s0,0,.07,0h.07s.06,0,.07,0,0,.1,0,.11.06,0,.07,0,0-.11,0-.11.07,0,.07,0h.07a.22.22,0,0,1,.08,0h.14s0,0,.07,0h1.55s0,0,.07,0,.06,0,.07,0,0,.11,0,.12.07,0,.08,0,.06,0,.07,0,0-.1,0-.12.05,0,.07,0,0,0,.07,0h1.2v.12s.06,0,.07,0,0,0,.07,0V1.69s.06,0,.07,0,0,0,.07,0h.07s.06,0,.07,0,0,.1,0,.12.06,0,.07,0,0-.11,0-.12.06,0,.07,0a.22.22,0,0,1,.08,0h.7s0,0,.07,0,0,.11,0,.12.06,0,.07,0,0,0,.08,0h.14s0,0,.07,0a.48.48,0,0,1,0-.12s.06,0,.07,0,0,0,.07,0,.05,0,.07,0h.49s.05,0,.07,0H103a.16.16,0,0,1,.07,0,.48.48,0,0,0,0,.12s.06,0,.07,0h.07s0,.1,0,.12.06,0,.07,0a.48.48,0,0,1,0-.12s.06,0,.07,0,0-.12,0-.12.05,0,.07,0h.28a.16.16,0,0,1,.07,0h.14s.07,0,.08,0,0,.12,0,.12h.07s.06,0,.07,0,0-.12,0-.12,0,0,.07,0h.14v.12s.06,0,.07,0V1.69s.06,0,.07,0h.07s0,0,.07,0,.07,0,.07,0a.48.48,0,0,1,0,.12s0,0,.07,0h.14s0-.12,0-.12.06,0,.08,0,0,0,.07,0h.14s0,0,.07,0h.35v.12s.06,0,.07,0,.06,0,.07,0,0-.11,0-.12.06,0,.07,0a.16.16,0,0,1,.07,0h.36s0,0,.07,0h.71s.06,0,.07,0a.56.56,0,0,0,0,.13s.05,0,.07,0,.06,0,.07,0a.57.57,0,0,1,0-.13h.14s0,0,.07,0,0,0,.07,0,.06,0,.07,0,0-.12,0-.12h.07s0,.12,0,.12.06,0,.07,0h.14a.22.22,0,0,0,.08,0h.07s0,0,.07,0,0,0,.07,0,0-.1,0-.12.06,0,.07,0h.14s.06,0,.07,0,0,.11,0,.12.06,0,.07,0,.07,0,.07,0,0-.11,0-.12a.16.16,0,0,1,.07,0s.07,0,.07,0a.48.48,0,0,1,0,.12h.07s.05,0,.07,0,.06,0,.08,0,0-.1,0-.12.06,0,.07,0,.06,0,.07,0,0,.11,0,.12.06,0,.07,0,0,0,.07,0h.42s0,0,.07,0,0-.11,0-.12.07,0,.07,0h.07s0,.11,0,.12.07,0,.08,0h.35s0,0,.07,0,.06,0,.07,0,0-.1,0-.12.06,0,.07,0h.07s.07,0,.07,0a.48.48,0,0,1,0,.12h.07s0,0,.07,0,0-.11,0-.12h.07a.48.48,0,0,1,0,.12H111s0,0,.07,0,0,0,.07,0,0-.1,0-.12.06,0,.07,0h.35s.06,0,.07,0,0,.1,0,.12.06,0,.07,0h.07s.07,0,.07,0,0-.12,0-.12.07,0,.08,0,0,.12,0,.12.06,0,.07,0,0-.1,0-.12.06,0,.07,0,.06,0,.07,0,0,.1,0,.12.06,0,.07,0,0,0,.07,0h.56s.07,0,.08,0,0-.12,0-.12.06,0,.07,0,0,.1,0,.12.06,0,.07,0h.35s0,0,.07,0,.05,0,.07,0,0-.11,0-.12.06,0,.07,0h.07s0,.11,0,.12.06,0,.07,0,0,0,.07,0H114s.06,0,.07,0,0-.1,0-.12.06,0,.07,0h.07s.06,0,.07,0v.12h.35s0-.11,0-.12h.07a.48.48,0,0,1,0,.12h.57s0,0,.07,0,.06,0,.07,0,0-.12,0-.12,0,0,.07,0h.14v.12s.06,0,.07,0,.06,0,.07,0,0-.11,0-.12.06,0,.07,0,.06,0,.07,0,0,.1,0,.12.07,0,.08,0,.06,0,.07,0,0-.11,0-.12.06,0,.07,0a.48.48,0,0,0,0,.12s.06,0,.07,0,.06,0,.07,0,0-.11,0-.12.06,0,.07,0v.12s.06,0,.07,0,0,0,.07,0h.28s.05,0,.07,0,0,0,.07,0,.07,0,.08,0,0,.12,0,.12.06,0,.07,0,0-.11,0-.12,0,0,.07,0,.05,0,.07,0h.42s0,0,.07,0h.14s0,0,.07,0a.22.22,0,0,1,.08,0s.06,0,.07,0,0,.12,0,.12h.07s0,0,.07,0a.4.4,0,0,1,0-.11s.06,0,.07,0h.07s0,0,.07,0h.28s0,0,.07,0h.92s.06,0,.07,0,0,.11,0,.12.06,0,.07,0,0-.11,0-.12.07,0,.07,0a.22.22,0,0,0,.08,0h.21s0,.12,0,.12.06,0,.07,0a.48.48,0,0,1,0-.12s.06,0,.07,0,0,0,.07,0h.85s.06,0,.07,0V1.55s.06,0,.07,0,0,.11,0,.12.06,0,.07,0h1.27s0,0,.07,0,.06,0,.07,0,0,.11,0,.12.07,0,.08,0,.06,0,.07,0a.48.48,0,0,1,0-.12s0,0,.07,0h.07s0,0,.07,0v.12h.07s0-.11,0-.12,0,0,.07,0,.06,0,.07,0,0-.09,0-.12.06,0,.07,0,0,.11,0,.12.05,0,.07,0,0,0,.07,0,.05,0,.07,0,0,0,.07,0,0,.11,0,.12h.07s0-.09,0-.12H124a.16.16,0,0,0,.07,0s.06,0,.07,0,0-.12,0-.12.06,0,.07,0v.12h1.41s0,0,.07,0,.07,0,.07,0a.48.48,0,0,0,0-.12s.06,0,.07,0,0,.1,0,.12.06,0,.08,0,0,0,.07,0h.21s0-.12,0-.12.06,0,.07,0,0,0,.07,0h.07v.12s.06,0,.07,0,0-.11,0-.12.06,0,.07,0v.12s.06,0,.07,0,.05,0,.07,0h.07s.07,0,.07,0a.48.48,0,0,0,0-.12s.07,0,.08,0,0,.12,0,.12h.21s.05,0,.07,0h.07s.05,0,.07,0,0,.11,0,.12.06,0,.07,0,0-.1,0-.12.06,0,.07,0,0,0,.07,0h.14a.16.16,0,0,1,.07,0h.07s.06,0,.08,0,0-.11,0-.12.05,0,.07,0,0,0,.07,0,0,0,.07,0a.48.48,0,0,0,0,.12h.07s0-.12,0-.12h.49s0,0,.07,0,.05,0,.07,0,.07,0,.08,0,0,.12,0,.12h1a.48.48,0,0,0,0-.12s.07,0,.08,0H130s0,0,.07,0h.14s0,0,.07,0,.06,0,.07,0,0,.11,0,.12.06,0,.07,0V1.54s.06,0,.07,0h.21s.06,0,.07,0a.48.48,0,0,1,0,.12s.07,0,.08,0,.06,0,.07,0a.48.48,0,0,1,0-.12s.05,0,.07,0H131s0,.12,0,.12.06,0,.07,0h.07V1.54h.07s0,.12,0,.12.06,0,.07,0V1.54s.06,0,.07,0h.07s.07,0,.07,0a.48.48,0,0,1,0,.12s.07,0,.07,0,0-.12,0-.12h.57s.05,0,.07,0,.06,0,.07,0v.12s.06,0,.07,0,0-.11,0-.12,0,0,.07,0h.07v.12s.06,0,.07,0h.07s0-.11,0-.12.06,0,.07,0,.07,0,.07,0a.48.48,0,0,1,0,.12s.07,0,.08,0,0-.1,0-.12.06,0,.07,0,0,.12,0,.12.05,0,.07,0,.05,0,.07,0h.07s.06,0,.07,0,0-.1,0-.12.06,0,.07,0v.12s.06,0,.07,0,.06,0,.07,0V1.54h.07s.05,0,.07,0,.06,0,.07,0a.48.48,0,0,1,0,.12s.05,0,.07,0h.22s.06,0,.07,0,0-.1,0-.12.06,0,.07,0,0,.12,0,.12.06,0,.07,0,.06,0,.07,0V1.54h.56s.07,0,.08,0,0,.12,0,.12,0,0,.07,0a.16.16,0,0,0,.07,0s0-.11,0-.12.06,0,.07,0h.07s.05,0,.07,0,.06,0,.07,0v.12s.06,0,.07,0,0-.11,0-.12,0,0,.07,0h.07s.06,0,.07,0,0,.1,0,.12.06,0,.07,0h.07s.06,0,.07,0a.48.48,0,0,0,0-.12s.07,0,.08,0h.28s0,0,.07,0,.06,0,.07,0v.12h.14s0,0,.07,0,.06,0,.07,0,0-.11,0-.12a.16.16,0,0,1,.07,0h.07s.07,0,.07,0a.48.48,0,0,1,0,.12s.06,0,.08,0H137a.16.16,0,0,0,.07,0s0-.11,0-.12.06,0,.07,0v.12h.07s0-.12,0-.12,0,0,.07,0h.21v.12s.06,0,.07,0h.07s0-.11,0-.12.06,0,.07,0,.05,0,.07,0H138a.16.16,0,0,1,.07,0h.07s.05,0,.07,0,0,.11,0,.12.06,0,.07,0h.07s.05,0,.07,0,.06,0,.07,0a.48.48,0,0,0,0-.12s.05,0,.07,0,0,0,.07,0,.07,0,.07,0,0,.12,0,.12H139s.05,0,.07,0,.06,0,.07,0V1.54h.07s.06,0,.07,0,0,.11,0,.12.05,0,.07,0h.21s0-.12,0-.12.06,0,.07,0,0,0,.07,0,0,.11,0,.12.06,0,.07,0h.15s.06,0,.07,0,0-.12,0-.12.05,0,.07,0h.07a.48.48,0,0,0,0,.12s.06,0,.07,0,.06,0,.07,0V1.54h.14s0,0,.07,0h.07s.06,0,.07,0,0,.1,0,.12.06,0,.07,0h.07a.47.47,0,0,0,0-.12s.06,0,.08,0a.16.16,0,0,1,.07,0s.06,0,.07,0a.48.48,0,0,0,0,.12s0,0,.07,0a.16.16,0,0,1,.07,0s.06,0,.07,0,0-.11,0-.12.06,0,.07,0,0,0,.07,0,.05,0,.07,0,.06,0,.07,0,0,.11,0,.12h.21s.05,0,.07,0,0,.11,0,.12.06,0,.08,0h.14s.06,0,.07,0,0-.12,0-.12,0,0,.07,0h.07s.05,0,.07,0,.05,0,.07,0,0-.1,0-.12.06,0,.07,0v.12s.06,0,.07,0,.05,0,.07,0,.05,0,.07,0,.07,0,.07,0,0-.11,0-.12a.16.16,0,0,1,.07,0H143s.05,0,.07,0,0,.11,0,.12.06,0,.07,0,0,0,.07,0,.05,0,.07,0,.05,0,.07,0,.06,0,.07,0V1.53h.14s.06,0,.07,0,0,.11,0,.12.06,0,.07,0,.07,0,.08,0a.48.48,0,0,1,0-.12s.05,0,.07,0H144s.05,0,.07,0,0,.11,0,.12h.07V1.53s.06,0,.07,0,0,.12,0,.12.05,0,.07,0h.14s0-.11,0-.12.06,0,.07,0,.05,0,.07,0h.5s.06,0,.07,0,0,.12,0,.12a.09.09,0,0,0,.07,0s0-.1,0-.12.06,0,.07,0h2.26s.05,0,.07,0,.06,0,.07,0,0,.1,0,.12.07,0,.08,0,.06,0,.07,0a.48.48,0,0,1,0-.12s0,0,.07,0h.14s.06,0,.07,0,0,.12,0,.12.06,0,.07,0,0-.1,0-.12.06,0,.07,0h1.63s.06,0,.07,0,0,.12,0,.12h.14s0,0,.07,0,0-.11,0-.12.06,0,.07,0h.14s0,0,.07,0,.05,0,.07,0,.07,0,.07,0,0,.12,0,.12H151s0-.12,0-.12.06,0,.07,0,.05,0,.07,0h.14s.05,0,.07,0h.28a.16.16,0,0,1,.07,0h.57s0,0,.07,0h.35s.06,0,.08,0,0,.11,0,.12,0,0,.07,0,.05,0,.07,0h.21s0,0,.07,0,.06,0,.07,0,0-.11,0-.12h.21s.05,0,.07,0h.14s.07,0,.08,0,0,.12,0,.12.06,0,.07,0a.48.48,0,0,1,0-.12s0,0,.07,0H154s.06,0,.07,0,0,.12,0,.12,0,0,.07,0,0,0,.07,0,.06,0,.07,0,0-.11,0-.12.05,0,.07,0h.07v.12s.07,0,.07,0,0-.11,0-.12.06,0,.07,0h.5s.06,0,.07,0v.12s.05,0,.07,0,.06,0,.07,0,0-.1,0-.12.06,0,.07,0v.12s.06,0,.07,0,0-.11,0-.12.06,0,.07,0h.07s.06,0,.07,0a.48.48,0,0,1,0,.12s.07,0,.08,0H156s0,0,.07,0a.48.48,0,0,1,0-.12s.06,0,.07,0,.05,0,.07,0h.07v.12s.06,0,.07,0,0-.11,0-.12.06,0,.07,0h.07s.05,0,.07,0,.06,0,.07,0,0,.1,0,.12.07,0,.08,0h.07a.16.16,0,0,0,.07,0s0-.11,0-.12.06,0,.07,0,.05,0,.07,0h.21v.12s.06,0,.07,0,.07,0,.07,0a.48.48,0,0,0,0-.12h.14s.06,0,.07,0,0,.1,0,.12.06,0,.07,0,0-.11,0-.12.07,0,.08,0a.48.48,0,0,0,0,.12s.06,0,.07,0,.06,0,.07,0a.48.48,0,0,1,0-.12s0,0,.07,0h.35v.12s.06,0,.07,0V1.52s.06,0,.07,0H159s.06,0,.07,0,0,.11,0,.12.05,0,.07,0h.07V1.52s.06,0,.07,0,.05,0,.07,0,.07,0,.07,0,0,.12,0,.12.07,0,.07,0,0-.11,0-.12a.16.16,0,0,1,.07,0h.08s.06,0,.07,0a.48.48,0,0,0,0,.12s0,0,.07,0h.07s0-.12,0-.12.05,0,.07,0,.05,0,.07,0h.14s.06,0,.07,0,0,.1,0,.12.06,0,.07,0,0,.09,0,.12h.14s0-.1,0-.12.07,0,.07,0h.07a.22.22,0,0,1,.08,0s.05,0,.07,0,.06,0,.07,0,0-.12,0-.12h.14s.05,0,.07,0,.06,0,.07,0,0,.11,0,.12,0,0,.07,0h.28a.16.16,0,0,1,.07,0s.05,0,.07,0,.07,0,.07,0a.48.48,0,0,0,0-.12.22.22,0,0,1,.08,0h.21s0,0,.07,0,.06,0,.07,0v.12s.06,0,.07,0,0-.11,0-.12.06,0,.07,0,0,0,.07,0,.05,0,.07,0,.06,0,.07,0,0,.12,0,.12.06,0,.07,0,0-.11,0-.12.06,0,.07,0a.16.16,0,0,1,.07,0s.06,0,.08,0,.06,0,.07,0,0,.12,0,.12,0,0,.07,0,.06,0,.07,0,0-.12,0-.12.05,0,.07,0h.21s.05,0,.07,0h.43a.16.16,0,0,1,.07,0h.28s0,0,.07,0v.11s.06,0,.07,0,.05,0,.07,0h.21s.06,0,.07,0,0-.1,0-.12.06,0,.07,0a.48.48,0,0,1,0,.12s.06,0,.08,0a.09.09,0,0,0,.07,0s0-.1,0-.11.06,0,.07,0,.06,0,.07,0,0,.11,0,.11a.09.09,0,0,0,.07,0s0-.11,0-.11.05,0,.07,0h.56a.22.22,0,0,0,.08,0s0,0,.07,0a.48.48,0,0,0,0,.12s.06,0,.07,0,0-.12,0-.12H166s.05,0,.07,0h.07s.05,0,.07,0,0,0,.07,0,.07,0,.07,0,0-.09,0-.12.06,0,.07,0,0,.12,0,.12a.16.16,0,0,0,.07,0h.15a.48.48,0,0,0,0,.12s.05,0,.07,0,.06,0,.07,0,0-.1,0-.12.06,0,.07,0h.78s.05,0,.07,0a.48.48,0,0,0,0,.12h.07s0-.12,0-.12H168s.06,0,.07,0v.12s.06,0,.07,0,0-.11,0-.12,0,0,.07,0h.14v.12s.06,0,.07,0,.07,0,.07,0,0-.1,0-.12.06,0,.07,0h.36a.48.48,0,0,0,0,.12s.06,0,.07,0,.06,0,.07,0,0-.1,0-.12.06,0,.07,0h1.7s0,0,.07,0H171s.06,0,.07,0,0,.12,0,.12,0,0,.07,0h.28s0,0,.07,0,0-.11,0-.12.07,0,.07,0h.08s.06,0,.07,0,0,.1,0,.12.06,0,.07,0,.06,0,.07,0,0-.12,0-.12,0,0,.07,0H172s.06,0,.07,0v.12h.07s.06,0,.07,0,0-.11,0-.12.06,0,.07,0h.5a.48.48,0,0,0,0,.12s.06,0,.07,0H173s0-.12,0-.12.06,0,.07,0,.05,0,.07,0h.07v.12h.07V1.51s.07,0,.07,0a.48.48,0,0,1,0,.12h.07a.48.48,0,0,0,0-.12h.14a.22.22,0,0,1,.08,0,.48.48,0,0,0,0,.12h.07s0-.12,0-.12.06,0,.07,0h.63s0,0,.07,0,.05,0,.07,0,.07,0,.07,0,0,.12,0,.12.07,0,.08,0,0-.11,0-.12.05,0,.07,0,.05,0,.07,0H175s.05,0,.07,0h1.41a.22.22,0,0,0,.08,0h.14s.06,0,.07,0,0,.12,0,.12H177s0-.1,0-.12.06,0,.07,0,.05,0,.07,0h.28s.07,0,.07,0a.48.48,0,0,1,0,.12h.15a.47.47,0,0,1,0-.12s.06,0,.07,0h.07s.06,0,.07,0,0,.12,0,.12h.21V1.5s.06,0,.07,0,0,0,.07,0h.5s0,0,.07,0a.16.16,0,0,1,.07,0s0,.11,0,.12H179s0-.1,0-.12.06,0,.07,0,.05,0,.07,0h1.7a.48.48,0,0,1,0-.12h.07s0,.12,0,.12h1.7s0,0,.07,0,.06,0,.07,0,0-.12,0-.12h.07s0,.12,0,.12.06,0,.07,0V1.38H183s0,.11,0,.12.05,0,.07,0h.42s.07,0,.08,0,0-.12,0-.12h.07s0,.12,0,.12h.42s.05,0,.07,0V1.38h.07s0,.11,0,.12.06,0,.07,0a.48.48,0,0,1,0,.12h.07s0-.1,0-.12h1.06s0,0,.07,0,.07,0,.08,0,0-.11,0-.11h.07s0,.12,0,.12h1.48s.06,0,.07,0,0,.11,0,.12.06,0,.07,0V1.49s.06,0,.07,0h.07s.05,0,.07,0h.15a.16.16,0,0,0,.07,0h.07a.16.16,0,0,0,.07,0s0-.1,0-.12.06,0,.07,0,.06,0,.07,0,0,.11,0,.12.06,0,.07,0,0,0,.07,0h.14a.16.16,0,0,0,.07,0h.57s0,0,.07,0a.48.48,0,0,1,0-.12s.06,0,.07,0,0,.11,0,.12.06,0,.07,0h.21s0,.12,0,.12.07,0,.07,0,0-.11,0-.12.06,0,.07,0H190s.06,0,.07,0a.48.48,0,0,1,0,.12s.05,0,.07,0,.06,0,.07,0,0-.11,0-.12.06,0,.07,0h2.48s.06,0,.07,0,0,.12,0,.12h.07s0,0,.07,0,0-.11,0-.12.06,0,.07,0h.14s0,0,.07,0,0,.11,0,.12.07,0,.07,0,0-.11,0-.12.06,0,.07,0h2.9s.06,0,.07,0,0-.11,0-.12.06,0,.07,0,0,.11,0,.12.06,0,.08,0h1.27s.05,0,.07,0,.06,0,.07,0,0-.11,0-.12.05,0,.07,0h.07v.12s.06,0,.07,0h.07s.05,0,.07,0h.22s0,.1,0,.13h.07a.56.56,0,0,1,0-.13s.06,0,.07,0a.48.48,0,0,1,0-.12s.05,0,.07,0a.16.16,0,0,0,.07,0v.12s.06,0,.07,0,0,0,.07,0H199s.05,0,.07,0h.21s0-.11,0-.12.07,0,.07,0h.07s0,.12,0,.12a.11.11,0,0,0,.08,0s0-.11,0-.12.07,0,.08,0,0,.12,0,.12,0,0,.07,0,0,0,.07,0h.07s.05,0,.07,0,0,0,.07,0,.06,0,.07,0,0,.1,0,.12.05,0,.07,0,.07,0,.07,0,0-.11,0-.12a.16.16,0,0,1,.07,0s.06,0,.07,0,0-.11,0-.12.06,0,.07,0,.07,0,.07,0,0,.11,0,.12.06,0,.08,0,.05,0,.07,0h.28s.06,0,.07,0V1.36s.06,0,.07,0,0,.12,0,.12,0,0,.07,0h.07a.16.16,0,0,0,.07,0h.14a.16.16,0,0,0,.07,0s.06,0,.08,0a.48.48,0,0,0,0,.12s0,0,.07,0h.07s.06,0,.07,0a.48.48,0,0,1,0-.12s.05,0,.07,0,0,0,.07,0,.06,0,.07,0,0-.09,0-.12H202s.06,0,.07,0,0,.1,0,.12.06,0,.07,0,.05,0,.07,0,.05,0,.07,0,.07,0,.07,0,0,.1,0,.12h.15s0-.1,0-.12.06,0,.07,0h.28V1.36h.07v.12s.05,0,.07,0h.14s0-.11,0-.12h.07a.48.48,0,0,1,0,.12s.05,0,.07,0h.29s0,0,.07,0a.48.48,0,0,1,0-.12s.06,0,.07,0,.06,0,.07,0v.12s.06,0,.07,0,0-.1,0-.12.06,0,.07,0v.12s.06,0,.07,0h.71s0,0,.07,0,.06,0,.07,0,0-.11,0-.12.06,0,.07,0v.12s.06,0,.07,0,0,0,.07,0h.5a.48.48,0,0,1,0-.12h.07s0,.12,0,.12h.14s0,0,.07,0,.06,0,.07,0,0,.11,0,.12.05,0,.07,0h.07V1.48s.06,0,.07,0h.07a.16.16,0,0,1,.07,0h1s.05,0,.07,0h.15a.16.16,0,0,1,.07,0s.06,0,.07,0a.48.48,0,0,0,0,.12h.07V1.48h2s.05,0,.07,0,.06,0,.07,0v.12s.06,0,.07,0,0-.1,0-.12.06,0,.07,0h2.76a.48.48,0,0,0,0,.12s.06,0,.07,0,0-.11,0-.12.06,0,.07,0H214s.05,0,.07,0,.06,0,.07,0,0,.1,0,.12.06,0,.07,0,0-.11,0-.12.07,0,.07,0,.05,0,.07,0a.22.22,0,0,1,.08,0h.7s.07,0,.07,0a.48.48,0,0,1,0,.12s.05,0,.07,0h.22s.06,0,.07,0,0-.1,0-.12.06,0,.07,0a.48.48,0,0,0,0,.12s.06,0,.07,0a.48.48,0,0,1,0-.12s.06,0,.07,0,0,0,.07,0H216s.05,0,.07,0,.06,0,.07,0,0-.11,0-.12.06,0,.07,0,.07,0,.07,0,0,.11,0,.12a.16.16,0,0,0,.07,0h.08a.16.16,0,0,1,.07,0h.42s0,0,.07,0,.06,0,.07,0,0,.1,0,.12.06,0,.07,0,0-.12,0-.12.07,0,.07,0h.07a.16.16,0,0,1,.07,0h1.21a.48.48,0,0,0,0,.12h.07s0-.12,0-.12.05,0,.07,0,.06,0,.07,0,0-.1,0-.12h.07s.05,0,.07,0,0,.1,0,.12.06,0,.07,0,0,.1,0,.12.06,0,.07,0,.07,0,.07,0,0-.1,0-.12h.5s0,0,.07,0,.06,0,.07,0,0-.12,0-.12a.09.09,0,0,1,.07,0s0,.11,0,.12,0,0,.07,0h.07s.05,0,.07,0h.36a.16.16,0,0,0,.07,0h.14s0,0,.07,0,.06,0,.07,0,0-.11,0-.11h.07v.12H221s.06,0,.07,0,0,.12,0,.12.06,0,.07,0h.07s.06,0,.07,0,0-.1,0-.12.06,0,.08,0,0,0,.07,0h1.27s0-.1,0-.12.06,0,.07,0v.12s.06,0,.07,0v.12s.07,0,.07,0,0-.11,0-.12.05,0,.07,0h.92s.07,0,.07,0a.48.48,0,0,1,0,.12s.07,0,.07,0,0-.1,0-.12.06,0,.07,0h1.21a.48.48,0,0,0,0,.12s.06,0,.07,0a.48.48,0,0,1,0-.12s.06,0,.07,0h.28s.06,0,.07,0v.12s.06,0,.07,0,0-.11,0-.12.05,0,.07,0h.28a.22.22,0,0,1,.08,0h.07s.06,0,.07,0,0,.12,0,.12h.07s0,0,.07,0,.06,0,.07,0,0-.1,0-.12.06,0,.07,0,.05,0,.07,0h.64a.16.16,0,0,1,.07,0s.06,0,.07,0,0,.1,0,.12.06,0,.07,0,0,0,.07,0h.21s.06,0,.07,0,0-.11,0-.12.06,0,.07,0a.16.16,0,0,1,.07,0s0,0,.07,0,.07,0,.08,0v.12s.06,0,.07,0,0-.12,0-.12,0,0,.07,0,0,0,.07,0,.05,0,.07,0,.05,0,.07,0,.06,0,.07,0,0-.1,0-.12.06,0,.07,0,0,.11,0,.12.05,0,.07,0,.05,0,.07,0,.05,0,.07,0,0,0,.07,0,.06,0,.07,0,0,.09,0,.12.06,0,.07,0a.47.47,0,0,0,0-.12.16.16,0,0,1,.07,0h.15s0,0,.07,0h.42s.06,0,.07,0,0,.1,0,.12.06,0,.07,0,0,.09,0,.12h.21s.06,0,.08,0a.48.48,0,0,1,0-.12s.06,0,.07,0a.57.57,0,0,1,0-.13h.28s.05,0,.07,0h.14s.06,0,.07,0,0,.11,0,.13.06,0,.07,0h.07s.06,0,.07,0a.56.56,0,0,0,0-.13h.22s0,0,.07,0a.56.56,0,0,0,0,.13h.21s0,0,.07,0,0-.11,0-.13h.21s0,0,.07,0a.48.48,0,0,1,0,.12s.06,0,.07,0h.07s0-.11,0-.12.06,0,.07,0,0,.12,0,.12h.08s0-.12,0-.12h1.06s0,.12,0,.12.06,0,.07,0,.06,0,.07,0V1.45s0,0,.07,0,.05,0,.07,0,.06,0,.07,0,0,.12,0,.12.05,0,.07,0h.07s0,0,.07,0,.07,0,.07,0,0,.1,0,.12h.14s0-.09,0-.12.06,0,.07,0a.48.48,0,0,0,0-.12h.08s0,.12,0,.12.06,0,.07,0,0-.09,0-.12h.42s.06,0,.07,0,0,.11,0,.12.06,0,.07,0,.07,0,.07,0,0-.11,0-.12a.16.16,0,0,1,.07,0s.05,0,.07,0h.22s.06,0,.07,0,0-.09,0-.12,0,0,.07,0,0,.1,0,.12.06,0,.07,0,.05,0,.07,0h.14s.05,0,.07,0,.07,0,.07,0a.48.48,0,0,1,0,.12s.05,0,.07,0,.07,0,.07,0,0-.12,0-.12h.29s.06,0,.07,0,0,.12,0,.12h.14s.05,0,.07,0,.06,0,.07,0,0-.11,0-.12.05,0,.07,0h.57s.06,0,.07,0,0,.12,0,.12.05,0,.07,0,.06,0,.07,0V1.45h.14s.05,0,.07,0v.12h.07V1.45s.06,0,.07,0,0,.1,0,.12.06,0,.07,0,0-.12,0-.12.06,0,.07,0,.05,0,.07,0h.15s.06,0,.07,0,0,.12,0,.12.06,0,.07,0,0-.1,0-.12.06,0,.07,0h.42v.12s.06,0,.07,0H239s0-.11,0-.12.07,0,.07,0h.15s.06,0,.07,0,0,.12,0,.12.06,0,.07,0,0-.12,0-.12,0,0,.07,0h.49s0,.11,0,.12H240a.48.48,0,0,0,0-.12.16.16,0,0,1,.07,0h.14a.22.22,0,0,1,.08,0h.14s.05,0,.07,0a.48.48,0,0,0,0,.12s.06,0,.07,0,.05,0,.07,0,.06,0,.07,0,0-.11,0-.12a.09.09,0,0,1,.07,0s0,.11,0,.12.06,0,.07,0,0,.1,0,.12.06,0,.07,0,0-.11,0-.12H241s.05,0,.07,0a.48.48,0,0,0,0-.12h.07s0,.12,0,.12a.22.22,0,0,1,.08,0h.07a.16.16,0,0,0,.07,0,.48.48,0,0,1,0-.12s.06,0,.07,0,0-.1,0-.12h.14s0,.1,0,.12.06,0,.07,0h.14s.05,0,.07,0,0,.11,0,.12.06,0,.07,0H242s.07,0,.07,0a.48.48,0,0,0,0-.12h.07a.22.22,0,0,1,.08,0s.05,0,.07,0,0,.1,0,.12.06,0,.07,0h.07s.06,0,.07,0,0-.12,0-.12.05,0,.07,0h.14s0,0,.07,0h.71s0,0,.07,0h.28s.05,0,.07,0,.07,0,.07,0a.48.48,0,0,1,0,.12s.06,0,.07,0,0-.1,0-.12.06,0,.07,0,0,.12,0,.12.06,0,.08,0a.08.08,0,0,0,.07,0s.06,0,.07,0,0-.12,0-.12h.49s0,0,.07,0,.07,0,.07,0a.48.48,0,0,1,0,.12.16.16,0,0,0,.07,0s.07,0,.07,0,0-.12,0-.12.07,0,.07,0,0,.11,0,.12.07,0,.08,0a.48.48,0,0,1,0-.12s.06,0,.07,0,0,.12,0,.12h.07s0-.12,0-.12h.14s.05,0,.07,0,0,.11,0,.12.06,0,.07,0h.14s.05,0,.07,0,.06,0,.07,0,0-.1,0-.12.06,0,.07,0,.06,0,.07,0,0,.1,0,.12.06,0,.07,0,.06,0,.08,0,.06,0,.07,0,0,.1,0,.12.05,0,.07,0,0-.11,0-.12,0,0,.07,0,0,0,.07,0h.07s.05,0,.07,0,0-.11,0-.12.06,0,.07,0,0,0,.07,0h.5s.06,0,.07,0,0,.12,0,.12.06,0,.07,0V1.44h.07s0,0,.07,0,0,.11,0,.12.06,0,.07,0,.07,0,.07,0,0-.12,0-.12.06,0,.07,0,0,.1,0,.12.06,0,.07,0V1.44s.06,0,.07,0,.05,0,.07,0h1.28a.16.16,0,0,1,.07,0,.48.48,0,0,0,0,.12s0,0,.07,0,0,0,.07,0h.35s.07,0,.07,0a.48.48,0,0,0,0-.12.16.16,0,0,1,.07,0h.14s.07,0,.08,0,0,.12,0,.12h.07s.05,0,.07,0,.05,0,.07,0,0-.11,0-.12.06,0,.07,0,0,0,.07,0H251s.05,0,.07,0,.06,0,.07,0,0,.1,0,.12.06,0,.08,0V1.44s.06,0,.07,0a.48.48,0,0,0,0,.12s.06,0,.07,0h.07s0-.12,0-.12.05,0,.07,0,.05,0,.07,0h.14s.05,0,.07,0h.35s0,.11,0,.12.06,0,.08,0,.05,0,.07,0h.14s0-.12,0-.12.06,0,.07,0,.05,0,.07,0h.14v.12s.06,0,.07,0,.06,0,.07,0,0-.11,0-.12.06,0,.07,0a.09.09,0,0,1,.07,0s0,.1,0,.12.06,0,.07,0,0-.12,0-.12.07,0,.07,0h.08a.48.48,0,0,0,0,.12s0,0,.07,0,.06,0,.07,0,0-.11,0-.12.06,0,.07,0h.07s0,0,.07,0,.06,0,.07,0,0,.1,0,.12.06,0,.07,0h.07s0-.12,0-.12a.09.09,0,0,1,.07,0s.07,0,.07,0,0,.11,0,.12h.57s.05,0,.07,0,.06,0,.07,0,0-.1,0-.12.06,0,.07,0v.12s.06,0,.07,0,.05,0,.07,0,0-.11,0-.12H255s.07,0,.07,0a.48.48,0,0,1,0,.12.11.11,0,0,0,.08,0s0-.1,0-.12.06,0,.07,0,.05,0,.07,0,0,.11,0,.12.06,0,.07,0a.09.09,0,0,0,.07,0s.06,0,.07,0V1.43h.85s0,.12,0,.12h.07s0-.12,0-.12h.21v.12s.06,0,.07,0,0,.12,0,.12.07,0,.07,0,0-.1,0-.12.06,0,.07,0,0-.12,0-.12h.57s.05,0,.07,0,.06,0,.07,0,0,.11,0,.12.06,0,.07,0h.14s.05,0,.07,0,0-.11,0-.12.06,0,.07,0H258s0,.12,0,.12.07,0,.07,0h.08s0,0,.07,0,.05,0,.07,0,.06,0,.07,0,0-.12,0-.12h.14s.05,0,.07,0,.06,0,.07,0,0,.1,0,.12.06,0,.07,0V1.43s.06,0,.07,0h.07s.06,0,.07,0,0,.1,0,.12.06,0,.07,0,0-.11,0-.12.07,0,.07,0h.07s.06,0,.08,0,0,.1,0,.12.06,0,.07,0V1.43h.07s0,.12,0,.12.05,0,.07,0,.05,0,.07,0,.06,0,.07,0,0,.1,0,.12.06,0,.07,0,0-.1,0-.12.06,0,.07,0,0-.11,0-.12.07,0,.07,0a.48.48,0,0,1,0,.12s.07,0,.07,0,0-.1,0-.12h.07s.05,0,.07,0,.07,0,.07,0a.48.48,0,0,1,0,.12h.08a.16.16,0,0,0,.07,0,.48.48,0,0,1,0-.12s.06,0,.07,0h.21s.05,0,.07,0,.06,0,.07,0,0,.11,0,.12.05,0,.07,0h.14V1.43s.06,0,.07,0,0,0,.07,0H261s0,.11,0,.12.06,0,.07,0,.07,0,.08,0,0-.1,0-.12.06,0,.07,0h.07a.16.16,0,0,1,.07,0s0,.11,0,.12.06,0,.07,0,.05,0,.07,0h.14s.06,0,.07,0,0,.09,0,.12h.14s.06,0,.07,0,0-.12,0-.12a.16.16,0,0,1,.07,0h.15s.05,0,.07,0,0-.11,0-.12.06,0,.07,0a.48.48,0,0,0,0,.12s.06,0,.07,0h1.34s.05,0,.07,0h.14a.16.16,0,0,1,.07,0s.07,0,.07,0a.48.48,0,0,0,0-.12.22.22,0,0,1,.08,0s.06,0,.07,0a.48.48,0,0,0,0,.12h.14s.05,0,.07,0h.35s.05,0,.07,0H265a.48.48,0,0,0,0-.12H265s0,.11,0,.12h.43s.05,0,.07,0h3s.05,0,.07,0V1.42h.07v.12h1.27s.06,0,.07,0,0-.1,0-.12.07,0,.08,0a.48.48,0,0,0,0,.12s.06,0,.07,0h.21s.05,0,.07,0a.48.48,0,0,1,0-.12h.07v.12h.14s.05,0,.07,0,.06,0,.07,0,0-.1,0-.12.06,0,.07,0,.07,0,.07,0,0,.11,0,.12a.16.16,0,0,0,.07,0H271a.16.16,0,0,1,.07,0s0,0,.07,0h.07s.05,0,.07,0a.48.48,0,0,0,0,.12h.07V1.54h.85a.48.48,0,0,1,0-.12s.06,0,.07,0,.05,0,.07,0a.48.48,0,0,0,0,.12s.06,0,.07,0h.07V1.42s.06,0,.07,0,.05,0,.07,0,0,.11,0,.12.06,0,.07,0h.64s.05,0,.07,0h.07s.06,0,.07,0,0,.09,0,.12h.14V1.42h.21a.22.22,0,0,1,.08,0h.07s.05,0,.07,0,.06,0,.07,0,0,.12,0,.12h.28s.05,0,.07,0h.07s.05,0,.07,0,.05,0,.07,0,.07,0,.07,0,0,.12,0,.12h.07s.06,0,.07,0a.48.48,0,0,0,0-.12s.07,0,.08,0h.14s.05,0,.07,0,0,.1,0,.12.06,0,.07,0h.07s.05,0,.07,0,0-.11,0-.12.06,0,.07,0h.07s.07,0,.07,0,0-.12,0-.13h.07s.07,0,.07,0a.56.56,0,0,1,0,.13h.36s0,0,.07,0h.21s.06,0,.07,0,0-.12,0-.13h.07s0,.11,0,.13.06,0,.07,0h.14a.16.16,0,0,0,.07,0s.07,0,.07,0a.48.48,0,0,1,0,.12.22.22,0,0,0,.08,0,.16.16,0,0,0,.07,0,.47.47,0,0,1,0-.12s.06,0,.07,0a.16.16,0,0,0,.07,0h.28s0,0,.07,0V1.41s.06,0,.07,0,0,.12,0,.12.06,0,.07,0h.07s.07,0,.07,0a.48.48,0,0,0,0-.12.16.16,0,0,1,.07,0h.15a.48.48,0,0,0,0,.12s.05,0,.07,0,0,.1,0,.12h.07s0-.09,0-.12h.21s.05,0,.07,0V1.41h.07s0,.11,0,.12.06,0,.07,0,.07,0,.07,0,0-.11,0-.12a.16.16,0,0,1,.07,0h.07s0,.12,0,.12.06,0,.07,0a.22.22,0,0,0,.08,0h.63s.07,0,.07,0,0,.12,0,.12a.16.16,0,0,0,.07,0h.07s0-.11,0-.12.06,0,.07,0,.06,0,.08,0h1.34s.05,0,.07,0,0,.11,0,.12.06,0,.07,0h.07s.06,0,.07,0,0-.11,0-.12.06,0,.07,0h.5s.06,0,.07,0,0-.1,0-.12.06,0,.07,0,0,.11,0,.12,0,0,.07,0h.07s.05,0,.07,0,.06,0,.07,0,0,.1,0,.12.06,0,.07,0,0-.11,0-.12.06,0,.07,0h1.35a.48.48,0,0,0,0,.12s.06,0,.07,0h.07s.06,0,.07,0,0-.11,0-.12.06,0,.07,0h.14s0,0,.07,0,0,.11,0,.12h.07a.48.48,0,0,0,0-.12h1.63s.05,0,.07,0,.06,0,.07,0,0,.1,0,.12.06,0,.07,0V1.53s.06,0,.07,0h.07v.12h.07a.48.48,0,0,0,0-.12.16.16,0,0,1,.07,0h.07a.22.22,0,0,1,.08,0s.05,0,.07,0,0,.1,0,.12.06,0,.07,0,0-.12,0-.12h.07s0,.12,0,.12h.07s.06,0,.07,0,0-.11,0-.11.05,0,.07,0h.07s.05,0,.07,0,.06,0,.07,0,0,.1,0,.11.06,0,.07,0,.05,0,.07,0h.07s0,0,.07,0h.07a.22.22,0,0,0,.08,0s.05,0,.07,0,0-.1,0-.12.06,0,.07,0h.14a.48.48,0,0,0,0,.12h.07V1.52h.35a.16.16,0,0,0,.07,0h.07s.06,0,.08,0a.48.48,0,0,0,0,.12s.06,0,.07,0h.07a.48.48,0,0,1,0-.12s.05,0,.07,0h.07s.06,0,.07,0v.12h.07s0,0,.07,0,.06,0,.07,0,0-.1,0-.12.06,0,.07,0h.07s.05,0,.07,0,.06,0,.07,0,0-.1,0-.12.06,0,.07,0,0,.12,0,.12.07,0,.08,0H290s0,0,.07,0h.84s0,.12,0,.12.07,0,.08,0a.48.48,0,0,1,0-.12s.06,0,.07,0h.07s.06,0,.07,0,0,.1,0,.12.06,0,.07,0,.06,0,.07,0,0-.1,0-.12.06,0,.07,0h.42s.06,0,.08,0a.48.48,0,0,0,0,.12H292V1.52h.42s.06,0,.07,0,0,.12,0,.12.05,0,.07,0h.21s.07,0,.07,0a.48.48,0,0,0,0-.12s.05,0,.07,0h2.27a.48.48,0,0,0,0,.12s.06,0,.07,0,.06,0,.07,0,0-.12,0-.12,0,0,.07,0h.92s.05,0,.07,0h.07s.06,0,.07,0,0,.1,0,.12.06,0,.07,0,0,.1,0,.12h.07a.48.48,0,0,0,0-.12V1.52s.06,0,.07,0a.16.16,0,0,1,.07,0h.15s0,0,.07,0h.77s.05,0,.07,0H298s0,0,.07,0a.48.48,0,0,0,0,.12s.06,0,.07,0,.06,0,.07,0V1.52h.35s0,0,.07,0h.14s.05,0,.07,0,0,.11,0,.11.07,0,.08,0,.06,0,.07,0,0-.11,0-.11h.14s.05,0,.07,0,0,.11,0,.11h.07V1.52h.64s.05,0,.07,0,0,.1,0,.11.06,0,.07,0,0,0,.07,0h.07s.05,0,.07,0,0-.11,0-.11.06,0,.07,0h.07s0,.09,0,.11.06,0,.07,0,0,.1,0,.12h.07V1.63s.05,0,.07,0h.07a.16.16,0,0,0,.07,0h.07a.48.48,0,0,1,0,.12H301s.05,0,.07,0a.47.47,0,0,1,0-.12s.06,0,.07,0,0-.09,0-.12h.28s0,.11,0,.12.06,0,.07,0,.05,0,.07,0h.14V1.51s.06,0,.07,0,0,0,.07,0h.08s0,.12,0,.12.05,0,.07,0,.05,0,.07,0h.21s0,0,.07,0,0-.11,0-.12.06,0,.07,0h.35s0,.12,0,.12.06,0,.07,0,.06,0,.08,0,.06,0,.07,0V1.51s.06,0,.07,0a.48.48,0,0,0,0,.12s.05,0,.07,0h.21s.05,0,.07,0,.06,0,.07,0,0-.1,0-.12.06,0,.07,0h.71s.05,0,.07,0v.12s.06,0,.07,0H305s.06,0,.07,0a.48.48,0,0,1,0-.12s.05,0,.07,0h.14v.12s.06,0,.07,0,.06,0,.07,0,0-.1,0-.12.06,0,.07,0,0,.11,0,.12.06,0,.07,0,0,.1,0,.12h.07s0-.1,0-.12h.07s.05,0,.07,0,.07,0,.07,0a.48.48,0,0,0,0-.12s.07,0,.08,0a.48.48,0,0,0,0,.12s.05,0,.07,0h.35s.06,0,.07,0,0-.11,0-.12.05,0,.07,0h.07s.07,0,.07,0,0,.11,0,.12a.16.16,0,0,0,.07,0h.07s0-.12,0-.12.06,0,.07,0,.05,0,.08,0H307s.06,0,.07,0a.48.48,0,0,0,0,.12s.05,0,.07,0h.07a.48.48,0,0,1,0-.12s.06,0,.07,0,.05,0,.07,0h.28s.05,0,.07,0h.07s.06,0,.08,0a.47.47,0,0,0,0,.12s.06,0,.07,0H308a.16.16,0,0,0,.07,0s0-.11,0-.12.06,0,.07,0,.05,0,.07,0h.28s.05,0,.07,0,.06,0,.07,0,0,.12,0,.12h.07s.06,0,.07,0a.48.48,0,0,0,0-.12s.06,0,.07,0h.57s.05,0,.07,0h.14s.05,0,.07,0,.07,0,.07,0,0,.11,0,.12.06,0,.07,0h.43s.05,0,.07,0,0-.1,0-.12.06,0,.07,0h.07s.06,0,.07,0a.47.47,0,0,1,0,.12h.43s.06,0,.07,0a.48.48,0,0,1,0-.12h.07s.05,0,.07,0,.06,0,.07,0v.12h.07s.06,0,.07,0,0-.11,0-.12.05,0,.07,0h.21s.07,0,.07,0,0,.12,0,.12H312s0-.1,0-.12.06,0,.07,0h.14s.05,0,.07,0,0,.11,0,.12.06,0,.07,0h.42s.07,0,.08,0a.48.48,0,0,1,0-.12s.05,0,.07,0H313s.06,0,.07,0,0,.11,0,.12h.14s0-.11,0-.12.05,0,.07,0h.07v.12s.06,0,.07,0H314s0-.12,0-.12.06,0,.07,0a.48.48,0,0,0,0,.12h.14a.48.48,0,0,1,0-.12s.06,0,.07,0a.48.48,0,0,0,0,.12h.14a.48.48,0,0,0,0-.12s.07,0,.07,0v.12H315a.48.48,0,0,1,0-.12s.05,0,.07,0h.07v.12h.07s0-.11,0-.12.06,0,.07,0,.06,0,.07,0,0,.1,0,.12h.14a.48.48,0,0,0,0-.12s.07,0,.07,0a.48.48,0,0,1,0,.12h.22a.16.16,0,0,1,.07,0s.06,0,.07,0a.48.48,0,0,0,0,.12s.05,0,.07,0h.07s.06,0,.07,0,0-.12,0-.12.06,0,.07,0v.12s.06,0,.07,0,0-.11,0-.12,0,0,.07,0h.14s.06,0,.07,0a.48.48,0,0,1,0,.12s.06,0,.07,0,.07,0,.07,0a.48.48,0,0,0,0-.12.16.16,0,0,1,.07,0h1.77s.05,0,.07,0h.22a.16.16,0,0,1,.07,0s.06,0,.07,0a.48.48,0,0,0,0,.12s0,0,.07,0h.07s0-.12,0-.12.06,0,.07,0,.05,0,.07,0h.07s.05,0,.07,0h.43a.16.16,0,0,1,.07,0,.48.48,0,0,0,0,.12s.05,0,.07,0H320s.06,0,.07,0V1.62h.07s.05,0,.07,0,0,.1,0,.12.06,0,.07,0,.06,0,.07,0,0-.12,0-.12.05,0,.07,0h.07s.07,0,.07,0,0,.11,0,.12a.16.16,0,0,0,.07,0h.08a.56.56,0,0,1,0-.13s.05,0,.07,0H321s0,0,.07,0h.21v.13h.07a.57.57,0,0,0,0-.13h.07s.05,0,.07,0h.07s.06,0,.07,0a.57.57,0,0,1,0,.13h.14s.06,0,.08,0,0-.11,0-.13.06,0,.07,0h.28s0,0,.07,0h.07s.06,0,.07,0a.48.48,0,0,1,0,.12s.07,0,.07,0,0-.11,0-.12h.07a.48.48,0,0,1,0,.12.16.16,0,0,0,.07,0h.22a.48.48,0,0,1,0-.12s.05,0,.07,0H323s.05,0,.07,0,.05,0,.07,0,0,.11,0,.12.06,0,.07,0,.06,0,.07,0,0-.11,0-.12,0,0,.07,0h.07s0,.12,0,.12.06,0,.07,0,.05,0,.07,0h.29a.16.16,0,0,0,.07,0,.48.48,0,0,1,0-.12H324v.12s.06,0,.07,0,0-.1,0-.12.06,0,.07,0,.05,0,.07,0h.71s.06,0,.07,0,0,.12,0,.12.06,0,.07,0,0-.1,0-.12.06,0,.07,0h.21s.05,0,.07,0,.07,0,.07,0a.48.48,0,0,1,0,.12h.07s.07,0,.07,0,0-.11,0-.12a.16.16,0,0,1,.07,0s.07,0,.08,0,0-.09,0-.12.05,0,.07,0,0,.1,0,.12.05,0,.07,0,0,0,.07,0h1.62s.06,0,.07,0a.48.48,0,0,1,0,.12s.07,0,.08,0,.06,0,.07,0,0-.1,0-.12.05,0,.07,0,.05,0,.07,0h.21v.12s.06,0,.07,0,.05,0,.07,0h.07s.07,0,.07,0a.48.48,0,0,0,0-.12s.07,0,.07,0,0,.12,0,.12h.29a.48.48,0,0,1,0-.12s.06,0,.07,0,.06,0,.07,0,0,.12,0,.12.06,0,.07,0,0-.12,0-.12.05,0,.07,0,.05,0,.07,0,0,.11,0,.12.06,0,.07,0,0,.1,0,.12.06,0,.07,0V1.73a.48.48,0,0,1,0-.12s.06,0,.07,0,.05,0,.07,0h.14a.16.16,0,0,1,.07,0h.5s.05,0,.07,0,0,.11,0,.12.06,0,.07,0h.07V1.61s.06,0,.07,0h.07a.16.16,0,0,1,.07,0h1.49s.05,0,.07,0,.05,0,.07,0,.06,0,.07,0,0,.11,0,.11.05,0,.07,0h.21a.16.16,0,0,0,.07,0s.05,0,.07,0,.07,0,.08,0,0-.11,0-.11,0,0,.07,0a.16.16,0,0,1,.07,0,.16.16,0,0,1,.07,0s.06,0,.07,0v.11s.06,0,.07,0,0-.11,0-.11.05,0,.07,0h.07s.05,0,.07,0h.07s.06,0,.07,0a.48.48,0,0,1,0,.12s.07,0,.07,0h.07a.22.22,0,0,0,.08,0,.16.16,0,0,0,.07,0,.47.47,0,0,1,0-.12s.06,0,.07,0h.07s.06,0,.07,0,0,.12,0,.12,0,0,.07,0h.42s.05,0,.07,0,.07,0,.07,0a.48.48,0,0,0,0-.12s.06,0,.08,0h.14s.06,0,.07,0,0,.11,0,.12.06,0,.07,0,.05,0,.07,0h.14s.05,0,.07,0h.14s.06,0,.07,0,0,.12,0,.12a.16.16,0,0,0,.07,0h.14s.07,0,.08,0,0-.12,0-.12.05,0,.07,0h.07s.05,0,.07,0,.05,0,.07,0,.06,0,.07,0,0-.11,0-.12.05,0,.07,0h.07s0,0,.07,0,.06,0,.07,0,0,.1,0,.12.06,0,.07,0,.06,0,.07,0,0-.1,0-.12.06,0,.07,0,0,.11,0,.12.07,0,.08,0h.07s.06,0,.07,0a.48.48,0,0,1,0-.12s.05,0,.07,0h.07a.48.48,0,0,0,0,.12s.06,0,.07,0h.07s.05,0,.07,0h1.2s0,0,.07,0,0-.11,0-.12.06,0,.07,0,.07,0,.07,0a.48.48,0,0,1,0,.12h.29a.16.16,0,0,0,.07,0s0-.11,0-.12.06,0,.07,0h.07s.06,0,.07,0,0,.12,0,.12.05,0,.07,0h1.27s0,0,.07,0,0,.11,0,.12.07,0,.07,0h.08s.06,0,.07,0,0-.1,0-.12.05,0,.07,0,.05,0,.07,0h.35s.05,0,.07,0,.05,0,.07,0,.07,0,.07,0,0,.12,0,.12h.14s.06,0,.08,0a.48.48,0,0,1,0-.12s.05,0,.07,0,.05,0,.07,0h.07s.06,0,.07,0,0,.1,0,.12.06,0,.07,0,.06,0,.07,0,0-.12,0-.12,0,0,.07,0h.07s.05,0,.07,0h.14a.16.16,0,0,1,.07,0h.07s.07,0,.08,0,0-.1,0-.12h.21s0,.1,0,.12.06,0,.07,0,0,.1,0,.12.05,0,.07,0h.14s0,0,.07,0,0-.11,0-.13.06,0,.07,0,.05,0,.07,0,.07,0,.07,0,0-.11,0-.11a.09.09,0,0,1,.07,0s.07,0,.07,0,0,.11,0,.11a.22.22,0,0,0,.08,0s0,0,.07,0a.4.4,0,0,1,0-.11s.06,0,.07,0,0,.12,0,.12.06,0,.07,0h.07s.05,0,.07,0h.14s.05,0,.07,0h.14s.05,0,.07,0h.07s.06,0,.07,0,0-.1,0-.12.07,0,.08,0,.06,0,.07,0,0,.11,0,.12.06,0,.07,0,.06,0,.07,0a.48.48,0,0,1,0-.12h.07s0,.12,0,.12.05,0,.07,0h.49s.07,0,.07,0,0-.12,0-.12.07,0,.08,0,0,.12,0,.12.06,0,.07,0,0-.12,0-.12,0,0,.07,0,.06,0,.07,0,0,.11,0,.12.06,0,.07,0,0,.12,0,.12a.09.09,0,0,0,.07,0s0-.09,0-.12h.21s.07,0,.07,0,0-.12,0-.12h.07s.07,0,.07,0a.48.48,0,0,1,0,.12s0,0,.07,0h1.7V1.59h.07a.48.48,0,0,1,0,.12s.05,0,.07,0h.92s.06,0,.07,0,0-.1,0-.12.06,0,.07,0,.06,0,.07,0,0,.1,0,.12.06,0,.07,0h.64s0,0,.07,0,.07,0,.07,0a.48.48,0,0,0,0-.12s.07,0,.07,0,0,.11,0,.12a.16.16,0,0,0,.07,0h.15s0-.12,0-.12h.07s0,.12,0,.12h.21s.06,0,.07,0,0-.1,0-.12.06,0,.07,0v.12s.06,0,.07,0h.85v.12H352s0-.12,0-.12.05,0,.07,0h.14v.12s.06,0,.07,0,.06,0,.07,0,0-.11,0-.12.06,0,.07,0,0,.11,0,.12.07,0,.07,0h.15s.06,0,.07,0,0-.12,0-.12h.35v.12h.07a.48.48,0,0,0,0-.12s.05,0,.07,0h.5a.16.16,0,0,1,.07,0,.48.48,0,0,0,0,.12s.06,0,.07,0h.07s.06,0,.07,0,0-.11,0-.12.06,0,.07,0v.12s.06,0,.07,0,.06,0,.07,0,0-.11,0-.12.06,0,.07,0,.06,0,.07,0,0,.1,0,.12.06,0,.07,0,.06,0,.07,0,0-.11,0-.12.06,0,.07,0a.22.22,0,0,1,.08,0H355s.06,0,.07,0,0,.11,0,.13.06,0,.07,0V1.7h.07s.05,0,.07,0h.36s0,0,.07,0,.06,0,.07,0,0,.12,0,.12a.09.09,0,0,0,.07,0s.06,0,.07,0V1.7s.05,0,.07,0h.35s0,.12,0,.12.06,0,.07,0h.07a.16.16,0,0,0,.07,0h.36s.05,0,.07,0,.06,0,.07,0,0-.11,0-.12.05,0,.07,0h.07s0,0,.07,0h.07s.06,0,.07,0,0,.12,0,.12.06,0,.07,0,0,.12,0,.12a.16.16,0,0,0,.07,0h.08s0-.1,0-.12.05,0,.07,0,0,0,.07,0,0-.12,0-.12h.07s.05,0,.07,0,0,.11,0,.12.06,0,.07,0h.14s.05,0,.07,0,.06,0,.07,0,0-.1,0-.12.06,0,.07,0,.07,0,.07,0,0,.12,0,.12a.16.16,0,0,0,.07,0h.15s.06,0,.07,0a.48.48,0,0,1,0-.12s.05,0,.07,0,.06,0,.07,0v.12s.06,0,.07,0,0-.11,0-.12.05,0,.07,0h.14v.12s.06,0,.07,0,.06,0,.07,0,0-.1,0-.12.06,0,.07,0,.07,0,.07,0,0,.1,0,.12.06,0,.07,0,0,.1,0,.12.06,0,.07,0,0-.1,0-.12.06,0,.08,0,.05,0,.07,0,0-.12,0-.12.05,0,.07,0H360s.06,0,.07,0,0,.11,0,.12.05,0,.07,0h.07s.05,0,.07,0h.21s0,.1,0,.12.07,0,.08,0a.48.48,0,0,1,0-.12s.05,0,.07,0,.05,0,.07,0,.05,0,.07,0a.48.48,0,0,1,0-.12s.06,0,.07,0,.06,0,.07,0,0,.1,0,.12.06,0,.07,0,.06,0,.07,0,0-.12,0-.12.06,0,.07,0,0,.1,0,.12.06,0,.07,0,.06,0,.07,0,0-.11,0-.12a.16.16,0,0,1,.07,0h.21s.06,0,.08,0,.06,0,.07,0,0,.12,0,.12.05,0,.07,0h.35s.05,0,.07,0a.48.48,0,0,0,0-.12s.06,0,.07,0h.07s0,.11,0,.12.06,0,.07,0a.16.16,0,0,0,.07,0s.07,0,.08,0,0,.09,0,.12,0,0,.07,0a.48.48,0,0,1,0-.12s.05,0,.07,0,.05,0,.07,0h.07s.05,0,.07,0a.48.48,0,0,1,0-.12s.06,0,.07,0,.05,0,.07,0h.14s.07,0,.07,0a.48.48,0,0,1,0,.12s.07,0,.07,0,0-.11,0-.12.06,0,.07,0h.07s.06,0,.08,0a.48.48,0,0,0,0,.12h.07s0-.12,0-.12H364v.12s.06,0,.07,0V1.7s.06,0,.07,0h.14s0,0,.07,0,.06,0,.07,0,0,.1,0,.12.06,0,.07,0,0-.12,0-.12.07,0,.07,0,0,.12,0,.12h.29s.05,0,.07,0,0-.11,0-.12h.07v.12s.06,0,.07,0,0-.12,0-.12a.09.09,0,0,1,.07,0s0,.1,0,.12.06,0,.07,0V1.7s.06,0,.07,0a.09.09,0,0,1,.07,0s.07,0,.07,0,0,.12,0,.12.07,0,.07,0a.47.47,0,0,0,0-.12s.06,0,.08,0h.14s.06,0,.07,0a.48.48,0,0,0,0,.12s0,0,.07,0h.07s.05,0,.07,0h.35s.07,0,.07,0a.48.48,0,0,0,0-.12s.07,0,.07,0,0,.1,0,.12.07,0,.07,0,0-.12,0-.12h.08a.48.48,0,0,0,0,.12h.21s.06,0,.07,0,0-.12,0-.12,0,0,.07,0H367s.05,0,.07,0v.11s.06,0,.07,0,.05,0,.07,0h.14s.07,0,.07,0a.48.48,0,0,0,0-.12.16.16,0,0,1,.07,0s.07,0,.08,0,0,.12,0,.12h.07s.05,0,.07,0,.05,0,.07,0,0-.1,0-.12.06,0,.07,0v.12s.06,0,.07,0,0,0,.07,0h.07s.05,0,.07,0h.07s.05,0,.07,0,0-.11,0-.12.06,0,.07,0h.07s.07,0,.08,0,0,.12,0,.12,0,0,.07,0h.14s.05,0,.07,0h.14s.06,0,.07,0,0,.1,0,.12.06,0,.07,0,.06,0,.07,0,0-.09,0-.12,0-.09,0-.12h.07s0,.1,0,.12H370s.05,0,.07,0a.48.48,0,0,1,0,.12h.07V1.81s.06,0,.07,0,0,.12,0,.12a.16.16,0,0,0,.07,0s.07,0,.07,0,0-.12,0-.12h.92s.07,0,.07,0a.48.48,0,0,1,0,.12s.07,0,.07,0,0-.11,0-.12.06,0,.08,0h.49v.12s.06,0,.07,0V1.81s.06,0,.07,0h.78v.12s.06,0,.07,0,.05,0,.07,0,.06,0,.07,0V1.81s.05,0,.07,0h1.77s0,0,.07,0,.06,0,.07,0,0,.1,0,.12.06,0,.07,0V1.81s.06,0,.07,0v.12h.07a.48.48,0,0,0,0-.12h.07s.06,0,.07,0,0,.11,0,.12h.08s0-.12,0-.12h.07s.05,0,.07,0a.47.47,0,0,0,0,.12s.06,0,.07,0h.07s0-.12,0-.12.06,0,.07,0,.05,0,.07,0H376s0,0,.07,0h.07s.05,0,.07,0,.06,0,.07,0,0,.1,0,.12.06,0,.07,0h.15s0,0,.07,0,.06,0,.07,0,0-.12,0-.12,0,0,.07,0,.05,0,.07,0,.05,0,.07,0,0,.1,0,.12.06,0,.07,0V1.81s.06,0,.07,0a.09.09,0,0,1,.07,0s.06,0,.07,0,0,.12,0,.12h.14s.06,0,.07,0,0-.11,0-.12.06,0,.07,0,.07,0,.07,0a.48.48,0,0,1,0,.12s.06,0,.08,0,.06,0,.07,0,0-.13,0-.12.06,0,.07,0a.48.48,0,0,0,0,.12s.05,0,.07,0h.14s.05,0,.07,0h.28a.16.16,0,0,0,.07,0h.07a.22.22,0,0,0,.08,0s.06,0,.07,0,0,.12,0,.12h.14s0-.09,0-.12.06,0,.07,0a.48.48,0,0,1,0-.12h.07s0,.12,0,.12.05,0,.07,0,.05,0,.07,0H379s.06,0,.07,0,0-.1,0-.12.06,0,.07,0h.21a.22.22,0,0,0,.08,0h.63s.07,0,.07,0,0,.12,0,.12a.16.16,0,0,0,.07,0s.07,0,.07,0a.48.48,0,0,0,0-.12h.43s.05,0,.07,0,0,.11,0,.12.06,0,.07,0,0,0,.07,0,.05,0,.07,0,0-.11,0-.12h.07v.12h.07s.05,0,.07,0,0-.11,0-.12.06,0,.07,0,.05,0,.07,0H382s0,0,.07,0,0,.11,0,.12.06,0,.07,0,.05,0,.07,0h.21s.06,0,.08,0a.48.48,0,0,1,0-.12s.06,0,.07,0h.07s.06,0,.07,0,0,.1,0,.12.06,0,.07,0V1.8h.07v.12h.07s.06,0,.07,0,0-.12,0-.12,0,0,.07,0h.28s.05,0,.07,0h.08s.06,0,.07,0,0,.12,0,.12h.07s.05,0,.07,0,.06,0,.07,0,0-.1,0-.12.06,0,.07,0,.05,0,.07,0H384s.05,0,.07,0h.07s.07,0,.07,0a.48.48,0,0,1,0,.12h.14a.22.22,0,0,0,.08,0s.05,0,.07,0,0-.1,0-.12.06,0,.07,0a.48.48,0,0,0,0,.12s.06,0,.07,0h.14s.06,0,.07,0V1.8h.07s.05,0,.07,0,0,.11,0,.12.06,0,.07,0,.05,0,.07,0h.21s0-.11,0-.12h.07s0,.12,0,.12.06,0,.08,0,0-.1,0-.12.05,0,.07,0,.05,0,.07,0h.14s.06,0,.07,0,0,.1,0,.12.06,0,.07,0,.06,0,.07,0,0-.11,0-.12.06,0,.07,0v.12h.07a.48.48,0,0,0,0-.12s.05,0,.07,0h.14s0,.11,0,.12.07,0,.07,0h.08a.48.48,0,0,1,0-.12s.06,0,.07,0a.16.16,0,0,1,.07,0,.16.16,0,0,1,.07,0s.06,0,.07,0a.48.48,0,0,0,0,.12h.07s.06,0,.07,0V1.8s.06,0,.07,0,0,.1,0,.12.06,0,.07,0,.06,0,.07,0,0,.1,0,.12.06,0,.07,0,0-.1,0-.12.06,0,.07,0,.06,0,.07,0,0-.1,0-.11.06,0,.07,0a.11.11,0,0,1,.08,0s.06,0,.07,0,0,.11,0,.11a.09.09,0,0,0,.07,0s.06,0,.07,0V1.8s.06,0,.07,0,0,.11,0,.11.05,0,.07,0h.14s.05,0,.07,0h.14a.57.57,0,0,1,0,.13h.21s0-.11,0-.13.06,0,.08,0h.14a.16.16,0,0,0,.07,0h.63a.16.16,0,0,0,.07,0s.07,0,.08,0,0,.12,0,.12,0,0,.07,0h.07s.05,0,.07,0,.05,0,.07,0,0-.1,0-.12.06,0,.07,0h1.7a.48.48,0,0,1,0-.12h.07s0,.12,0,.12.05,0,.07,0h.78s0,0,.07,0,.06,0,.07,0,0,.12,0,.12h.14s0,0,.07,0a.48.48,0,0,1,0-.12s.06,0,.07,0h.07V2s.07,0,.07,0a.48.48,0,0,0,0-.12h1.84s0,.09,0,.12.06,0,.07,0,0,.1,0,.12H395V2a.48.48,0,0,1,0-.12s.06,0,.07,0V2s.06,0,.07,0h.07s0-.11,0-.12.07,0,.07,0a.22.22,0,0,1,.08,0,.48.48,0,0,0,0,.12s.06,0,.07,0h.14s.06,0,.07,0,0-.12,0-.12.05,0,.07,0H396s0,0,.07,0,0,.11,0,.12.06,0,.07,0h.07s.06,0,.07,0,0-.1,0-.12.06,0,.07,0,.07,0,.08,0,0,.1,0,.12.06,0,.07,0,0-.12,0-.12.06,0,.07,0h.07s.05,0,.07,0h.56s0-.12,0-.12h.08s0,.12,0,.12h.28a.48.48,0,0,0,0,.12h.07s0-.12,0-.12.05,0,.07,0h.56a.22.22,0,0,1,.08,0s.06,0,.07,0,0,.12,0,.12.06,0,.07,0,0-.11,0-.12.06,0,.07,0h1.62a.22.22,0,0,1,.08,0h.21a.57.57,0,0,0,0,.13h.07a.57.57,0,0,1,0-.13s.06,0,.07,0,.05,0,.07,0h.35s.06,0,.07,0,0,.11,0,.12h.07s0-.11,0-.12.07,0,.07,0h.15s.06,0,.07,0,0,.12,0,.12h.07s0-.1,0-.12.06,0,.07,0h1.7a.16.16,0,0,1,.07,0s0,.11,0,.12h.07a.48.48,0,0,1,0-.12s0,0,.07,0,.05,0,.07,0h.49s.06,0,.07,0,0,.1,0,.12.06,0,.07,0h.22a.48.48,0,0,1,0-.12h.07s0,.12,0,.12H405V.94Z" transform="translate(0)"/></g></g></svg>
