<svg viewBox="0 0 404.02 5.14" xmlns="http://www.w3.org/2000/svg"><path d="m.5 2.1c.37-.03.73-.1 1.1-.1 7 0 13.91-.25 20.93 0 3.66.15 7.5 0 11.25 0 4.61-.08 9.2-.24 13.81-.34q13.81-.26 27.64-.51c6.21-.15 12.43-.25 18.65-.32 5.24-.06 10.56.07 15.73-.11 9.85-.36 19.7-.11 29.55-.2 7.06-.07 14.16.06 21.24.09h10.63c1.07 0 2.13 0 3.2.05h2.77c1.49 0 3-.07 4.48-.07h11.57c.65 0 1.31-.05 1.93 0 6.49.32 13 0 19.55.14a91.85 91.85 0 0 1 9.75.36 12.27 12.27 0 0 0 1.43-.09c1.15-.06 2.31-.18 3.44-.17q11.72.12 23.44.19c2.89 0 5.77.16 8.67.21l37.29.68 26.4.49c6.1.11 12.2.25 18.31.3 1.45 0 2.51.44 4.37.12a41 41 0 0 1 4.69 0c2.57 0 5.21-.11 7.7 0 5.15.23 10.25-.06 15.36 0a66.88 66.88 0 0 1 8.79.35 22.84 22.84 0 0 0 3.46.06 135.54 135.54 0 0 1 15.42.68 2.31 2.31 0 0 1 .47.11c-1 .63-1.13.63-3.37.59-4.5-.09-9-.14-13.5-.24-3.93-.09-7.84-.25-11.78-.34-2.55 0-5.14-.07-7.69 0q-11.18.17-22.18-.25c-1.27 0-2.59-.1-3.85-.07a45.25 45.25 0 0 1 -6.88-.3 9 9 0 0 0 -2.05 0 26.16 26.16 0 0 1 -5.89.2c-4.48-.14-8.94-.32-13.42-.45-1.43 0-2.95.1-4.38.06-2.53-.11-5.02-.22-7.53-.38-.31 0-.64-.06-.93 0-8.61.37-17.07-.11-25.58-.31-5.46-.12-10.93-.21-16.39-.31-3 0-6-.11-9-.13-3.65 0-7.31 0-10.95-.06l-16.43-.2c-1.17 0-2.35 0-3.53 0-6.22 0-12.45 0-18.66 0-5.12 0-10.23-.2-15.35-.25-1.78 0-3.6.14-5.39.13q-16.74-.07-33.48-.2c-5.26 0-10.52-.08-15.77-.08-3.43 0-6.86.09-10.3.13q-10.61.1-21.23.19c-4 0-8.08 0-12.12 0-1.71 0-3.42.1-5.13.13l-23.15.38c-8 .15-16.08.38-24.13.43-6.21.05-12.44-.12-18.66-.19l-10.68-.17c-1.22 0-2.43 0-3.64-.06z" fill="#2a2530" stroke="#2a2530" stroke-linecap="round" stroke-linejoin="round"/></svg>