<svg viewBox="0 0 197.05 56.28" xmlns="http://www.w3.org/2000/svg"><g fill="#bbe6f7" stroke="#2a2530" stroke-linecap="round" stroke-linejoin="round" stroke-width="3"><path d="m1.5 13.1s13.5-9.21 97.19-9.61 53.1-5.18 96.86 1.7a252.19 252.19 0 0 1 -24.8 8s16.13 4.87 8.64 7.24-18 6.17-18 6.17l30.7 7.91s9.77 8.93-52.65 14-71.44-7.03-127.39 6.27c14.19-9.53 18.77-12.65 18.77-12.65l-22.74.18s19.32-9 15-12.47-17.87-4.43-10.81-7.4 24.46-8.55 9.66-10-20.43.66-20.43.66z"/><path d="m23.12 29.84 138.24-3.27"/></g></svg>