<svg viewBox="0 0 539.76 542.56" xmlns="http://www.w3.org/2000/svg"><path d="m531 276.07c-3.43.7-5.62 1.07-10.82 1.82 9.31.42 12.7.58 16.09.76 0-.62 0-1.23 0-1.85-1.5-.26-2.58-.41-5.27-.73zm-4.6-29.82a77.18 77.18 0 0 1 8.51.93c.52-.24.76-.36 1.18-.59v-1.84c-4.44.27-9.3.66-22.66 1.79 5.99-.18 8.62-.24 12.95-.29zm-68.62-198.11-5.51 6.49 5.58-6.44zm49.84 115.42c-3.44 2-5.53 3.22-9.82 5.68l.2.68c14.5-6.3 19.32-8.32 27.7-12.08l-5.33 1.27c-4.55 1.58-7.08 2.46-12.75 4.45zm20.1-6.63-2 .91 2.13-.49c-.06-.14-.1-.28-.13-.42zm-64.63 307.07 11.3 12.59.27.25c.21-.22.43-.42.65-.64q-12-13-23.88-26.1zm69.91-248.07c.9 0 1.3 0 2 .11 0-.44-.05-.88-.07-1.33-3.07.5-5.41.91-11.43 2 4.71-.46 6.64-.62 9.5-.78zm-54.68-149.32-5.22 5.16 5.79-4.56zm12.57 74c12-6.9 17-9.8 26.2-15.25l-.68-1.58-.34.13c-4.48 3-6.82 4.51-11.85 7.78s-7.63 5.11-13.33 8.9zm-24.89-63.25c-1.43 2-2.16 3-3.62 5l10.72-10.59zm-233-73.36v.32c-.06 2.41 0 4.2.19 8.78 1.39 4.5 2.18 7.26 4 13.65l.44 2.49h.09c-2.53-14.79-3.47-20.24-4.45-25.24zm269.77 93.92c-2.43 2-3.67 3-6.18 5.06l6.33-4.83zm-397.89-30.15c-8.37-9.5-12.13-13.77-19.58-22.14l-1 .78c2.83 3.76 4.25 5.67 7.18 9.59 5.14 4.53 7.8 6.85 13.4 11.77zm200.12-38.25h.15c1.22-5.58 1.77-8.08 2.75-12.38.34-4.78.46-6.77.57-9.81.08-1.54.1-2.19.11-3.25h-1.07c-.26 5.02-.81 10.51-2.51 25.44zm-193 46.22c-2.5-2.9-3.72-4.31-6.11-7.06l-1-.91 7.07 8zm359.81 46.47 7.23-5c5.6-4.52 8.23-6.65 13.3-10.78l4.23-3.44q-12.46 9.49-25 18.9zm56.37 180.5c-3.91-.34-6.32-.56-11.88-1.1l-5.71-.48c0 .19 0 .37-.05.56 14.83 2.1 20.27 2.86 25.23 3.55 0-.11 0-.22 0-.32h-.12c-2.05-.73-3.58-1.18-7.45-2.21zm-158.59-293.62-1.24-.24c-2 6.92-3.69 12.37-8.14 26.26 2.26-6.68 3.27-9.68 5-14.87 2.05-5.14 2.84-7.13 4.25-10.54.05-.25.08-.37.13-.61zm27 6.93c-.32.66-.48 1-.8 1.68-2.48 4.1-3.79 6.32-6.63 11.19-1.79 5.31-2.78 8.21-5 14.57 6.21-13 8.69-18.26 13.13-27.21zm-66.47 16.63.67.1c2.8-12.35 3.87-17.31 5.21-23.83-1.58 3.79-2.54 6.25-4.73 12.09-.36 4.17-.59 6.51-1.15 11.64zm152.36 368.93-.07.11c3.68 2.62 5.45 3.88 8.85 6.33l-1.21-1.19zm-37.9 92.07c1.44 2 2.15 3 3.57 5l.45-.3-.12-.17zm-176.44-487.8c.47 5.3.75 10 1.38 22.11h.38v-8c-.45-5.4-.67-7.67-1.06-11.19-.29-1.34-.43-1.91-.7-2.92zm233.86 412.84c4.44 2.27 6.55 3.35 10.61 5.45l.21-.42c-7.92-5.84-12.06-8.86-21.59-15.7 4.56 4.45 6.69 6.57 10.77 10.67zm-77.4 47.85 3.92 6.36c4.11 5.66 6.05 8.34 9.81 13.5l6.22 7.25q-9.75-13.72-19.43-27.52c-.12.13-.32.27-.49.41zm-157.17-463.04a22.42 22.42 0 0 1 .71 2.35c-.09-1.11-.14-1.58-.23-2.35zm84.78 510.58c-1.12-3.9-1.74-6-3.07-10.6h-.21c4 15.83 5.43 22 6.84 29.13l1.61-.16c.05-2.06 0-3.28-.1-6.1-1.75-4.11-2.77-6.6-5.07-12.27zm-88.81 8 .07.68c.37 2.08.52 17.68 1 16.18.14-4.23.2-21.58.38-27.18h-.07c-.69 7.55-.89 5.91-1.38 10.34zm28.06 4c0-4.36 0-7-.14-13.07-.08-.72-.12-1.08-.21-1.82l-1.34.08c.38 14.78.43 20.14.16 24.78h1.3c-.11-.49-.16-.76-.28-1.37.26-2.43.36-4.18.51-8.54zm243-191.79-.32-.13zm-78.92-242.4c2.82-3.9 4.18-5.8 6.84-9.49l-13.1 13c.29.3.58.59.86.89zm52.31 233.66c4.75 2.08 6.92 3.05 10.83 4.85 4.26.73 6.13 1 9.32 1.53-6.1-2.16-10.22-3.54-20.09-6.76zm-479.32-76.92v-.56c-4.11-.13-6-.18-9.4-.25l4.54.89zm476.56 110.06c11.21 4.84 16.08 7 22.48 9.89-2.65-1.49-4.27-2.36-7.93-4.27zm22.91-26.76c2.93 1 4.17 1.49 6.13 2.26-1.44-.71-2.3-1.11-4.27-2zm-23.15-139.22-.84.37c.1.48.21 1 .31 1.44 15.39-5.44 21.39-7.55 28.38-10.18-3.46.54-5.78 1-11.42 2.14-5.6 2.13-8.92 3.39-16.43 6.23zm-97.85-131.96c3.39-4.89 5-7.2 8.08-11.63 3.91-5.36 5.75-7.87 9.32-12.71 1.44-3 2.14-4.49 3.51-7.34l-.36-.19c-7 10.55-13.8 21.18-20.65 31.8zm88.78 316.05c5 3.61 7.31 5.3 11.61 8.51 5.19 3.13 7.54 4.57 11.88 7.29 2.05 1.09 3 1.62 4.92 2.64.19-.58.37-1.17.55-1.75-9.5-5.85-19.19-11.38-28.88-16.92-.03.07-.05.15-.08.23zm34.07-6.92.74.21v-.1c-1.14-.54-1.75-.82-3-1.41zm-519.16-123.88a37.93 37.93 0 0 0 -7 1.56 1.34 1.34 0 0 0 0 .2c3.39-.19 6.64-.18 15.48 0-3.89-.76-5.6-1.07-8.48-1.76zm133.73-192.36c-1.77-2.68-2.63-4-4.31-6.48l-.43-.5c1.82 2.71 2.76 4.1 4.7 7zm63-48.44h-.21c1.07 3.32 1.81 5.81 3.65 12.15-1.3-4.93-1.85-7-2.7-10.1-.31-.9-.46-1.31-.74-2.05zm-45.42 20.7c-2.1-5.09-3-7.35-4.75-11.38l-1.46-2.17-1 .26c4.59 9.24 8.93 18.61 13.3 28-2.83-6.83-3.96-9.61-6.09-14.71zm-22.32 20.76c-7.08-10.49-10.13-14.94-16-23.27l-.49.22c2.32 4.31 3.52 6.57 6.07 11.4 4 4.4 6.06 6.7 10.42 11.65zm37.06 457.67c-2 6.59-2.89 9.56-4.39 14.72-2.76 4.89-3.79 6.55-5.89 9.92-.08.37-.12.55-.19.91l1.81.38c4.27-9.7 8.31-19.5 12.4-29.27l-1.63-.42zm20.1 29.49c.41-1.88.67-3 1.29-5.73 1.18-3.89 1.89-6.26 3.52-11.73-2.86 9.22-4 12.83-5.51 17.4zm-2.14-498.39c-.71-4.23-1-6.21-1.59-9.86-2.27-5.59-3.28-8-5-12.15-.81-3.07-1.15-4.39-1.7-6.55l-2 .2c2.32 7 4.26 13.07 9.33 28.57zm-59.31 485.63.94-2.44-1.33 2.29zm.94-2.44c3.8-6.41 5.82-9.9 10.4-17.89-3.31 4.78-4.86 7-7.83 11.17-1.08 2.81-1.59 4.15-2.57 6.72zm16.18-28.05c-2.43 4.29-3.58 6.32-5.78 10.16l.94-1.36c1.87-3.35 2.85-5.09 4.9-8.77zm234.63 21.65c-2.21-5-3.4-7.67-6-13.62l-2.21-3.82-.91.44c4.77 10 9.51 19.95 14.47 29.83l.85-.26-.61-1.41c-2.09-4.06-3.19-6.27-5.59-11.16zm-61.73 20.34c-.05 1.08-.09 1.57-.19 2.41h.75c-.15-1.41-.25-2.28-.52-4.32-.01.79-.01 1.18-.04 1.91zm-93.13 1.82c.53-2.86.9-4.9 1.8-10-.66 2.13-1 3.1-1.57 4.86-.14 2.43-.19 3.47-.23 5.14zm185.77-41.73c-4.13-5.16-6.29-7.87-10.89-13.69h-.06c6.4 10.86 12.79 21.72 19.28 32.52l.83-.42-3-3.8c-2.32-5.48-3.53-8.39-6.16-14.61zm45.07-63.74 2.12 2.3 13.45 11.18c5.05 4.4 7.46 6.5 12.2 10.65l2.77 2.1.73-1q-15.08-13.35-30.19-26.61c-.36.47-.71.94-1.08 1.38zm-333.37 48.16c-2 2.55-2.94 3.79-4.82 6.21-3.87 5.63-5.69 8.27-9.19 13.32-4 4.55-6 6.71-9.75 10.95l1.46.82q11.4-15.48 22.6-31.09zm104.33 47.28c.81-2.59 1.24-4 2.16-7.13.29-2.54.44-3.89.78-6.76h-.52c-1.1 6.37-1.59 9.19-2.42 13.89zm-1.83 11.35c0-.48 0-.74 0-1.32-.11.57-.16.84-.26 1.31zm88.55-27.19c1.08 3.43 1.59 5 2.55 8-.49-3-.75-4.69-1.33-8.19zm2.55 8c1.09 6.9 1.52 9.77 2.1 14.08 0-2.75 0-4.41-.2-8.24-.72-2.15-1.1-3.35-1.9-5.82zm-291.17-82.81.84-.78-.92.65zm-14.12-95.48-7.2 1.8 3.39-.65zm53.82-221.28-6.07-5.49-15.31-9.3c-4.91-2.8-7.26-4.14-11.86-6.78l-.32.49q16.26 11.24 32.6 22.34zm-47.88 191.78c2.16-.69 3.3-1.05 5.69-1.79l-.12-1.38c-14.85 2.68-20.31 3.68-25.42 4.71v1c2-.16 3.46-.3 7.09-.7 4.16-.56 6.76-.94 12.76-1.84zm3.55-157.87 13.3 5.78 5.48 1.55.48-1q-15.67-6.09-31.37-12.15l-.15.46 1.06.69c4.06 1.73 6.28 2.65 11.19 4.67zm20.45 234.15c-6.07 2.44-8.87 3.56-14.05 5.62-5.43 2.4-7.9 3.49-12.46 5.53-2 1.13-2.91 1.68-4.74 2.75.18.56.38 1.1.57 1.65 10.18-5.27 20.46-10.36 30.72-15.48zm-38.49-13.28c1.47-.58 21.27-6.34 23-7-1.74.49-21.55 6.17-23 6.58-.06.14-.03.28 0 .42zm6.78-154.57c4.58.93 7.28 1.48 13.38 2.74l1.47.09c.06-.51.14-1 .21-1.53-15.19-2.57-20.88-3.46-26.55-4.1v.67c.75.28 1.18.43 2.12.75 2.86.39 4.77.67 9.37 1.38zm64.55 265.76.25-.32-1.09 1.2zm-47.53-148.91-5.9 1.36-9.35 2.82 15.3-3.91zm-27.52 6.91v.34l5.07-1.25c-2.37.46-3.39.64-5.07.91zm31.03-218.91-10.36-5c-.09.2-.18.4-.28.59 8.56 5.19 13.11 7.9 23.66 14.16-5.53-4.08-8.1-6.01-13.02-9.75zm27.88 291c-.29-.41-.57-.82-.85-1.24-9.29 6.36-18.59 12.71-27.83 19.13 4.31-2.49 6.53-3.77 11.21-6.45l14.39-8.84zm-31.7 19.92 3-2.08-2 1.16zm43.65 54.41 3.3-3.54-3.4 3.46zm5.66-51.76-3.53 2.74-11.15 10.69 15.11-13zm8.69 34.54c-4.1 5.17-6 7.63-9.91 12.48q11.45-12.27 22.91-24.59c-5.47 5.09-8 7.49-13 12.11zm-61.77-283.84c-11.49-2.71-16-3.69-21.87-4.73l-.09 1c2.69.36 4.37.63 8.35 1.36 4.64.69 7.38 1.18 13.61 2.37zm26.44 273c4.46-3.82 6.73-5.75 11.45-9.77l.51-.49c-4.94 4.19-7.31 6.22-11.96 10.22zm21.62-382.44-12.68-10.56-1.61-1.27-1.38 1.42q13.53 12 27.09 24zm-61.79 197.55c4.27-.41 6.79-.63 12.48-1.09v-.17c-14.69-.44-20-.65-24.48-1.05v.69a24.9 24.9 0 0 0 2.54.73c2.81.35 4.73.51 9.46.89z" fill="none" stroke="#2a2530" stroke-linecap="round" stroke-linejoin="round" stroke-width="7"/></svg>