<svg xmlns="http://www.w3.org/2000/svg" viewBox="0 0 3.88 371.76"><defs><style>.cls-1{fill:#2a2530;fill-rule:evenodd;}</style></defs><g id="Layer_2" data-name="Layer 2"><g id="illustrations_graphics" data-name="illustrations/graphics"><path class="cls-1" d="M3.13,372.12h.12s0-.06,0-.07,0,0,0-.06v-.2H3.13s0-.06,0-.06,0-.05,0-.07v-.06s0-.05,0-.07,0-.06,0-.06a.48.48,0,0,1,.12,0s0-.06,0-.07-.1,0-.12,0,0,0,0-.06v-.26s0-.06,0-.07h.12s0-.05,0-.06,0-.05,0-.07,0-.05,0-.06H3.13s0-.06,0-.07v-.19h.12s0-.06,0-.07H3.13s0-.05,0-.06v-.07s0-.05,0-.06h.12s0-.06,0-.07H3.13s0-.05,0-.06v-.65s0-.06,0-.07h.12s0-.06,0-.06H3.13v-.52s0-.06,0-.06h.12s0-.05,0-.07,0-.05,0-.06H3.13s0-.06,0-.07,0-.05,0-.06h.12s0-.06,0-.07,0-.06,0-.06H3.13s0-.05,0-.07v-.06s.11,0,.12,0,0-.06,0-.07,0,0,0-.06,0-.05,0-.07v-.26s0-.06,0-.06H3.13s0,0,0-.07v-.45s0-.05,0-.07h.12s0-.05,0-.06H3.13s0-.06,0-.07v-.13s0-.05,0-.06h.12s0-.06,0-.07,0-.05,0-.06H3.13s0-.06,0-.07,0-.06,0-.06a.48.48,0,0,1,.12,0s0-.06,0-.07-.12,0-.12,0v-.26s0,0,0-.06,0-.06,0-.07h.12s0-.05,0-.06H3.13s0-.06,0-.07h.12s0-.05,0-.06,0-.06,0-.07H3.13v-.06s0-.06,0-.07h.12s0-.06,0-.06H3.13s0-.05,0-.06v-.13s0-.06,0-.07h.12v-.06s0-.05,0-.07H3.13s0-.06,0-.06,0-.06,0-.07h.12s0-.05,0-.06,0-.05,0-.07v-.19s0-.06,0-.07-.11,0-.12,0,0,0,0-.06,0-.05,0-.07,0,0,0-.06,0-.06,0-.07H3s0,0,0-.06h.12s0-.06,0-.07,0,0,0-.06V364h.12s0-.05,0-.06,0-.06,0-.07H3.13s0,0,0-.06v-.26s0-.05,0-.07h.12s0-.05,0-.06v-.2s0,0,0-.06H3.13a.09.09,0,0,1,0-.07.48.48,0,0,0,.12,0s0,0,0-.06V363s0,0,0-.06a.16.16,0,0,1,0-.07s0-.05,0-.06h.12v-.13H3.25s0-.05,0-.06,0-.05,0-.07,0-.06,0-.07H3.13v-.06s0-.06,0-.06h.12s0-.05,0-.07v-.06s0-.05,0-.07v-.19H3.13s0-.06,0-.07,0-.06,0-.06h.11a.16.16,0,0,0,0-.07v-.26s0,0,0-.06v-.13s0,0,0-.07,0-.06,0-.06H3.13a.09.09,0,0,1,0-.07h.11V361s0-.05,0-.06H3.13s0-.06,0-.07v-.06h.11s0-.06,0-.07,0,0,0-.06,0-.06,0-.07H3.13s0-.05,0-.06v-.07s0-.05,0-.06h.11s0-.06,0-.07,0,0,0-.06v-.13s0-.05,0-.07v-.13s0,0,0-.06,0-.06,0-.07-.11,0-.11,0,0,0,0-.06v-.07s0,0,0-.06.1,0,.11,0,0-.06,0-.07,0,0,0-.06-.1,0-.11,0a.09.09,0,0,1,0-.07s0-.05,0-.06h.11s0-.05,0-.07,0,0,0-.06V359s0-.05,0-.06H3.13s0-.06,0-.07,0-.06,0-.06h.12s0-.05,0-.06v-.07s0,0,0-.06,0-.06,0-.07H3.12s0-.06,0-.06h.12s0-.05,0-.07v-.91H3.12s0-.06,0-.06,0-.05,0-.07,0-.06,0-.06h.12s0-.06,0-.07H3.12s0-.05,0-.06h.12s0-.05,0-.07,0-.05,0-.06h.12a.09.09,0,0,0,0-.07H3.24v-.52s0-.06,0-.06-.12,0-.12,0,0-.06,0-.07.12,0,.12,0,0,0,0-.06v-.72s0,0,0-.06v-.07s0-.05,0-.06H3.12s0-.06,0-.07h.12s0-.05,0-.06v-.07s0,0,0-.06v-.65s0,0,0-.06-.1,0-.12,0,0-.06,0-.07h.12s0-.05,0-.06,0,0,0-.07v-.06s0-.06,0-.07h.12s0-.05,0-.06v-.07H3.24s0-.05,0-.06,0-.05,0-.07v-.06h.12v-.07H3.24v-.26H3.12v-.06h.12s0-.05,0-.07V353s0-.05,0-.07,0-.06,0-.06H3.12s0-.06,0-.07h.12v-.26H3.12s0-.05,0-.06,0-.06,0-.07h.12v-.52s0,0,0-.06,0-.06,0-.07H3.12s0,0,0-.06,0-.05,0-.07,0-.05,0-.06h.12v-.65s0-.05,0-.06h.12s0-.06,0-.07,0-.05,0-.06v-.2s0-.05,0-.06H3.24s0-.06,0-.07,0,0,0-.06,0-.05,0-.07v-.06s0-.05,0-.07,0-.05,0-.06H3.12s0-.06,0-.07h.12s0-.05,0-.06,0-.05,0-.07v-.52s0,0,0-.06,0-.06,0-.07h.12s0-.05,0-.06H3.24s0-.06,0-.07V349h.12v-.07H3.24v-.06s0-.05,0-.07,0-.05,0-.06h.12s0-.06,0-.07H3.24v-.06h.12v-.07s0-.05,0-.06H3.24v-.07s0,0,0-.06h.12v-.07H3.24v-.65s0,0,0-.06h.24v-.07H3.24s0-.05,0-.06v-.06s0-.05,0-.07,0,0,0-.06,0-.06,0-.07h.12v-.13s0-.05,0-.06H3.24s0-.06,0-.07v-.06s0-.06,0-.07h.12s0-.05,0-.06,0-.06,0-.07H3.24s0,0,0-.06,0-.06,0-.07h.12s0,0,0-.06v-.07s0,0,0-.06H3.24s0-.06,0-.07a.06.06,0,0,1,0-.06s0-.06,0-.07a.48.48,0,0,0,.12,0V346s0,0,0-.06,0,0,0-.07,0-.06,0-.06h.12v-.13H3.24s0-.06,0-.07h.12s0-.05,0-.06v-.26s0-.05,0-.07H3.23v-.06h.13s0-.06,0-.07h.12v-.06s0-.05,0-.07H3.36s0-.05,0-.06,0-.05,0-.07,0-.05,0-.06-.11,0-.13,0,0-.05,0-.07v-.13s0,0,0-.06v-.2h.13v-.06a.16.16,0,0,1,0-.07H3.23v-.06h.13v-.2s0,0,0-.06v-.06a.15.15,0,0,0,0-.07.16.16,0,0,0,0-.07v-.06s0-.05,0-.06,0-.06,0-.07H3.23v-.19h.12s0-.06,0-.07,0-.06,0-.06H3.23s0-.06,0-.07.11,0,.12,0,0-.05,0-.06,0-.05,0-.07v-.19s0-.06,0-.07-.1,0-.12,0,0,0,0-.06h.12s0-.06,0-.07,0,0,0-.06v-.46s0,0,0-.06H3.23s0-.06,0-.07,0,0,0-.06v-.39s0-.05,0-.07,0-.06,0-.06a.48.48,0,0,1,.12,0s0-.05,0-.07,0,0,0-.06,0-.05,0-.07-.1,0-.12,0,0,0,0-.06,0-.06,0-.07h.12s0,0,0-.06v-.26s0-.05,0-.07H3.23s0-.05,0-.06v-.06h.12s0-.06,0-.07h.12s0-.05,0-.06v-.13s0-.06,0-.07H3.35s0-.05,0-.06,0-.05,0-.07v-.26s-.1,0-.12,0,0-.06,0-.06h.12s0-.06,0-.07,0,0,0-.06,0-.05,0-.07,0-.06,0-.06a.48.48,0,0,1,.12,0s0-.05,0-.07-.1,0-.12,0,0,0,0-.06H3.23s0-.06,0-.07,0,0,0-.06v-.13s0-.05,0-.07h.12s0-.05,0-.06,0-.05,0-.07v-.32s0-.05,0-.07,0-.05,0-.06H3.23v-.07s0-.06,0-.06h.12s0-.06,0-.07h.12s0-.06,0-.06H3.35V338s0-.05,0-.07v-.06s0-.06,0-.07-.12,0-.12,0v-.13s0,0,0-.06,0-.06,0-.07h.12s0,0,0-.06v-.07H3.23s0-.05,0-.06,0-.05,0-.07h.12s0-.05,0-.06v-.52H3.23s0-.06,0-.06,0-.05,0-.07,0-.05,0-.06.1,0,.12,0,0-.06,0-.07,0-.06,0-.06-.1,0-.12,0,0-.06,0-.07h.12s0-.05,0-.06,0-.05,0-.07V336s0,0,0-.07a.48.48,0,0,1-.12,0s0,0,0-.06,0,0,0-.07v-.19s0-.05,0-.07h.12s0-.05,0-.06,0-.06,0-.07h.12s0-.05,0-.06H3.35s0-.05,0-.07H3.23s0-.06,0-.06h.12s0-.06,0-.07v-.06s0-.05,0-.07H3.23s0-.05,0-.06h.12s0-.06,0-.07,0,0,0-.06v-.33s0,0,0-.06,0-.06,0-.07.12,0,.12,0,0-.06,0-.06-.12,0-.12,0,0,0,0-.07v-.06s0,0,0-.07V334s0-.06,0-.07H3.23s0-.05,0-.06,0-.06,0-.07h.12s0,0,0-.06V333s0-.05,0-.06,0-.06,0-.07h.12v-.06s0-.06,0-.07-.11,0-.12,0,0,0,0-.06v-1.17s0-.05,0-.07,0-.06,0-.06h.12v-.07H3.35v-.45a.16.16,0,0,1,0-.07v-.06s0,0,0-.07,0-.05,0-.06h.11s0-.06,0-.07H3.35s0-.05,0-.06v-.2s0,0,0-.06h.11s0-.05,0-.07,0,0,0-.06a.16.16,0,0,0,0-.07H3.35s0-.05,0-.06,0-.05,0-.07v-.06s0,0,0-.07v-.13s0,0,0-.06v-.45s0,0,0-.07V329s0,0,0-.07,0-.06,0-.06h.11s0-.05,0-.07v-.26s0,0,0-.06,0-.06,0-.07H3.34v-.19s0-.05,0-.07v-1s0,0,0-.07,0-.05,0-.06h.12s0-.05,0-.07v-.32s0-.05,0-.07,0-.05,0-.06H3.34s0-.05,0-.07,0,0,0-.06v-.26s0-.06,0-.07.12,0,.12,0,0-.06,0-.06H3.34v-.2s0,0,0-.06,0,0,0-.06h.12s0-.06,0-.07v-.06s0-.05,0-.07,0-.06,0-.06H3.34s0-.05,0-.07v-.19h.12s0-.06,0-.07,0,0,0-.06H3.34s0-.06,0-.07,0,0,0-.06v-.13s0-.05,0-.07h.12s0-.05,0-.06H3.34s0-.06,0-.07,0,0,0-.06v-.13s0-.06,0-.07.12,0,.12,0,0-.06,0-.06-.11,0-.12,0,0,0,0-.07v-.06h.12s0-.06,0-.07,0-.06,0-.06H3.34v-.26s0-.06,0-.07h.12s0-.05,0-.06,0-.05,0-.07,0-.05,0-.06H3.34s0-.06,0-.07,0-.06,0-.06h.12s0-.05,0-.07v-.06H3.34s0-.05,0-.07,0,0,0-.06v-.2s0,0,0-.06.11,0,.12,0,0-.05,0-.07,0,0,0-.06v-.07H3.34s0,0,0-.06,0,0,0-.07v-.13s0-.05,0-.06h.12s0-.06,0-.07v-.06s0-.06,0-.07H3.34s0-.05,0-.06h.12s0-.05,0-.06v-.07H3.34s0-.05,0-.06,0-.05,0-.07v-.06s0-.06,0-.07h.12s0-.05,0-.06v-.07H3.34s0-.05,0-.06,0-.05,0-.07v-.13s0-.05,0-.06h.12s0-.06,0-.07H3.34s0-.05,0-.06,0-.06,0-.07h.12V321s0-.05,0-.07-.11,0-.12,0,0,0,0-.06v-.13s0,0,0-.07h.12s0-.05,0-.06,0-.05,0-.07v-.06s0-.06,0-.07H3.34s0-.06,0-.06h.12v-.46s0,0,0-.06,0-.05,0-.07H3.34s0-.05,0-.06v-.07s0,0,0-.06,0-.06,0-.07h.12v-.06s0-.05,0-.07a.48.48,0,0,1-.12,0s0,0,0-.06v-.07s0,0,0-.06h.12v-.07s0-.05,0-.06H3.34s0-.06,0-.07v-.06s0-.05,0-.06h.12s0-.06,0-.07,0-.06,0-.07H3.34s0,0,0-.06v-.06h.12s0-.06,0-.07,0,0,0-.06v-.52H3.34a.09.09,0,0,1,0-.07h.12s0-.06,0-.06v-.46s0,0,0-.06,0,0,0-.07H3.34s0-.05,0-.06,0-.06,0-.07h.12s0-.05,0-.06v-.07H3.34s0-.05,0-.06v-.07s0,0,0-.06v-.2h.12v-.06H3.34a.09.09,0,0,1,0-.07s0-.06,0-.06h.12s0-.05,0-.07v-.06s0-.06,0-.07-.11,0-.12,0,0-.05,0-.06h.12s0-.06,0-.07,0-.06,0-.06H3.34v-.07s0,0,0-.06.11,0,.12,0,0-.06,0-.07v-.25H3.34a.09.09,0,0,1,0-.07h.12s0-.06,0-.06v-.33s0-.05,0-.06H3.34a.09.09,0,0,1,0-.07h.11s0-.05,0-.06,0-.05,0-.07v-.06a.08.08,0,0,0,0-.07s0-.06,0-.06H3.34s0-.05,0-.07,0-.05,0-.06,0-.06,0-.07h.11s0,0,0-.06v-.46h.13v-.06H3.45v-.2s0,0,0-.06v-.13s0-.06,0-.07h.12s0-.06,0-.06H3.45s0-.05,0-.07v-1s0-.05,0-.06h.12s0-.06,0-.07H3.45s0-.05,0-.06v-.07s0,0,0-.06v-.07s0-.05,0-.06H3.33s0-.06,0-.06h.12s0-.06,0-.07,0-.06,0-.06H3.33s0-.06,0-.07h.12s0-.05,0-.06,0-.05,0-.07v-.19s0-.05,0-.07,0-.05,0-.06a.48.48,0,0,1,.12,0s0-.06,0-.07H3.45v-.06s.11,0,.12,0,0-.06,0-.07,0-.06,0-.06H3.45s0-.06,0-.07v-.52h.12s0-.05,0-.06,0-.05,0-.07V310H3.45s0-.06,0-.07,0,0,0-.06v-.26s0-.06,0-.07h.12s0-.05,0-.06v-.13s0-.05,0-.07a.48.48,0,0,1-.12,0s0,0,0-.06v-.52h.12s0-.05,0-.07,0,0,0-.06v-.33H3.45s0-.05,0-.06v-.13s0-.05,0-.07h.12s0-.05,0-.06v-.06s0-.05,0-.07,0-.06,0-.06H3.45s0-.05,0-.07v-.26s0-.06,0-.06h.12s0-.06,0-.07H3.45s0,0,0-.06v-.33h.12s0-.05,0-.06,0-.06,0-.07H3.45v-.13s0,0,0-.06h.12s0-.06,0-.07,0-.06,0-.06H3.45v-.2s0,0,0-.06,0-.06,0-.07h.12s0-.05,0-.06V306H3.45s0-.05,0-.06v-.33s0-.06,0-.06h.12s0,0,0-.07v-.06s0-.06,0-.07H3.45s0-.05,0-.06v-.2s0,0,0-.06h.12s0-.06,0-.07H3.45s0-.05,0-.06V303.7s0,0,0-.06,0-.06,0-.07h.12s0-.05,0-.06v-.07H3.45s0-.06,0-.06v-.07s0-.06,0-.06h.12s0-.06,0-.07H3.45V303s0-.05,0-.07,0-.06,0-.06h.12s0-.05,0-.07v-.06H3.45s0-.06,0-.07,0,0,0-.06v-.07h.12s0-.06,0-.06-.11,0-.12,0,0-.06,0-.07v-.06s0,0,0-.07h.12s0-.06,0-.06H3.45s0-.06,0-.07H3.33s0-.05,0-.06h.12s0-.06,0-.07,0-.05,0-.06,0-.05,0-.07h.12s0-.05,0-.06,0-.06,0-.07H3.45s0-.05,0-.06,0-.05,0-.07,0-.05,0-.06h.12s0-.06,0-.07v-.06s0-.06,0-.07H3.45s0,0,0-.06,0-.06,0-.07h.12V301s0-.06,0-.07H3.45s0-.05,0-.06v-.13s0-.06,0-.07.12,0,.12,0,0,0,0-.06-.11,0-.12,0,0-.06,0-.07v-.13s0,0,0-.06h.12s0-.06,0-.06H3.45s0-.06,0-.07v-.13s0,0,0-.06,0-.06,0-.07h.12s0-.05,0-.06,0-.05,0-.07,0-.06,0-.06H3.45s0-.06,0-.07,0-.06,0-.06h.12s0-.05,0-.07v-.06s0-.06,0-.07H3.45s0-.05,0-.06,0-.05,0-.07v-.26s0,0,0-.06h.12V299s-.12,0-.12,0,0,0,0-.06v-.33s0,0,0-.06v-.13s0-.05,0-.07,0-.05,0-.06h.12s0-.05,0-.07v-.06s0-.06,0-.07H3.45s0-.05,0-.06,0-.05,0-.07v-.13s0,0,0-.06a2.26,2.26,0,0,1,0-.26v-.13s0,0,0-.07v-.13s0-.05,0-.06h.12s0-.06,0-.06H3.44s0-.06,0-.07h.12s0-.05,0-.07,0,0,0-.06v-.19a.16.16,0,0,0,0-.07v-.06s0-.05,0-.07H3.44s0-.06,0-.06,0-.05,0-.07,0-.06,0-.06h.12s0-.06,0-.07,0,0,0-.06,0-.05,0-.07-.1,0-.12,0,0-.05,0-.06h.12s0-.06,0-.07,0,0,0-.06-.11,0-.12,0,0-.06,0-.07v-.06s.12,0,.12,0,0-.06,0-.07v-.06s0,0,0-.07,0,0,0-.06H3.44s0-.06,0-.07V295s0,0,0-.06,0-.06,0-.07h.12s0,0,0-.06v-.2s0,0,0-.06,0-.06,0-.07H3.44s0,0,0-.06,0-.05,0-.07,0-.05,0-.06h.12v-.13s0-.05,0-.07a.48.48,0,0,1-.12,0s0,0,0-.06h.12s0-.06,0-.07v-.32s0,0,0-.06v-.13s0-.05,0-.07H3.44s0-.06,0-.06,0-.06,0-.07h.12v-.58s0-.05,0-.07H3.44s0-.06,0-.06.11,0,.12,0,0-.06,0-.07,0-.05,0-.06-.1,0-.12,0,0-.06,0-.07h.12s0-.06,0-.06v-.52s0-.06,0-.07H3.44s0-.05,0-.06,0-.06,0-.07h.12s0-.06,0-.06H3.44s0-.06,0-.07h.12s0-.05,0-.06,0-.05,0-.07,0,0,0-.06,0-.06,0-.07h.12V291s0,0,0-.06H3.56s0-.05,0-.07,0-.05,0-.06-.1,0-.12,0,0-.06,0-.07a.48.48,0,0,0,.12,0s0,0,0-.06,0-.05,0-.07,0,0,0-.06v-.2h.12v-.06H3.56s0-.06,0-.07H3.44s0,0,0-.06v-.07s.09,0,.12,0,0-.05,0-.06,0-.05,0-.06,0-.05,0-.07,0-.05,0-.06,0-.06,0-.07h.12v-.13s0-.05,0-.06H3.56s0-.05,0-.07,0-.05,0-.06,0-.06,0-.07H3.44s0-.05,0-.06v-.13s0-.06,0-.07.11,0,.12,0,0-.05,0-.06V289H3.44s0,0,0-.06,0-.06,0-.07.1,0,.12,0,0,0,0-.06v-.46s0-.06,0-.06h.12v-.07s0-.05,0-.06H3.56s0-.06,0-.07v-.06s0-.05,0-.07v-.45a.16.16,0,0,1,0-.07h.12s0-.05,0-.06H3.56s0-.06,0-.07V287s0-.06,0-.07H3.44s0-.05,0-.06,0-.06,0-.07h.12v-.64s0-.05,0-.07H3.44v-.06h.12v-.33s.09,0,.12,0,0-.06,0-.06v-.07s-.1,0-.12,0,0,0,0-.06,0,0,0-.07,0-.06,0-.06-.1,0-.12,0,0,0,0-.07h.12s0-.05,0-.06,0,0,0-.07,0-.05,0-.06,0-.06,0-.07h.12s0-.05,0-.06H3.56s0-.06,0-.07H3.44s0-.06,0-.06h.12s0-.06,0-.07,0,0,0-.06v-.33s0,0,0-.06H3.44v-.07h.12v-.19a.17.17,0,0,1,0-.07s0,0,0-.06v-.13s0-.06,0-.07h.13s0,0,0-.06v-.07H3.55v-.06s0-.05,0-.07v-.06s0-.05,0-.07,0-.05,0-.06H3.43s0-.06,0-.07h.12s0-.05,0-.06,0-.05,0-.07V283s0,0,0-.06v-1.62s0-.05,0-.07,0,0,0-.06,0-.06,0-.07h.12s0-.05,0-.06H3.55s0-.06,0-.07,0,0,0-.06v-.39s0-.06,0-.07.12,0,.12,0,0-.06,0-.06H3.55v-.26s0-.05,0-.07,0-.05,0-.06h.12a.09.09,0,0,0,0-.07H3.55s0-.05,0-.06,0-.06,0-.07h.12s0-.06,0-.06H3.55v-.2s0-.05,0-.06h.12a.09.09,0,0,0,0-.07H3.55v-.77s0,0,0-.07,0-.06,0-.06h.12v-.13s0-.05,0-.07H3.55s0-.05,0-.06,0-.05,0-.07v-1.43h.12s0-.06,0-.06H3.55V275h.12s0-.06,0-.06v-.07s0-.06,0-.06H3.55s0-.05,0-.07v-.06s0-.06,0-.07h.12s0-.05,0-.06,0-.06,0-.07H3.55s0-.05,0-.06v-.07h.12s0-.06,0-.06H3.55s0-.06,0-.07v-.06s0-.05,0-.07.11,0,.12,0,0-.05,0-.06-.11,0-.12,0,0-.06,0-.07v-.06s.11,0,.12,0,0-.06,0-.07,0,0,0-.06v-.13s0-.06,0-.07H3.55s0,0,0-.06v-.33s0,0,0-.06v-.07s0-.05,0-.06h.12s0-.06,0-.07,0-.06,0-.06H3.55s0-.05,0-.07,0,0,0-.06h.12s0-.05,0-.07,0-.05,0-.06h.12s0-.06,0-.07-.1,0-.12,0,0-.05,0-.06H3.55s0-.05,0-.07,0-.05,0-.06.1,0,.12,0,0-.06,0-.07-.12,0-.12,0,0,0,0-.06v-.07a.48.48,0,0,0,.12,0s0,0,0-.06,0,0,0-.06,0-.06,0-.07H3.55v-.13s0-.05,0-.06,0-.06,0-.07h.12s0-.06,0-.07,0-.05,0-.06H3.55s0-.05,0-.06v-.26s0-.05,0-.07h.12s0-.06,0-.06v-.07H3.55s0-.05,0-.06,0-.05,0-.07v-.13s0,0,0-.06v-.33s.09,0,.12,0v-.06H3.55s0-.06,0-.07h.24v-.13H3.67s0-.05,0-.06H3.55s0-.06,0-.07,0-.06,0-.06h.12s0-.05,0-.07,0-.06,0-.06H3.55a.09.09,0,0,1,0-.07h.12v-.06H3.55v-.07s0,0,0-.06,0-.05,0-.07h.12s0-.05,0-.06v-.07s0-.05,0-.06H3.55s0-.06,0-.07,0,0,0-.06V269a.2.2,0,0,0,0-.07s0,0,0-.06v-.13s0-.06,0-.07a.57.57,0,0,0,.13,0v-.13s0-.05,0-.06H3.54v-.07s0-.05,0-.06h.13s0-.05,0-.06,0-.05,0-.07,0-.06,0-.06H3.54s0-.05,0-.07,0-.06,0-.06h.13a.16.16,0,0,1,0-.07s0-.05,0-.06H3.54s0-.06,0-.07h.13s0-.06,0-.06H3.54s0-.06,0-.07,0,0,0-.06,0-.06,0-.07h.13v-.06H3.54s0-.06,0-.07h.13s0-.05,0-.06,0-.06,0-.07H3.54s0,0,0-.06v-.2s.12,0,.12,0,0,0,0-.06,0,0,0-.07v-.13h.12s0-.06,0-.06H3.66s0,0,0-.07,0-.06,0-.06H3.54v-.2h.12s0-.05,0-.06v-.07s0,0,0-.06,0-.06,0-.07h.12v-.13s0-.05,0-.06H3.66s0-.05,0-.07,0,0,0-.06,0-.05,0-.07,0-.05,0-.06H3.54s0-.06,0-.07h.12s0-.05,0-.06,0-.05,0-.07,0,0,0-.06,0-.06,0-.07a.48.48,0,0,1-.12,0s0,0,0-.06v-.13s0-.06,0-.07h.12s0,0,0-.06V265s0,0,0-.06v-.26H3.54s0-.05,0-.06,0-.05,0-.07v-.06h.12s0-.06,0-.07,0-.05,0-.06v-.85s0,0,0-.06,0-.06,0-.07H3.54s0-.06,0-.06h.12s0-.06,0-.07v-1.95H3.54s0-.05,0-.06h.12s0-.06,0-.07v-1s0,0,0-.06,0-.06,0-.07H3.54s0-.05,0-.06h.12s0-.06,0-.07,0-.05,0-.06v-.07H3.54s0-.05,0-.06,0-.05,0-.07,0-.06,0-.06h.12v-.07s0,0,0-.06,0-.06,0-.07H3.54s0-.06,0-.06h.12s0-.05,0-.07,0-.06,0-.06H3.54V259s0,0,0-.06h.12s0-.06,0-.07,0-.05,0-.06-.1,0-.12,0,0-.06,0-.07a.48.48,0,0,0,.12,0s0,0,0-.06,0-.05,0-.07V258s0-.05,0-.06H3.54s0-.06,0-.07h.12v-.06s0-.05,0-.07H3.54s0-.05,0-.06h.12s0-.05,0-.07,0,0,0-.06v-.71s0-.06,0-.07h.12s0,0,0-.06v-.07s0-.06,0-.06H3.66s0-.05,0-.07v-.78s0,0,0-.06h.12s0-.06,0-.07-.12,0-.12,0,0,0,0-.06,0,0,0-.07,0-.06,0-.06H3.54s0-.06,0-.07h.12s0-.05,0-.06,0-.05,0-.07v-.32H3.54s0-.06,0-.07,0,0,0-.06v-.07h.12s0-.05,0-.06,0-.06,0-.07H3.53s0-.05,0-.06v-.13s0-.06,0-.07h.13v-.52s0,0,0-.06,0-.05,0-.07H3.54s0-.05,0-.06v-.07h.12s0-.05,0-.06v-.13H3.54s0-.05,0-.06a.09.09,0,0,1,0-.07s0-.06,0-.06h.12v-.26s0,0,0-.07,0-.05,0-.06H3.53v-.13h.13s0-.06,0-.07v-.06s0-.05,0-.07a.56.56,0,0,1-.13,0v-.06a.57.57,0,0,1,.13,0v-.2H3.53s0,0,0-.06V252h.13s0-.05,0-.06v-.33s0,0,0-.06-.12,0-.12,0v-.07s0,0,0-.06h.12s0-.06,0-.07v-.06s0,0,0-.07v-.52s.1,0,.12,0,0,0,0-.06H3.65s0,0,0-.07a.48.48,0,0,1-.12,0s0,0,0-.06,0-.06,0-.07h.12v-1.29s-.11,0-.12,0,0-.06,0-.07h.12s0-.05,0-.06a.48.48,0,0,1,.12,0s0-.05,0-.07,0-.06,0-.06H3.65s0,0,0-.07,0,0,0-.06,0-.06,0-.07H3.53v-.13h.12s0-.05,0-.06,0-.05,0-.07,0-.05,0-.06.11,0,.12,0,0-.06,0-.07-.09,0-.12,0,0-.05,0-.06,0-.05,0-.07a.48.48,0,0,1-.12,0v-.06s.1,0,.12,0v-.65s0-.05,0-.07,0,0,0-.06h.12s0-.05,0-.07,0,0,0-.06H3.65s0-.06,0-.07V244.7H3.53s0-.06,0-.07h.12s0,0,0-.06v-.52s0-.06,0-.07-.12,0-.12,0v-.06s0,0,0-.07a.48.48,0,0,0,.12,0s0,0,0-.06v-.13s0,0,0-.07,0-.05,0-.06H3.53s0-.06,0-.07h.12s0,0,0-.06v-.71h.12s0-.06,0-.07H3.65s0-.06,0-.06a.16.16,0,0,1,0-.07v-.26H3.53s0-.06,0-.06h.12s0-.06,0-.07v-1.43s0-.06,0-.06h.12s0-.06,0-.07-.12,0-.12,0,0,0,0-.06v-.13s0,0,0-.07h.12s0-.05,0-.06v-.07H3.65s0-.05,0-.06h.12s0-.06,0-.07V240s-.11,0-.12,0,0-.05,0-.07,0,0,0-.06,0-.06,0-.07-.1,0-.12,0,0,0,0-.06.1,0,.12,0,0,0,0-.07,0,0,0-.06v-.13a.16.16,0,0,1,0-.07v-.58s0,0,0-.06v-.07s0,0,0-.06h.12s0-.06,0-.07,0-.06,0-.06H3.65s0-.05,0-.07v-.06s0-.05,0-.07v-.19s0-.06,0-.07.1,0,.12,0,0,0,0-.06H3.65s0-.06,0-.07,0,0,0-.06v-.07s0,0,0-.06v-.39s0-.06,0-.07.1,0,.11,0,0-.06,0-.06H3.65s0-.06,0-.07-.11,0-.12,0,0,0,0-.06h.12s0-.06,0-.07v-.06s0,0,0-.07v-.26s0,0,0-.06a.17.17,0,0,1,0-.07s0,0,0-.06,0-.06,0-.07-.11,0-.11,0,0-.06,0-.06h.11v-.13s0,0,0-.07H3.53s0-.05,0-.06,0-.06,0-.07h.11v-.13s0,0,0-.06-.11,0-.12,0,0-.06,0-.07,0,0,0-.06h.12s0,0,0-.07v-.45s0-.05,0-.06H3.52s0-.06,0-.07h.12s0-.05,0-.06,0-.05,0-.07v-.26s0,0,0-.06H3.52v-.07h.12s0-.05,0-.06v-.46s0,0,0-.06v-.2s0,0,0-.06,0,0,0-.07h.12s0-.05,0-.06H3.64s0-.05,0-.07,0,0,0-.06,0-.06,0-.07-.09,0-.12,0v-.13s.1,0,.12,0,0,0,0-.06V233s-.09,0-.12,0V233s.12,0,.12,0,0,0,0-.07,0-.06,0-.06.1,0,.12,0,0,0,0-.07-.1,0-.12,0,0-.05,0-.06H3.52s0-.06,0-.07h.12s0-.05,0-.06,0-.05,0-.07v-.39s0,0,0-.06V232s0,0,0-.06H3.52v-.07h.12s0-.05,0-.06h.12a.09.09,0,0,0,0-.07H3.64s0-.05,0-.06v-.19s0-.06,0-.07h.12s0-.06,0-.06a.48.48,0,0,0-.12,0s0-.05,0-.07v-.13s0-.06,0-.06h.12s0,0,0-.07,0-.06,0-.06H3.64s0-.06,0-.07h.12s0-.05,0-.06v-.13s0-.06,0-.07H3.64s0-.05,0-.06v-.13h.12s0-.06,0-.07,0,0,0-.06-.1,0-.12,0,0-.06,0-.07v-1.88s0-.06,0-.06h.12a.16.16,0,0,0,0-.07V228H3.64s0,0,0-.06,0,0,0-.07V227s0,0,0-.07h.12v-.06H3.64s0-.06,0-.07h.12s0-.06,0-.06H3.64s0-.06,0-.07v-.39s0,0,0-.06,0,0,0-.07h.12s0,0,0-.06,0-.06,0-.07H3.64s0-.05,0-.06v-.13s0-.06,0-.07h.12s0-.05,0-.06-.1,0-.12,0,0-.06,0-.07v-.32s0-.06,0-.07h.12s0-.05,0-.06H3.64s0-.06,0-.07,0,0,0-.06v-.19s0-.05,0-.07v-.06s0-.05,0-.07a.16.16,0,0,1,0-.07s0,0,0-.06.12,0,.12,0v-.58s-.12,0-.12,0v-.07h.12s0,0,0-.06,0-.06,0-.07-.12,0-.12,0,0,0,0-.06v-.2a.06.06,0,0,1,0-.06s0-.06,0-.07h.12s0-.05,0-.06H3.64s0-.06,0-.07v-.13s0,0,0-.06,0-.06,0-.07a.48.48,0,0,0,.12,0v-.06H3.64v-.33s0,0,0-.06v-.13s0-.05,0-.07v-.06s0-.05,0-.07a.47.47,0,0,0,.12,0s0,0,0-.06,0-.06,0-.07-.11,0-.13,0,0,0,0-.06v-.2s0,0,0-.06v-.65s0,0,0-.06.11,0,.13,0,0-.06,0-.07v-.06s0-.06,0-.07H3.63v-.71a.16.16,0,0,0,0-.07s0-.06,0-.06h.12a.09.09,0,0,0,0-.07s-.11,0-.12,0,0-.05,0-.06v-.46s0,0,0-.06v-.13h.12s0-.06,0-.07,0-.06,0-.06H3.63V219s0-.06,0-.06a.48.48,0,0,1,.12,0s0-.06,0-.07H3.63s0-.05,0-.06v-.72s0-.05,0-.06.11,0,.12,0,0-.06,0-.07a.48.48,0,0,1-.12,0s0,0,0-.06a.16.16,0,0,0,0-.07v-2h.12s0-.05,0-.06v-.07s0-.06,0-.06H3.63s0-.05,0-.07v-.13s0-.06,0-.06a.48.48,0,0,1,.12,0s0-.05,0-.07,0,0,0-.06,0-.06,0-.07H3.63V215s0,0,0-.07,0-.06,0-.06h.12v-.13s0-.05,0-.07a.48.48,0,0,1-.12,0s0,0,0-.06,0-.05,0-.07V214h.12s0-.05,0-.06v-.13s0-.05,0-.06,0-.06,0-.07H3.63s0,0,0-.06a.48.48,0,0,1,.12,0s0-.06,0-.07,0,0,0-.06v-.13s0-.06,0-.07H3.63s0-.05,0-.06h.12s0-.06,0-.07H3.63s0-.06,0-.06h.12V213H3.63s0-.06,0-.06a.48.48,0,0,1,.12,0s0-.05,0-.07,0,0,0-.06,0-.06,0-.07-.1,0-.12,0,0-.06,0-.06h.12s0-.06,0-.07h.12s0,0,0-.06-.1,0-.12,0,0-.06,0-.07,0-.05,0-.06,0-.06,0-.07H3.63s0-.05,0-.06v-.07s0-.06,0-.06.11,0,.12,0,0-.05,0-.07V212s0,0,0-.06H3.63s0-.06,0-.07v-.65s0,0,0-.06h.12s0-.06,0-.07,0,0,0-.06v-.07s0-.05,0-.06H3.63s0,0,0-.07,0,0,0-.06,0-.05,0-.07,0-.05,0-.06h.12v-.07s0,0,0-.06,0-.06,0-.07-.12,0-.12,0,0-.06,0-.06.12,0,.12,0,0-.06,0-.07-.12,0-.12,0v-.13s0,0,0-.06V210s0,0,0-.07h.12s0-.05,0-.06,0-.06,0-.07H3.63s0-.05,0-.06v-.07h.12s0-.06,0-.06-.11,0-.12,0,0-.06,0-.07h.12v-.06a.48.48,0,0,0-.12,0s0-.06,0-.07.11,0,.12,0,0,0,0-.06v-.07s0,0,0-.06,0,0,0-.07H3.63s0-.05,0-.06,0,0,0-.07v-.19h.12v-.07H3.63s0,0,0-.06v-.46h.12v-.06H3.63s0-.06,0-.07v-.06s0-.06,0-.07h.12V208s0-.05,0-.07-.11,0-.12,0,0,0,0-.06,0-.06,0-.07a.48.48,0,0,0,.12,0s0,0,0-.06,0,0,0-.07v-.39s0,0,0-.06a.48.48,0,0,0-.12,0s0-.05,0-.07,0,0,0-.06V207s0,0,0-.06v-.13s0,0,0-.07,0-.05,0-.06h.12s0,0,0-.07v-.06s0,0,0-.07v-.13s0-.05,0-.06-.11,0-.11,0,0-.05,0-.06v-.07s0,0,0-.06,0-.05,0-.07,0-.06,0-.06h.11s0-.06,0-.07H3.63s0,0,0-.06v-.2s0,0,0-.06h.11a.09.09,0,0,0,0-.07H3.63s0-.06,0-.06v-.2s0,0,0-.06h.11s0-.06,0-.07,0-.06,0-.06H3.63s0-.06,0-.07h.11s0-.05,0-.06a.09.09,0,0,0,0-.07H3.63s0-.05,0-.06v-.33s0,0,0-.06.12,0,.12,0,0,0,0-.07v-.06s0-.06,0-.07H3.62s0-.05,0-.06v-.2s0,0,0-.06v-.07s0-.05,0-.06.11,0,.12,0,0-.06,0-.07a.48.48,0,0,1-.12,0s0,0,0-.06v-.33s0,0,0-.06v-.07s0-.05,0-.06h.12s0-.06,0-.06H3.62s0-.05,0-.07v-.13s0-.05,0-.06a.48.48,0,0,1,.12,0s0-.06,0-.07,0-.06,0-.06H3.62s0-.06,0-.07v-.26h.12s0-.05,0-.06,0-.05,0-.07,0,0,0-.06H3.62s0-.06,0-.07v-.13h.12s0-.06,0-.06v-.07s0-.06,0-.06H3.62s0,0,0-.07v-.06s0-.06,0-.07h.12s0-.06,0-.06H3.62v-.07s0,0,0-.06,0-.06,0-.07h.12s0-.05,0-.06-.1,0-.12,0,0-.06,0-.07,0,0,0-.06v-.26s0,0,0-.07,0-.05,0-.06h.12s0-.06,0-.07h.12s0-.06,0-.06H3.74v-.07s0-.05,0-.06-.11,0-.12,0,0-.06,0-.07v-.13s0-.06,0-.06h.12s0,0,0-.07,0,0,0-.06H3.62V200s0,0,0-.06,0,0,0-.07h.12s0-.05,0-.06,0-.05,0-.07v-.32H3.62s0,0,0-.06,0-.05,0-.07,0-.06,0-.06h.12s0-.06,0-.07H3.62s0,0,0-.06V199s0-.06,0-.06h.12s0-.06,0-.07H3.62s0-.05,0-.06v-.2s0-.06,0-.06.11,0,.12,0,0-.05,0-.07.1,0,.12,0,0,0,0-.06,0-.06,0-.07-.11,0-.12,0,0,0,0-.06,0,0,0-.07,0,0,0-.06V198s0-.06,0-.07H3.62v-.26s0,0,0-.06h.12s0-.06,0-.07,0,0,0-.06v-.46s0,0,0-.06-.11,0-.12,0v-.07s.12,0,.12,0v-.06s0-.05,0-.07,0,0,0-.06-.1,0-.12,0,0-.06,0-.07h.12s0,0,0-.06,0,0,0-.07v-.39s0,0,0-.06-.12,0-.12,0,0-.06,0-.07.1,0,.12,0,0,0,0-.06H3.62s0-.06,0-.06,0-.06,0-.07.1,0,.12,0,0-.06,0-.06H3.62s0-.06,0-.07,0-.05,0-.06,0-.06,0-.07h.12s0-.06,0-.06H3.62s0-.05,0-.07v-.06s0-.06,0-.07.11,0,.12,0,0-.05,0-.06v-.46s0,0,0-.06,0-.05,0-.07-.11,0-.12,0,0-.06,0-.06v-.07s0-.05,0-.06.1,0,.12,0,0-.06,0-.07.09,0,.12,0v-.19s-.1,0-.12,0,0-.06,0-.07,0,0,0-.06V194s0-.06,0-.06H3.62a.09.09,0,0,1,0-.07h.12s0-.05,0-.06v-.07s0-.05,0-.06a.48.48,0,0,0-.12,0s0-.06,0-.07,0,0,0-.06,0-.05,0-.07a.48.48,0,0,0,.12,0s0,0,0-.06v-.07s-.12,0-.12,0,0-.06,0-.06h.12s0-.06,0-.07v-.06s0,0,0-.07H3.62s0-.05,0-.06V193h.12s0-.05,0-.06,0-.05,0-.07,0-.05,0-.06H3.62v-.07s0,0,0-.06h.12s0-.06,0-.07v-.06s0-.06,0-.07H3.62s0,0,0-.06v-.07s0,0,0-.06,0-.05,0-.06h.12v-.07H3.62s0-.06,0-.06h.12s0-.05,0-.07v-.13s0-.05,0-.06a.48.48,0,0,0-.12,0s0-.06,0-.07v-.06h.12v-.07a.48.48,0,0,1-.12,0s0-.06,0-.06,0-.06,0-.07h.12s0-.05,0-.06v-.13H3.62s0-.06,0-.07,0-.06,0-.06.1,0,.12,0,0-.06,0-.07V191s0,0,0-.06-.11,0-.12,0,0-.06,0-.07h.12s0,0,0-.06v-.07s0,0,0-.06v-.33s0-.06,0-.06-.12,0-.12,0,0-.05,0-.07,0,0,0-.06h.12s0-.06,0-.07v-.19s0-.06,0-.07H3.62s0-.05,0-.06a.2.2,0,0,0,0-.07v-.13h.12s0-.05,0-.06v-.07s0-.06,0-.06-.11,0-.12,0v-.07s.11,0,.12,0,0,0,0-.06v-.07s0,0,0-.06,0,0,0-.07H3.61s0-.05,0-.06,0-.06,0-.07h.12s0,0,0-.06v-.07s0-.05,0-.06-.11,0-.12,0,0-.05,0-.07,0-.05,0-.06h.12s0-.06,0-.07a.48.48,0,0,1-.12,0s0,0,0-.06,0,0,0-.06v-.07s0,0,0-.06h.12s0-.06,0-.07v-.26s0,0,0-.06H3.61s0-.06,0-.07,0-.05,0-.06v-.13s0-.06,0-.07.12,0,.12,0,0,0,0-.06,0-.06,0-.07H3.61s0,0,0-.06,0,0,0-.07h.12s0-.06,0-.06v-.07h.12v-.06H3.73s0-.05,0-.07,0-.06,0-.06-.09,0-.12,0v-.13s0-.06,0-.07.12,0,.12,0,0,0,0-.06,0,0,0-.07,0,0,0-.06,0,0,0-.07,0-.05,0-.06h.12s0-.06,0-.07H3.73s0-.05,0-.06H3.61s0-.05,0-.07,0-.05,0-.06a.48.48,0,0,1,.12,0s0-.06,0-.07,0,0,0-.06-.11,0-.12,0,0-.06,0-.07.12,0,.12,0v-.06H3.61v-.07s0,0,0-.06h.12s0-.06,0-.07v-.06H3.61s0-.06,0-.07h.12s0-.05,0-.06v-.07s0-.05,0-.06H3.61s0-.06,0-.07.11,0,.12,0,0-.05,0-.06v-.33H3.61s0,0,0-.06,0-.06,0-.07h.12s0-.05,0-.06h.12v-.07s-.09,0-.12,0v-.06s0,0,0-.06v-.07s0-.05,0-.06-.11,0-.12,0,0-.06,0-.07v-.06s.11,0,.12,0,0-.06,0-.07,0,0,0-.06,0-.06,0-.07H3.61V184s0,0,0-.07,0-.05,0-.06h.12s0-.06,0-.07,0,0,0-.06v-.33s0,0,0-.06-.11,0-.12,0,0-.06,0-.07V183s0-.06,0-.06h.12v-.07s0-.05,0-.06H3.61s0-.06,0-.07v-.06h.12s0-.06,0-.07,0,0,0-.06-.11,0-.12,0,0-.06,0-.07v-.06h.12s0-.06,0-.07,0,0,0-.06-.1,0-.12,0,0-.06,0-.07,0-.05,0-.06h.12s0-.05,0-.07v-.45H3.61s0,0,0-.07,0,0,0-.06.1,0,.12,0,0-.06,0-.06,0-.06,0-.07H3.61s0,0,0-.06,0-.06,0-.07h.12s0-.06,0-.06H3.61s0-.06,0-.07.1,0,.12,0,0-.06,0-.06H3.61s0-.06,0-.07h.12s0-.06,0-.06v-.78s0-.05,0-.07,0-.05,0-.06a.48.48,0,0,0-.12,0s0-.06,0-.07v-.06h.12s0-.06,0-.07,0,0,0-.06v-.13H3.61s0-.06,0-.07,0-.05,0-.06h.12s0-.06,0-.07v-.06s0-.05,0-.07H3.61s0-.06,0-.06.12,0,.12,0v-.46s0-.05,0-.06H3.61s0-.06,0-.07h.12v-.06H3.61s0-.05,0-.07.1,0,.12,0,0-.05,0-.06v-.07s0,0,0-.06a.48.48,0,0,0-.12,0s0-.06,0-.07v-.06s0-.06,0-.07h.12s0,0,0-.06v-.45s0-.06,0-.07-.11,0-.12,0,0-.05,0-.06,0-.05,0-.07,0-.06,0-.06h.12v-.33s0,0,0-.06v-.07s0-.05,0-.06H3.61s0-.06,0-.07,0-.06,0-.06a.48.48,0,0,1,.12,0s0-.05,0-.07v-.13s0,0,0-.06,0-.06,0-.07H3.61s0,0,0-.06v-.13s0-.06,0-.07h.12s0-.05,0-.06v-.26s0-.05,0-.07-.11,0-.12,0,0,0,0-.06v-.07s0,0,0-.06h.12v-.07s0,0,0-.06v-.07a.13.13,0,0,0,0-.06.16.16,0,0,0,0-.07s0-.06,0-.06H3.61v-.07s0,0,0-.06.1,0,.11,0,0-.06,0-.07v-.06H3.61s0-.06,0-.07a.06.06,0,0,1,0-.06s.1,0,.11,0,0-.06,0-.07,0,0,0-.06v-.2s0,0,0-.06a.16.16,0,0,0,0-.07s0-.05,0-.06H3.61s0-.06,0-.06.1,0,.11,0,0-.06,0-.07v-.26s0,0,0-.06H3.61s0-.06,0-.07h.12s0-.06,0-.06,0-.05,0-.07,0-.06,0-.06H3.6s0-.05,0-.07v-.06s0-.05,0-.07V173h.12s0-.05,0-.06a.09.09,0,0,0,0-.07H3.6s0-.05,0-.06v-.46s0,0,0-.06.11,0,.12,0,0-.06,0-.07,0-.05,0-.06H3.6s0-.06,0-.07,0-.05,0-.06h.12s0-.06,0-.07H3.6s0-.05,0-.06,0-.05,0-.07v-.06s0-.05,0-.07v-.32s0,0,0-.07,0,0,0-.06h.12s0-.06,0-.07v-.06s0-.06,0-.07H3.6V171s.11,0,.12,0,0-.06,0-.07a.48.48,0,0,1-.12,0s0,0,0-.06h.12s0-.06,0-.07-.12,0-.12,0v-.38s0,0,0-.07h.12s0-.06,0-.06v-.07H3.6s0-.06,0-.06,0-.05,0-.07v-.19s0-.06,0-.07.12,0,.12,0,0-.06,0-.06-.1,0-.12,0,0-.06,0-.07,0-.06,0-.06h.12s0,0,0-.07v-.13s0-.06,0-.06H3.6s0-.05,0-.07v-.13h.12s0,0,0-.06V169s0,0,0-.06-.1,0-.12,0,0-.06,0-.07h.12s0,0,0-.06H3.6s0-.06,0-.07v-.39s0-.06,0-.06.12,0,.12,0,0-.05,0-.07,0-.06,0-.06H3.6v-.72a.48.48,0,0,0,.12,0s0,0,0-.06H3.6s0-.06,0-.07v-.13s0,0,0-.06h.12s0-.06,0-.06v-.13s0-.05,0-.07H3.6s0-.06,0-.06v-.13s0-.05,0-.07.11,0,.12,0,0-.06,0-.06v-.07H3.6s0,0,0-.06,0,0,0-.07v-.13s0-.06,0-.06h.12s0,0,0-.07,0-.06,0-.06H3.6v-.72s0-.06,0-.06h.12s0-.06,0-.07-.1,0-.12,0,0-.05,0-.06v-.39s0-.06,0-.07h.12s0,0,0-.06-.1,0-.12,0,0-.06,0-.07v-.26s0,0,0-.06,0-.06,0-.07a.48.48,0,0,0,.12,0s0,0,0-.06,0-.06,0-.07-.12,0-.12,0V164s0,0,0-.07,0,0,0-.06.1,0,.12,0,0-.06,0-.07H3.6s0-.05,0-.06a.16.16,0,0,1,0-.07s0-.05,0-.06h.12s0-.06,0-.06,0-.06,0-.07-.12,0-.12,0,0-.05,0-.06,0-.06,0-.07h.12V163H3.6s0-.06,0-.07,0,0,0-.06,0-.06,0-.07h.12v-.13s0,0,0-.06,0-.06,0-.07H3.6s0-.06,0-.06a.48.48,0,0,1,.12,0s0-.06,0-.07-.11,0-.12,0,0-.06,0-.06.11,0,.12,0,0-.06,0-.07H3.6v-.06h.12v-.13s0,0,0-.07,0-.06,0-.06H3.6s0-.05,0-.07v-.06s0-.05,0-.07h.12v-.06a.48.48,0,0,0-.12,0v-.07s0,0,0-.06,0-.05,0-.07,0-.06,0-.06h.12v-.07s0,0,0-.06H3.6v-.07h.12v-.32s0-.06,0-.07-.11,0-.12,0,0-.05,0-.06h.12v-.07s-.12,0-.12,0v-.26s0,0,0-.06v-.07s0,0,0-.06,0-.05,0-.07.1,0,.12,0,0-.05,0-.06V160s0,0,0-.07,0,0,0-.06H3.6s0,0,0-.06v-.07s0,0,0-.06,0,0,0-.07,0-.06,0-.06h.12v-.13H3.6v-.07h.12s0-.06,0-.06H3.6s0-.05,0-.07V159s0-.05,0-.07,0,0,0-.06,0-.06,0-.07h.12v-.06a.17.17,0,0,0,0-.07s0-.05,0-.06H3.59s0-.06,0-.07,0,0,0-.06,0-.05,0-.07h.12s0-.06,0-.06v-.07s0,0,0-.06,0-.05,0-.07,0,0,0-.06,0-.06,0-.07H3.59s0,0,0-.06,0,0,0-.07h.12s0,0,0-.06v-.07a.06.06,0,0,0,0-.06s0-.06,0-.07H3.59s0-.05,0-.06h.12s0-.06,0-.07H3.59s0-.05,0-.06,0-.06,0-.07.11,0,.12,0,0,0,0-.06,0-.05,0-.07v-.32s0-.05,0-.07H3.59v-.06h.12v-.39H3.59s0,0,0-.07,0,0,0-.06v-.07s0,0,0-.06v-.39s0-.05,0-.06a.48.48,0,0,1,.12,0s0-.06,0-.07v-.06s-.11,0-.12,0,0-.06,0-.07,0,0,0-.06v-.39s0-.06,0-.07h.12v-.06s0-.05,0-.07H3.59s0-.06,0-.06v-.39s0-.06,0-.07h.12s0-.05,0-.06,0-.06,0-.07H3.59V154s0-.06,0-.07.12,0,.12,0v-.06s0,0,0-.07a.48.48,0,0,1-.12,0s0,0,0-.06v-.85s0,0,0-.06,0,0,0-.07h.12s0-.05,0-.06H3.59s0-.05,0-.07,0,0,0-.06v-.13h.12s0-.06,0-.06-.11,0-.12,0,0-.06,0-.07v-.06s0-.06,0-.07.1,0,.12,0,0-.06,0-.06,0-.06,0-.07-.1,0-.12,0,0-.06,0-.06v-.65s.11,0,.12,0,0-.06,0-.07H3.59s0-.06,0-.06,0,0,0-.07,0,0,0-.06V151s0,0,0-.06,0-.05,0-.07-.1,0-.12,0,0-.05,0-.06h.12s0-.06,0-.07,0-.05,0-.06.11,0,.12,0v-.07H3.59s0,0,0-.06,0-.06,0-.07.12,0,.12,0,0,0,0-.06v-.2H3.59s0-.05,0-.06v-.07s0,0,0-.06v-.59s0-.05,0-.06h.12s0-.06,0-.07v-.06s0-.06,0-.07H3.59v-.58s0,0,0-.06h.12s0-.06,0-.07,0-.05,0-.06v-.07H3.59s0-.06,0-.06v-.07s0,0,0-.06v-.72s0,0,0-.06,0-.06,0-.07h.12s0-.05,0-.06v-.07s0,0,0-.06-.1,0-.12,0,0-.06,0-.07a.48.48,0,0,0,.12,0s0,0,0-.06v-.07H3.59s0-.05,0-.06v-.07s0-.06,0-.06h.12s0-.05,0-.07v-.06H3.59s0-.06,0-.07v-.06a.16.16,0,0,1,0-.07s0-.06,0-.06h.12s0-.06,0-.07-.11,0-.12,0,0,0,0-.06a.09.09,0,0,1,0-.07h.12v-.06H3.59a.16.16,0,0,1,0-.07s0-.05,0-.06h.12s0-.06,0-.07H3.59s0,0,0-.06v-.07s0,0,0-.06v-.39s0,0,0-.06.1,0,.12,0,0-.06,0-.07H3.59s0-.06,0-.06,0,0,0-.07v-.13s0-.05,0-.06H3.7s0-.06,0-.07,0,0,0-.06v-.07H3.59v-.06s.11,0,.11,0,0-.05,0-.07v-.06s0,0,0-.07H3.59s0-.06,0-.06,0,0,0-.07v-.06s0-.05,0-.07.11,0,.12,0,0-.05,0-.06,0-.06,0-.07-.1,0-.12,0V144s0-.06,0-.07.11,0,.12,0,0,0,0-.06,0-.05,0-.07v-.06s0,0,0-.07v-.06s0,0,0-.07,0-.05,0-.06H3.58s0-.06,0-.07H3.7s0-.05,0-.06H3.58s0-.06,0-.07v-.32H3.7a.09.09,0,0,0,0-.07.48.48,0,0,1-.12,0v-.26s0,0,0-.06,0-.06,0-.07H3.7s0-.05,0-.06-.1,0-.12,0,0-.05,0-.07v-.26s.12,0,.12,0,0,0,0-.06v-.13s0-.06,0-.07H3.58v-.06s0-.06,0-.06H3.7s0-.06,0-.07H3.58s0-.05,0-.06v-.07s0-.06,0-.06a.48.48,0,0,1,.12,0s0-.06,0-.07,0,0,0-.06v-.13s0-.06,0-.07-.1,0-.12,0,0,0,0-.06H3.7s0-.06,0-.07,0-.06,0-.06H3.58v-.78s0-.06,0-.07H3.7V140s0-.06,0-.07H3.58s0,0,0-.06v-.07s0,0,0-.06v-.59s0,0,0-.06,0-.05,0-.07.11,0,.12,0,0-.05,0-.06v-.07s0,0,0-.06-.12,0-.12,0,0-.05,0-.07V137.6s0,0,0-.07H3.46s0-.06,0-.06h.12s0-.06,0-.07v-.91s0-.06,0-.06a.48.48,0,0,1,.12,0s0-.06,0-.07H3.58s0-.05,0-.06v-1.17s0-.06,0-.07H3.46s0-.05,0-.06h.12s0-.05,0-.07,0,0,0-.06V134H3.46s0-.06,0-.07h.12s0-.06,0-.06v-.07s0-.06,0-.06.12,0,.12,0,0-.06,0-.07-.1,0-.12,0,0,0,0-.06v-.46H3.7s0-.06,0-.06v-.07s0-.05,0-.06-.1,0-.12,0,0-.06,0-.07,0,0,0-.06v-.13H3.46a.09.09,0,0,1,0-.07h.12s0,0,0-.06V132s-.12,0-.12,0,0,0,0-.06h.12s0-.06,0-.07v-.58s0-.05,0-.07,0,0,0-.06.11,0,.12,0,0,0,0-.07V131s0-.05,0-.06H3.58s0-.06,0-.06.1,0,.12,0v-.07H3.58s0-.06,0-.06v-.07s0,0,0-.06,0-.05,0-.07,0-.06,0-.06.12,0,.12,0v-.07s0-.06,0-.06a.48.48,0,0,0-.12,0s0-.05,0-.07v-.13s0,0,0-.06v-.52s0-.05,0-.07,0,0,0-.06.1,0,.12,0,0-.06,0-.07,0,0,0-.06-.11,0-.12,0,0-.06,0-.07,0,0,0-.06v-.33s0,0,0-.06,0-.06,0-.07a.48.48,0,0,0,.12,0s0,0,0-.06v-.07s-.12,0-.12,0,0,0,0-.06v-.07s0,0,0-.06v-.2H3.45v-.06h.13s0-.05,0-.07.1,0,.12,0,0-.05,0-.06v-.2H3.58s0-.05,0-.06v-.07s0,0,0-.06.11,0,.12,0,0-.06,0-.07a.06.06,0,0,0,0-.06s0-.06,0-.07H3.57s0-.05,0-.06.11,0,.12,0,0-.06,0-.06-.11,0-.12,0v-.52a.16.16,0,0,0,0-.07s0-.06,0-.06h.12s0,0,0-.07v-.13H3.57s0-.06,0-.06,0-.05,0-.07v-.13s0,0,0-.06v-.85s0,0,0-.06,0-.06,0-.07.12,0,.12,0,0,0,0-.06v-.13H3.57s0-.06,0-.07,0,0,0-.06v-.39s.11,0,.12,0v-.07s-.12,0-.12,0v-1.62h.12v-.06s-.11,0-.12,0,0,0,0-.07-.1,0-.12,0,0,0,0-.06v-.07s0-.06,0-.06h.12s0,0,0-.07v-.45s0,0,0-.07v-.13s0,0,0-.06H3.45s0-.06,0-.07v-.06h.12s0-.06,0-.07,0,0,0-.06-.11,0-.12,0,0-.06,0-.07v-.06h.12s0-.06,0-.07v-.06s0,0,0-.07v-.13a.48.48,0,0,1-.12,0s0,0,0-.06v-.13s0-.06,0-.07h.12v-.13s0,0,0-.06H3.45s0-.06,0-.07,0,0,0-.06h.12v-.07s0-.05,0-.06H3.45v-.07s0,0,0-.06h.12v-.39H3.45v-.06a.48.48,0,0,1,.12,0s0-.05,0-.07v-.13s0,0,0-.06-.11,0-.12,0,0-.06,0-.07h.12s0-.05,0-.06,0,0,0-.07V119s0-.06,0-.06a.48.48,0,0,0-.12,0s0,0,0-.07v-.13s0,0,0-.06.1,0,.12,0,0-.06,0-.07,0,0,0-.06-.11,0-.12,0,0-.06,0-.07h.12s0-.06,0-.06v-.07s0,0,0-.06-.11,0-.12,0,0-.06,0-.07v-.13s0,0,0-.06.11,0,.12,0,0-.06,0-.07,0,0,0-.06v-.07s.09,0,.12,0v-.06s-.11,0-.12,0,0,0,0-.07-.11,0-.12,0,0,0,0-.06v-.07s0-.06,0-.06a.48.48,0,0,1,.12,0s0-.05,0-.07v-.19s0-.06,0-.07-.12,0-.12,0,0,0,0-.06,0-.06,0-.07.12,0,.12,0v-1a.16.16,0,0,1,0-.07s0,0,0-.06a.48.48,0,0,0-.12,0s0-.06,0-.07v-.13s0,0,0-.06v-.07s0-.06,0-.06.12,0,.12,0v-.2s-.12,0-.12,0,0-.06,0-.06h.12s0-.06,0-.07v-.13s0,0,0-.06a.48.48,0,0,0-.12,0s0-.06,0-.07v-.06h.12s0-.06,0-.07v-.13s0-.06,0-.06a.48.48,0,0,0-.12,0s0-.06,0-.07.1,0,.12,0,0,0,0-.06v-.13s0,0,0-.07,0-.05,0-.06.1,0,.12,0,0-.06,0-.07-.12,0-.12,0,0,0,0-.06,0,0,0-.07v-.45s0-.06,0-.07-.11,0-.12,0,0-.05,0-.06h.12s0,0,0-.07v-.52s0,0,0-.06-.11,0-.12,0,0-.06,0-.07h.12s0,0,0-.06.09,0,.12,0,0,0,0-.06-.09,0-.11,0,0-.06,0-.07,0-.05,0-.06a.48.48,0,0,0-.12,0s0-.06,0-.07,0-.06,0-.06h.12a.16.16,0,0,1,0-.07s0,0,0-.06a.48.48,0,0,0-.12,0s0-.06,0-.07h.12s0-.05,0-.06v-.2a.13.13,0,0,1,0-.06v-.39s0,0,0-.07v-.19s0-.05,0-.07v-.06s0-.06,0-.07h.12s0-.06,0-.06-.11,0-.12,0,0,0,0-.07,0,0,0-.06v-.2s0,0,0-.06v-.2s0,0,0-.06v-.07s0,0,0-.06,0-.06,0-.07-.12,0-.12,0,0-.06,0-.06.12,0,.12,0,0-.05,0-.07v-.13s0,0,0-.06-.1,0-.12,0,0-.06,0-.07,0,0,0-.06,0-.05,0-.07a.48.48,0,0,0,.12,0s0,0,0-.06,0,0,0-.07v-.84s0,0,0-.06v-.07s0,0,0-.06,0-.06,0-.07H3.44s0-.06,0-.06a.48.48,0,0,1,.12,0s0-.05,0-.07v-.06H3.44s0-.06,0-.07h.12s0,0,0-.06v-.72s0,0,0-.06v-.07s0-.05,0-.06a.48.48,0,0,0-.12,0s0-.06,0-.07a.48.48,0,0,0,.12,0s0,0,0-.06,0,0,0-.07v-.39s0,0,0-.06,0-.06,0-.07H3.44v-.06s0,0,0-.07a.48.48,0,0,0,.12,0s0,0,0-.06v-.07s0,0,0-.06-.11,0-.12,0,0,0,0-.07h.12s0,0,0-.06-.11,0-.12,0,0-.06,0-.07v-.06s0-.06,0-.07.12,0,.12,0,0-.06,0-.06-.11,0-.12,0,0,0,0-.07v-.06s0-.06,0-.06a.48.48,0,0,1,.12,0s0,0,0-.07v-.06s-.11,0-.12,0,0-.06,0-.07,0-.06,0-.06h.12s0-.06,0-.07-.11,0-.12,0,0,0,0-.06,0,0,0-.07h.12s0-.06,0-.06-.11,0-.12,0,0-.06,0-.07,0-.06,0-.06h.12s0,0,0-.07v-.06H3.44s0-.06,0-.07,0,0,0-.06v-.07s0-.06,0-.06a.48.48,0,0,1,.12,0s0-.05,0-.07v-.13s0,0,0-.06a.48.48,0,0,0-.12,0s0-.06,0-.07,0-.06,0-.06a.48.48,0,0,1,.12,0s0-.06,0-.07-.12,0-.12,0v-.26s0-.06,0-.06.11,0,.12,0,0-.05,0-.07v-.06H3.44s0-.06,0-.07,0,0,0-.06v-.59a.48.48,0,0,0,.12,0s0,0,0-.06H3.44s0-.06,0-.07,0,0,0-.06.11,0,.12,0,0,0,0-.07v-.06H3.44s0,0,0-.07,0,0,0-.06v-.52s0,0,0-.06h.12s0-.06,0-.07,0,0,0-.06v-.07H3.44s0,0,0-.06,0-.05,0-.07v-.13s0,0,0-.06.1,0,.12,0,0-.06,0-.07H3.44s0-.05,0-.06,0-.05,0-.07V101s0,0,0-.07v-.19s0-.06,0-.07a.48.48,0,0,0,.12,0s0-.06,0-.06H3.44s0,0,0-.07v-.39s0,0,0-.06,0-.06,0-.07h.12s0-.05,0-.06,0,0,0-.07-.12,0-.12,0,0,0,0-.06,0-.06,0-.07a.48.48,0,0,0,.12,0v-.39s0,0,0-.06,0-.06,0-.07H3.44s0,0,0-.06v-.26s0,0,0-.07v-.19a.16.16,0,0,1,0-.07s0,0,0-.06,0-.06,0-.07h.12s0,0,0-.06v-.06s0,0,0-.07,0-.06,0-.06a.4.4,0,0,0-.11,0s0,0,0-.07V98a.06.06,0,0,1,0-.06s0-.06,0-.07h.11s0-.06,0-.06a.41.41,0,0,0-.11,0,.09.09,0,0,1,0-.07v-.06s0-.05,0-.07.1,0,.11,0,0-.06,0-.06v-.07s0,0,0-.06v-.78s0,0,0-.07a.48.48,0,0,1-.12,0s0,0,0-.06,0-.06,0-.07.12,0,.12,0,0-.06,0-.06H3.43v-.07h.12s0-.06,0-.06-.11,0-.12,0,0,0,0-.07,0,0,0-.06v-.07s0,0,0-.06,0-.06,0-.07.12,0,.12,0v-.19s0,0,0-.07,0,0,0-.06-.11,0-.12,0,0,0,0-.07V95.4h.12s0-.05,0-.06,0,0,0-.07,0,0,0-.06,0-.06,0-.07a.48.48,0,0,1-.12,0s0,0,0-.06V95s0-.05,0-.06a.48.48,0,0,1,.12,0s0-.06,0-.07-.12,0-.12,0,0,0,0-.06,0,0,0-.07a.48.48,0,0,0,.12,0s0,0,0-.06v-.26s0,0,0-.06V94.3s0,0,0-.06,0-.06,0-.07H3.43v-.06s0,0,0-.07.11,0,.12,0,0-.05,0-.06,0,0,0-.07v-.26s0-.06,0-.06a.48.48,0,0,0-.12,0s0,0,0-.07,0,0,0-.06v-.07s0,0,0-.06,0-.06,0-.07h.12s0-.06,0-.06-.11,0-.12,0,0,0,0-.07,0,0,0-.06V93s0,0,0-.06,0-.06,0-.07.1,0,.12,0,0-.05,0-.06-.11,0-.12,0,0-.06,0-.07,0,0,0-.06v-.07s0-.06,0-.06h.12s0-.06,0-.07H3.43V91.9h.12s0-.06,0-.07,0-.06,0-.06H3.43s0-.06,0-.07h.12s0,0,0-.06v-.33s0,0,0-.06-.12,0-.12,0,0-.06,0-.07.1,0,.12,0,0-.05,0-.06,0-.06,0-.06a.48.48,0,0,0-.12,0s0-.07,0-.07h.12v-.26H3.43s0,0,0-.06,0,0,0-.07v-.06s0-.06,0-.07.11,0,.12,0,0,0,0-.06v-.13s-.11,0-.12,0,0-.06,0-.07,0,0,0-.06v-.07h.12s0,0,0-.06,0-.06,0-.07H3.43v-1a.48.48,0,0,0,.12,0s0-.06,0-.06H3.43s0-.06,0-.07v-.19s0-.06,0-.07.12,0,.12,0v-.06s0,0,0-.07,0,0,0-.06a.48.48,0,0,0-.12,0s0,0,0-.07v-1s0-.05,0-.06,0-.06,0-.07.1,0,.12,0,0,0,0-.06h.12s0-.06,0-.07-.1,0-.12,0,0,0,0-.06a.48.48,0,0,0-.12,0s0,0,0-.07V85.34s0,0,0-.06v-.07s0,0,0-.06.1,0,.12,0,0-.06,0-.07V85s0,0,0-.07,0,0,0-.06a.48.48,0,0,0-.12,0s0,0,0-.07V83.46s0-.06,0-.06.11,0,.12,0v-.07H3.43s0,0,0-.06v-.2s0,0,0-.06v-.52a.17.17,0,0,0,0-.07v-.26s.1,0,.12,0,0,0,0-.06.12,0,.13,0V82a.57.57,0,0,1-.13,0V82s.1,0,.13,0v-.2s-.1,0-.13,0,0,0,0-.06-.09,0-.12,0v-.07s.1,0,.12,0,0,0,0-.06,0-.06,0-.07H3.42s0-.05,0-.06.11,0,.12,0,0-.06,0-.07,0,0,0-.06-.1,0-.12,0,0-.06,0-.07.12,0,.12,0,0,0,0-.06v-.07H3.42V81s0,0,0-.06.11,0,.12,0,0-.06,0-.07,0,0,0-.06v-.07s0,0,0-.06H3.42V80.6a.48.48,0,0,0,.12,0s0,0,0-.06H3.42s0-.06,0-.07,0,0,0-.06V80s0,0,0-.06,0-.06,0-.07h.12s0,0,0-.06a.48.48,0,0,0-.12,0s0-.06,0-.07v-.13s0,0,0-.06v-1.3s0-.06,0-.07h.12s0,0,0-.06,0-.06,0-.07-.12,0-.12,0v-.26s0,0,0-.06,0-.06,0-.07h.12s0-.05,0-.06-.1,0-.12,0,0-.06,0-.07v-.06s0-.06,0-.07.12,0,.12,0v-.06s0-.06,0-.07H3.42s0,0,0-.06V77s.12,0,.12,0V77H3.42V76.9s0-.05,0-.06h.12a.16.16,0,0,0,0-.07s-.1,0-.12,0,0,0,0-.06,0,0,0-.07V74.37s0-.06,0-.06a.48.48,0,0,1,.12,0s0,0,0-.07,0-.06,0-.06H3.42s0-.06,0-.07.1,0,.12,0,0,0,0-.06,0-.06,0-.07-.1,0-.12,0,0,0,0-.06V72.3s0-.06,0-.07.1,0,.12,0,0-.06,0-.06-.11,0-.12,0,0-.06,0-.07-.1,0-.12,0,0,0,0-.06,0-.06,0-.07.1,0,.12,0,0,0,0-.06,0,0,0-.07v-.06s0,0,0-.07v-.52s0-.06,0-.06H3.3s0,0,0-.07v-.13h.12s0-.05,0-.06,0-.05,0-.07v-.26s0-.05,0-.06-.11,0-.12,0,0-.06,0-.07,0,0,0-.06.1,0,.12,0,0-.06,0-.07v-.77s.11,0,.12,0v-.07H3.42s0,0,0-.07v-.19H3.3s0-.06,0-.06,0-.05,0-.07h.12s0-.06,0-.06,0,0,0-.07H3.3v-.06s.12,0,.12,0v-.13s0,0,0-.07V68.6s0-.06,0-.07-.12,0-.12,0a.06.06,0,0,1,0-.06s0-.06,0-.07h.12v-.19s0,0,0-.07v-.06s0-.06,0-.07H3.3v-.13s0,0,0-.06,0-.06,0-.07.1,0,.12,0,0,0,0-.06v-.33s0,0,0-.06,0,0,0-.07v-.06s0,0,0-.07a.47.47,0,0,1-.12,0s0,0,0-.06V67s0,0,0-.06.11,0,.12,0,0,0,0-.07,0,0,0-.06v-.2s0,0,0-.06-.1,0-.12,0,0-.06,0-.07,0,0,0-.06.11,0,.12,0,0-.06,0-.07,0,0,0-.06v-.39s0,0,0-.07V64.05s.12,0,.12,0V64H3.41s0-.06,0-.07.11,0,.12,0,0-.05,0-.06,0,0,0-.07,0,0,0-.06,0-.06,0-.07-.12,0-.12,0v-1.1a.16.16,0,0,0,0-.07v-.06s0-.06,0-.07H3.29s0,0,0-.06v-.19h.12V62H3.29V62s0-.06,0-.07h.12v-.06s0-.06,0-.07H3.29s0-.05,0-.06v-.13s.11,0,.12,0,0-.06,0-.07v-.06s0-.05,0-.07V59.9s0-.06,0-.07.12,0,.12,0,0,0,0-.06-.1,0-.12,0,0-.06,0-.07v-.45H3.29s0-.06,0-.07h.12s0,0,0-.06,0,0,0-.07,0,0,0-.06.1,0,.12,0v-.07s0-.05,0-.06H3.41v-.71H3.29s0-.06,0-.07,0,0,0-.06.11,0,.12,0,0-.06,0-.07.1,0,.12,0,0-.05,0-.06v-.13s-.1,0-.12,0,0-.06,0-.07,0,0,0-.06,0-.05,0-.07,0,0,0-.06,0-.06,0-.07H3.29s0,0,0-.06,0,0,0-.07.11,0,.12,0,0,0,0-.06v-.07s0-.05,0-.06H3.29s0-.06,0-.07h.12s0-.06,0-.06,0,0,0-.07v-1s0,0,0-.07,0,0,0-.06-.11,0-.12,0,0-.06,0-.07h.12s0-.05,0-.06,0,0,0-.07v-.13s0,0,0-.06-.11,0-.12,0,0-.06,0-.07,0-.05,0-.06h.12s0,0,0-.07v-.06H3.29s0,0,0-.07,0,0,0-.06V55s0-.05,0-.06h.12s0,0,0-.06v-.07s0-.06,0-.06H3.29s0-.05,0-.07v-.06s0,0,0-.07,0-.06,0-.06a.48.48,0,0,1,.12,0v-.07s0-.05,0-.06,0-.06,0-.07H3.29v-.19s0-.05,0-.07h.12s0-.05,0-.06,0,0,0-.07v-.32s0,0,0-.07v-.06s0-.06,0-.07H3.28v-.06h.13s0-.05,0-.07,0,0,0-.06v-.26s0-.06,0-.07H3.28s0,0,0-.06v-.07a.56.56,0,0,0,.13,0s0,0,0-.06,0-.05,0-.07H3.28v-.13h.13v-.19a.16.16,0,0,1,0-.07v-.26s0,0,0-.06H3.28s0-.05,0-.07v-.06h.13v-.07H3.28v-.06a.57.57,0,0,1,.13,0s0-.05,0-.07,0-.05,0-.06h.12s0-.05,0-.07-.1,0-.13,0,0,0,0-.06-.11,0-.12,0v-.06a.48.48,0,0,1,.12,0s0-.07,0-.07-.09,0-.12,0v-.06s0-.06,0-.07H3.4s0-.06,0-.06a.16.16,0,0,0,0-.07s0,0,0-.06-.1,0-.12,0v-.07s0-.06,0-.06H3.4s0,0,0-.07v-.06a.16.16,0,0,0,0-.07s0,0,0-.06-.1,0-.12,0,0-.06,0-.07v-.06s0-.06,0-.07H3.4s0,0,0-.06v-.07H3.28s0,0,0-.06,0-.06,0-.07H3.4s0-.06,0-.06H3.28s0,0,0-.07v-.06s0-.06,0-.07H3.4s0-.05,0-.06v-.2s0,0,0-.06-.1,0-.12,0,0-.06,0-.07v-.06s0,0,0-.07H3.4s0,0,0-.06v-.78s0,0,0-.07,0-.05,0-.06H3.28s0-.05,0-.07v-.06H3.4s0,0,0-.07,0,0,0-.06V48s0,0,0-.06v-.07s0,0,0-.06,0-.06,0-.07.1,0,.12,0,0,0,0-.06-.1,0-.12,0,0-.05,0-.06v-.13s0,0,0-.07,0,0,0-.06,0-.06,0-.07H3.28s0-.06,0-.06H3.4s0,0,0-.07v-.65s0,0,0-.06,0-.06,0-.07-.12,0-.12,0,0-.06,0-.06a.48.48,0,0,1,.12,0v-.39s0-.06,0-.07-.1,0-.12,0,0-.05,0-.06H3.4s0-.06,0-.07H3.28s0,0,0-.06H3.4s0-.06,0-.07v-.06s0-.05,0-.07v-1s0-.05,0-.06H3.28s0-.06,0-.07H3.4s0,0,0-.06,0,0,0-.06v-.07H3.28s0-.06,0-.06v-.07H3.4s0,0,0-.06,0,0,0-.07v-.06s-.12,0-.12,0v-.07H3.4v-.78s0,0,0-.06,0-.06,0-.07-.12,0-.12,0,0,0,0-.06v-.07H3.4s0-.06,0-.06,0,0,0-.07,0,0,0-.06v-.39s0,0,0-.07,0,0,0-.06a.48.48,0,0,0-.12,0s0-.05,0-.07H3.4s0-.05,0-.06,0,0,0-.07h.12s0,0,0-.06v-.07H3.4s0-.05,0-.06V41.4s0-.06,0-.07.12,0,.12,0,0,0,0-.06-.11,0-.12,0,0-.05,0-.07,0,0,0-.06V41h.12v-.07s-.12,0-.12,0,0,0,0-.06,0-.06,0-.07-.1,0-.12,0,0-.05,0-.06H3.4s0-.06,0-.07,0,0,0-.06-.1,0-.12,0,0-.06,0-.07v-.13s0,0,0-.06H3.4s0,0,0-.06,0,0,0-.07v-.06s-.12,0-.12,0,0-.06,0-.07V40s0,0,0-.07v-.32s0,0,0-.07v-.06s0-.05,0-.07.1,0,.12,0,0-.05,0-.06v-.07s0-.06,0-.06H3.28s0,0,0-.07v-.13H3.4V39H3.28s0,0,0-.07v-.19s0-.06,0-.07.1,0,.12,0,0-.05,0-.06,0-.06,0-.07H3.28s0,0,0-.06v-.2s0,0,0-.06H3.4s0-.06,0-.07H3.28s0,0,0-.06.1,0,.12,0,0-.05,0-.07,0,0,0-.06,0-.06,0-.07h.12v-.13a.48.48,0,0,1-.12,0s0,0,0-.06,0-.05,0-.07,0-.06,0-.06H3.28s0,0,0-.07H3.4s0,0,0-.06H3.28s0-.06,0-.07,0,0,0-.06a.16.16,0,0,1,0-.07s0-.05,0-.06H3.4v-.13a.16.16,0,0,1,0-.07v-.19H3.28s0-.06,0-.06v-.07s0,0,0-.06,0-.06,0-.07H3.4V36.4a.13.13,0,0,0,0-.06s0-.05,0-.07v-.13s0,0,0-.06,0,0,0-.07,0-.06,0-.06-.11,0-.11,0,0-.05,0-.07v-.26a.13.13,0,0,0,0-.06v-.2h.12V35.3H3.27v-.46h.12v-.06H3.27v-.2s0,0,0-.06.11,0,.12,0,0-.06,0-.07a.06.06,0,0,0,0-.06s0-.06,0-.07H3.27v-.84s0-.06,0-.07.11,0,.12,0,0,0,0-.06H3.27s0-.06,0-.06,0,0,0-.07v-.78s0,0,0-.06v-.13s0,0,0-.07,0-.06,0-.06h.24s0-.06,0-.07-.1,0-.12,0,0,0,0-.06-.1,0-.12,0,0-.06,0-.07v-.13s0-.05,0-.06.11,0,.12,0,0-.06,0-.07a.48.48,0,0,1-.12,0s0-.05,0-.06,0-.05,0-.07,0-.06,0-.06h.12s0,0,0-.07V31s0-.06,0-.07-.12,0-.12,0,0-.06,0-.06.11,0,.12,0,0-.05,0-.07v-.19s0,0,0-.07a.48.48,0,0,1-.12,0v-.06h.12s0-.06,0-.07a.48.48,0,0,1-.12,0s0-.05,0-.06.1,0,.12,0,0-.06,0-.07v-.06s0-.05,0-.07H3.27s0-.05,0-.06V30s.12,0,.12,0,0,0,0-.06,0-.05,0-.07v-.19s0,0,0-.07a.48.48,0,0,1-.12,0s0,0,0-.06,0,0,0-.06v-.39s0-.05,0-.07,0-.05,0-.06a.48.48,0,0,1,.12,0s0-.06,0-.07,0,0,0-.06v-.26s-.11,0-.12,0,0-.06,0-.07,0-.05,0-.06v-.2s0,0,0-.06.11,0,.12,0,0-.06,0-.07V28s-.11,0-.12,0,0-.06,0-.07h.12s0-.05,0-.06v-.46s0,0,0-.06H3.27v-.07h.12v-.06s0-.05,0-.07,0-.05,0-.06-.1,0-.12,0,0-.06,0-.07V27s0,0,0-.07,0-.05,0-.06.1,0,.12,0,0-.06,0-.07,0-.06,0-.06a.48.48,0,0,0-.12,0,.09.09,0,0,1,0-.07s.1,0,.12,0,0-.05,0-.06v-.07s0,0,0-.06,0,0,0-.07-.11,0-.12,0,0,0,0-.06h.12s0-.06,0-.07,0-.05,0-.06-.11,0-.12,0,0-.06,0-.07v-.06s0,0,0-.06,0-.06,0-.07.1,0,.12,0,0-.06,0-.06v-.07s0-.05,0-.06-.11,0-.12,0v-.07h.12s0-.06,0-.06H3.27s0-.05,0-.07v-.13s0-.06,0-.06a.48.48,0,0,1,.12,0s0-.05,0-.07v-.13s0-.06,0-.06H3.27s0-.05,0-.07v-.19s0-.05,0-.07h.12s0-.06,0-.06v-.26s0-.06,0-.07H3.27v-.06s0,0,0-.07,0-.05,0-.06.1,0,.12,0,0-.06,0-.07,0-.06,0-.06a.48.48,0,0,0-.12,0,.09.09,0,0,1,0-.07s.1,0,.12,0,0-.05,0-.06v-.13s0,0,0-.07-.11,0-.12,0,0,0,0-.06,0-.05,0-.07V22.38s0-.06,0-.06a.47.47,0,0,0-.12,0s0-.05,0-.07,0-.06,0-.06.12,0,.12,0v-.91a.15.15,0,0,0,0-.07v-.06s0,0,0-.07a.4.4,0,0,1-.11,0V21h.11s0-.05,0-.07v-.26s0,0,0-.06V20s.12,0,.12,0,0-.05,0-.06H3.26v-.07s0,0,0-.06v-.59s0,0,0-.06v-.07s0,0,0-.06,0-.05,0-.07-.1,0-.11,0,0-.05,0-.06h.12s0-.05,0-.07,0,0,0-.06v-.13H3.14s0-.05,0-.06,0-.06,0-.07.11,0,.12,0,0-.06,0-.06v-.07s0,0,0-.06,0-.05,0-.07,0-.06,0-.06-.12,0-.12,0,0-.06,0-.07.12,0,.12,0,0-.05,0-.06v-.2s0,0,0-.06-.11,0-.12,0v-.07h.12v-.06s0-.05,0-.07H3.14v-.06h.12v-1.3H3.14s0-.06,0-.07h.12s0-.05,0-.06v-.07s0,0,0-.06V15.3s0,0,0-.06,0-.05,0-.06.11,0,.12,0,0-.06,0-.07,0,0,0-.06-.1,0-.12,0-.09,0-.12,0V15h.12v-.91s0-.06,0-.06H3.14s0-.06,0-.07h.12s0,0,0-.06v-1.3s0-.05,0-.07,0,0,0-.06H3.14s0-.06,0-.07h.12s0-.05,0-.06v-1h.12s0-.06,0-.06H3.26s0-.06,0-.07v-.71H3.14s0-.06,0-.07,0-.06,0-.06h.12s0-.05,0-.07,0-.05,0-.06h.12s0-.06,0-.07v-.06s0-.05,0-.07H3.26s0-.05,0-.06,0-.06,0-.07H3.14s0-.06,0-.06.09,0,.12,0V9.4s0-.06,0-.07h.12s0-.05,0-.06V9.2s0-.06,0-.06H3.26V8a.16.16,0,0,0,0-.07s-.11,0-.12,0,0-.05,0-.06,0,0,0-.06a.48.48,0,0,1,.12,0s0-.06,0-.07V7.32s0-.05,0-.06H3.14s0-.06,0-.07,0-.05,0-.06h.12s0-.06,0-.07V7s0-.06,0-.07-.12,0-.12,0,0,0,0-.06V6.74h.12s0-.06,0-.07V6.61s-.12,0-.12,0,0-.06,0-.07V6.35s0,0,0-.07h.12V6.22H3.14V6.09s0,0,0-.07,0,0,0-.06h.12s0-.06,0-.07,0,0,0-.06H3.14s0-.06,0-.07a.06.06,0,0,1,0-.06s0-.06,0-.07h.12V5.44s0-.05,0-.07,0-.06,0-.06H3.14V5s0,0,0-.06h.12V4.85s0,0,0-.06,0,0,0-.07,0,0,0-.06h.11V4.53s0,0,0-.07H3.25s0,0,0-.06,0-.05,0-.06,0-.06,0-.07a.48.48,0,0,1-.12,0V3.56a.48.48,0,0,1,.12,0s0-.06,0-.07,0-.05,0-.06a.48.48,0,0,1,.12,0s0-.06,0-.07V3.3s-.09,0-.12,0,0-.06,0-.07a.48.48,0,0,1-.12,0s0,0,0-.06,0-.06,0-.07h.12V3s0,0,0-.06V2.84s0,0,0-.06H3.13s0-.06,0-.07,0,0,0-.06.11,0,.12,0,0-.06,0-.07,0-.05,0-.06-.1,0-.12,0,0-.06,0-.07h.12s0-.05,0-.06,0-.05,0-.07,0-.06,0-.06-.11,0-.12,0,0,0,0-.07V1.93s0-.05,0-.06.11,0,.12,0,0-.06,0-.07a.06.06,0,0,0,0-.06s-.1,0-.12,0,0-.06,0-.07V1.61s0-.05,0-.07a.48.48,0,0,0,.12,0s0-.05,0-.06V1.41s0,0,0-.06a.48.48,0,0,0-.12,0V1.28s0-.05,0-.06.11,0,.12,0,0-.06,0-.07,0,0,0-.06-.1,0-.12,0,0-.05,0-.07V.76s.12,0,.12,0,0-.05,0-.06a.16.16,0,0,0,0-.07.48.48,0,0,1-.12,0V.5h-3V.57s0,.06,0,.07H.25S.26.7.25.7.14.69.13.7s0,.05,0,.07V.83S.12.89.13.9.25.89.25.9.26,1,.25,1H.13v.19s0,.06,0,.07H.25v.06s0,.05,0,.07,0,.06,0,.06a.48.48,0,0,1-.12,0v.26s.12,0,.12,0,0,.06,0,.07,0,.05,0,.06v.07H.13s0,.06,0,.06.12,0,.12,0S.25,2,.25,2v.26s0,0,0,.06,0,.06,0,.07-.11,0-.12,0,0,0,0,.06,0,0,0,.07v.13s0,.05,0,.06a.48.48,0,0,0,.12,0,.09.09,0,0,1,0,.07H.13v.06s.11,0,.12,0,0,.06,0,.07a.48.48,0,0,0-.12,0s0,0,0,.06V3.1s0,.06,0,.07H.25s0,.05,0,.06V3.3s0,0,0,.06,0,.05,0,.07a.47.47,0,0,0-.12,0s0,0,0,.06H.25s0,0,0,.07,0,0,0,.06v.13s0,0,0,.07V4s0,0,0,.06v.07s0,0,0,.06,0,.06,0,.07H.13v.06s.12,0,.12,0,0,.05,0,.07V4.4H.13v.07H.25s0,0,0,.06V4.6H.13s0,.05,0,.06,0,.06,0,.06.12,0,.12,0v.2s0,0,0,.06v.59H.14s0,0,0,.06,0,0,0,.07,0,0,0,.06H.26s0,.06,0,.07V6H.14s0,0,0,.06,0,.05,0,.07v.06s0,0,0,.07,0,0,0,.06,0,0,0,.07,0,.06,0,.06H.26v.13s0,.06,0,.07-.12,0-.12,0,0,0,0,.06,0,0,0,.07H.26s0,0,0,.06V7s0,0,0,.06v.07s0,0,0,.06,0,0,0,.07H.38s0,0,0,.06-.1,0-.12,0,0,0,0,.07,0,0,0,.06v.13s0,0,0,.07,0,0,0,.06H.14s0,.06,0,.07.12,0,.12,0v.06s0,0,0,.07H.14s0,0,0,.06V8H.26s0,.05,0,.06,0,.05,0,.07V8.3s-.1,0-.12,0,0,0,0,.06H0v.06s.09,0,.12,0v.07s0,0,0,.06v.2s0,0,0,.06v.07s0,0,0,.06H.26V9H.14v.06s0,0,0,.07H.26s0,.06,0,.06v.07s0,.06,0,.06H.14s0,.05,0,.07,0,.06,0,.06H.26v.07s0,0,0,.06,0,.06,0,.07H.14s0,0,0,.06,0,0,0,.07,0,.05,0,.06H.26s0,.06,0,.07V10s0,0,0,.07a.48.48,0,0,0-.12,0s0,0,0,.06v.07s0,.06,0,.06H.26s0,.06,0,.07H.14s0,0,0,.06,0,.06,0,.07H.26s0,.05,0,.06v.13s0,0,0,.07,0,.05,0,.06H.14s0,.06,0,.07,0,.06,0,.06H.26s0,0,0,.07v.13s0,.06,0,.06H.14s0,0,0,.07,0,0,0,.06H.26v.07s0,0,0,.06H.14s0,.06,0,.07v.13s0,0,0,.06,0,.05,0,.07H.26s0,0,0,.06H.14s0,0,0,.07,0,0,0,.06v.13H.26s0,.06,0,.06-.11,0-.12,0,0,.06,0,.07v.06s0,.06,0,.07H.26s0,.06,0,.06H.14v.07s0,.05,0,.06H.26s0,.06,0,.07v.13s0,0,0,.06H.14s0,.06,0,.07v.06s0,.06,0,.07H.26s0,0,0,.06v.13s0,.06,0,.07H.14s0,.06,0,.06a.48.48,0,0,0,.12,0v.07s0,0,0,.06,0,.06,0,.07H.14s0,0,0,.06v.07s0,0,0,.06,0,.06,0,.07H.26s0,.05,0,.06,0,0,0,.07v.26s0,.06,0,.06-.11,0-.12,0,0,.05,0,.07v.13s0,0,0,.06H.26s0,.06,0,.07v.13s0,0,0,.06,0,0,0,.07-.1,0-.12,0,0,.05,0,.06,0,.06,0,.07H.26s0,0,0,.06v.39a.16.16,0,0,1,0,.07s0,.05,0,.06H.14s0,.05,0,.06v.13s0,.06,0,.07H.26s0,.06,0,.06-.1,0-.12,0,0,.06,0,.07H.26s0,0,0,.06-.11,0-.12,0V16H.26v.19s0,.05,0,.07H.14s0,0,0,.06,0,.06,0,.07.11,0,.12,0,0,.05,0,.06v.65s0,.06,0,.07a.48.48,0,0,0-.12,0s0,0,0,.06v.07s0,.06,0,.06.12,0,.12,0,0,.05,0,.07v.13H.14s0,.05,0,.06H.26s0,.06,0,.07H.14v.13s0,.05,0,.06.11,0,.12,0,0,.06,0,.07H.14s0,.05,0,.06,0,.06,0,.07.12,0,.12,0,0,0,0,.06v.26s0,.06,0,.07H.14s0,.05,0,.06v.13s0,0,0,.07,0,0,0,.06a.48.48,0,0,0,.12,0s0,.06,0,.07V19s0,0,0,.06H.15s0,.06,0,.07,0,0,0,.06H.26s0,.05,0,.06,0,0,0,.07v.39s0,0,0,.06v.07s0,0,0,.06-.1,0-.11,0,0,.06,0,.07,0,0,0,.06,0,.06,0,.07.11,0,.11,0,0,.05,0,.06v.07s0,0,0,.06,0,.05,0,.07,0,.05,0,.06-.1,0-.11,0,0,.06,0,.07.11,0,.11,0,0,.05,0,.06,0,.05,0,.07v.13s0,0,0,.06V21s0,0,0,.06-.11,0-.11,0,0,.06,0,.07,0,.05,0,.06.1,0,.11,0,0,.06,0,.07v.13s0,0,0,.06,0,.06,0,.07H.15v.06s0,0,0,.07,0,0,0,.06.1,0,.12,0,0,.06,0,.07,0,.06,0,.06a.48.48,0,0,1-.12,0,.09.09,0,0,0,0,.07s.1,0,.12,0,0,.05,0,.06v.07s0,0,0,.06,0,.06,0,.07-.12,0-.12,0,0,0,0,.06,0,.05,0,.07a.48.48,0,0,1,.12,0v.06H.15v.07s0,0,0,.06H.27s0,.06,0,.07,0,0,0,.06v.13s0,.05,0,.06-.11,0-.12,0,0,.06,0,.07H.27s0,.05,0,.06,0,.05,0,.07v.06s0,.05,0,.07v1s.09,0,.12,0v.07H.27s0,.05,0,.06H.15s0,.06,0,.07H.27V25s0,.05,0,.07,0,.05,0,.06H.15v.13s0,.05,0,.07a.48.48,0,0,1,.12,0s0,.05,0,.06.1,0,.12,0,0,.05,0,.07a.48.48,0,0,0-.12,0s0,.05,0,.06,0,.05,0,.07,0,0,0,.06,0,.06,0,.07a.48.48,0,0,0-.12,0s0,0,0,.06v.07s.1,0,.12,0,0,.05,0,.06,0,.05,0,.07,0,0,0,.06,0,.05,0,.07,0,.05,0,.06.11,0,.12,0,0,.05,0,.07-.1,0-.12,0,0,0,0,.06,0,.05,0,.06v.07s0,.05,0,.06,0,.06,0,.07-.11,0-.12,0,0,0,0,.06v.13s.11,0,.12,0,0,.06,0,.07,0,.05,0,.06v.13s0,.06,0,.07-.1,0-.12,0,0,.05,0,.06,0,.06,0,.07.1,0,.12,0,0,.05,0,.06V28H.15s0,.06,0,.07,0,0,0,.06,0,.06,0,.07.12,0,.12,0,0,.05,0,.06-.1,0-.12,0,0,.06,0,.07H.27s0,.05,0,.06v.13s0,.05,0,.07,0,.05,0,.06-.1,0-.12,0,0,.06,0,.07v.06s0,.05,0,.07H.27s0,.05,0,.06v.78s0,.06,0,.07H.15s0,.05,0,.06.1,0,.12,0,0,.06,0,.07a.48.48,0,0,0-.12,0s0,0,0,.06V30s0,.06,0,.06H.27v1s0,0,0,.06v.13s0,.05,0,.07-.1,0-.12,0,0,.05,0,.06-.09,0-.12,0v.13s.1,0,.12,0,0,.06,0,.07.1,0,.12,0,0,0,0,.06,0,.05,0,.07V32H.15s0,.06,0,.06a.48.48,0,0,0,.12,0s0,.06,0,.07H.15s0,.05,0,.06H.27s0,.06,0,.07v.32s0,0,0,.07,0,0,0,.06H.39v.07s-.12,0-.12,0,0,.06,0,.06a.48.48,0,0,0,.12,0,.09.09,0,0,1,0,.07H.27s0,.05,0,.06v.33H.39s0,.05,0,.06,0,.06,0,.07-.12,0-.12,0v.13s0,.05,0,.06H.39s0,.06,0,.06H.27s0,.06,0,.07,0,0,0,.06v.13s0,.06,0,.07H.39s0,.06,0,.06H.27s0,.06,0,.07v.26H.39s0,.06,0,.06H.27s0,.06,0,.07,0,0,0,.06,0,.06,0,.07H.39s0,.06,0,.06H.27s0,.06,0,.07v.06s0,0,0,.07,0,.05,0,.06H.16s0,.06,0,.07H.27s0,.05,0,.06,0,0,0,.07,0,.06,0,.06.1,0,.12,0v.07s0,.05,0,.06H.27s0,0,0,.07H.39s0,0,0,.06,0,0,0,.07a.48.48,0,0,0-.12,0s0,0,0,.06,0,.06,0,.07-.1,0-.12,0,0,.05,0,.06H.28s0,.06,0,.07V36s0,0,0,.06v.39a.16.16,0,0,0,0,.07v.13s0,0,0,.06v.07s0,.05,0,.06H.4s0,.06,0,.07,0,0,0,.06-.11,0-.12,0,0,0,0,.07A.48.48,0,0,1,.4,37v.06a.48.48,0,0,1-.12,0s0,.06,0,.07,0,0,0,.06,0,.06,0,.07H.4v.12s0,.05,0,.07v.19s0,.06,0,.07-.12,0-.12,0,0,0,0,.06v.07s0,.05,0,.06H.4S.4,38,.4,38s0,.06,0,.06H.28s0,0,0,.07v.19s0,0,0,.07,0,.06,0,.06.12,0,.12,0,0,.06,0,.07H.28v.39s0,.05,0,.06H.4S.4,39,.4,39H.28s0,0,0,.06,0,.06,0,.07.12,0,.12,0v.19s0,.06,0,.07H.28s0,0,0,.06v.2s0,0,0,.06H.4s0,.06,0,.07H.28s0,0,0,.06H.4s0,.06,0,.07V40s0,.06,0,.07H.28s0,.05,0,.06,0,.06,0,.07.1,0,.12,0,0,0,0,.06H.28s0,.05,0,.07,0,0,0,.06v.07H.4s0,0,0,.06a.16.16,0,0,0,0,.07v.26H.28s0,0,0,.06v.06a.16.16,0,0,0,0,.07v.32s0,.05,0,.07,0,.06,0,.06H.4s0,0,0,.07v.26s0,.06,0,.06H.28s0,.06,0,.07H.4v.19H.28s0,.06,0,.07H.4s0,0,0,.06,0,.06,0,.07-.1,0-.12,0,0,0,0,.06.11,0,.12,0,0,.06,0,.07,0,0,0,.06v.07H.28s0,0,0,.06H.16s0,.06,0,.07.1,0,.12,0,0,0,0,.06a.48.48,0,0,0,.12,0s0,.06,0,.07-.1,0-.12,0,0,.05,0,.06,0,0,0,.07,0,0,0,.06H.4s0,.06,0,.07,0,0,0,.06H.28s0,.06,0,.07,0,.06,0,.06H.4s0,0,0,.07v.13s0,.05,0,.06H.28s0,.06,0,.07,0,.06,0,.06.11,0,.12,0,0,0,0,.07v.19A.16.16,0,0,1,.4,44v.06s0,0,0,.07a.48.48,0,0,0-.12,0s0,0,0,.06H.4s0,.06,0,.07v.06H.28s0,.06,0,.07,0,0,0,.06H.4v.13s0,0,0,.06,0,.06,0,.07H.28s0,0,0,.06v.07s0,.06,0,.06H.4S.4,45,.4,45V45s0,0,0,.07v.19H.28s0,.06,0,.07,0,0,0,.06v.72s0,0,0,.06.11,0,.12,0,0,.06,0,.07,0,.06,0,.06-.11,0-.12,0,0,.05,0,.07v.06H.4s0,.06,0,.07,0,0,0,.06,0,0,0,.07H.28s0,.05,0,.06,0,.06,0,.07H.16v.13a.48.48,0,0,1,.12,0s0,0,0,.06,0,.05,0,.07,0,.05,0,.06H.4s0,.06,0,.07H.28s0,0,0,.06,0,0,0,.07v.26s0,0,0,.06.11,0,.12,0,0,.06,0,.07,0,.06,0,.06-.11,0-.12,0,0,.05,0,.07v.64s0,.05,0,.07H.4s0,.06,0,.06v.07s0,0,0,.06-.1,0-.12,0,0,.06,0,.07H.4s0,.06,0,.06H.28s0,.06,0,.07v.19s0,.05,0,.07,0,.05,0,.06H.4s0,.06,0,.07,0,0,0,.06v.07s0,0,0,.06v.07s0,.05,0,.06H.28s0,.06,0,.07v.06s0,.06,0,.07.12,0,.12,0,0,0,0,.06V50H.28v.07H.4s0,.06,0,.06-.11,0-.12,0,0,.05,0,.07v.26s.12,0,.12,0,0,0,0,.06,0,.05,0,.07v.06s0,.06,0,.07H.28s0,0,0,.06v.07s.12,0,.12,0,0,0,0,.06V51a.06.06,0,0,1,0,.06s0,.06,0,.07H.28v.06s0,0,0,.07a.48.48,0,0,1,.12,0s0,0,0,.06a.16.16,0,0,1,0,.07s0,.05,0,.06H.28v.07s0,0,0,.06.11,0,.13,0,0,.06,0,.07v.19H.28v.06a.57.57,0,0,0,.13,0V52s0,0,0,.06v.13s0,.06,0,.07-.12,0-.13,0v.06s0,.05,0,.07,0,.05,0,.06H.41s0,.06,0,.07,0,0,0,.06-.11,0-.13,0v.07s0,0,0,.06v.13s0,.06,0,.07H.41s0,0,0,.06V53H.28v.06s0,.05,0,.07v.26s0,0,0,.06,0,.06,0,.07H.41v.13s0,0,0,.06a.48.48,0,0,1-.12,0s0,.06,0,.07.1,0,.12,0,0,.05,0,.06v.2s0,0,0,.06-.11,0-.12,0,0,.06,0,.07H.41s0,.05,0,.06,0,.06,0,.07H.29s0,0,0,.06,0,.06,0,.07a.48.48,0,0,1,.12,0s0,0,0,.06v.39s0,.06,0,.07H.29s0,0,0,.06v.07H.41s0,0,0,.06v.07s0,.05,0,.06H.29s0,.06,0,.06,0,.06,0,.07.1,0,.12,0,0,0,0,.06v.07s0,.05,0,.06,0,.06,0,.07H.29v.13s0,0,0,.06.11,0,.12,0,0,.06,0,.07,0,.06,0,.06H.29v.13s0,0,0,.07a.48.48,0,0,1,.12,0s0,0,0,.06,0,.05,0,.07V57s0,0,0,.06,0,.06,0,.07H.29s0,0,0,.06v.07a.48.48,0,0,1,.12,0s0,0,0,.06v.07s0,.06,0,.06H.29s0,0,0,.07v.06H.41s0,.06,0,.07v.06H.29s0,.06,0,.07,0,.06,0,.06H.41V58s0,0,0,.07,0,0,0,.06-.1,0-.12,0,0,.06,0,.07H.41s0,.05,0,.06v.07H.29s0,0,0,.06,0,0,0,.07v.19a.16.16,0,0,0,0,.07.48.48,0,0,1,.12,0s0,0,0,.06-.11,0-.12,0,0,.06,0,.07H.41s0,.05,0,.06V59s0,0,0,.06,0,.06,0,.07H.29v.13s0,0,0,.06H.41s0,.06,0,.07v.06s-.11,0-.12,0,0,.06,0,.07v.06H.41s0,.06,0,.07H.29s0,.06,0,.06V60s0,0,0,.07H.41s0,0,0,.06H.29s0,.06,0,.07v.06H.41s0,.06,0,.07,0,0,0,.06v.46s0,0,0,.06-.1,0-.12,0,0,.06,0,.07,0,.06,0,.06H.41s0,0,0,.07v.19s0,.05,0,.07H.29s0,.05,0,.06,0,0,0,.07v.06H.41v.07s-.12,0-.12,0v.06s0,.05,0,.07H.41s0,.05,0,.06v.13a.16.16,0,0,1,0,.07H.29s0,.05,0,.06H.41s0,.06,0,.07H.29s0,0,0,.06v.07s0,0,0,.06.12,0,.12,0,0,.05,0,.07v.19s0,0,0,.06-.11,0-.12,0,0,.06,0,.07,0,.06,0,.06H.41v.13s0,0,0,.07a.48.48,0,0,0-.12,0s0,0,0,.06,0,.05,0,.07v.45s0,.06,0,.07H.41s0,0,0,.06-.11,0-.12,0,0,.06,0,.07,0,0,0,.06v.26s0,.06,0,.07.12,0,.12,0,0,0,0,.06v.07H.29s0,0,0,.06v.07H.41s0,.05,0,.06,0,0,0,.07v.06H.29s0,.06,0,.07,0,0,0,.06,0,.06,0,.07H.41s0,.06,0,.06-.12,0-.12,0,0,.06,0,.07.11,0,.12,0,0,0,0,.06H.29s0,.06,0,.07,0,0,0,.06v.07H.41v.06H.29s0,.06,0,.07.12,0,.12,0,0,.06,0,.06H.29s0,0,0,.07,0,0,0,.06.12,0,.12,0,0,0,0,.07v.19H.29s0,.06,0,.07v.06H.41s0,.06,0,.07V66H.29v.07H.41s0,0,0,.06v.19a.16.16,0,0,1,0,.07v.78s0,0,0,.06,0,0,0,.07,0,.06,0,.06a.48.48,0,0,1-.12,0s0,0,0,.07v.19s0,.06,0,.07.1,0,.12,0,0,0,0,.06v.07H.3s0,.06,0,.06.12,0,.12,0v.46s0,0,0,.06,0,.06,0,.07-.12,0-.12,0,0,.06,0,.06.11,0,.12,0,0,0,0,.07v.45s0,0,0,.07,0,0,0,.06H.3s0,0,0,.07,0,0,0,.06,0,.06,0,.07H.42v.13s0,0,0,.06a.48.48,0,0,1-.12,0s0,.05,0,.07,0,0,0,.06v.19s0,0,0,.07,0,.06,0,.06a.48.48,0,0,0,.12,0s0,0,0,.07v.65s0,.06,0,.06a.48.48,0,0,1-.12,0s0,.06,0,.07H.42v.06s0,.06,0,.07S.3,71,.3,71s0,.06,0,.06H.42s0,0,0,.07V72A.48.48,0,0,0,.3,72v.06s.12,0,.12,0v.07s0,0,0,.06,0,.06,0,.07H.3s0,0,0,.06.1,0,.12,0,0,0,0,.07,0,0,0,.06v1.17s0,.06,0,.06a.48.48,0,0,1-.12,0s0,.06,0,.07.11,0,.12,0,0,0,0,.06v.59s0,.06,0,.06a.48.48,0,0,1-.12,0s0,0,0,.07,0,0,0,.06,0,.06,0,.07H.42v1.43s0,0,0,.06,0,.06,0,.07a.48.48,0,0,0-.12,0s0,0,0,.06v.07s0,0,0,.06.1,0,.12,0,0,.06,0,.07,0,0,0,.06-.1,0-.12,0,0,.06,0,.07a.48.48,0,0,1,.12,0s0,0,0,.06v.07s0,0,0,.06v.32s0,0,0,.07-.11,0-.12,0,0,0,0,.06,0,0,0,.07v.19s0,0,0,.07a.48.48,0,0,1,.12,0s0,0,0,.06,0,0,0,.07v.19s0,0,0,.07,0,0,0,.06-.1,0-.12,0,0,.06,0,.07v.06s0,.06,0,.07H.42s0,0,0,.06v.33s0,0,0,.06-.11,0-.12,0,0,.06,0,.07,0,0,0,.06v.07s.12,0,.12,0,0,0,0,.06v.13s0,0,0,.07-.1,0-.12,0,0,0,0,.06,0,.06,0,.07.11,0,.12,0,0,0,0,.06,0,0,0,.07v.19s0,0,0,.07v.52s0,0,0,.06v.07s0,0,0,.06,0,.06,0,.07-.12,0-.12,0v.06s0,.06,0,.07.12,0,.12,0,0,0,0,.06v.19s0,0,0,.07,0,.06,0,.06S.3,81,.3,81s0,.06,0,.07.11,0,.12,0,0,.06,0,.06a.16.16,0,0,1,0,.07v.39s0,0,0,.06v.78a.17.17,0,0,1,0,.07v.32s0,0,0,.07,0,.05,0,.06.1,0,.11,0,0,.06,0,.07-.11,0-.11,0,0,0,0,.06,0,.05,0,.07v1s0,0,0,.06,0,.06,0,.07H.55s0,.06,0,.07-.11,0-.12,0,0,0,0,.06v.13s0,0,0,.06H.55s0,.06,0,.07,0,.06,0,.06a.48.48,0,0,1-.12,0v.39s0,0,0,.07H.55s0,.06,0,.06,0,.05,0,.07v.06s0,0,0,.07-.11,0-.12,0,0,0,0,.06v.13s0,.05,0,.07v.06s0,0,0,.07.1,0,.12,0,0,0,0,.06,0,.06,0,.07-.11,0-.12,0,0,0,0,.06,0,.05,0,.07v.45s0,0,0,.07,0,0,0,.06H.55s0,.06,0,.07-.1,0-.12,0,0,.05,0,.06,0,0,0,.07,0,0,0,.06,0,.06,0,.07.12,0,.12,0,0,0,0,.06-.1,0-.12,0,0,.06,0,.07H.55s0,.05,0,.06v.07a.48.48,0,0,0-.12,0v.06H.55s0,.06,0,.07a.48.48,0,0,0-.12,0s0,0,0,.06v.2s0,0,0,.06v.07s0,0,0,.06.1,0,.12,0,0,.06,0,.07H.43s0,.05,0,.06V88a.16.16,0,0,0,0,.07v.45s0,0,0,.07,0,.06,0,.06H.55v.07s0,.06,0,.06a.48.48,0,0,1-.12,0s0,0,0,.07v.45s0,0,0,.07.11,0,.12,0,0,0,0,.06,0,.06,0,.07-.1,0-.12,0,0,0,0,.06,0,0,0,.07,0,0,0,.06,0,.06,0,.07.12,0,.12,0v.13s0,0,0,.06H.43V90H.55s0,0,0,.06-.1,0-.12,0,0,.06,0,.07,0,.06,0,.06a.48.48,0,0,0,.12,0s0,.06,0,.07-.12,0-.12,0v.13s0,0,0,.06.11,0,.12,0,0,0,0,.07,0,0,0,.06v.07a.48.48,0,0,0-.12,0s0,0,0,.06,0,0,0,.07v.77s0,.06,0,.07H.55s0,.06,0,.06H.43s0,0,0,.07V92s0,0,0,.06,0,0,0,.07.11,0,.12,0,0,.06,0,.06,0,.06,0,.07-.1,0-.12,0,0,0,0,.06,0,.06,0,.07-.12,0-.12,0,0,.06,0,.06.1,0,.12,0v.39s0,.06,0,.07.1,0,.12,0,0,0,0,.06-.11,0-.12,0,0,.06,0,.07v.13s0,.06,0,.06H.55s0,.06,0,.07-.1,0-.12,0,0,0,0,.06v1.17H.31s0,.06,0,.07v.06H.43s0,.06,0,.07v.06s0,0,0,.07v1.29H.55s0,.06,0,.07v.06s0,0,0,.07,0,.06,0,.06a.48.48,0,0,1-.12,0v.13s0,.05,0,.07v.84a.17.17,0,0,0,0,.07v.06a.56.56,0,0,1-.13,0v.07a.56.56,0,0,1,.13,0v.13s0,0,0,.06v.07s0,0,0,.06,0,.06,0,.07.09,0,.11,0,0,.05,0,.06-.11,0-.11,0,0,.05,0,.07,0,0,0,.06,0,.06,0,.07-.12,0-.12,0,0,.06,0,.06.09,0,.12,0V99s0,0,0,.07H.56s0,0,0,.06,0,.06,0,.07-.11,0-.12,0,0,.06,0,.06v.13s0,0,0,.07,0,0,0,.06.1,0,.12,0,0,.06,0,.07H.44s0,0,0,.06,0,0,0,.07,0,.06,0,.06.12,0,.12,0v.13s0,.05,0,.07,0,.06,0,.06H.44v.07s0,0,0,.06.11,0,.12,0v.07H.44s0,0,0,.06v.13s0,0,0,.07,0,.06,0,.06-.1,0-.12,0v.13s0,.06,0,.07.09,0,.12,0,.09,0,.12,0v.06s-.1,0-.12,0v.39H.56s0,.06,0,.07v.06H.44s0,0,0,.07,0,0,0,.06v.2s0,0,0,.06H.56s0,0,0,.07,0,0,0,.06v.07s0,0,0,.06-.11,0-.12,0,0,.05,0,.07,0,0,0,.06,0,0,0,.07,0,0,0,.06H.56v.07s0,0,0,.06H.44s0,0,0,.06,0,.06,0,.07H.56s0,0,0,.06-.11,0-.12,0,0,.06,0,.07,0,.06,0,.06a.48.48,0,0,0,.12,0s0,.06,0,.07H.44v.06s0,.06,0,.07.12,0,.12,0,0,0,0,.06v.2H.44v.06a.48.48,0,0,0,.12,0v.07s0,0,0,.06,0,.06,0,.07H.44v1.1s0,.05,0,.07,0,0,0,.06H.56s0,.06,0,.07-.1,0-.12,0,0,0,0,.06,0,0,0,.07v.71s0,0,0,.07H.56s0,.05,0,.06,0,0,0,.07v.06H.44s0,.06,0,.07v.06s0,.06,0,.06H.56s0,0,0,.07v.06s-.11,0-.12,0,0,.06,0,.07,0,0,0,.06.11,0,.12,0,0,.06,0,.07,0,0,0,.06.1,0,.12,0,0,0,0,.07-.1,0-.12,0,0,0,0,.06,0,0,0,.07v.52H.44s0,.06,0,.06v.07s0,0,0,.06.1,0,.12,0,0,.06,0,.07,0,0,0,.06v.33H.44s0,.05,0,.06v.13s0,.06,0,.07.12,0,.12,0v.13s0,0,0,.06-.11,0-.12,0,0,.06,0,.07v.06s0,.06,0,.07.1,0,.12,0,0,0,0,.06,0,0,0,.07v.13a.48.48,0,0,0-.12,0v.06a.48.48,0,0,0,.12,0s0,.05,0,.07v.13H.44s0,0,0,.06,0,0,0,.07v.19H.56s0,.06,0,.07,0,0,0,.06H.44s0,.06,0,.07v.06H.56s0,.06,0,.07,0,0,0,.06H.44s0,.06,0,.06v.07s0,0,0,.06.11,0,.12,0,0,.06,0,.07a.06.06,0,0,1,0,.06s0,.06,0,.07H.44s0,0,0,.06a.48.48,0,0,0,.12,0s0,.06,0,.07H.44s0,.06,0,.06v.26s0,.06,0,.07.11,0,.12,0,0,0,0,.06,0,.06,0,.07-.1,0-.12,0,0,0,0,.06v.13s0,.05,0,.07,0,0,0,.06.11,0,.12,0,0,.06,0,.07H.44s0,0,0,.06,0,.06,0,.07.12,0,.12,0,0,0,0,.06-.1,0-.12,0,0,.06,0,.07v.19s0,.06,0,.07.11,0,.12,0,0,.05,0,.06H.44v.07s.12,0,.12,0,0,0,0,.06-.1,0-.12,0,0,.06,0,.07a.13.13,0,0,0,0,.06s0,.06,0,.07H.57s0,.05,0,.06-.11,0-.12,0,0,.06,0,.07,0,0,0,.06v.26s0,0,0,.07,0,0,0,.06.1,0,.12,0,0,.06,0,.07-.12,0-.12,0v.06H.57v.2s-.12,0-.12,0v.06H.57v.19H.45s0,.06,0,.07v.07s0,0,0,.06v.32s0,0,0,.07H.57s0,.06,0,.06v.07s0,0,0,.06-.11,0-.12,0,0,.06,0,.07,0,0,0,.06v.13s0,.06,0,.07.1,0,.12,0,0,0,0,.06v.39s0,0,0,.07,0,.06,0,.06H.45v.13s0,0,0,.07a.48.48,0,0,1,.12,0s0,0,0,.06v.2s0,0,0,.06a.48.48,0,0,1-.12,0s0,.06,0,.07v.39s0,0,0,.06H.57s0,.06,0,.07,0,0,0,.06v.46s0,0,0,.06-.11,0-.12,0,0,0,0,.07,0,0,0,.06,0,.06,0,.06-.1,0-.12,0v.14H.45a.48.48,0,0,1,.12,0s0,0,0,.06,0,0,0,.06,0,0,0,.07v.13s0,.06,0,.06a.48.48,0,0,1-.12,0v.07s0,0,0,.06H.57s0,.06,0,.07,0,0,0,.06V118s0,.06,0,.07-.12,0-.12,0,0,.06,0,.06H.57s0,.06,0,.07-.11,0-.12,0,0,0,0,.06,0,.06,0,.07H.57s0,.05,0,.06v.91s0,.06,0,.07-.12,0-.12,0v.19s0,.06,0,.07.12,0,.12,0,0,0,0,.06v.26s0,.06,0,.07-.12,0-.12,0,0,0,0,.06.1,0,.12,0,0,.06,0,.07v1.29s0,0,0,.07,0,0,0,.06-.1,0-.12,0,0,.06,0,.07v.06s0,0,0,.07a.48.48,0,0,1,.12,0v.06s-.12,0-.12,0v.07s0,0,0,.06,0,.06,0,.07.1,0,.12,0,0,0,0,.06,0,.06,0,.07a.48.48,0,0,0-.12,0s0,0,0,.06,0,.06,0,.07H.57s0,.06,0,.06-.11,0-.12,0,0,0,0,.07v.13s0,.06,0,.06.12,0,.12,0,0,.05,0,.07,0,.06,0,.06H.45v.2s0,.06,0,.06H.57v.33s0,0,0,.06,0,.05,0,.07a.48.48,0,0,1,.12,0s0,0,0,.06v.07a.48.48,0,0,0-.12,0s0,0,0,.06,0,0,0,.07v.13s.12,0,.12,0,0,0,0,.06H.57s0,.06,0,.06v1s0,0,0,.06-.11,0-.12,0,0,.06,0,.07,0,.05,0,.06v.2s0,0,0,.06a.48.48,0,0,0,.12,0s0,.06,0,.07H.45s0,.05,0,.06.12,0,.12,0,0,.06,0,.07v.06s0,0,0,.07v.58H.45s0,.06,0,.07,0,.06,0,.06H.57s0,0,0,.07,0,0,0,.06a.16.16,0,0,1,0,.07s0,.06,0,.06H.45v.13s0,.05,0,.07.11,0,.12,0,0,0,0,.06,0,0,0,.07v.71a.13.13,0,0,1,0,.06v.07s0,0,0,.06v.26s0,.06,0,.07H.45s0,.05,0,.06v.07s0,0,0,.06H.58s0,.06,0,.07v.32s0,0,0,.07,0,.06,0,.06H.45s0,.06,0,.07H.33v.06H.45s0,.06,0,.07H.58s0,.05,0,.06,0,.06,0,.07H.34s0,.05,0,.06.1,0,.12,0,0,.05,0,.07.1,0,.12,0,0,.05,0,.06,0,.06,0,.07.09,0,.12,0,0,0,0,.06-.12,0-.12,0,0,0,0,.07v.06s0,0,0,.07v.45s0,.05,0,.07v.19H.46s0,0,0,.07,0,0,0,.06v.07H.58v.06H.46s0,.06,0,.07v.06s0,.05,0,.07,0,.05,0,.06H.58v.52H.46s0,.06,0,.06H.58s0,.06,0,.07v.45s0,.05,0,.07v.06s0,0,0,.07,0,.06,0,.06H.7s0,.06,0,.07H.58s0,.05,0,.06v.07s0,0,0,.06v.2a.48.48,0,0,1,.12,0v.06s-.11,0-.12,0,0,.06,0,.07,0,.06,0,.06.11,0,.12,0,0,0,0,.07v.06s-.1,0-.12,0,0,.06,0,.07,0,.05,0,.06H.46v.07H.58s0,.05,0,.06H.46s0,.06,0,.07H.58s0,.05,0,.06,0,.05,0,.07V134s0,0,0,.07H.46s0,.05,0,.06H.58s0,.06,0,.07,0,0,0,.06v.26H.46s0,.06,0,.07v.06H.58s0,0,0,.07,0,0,0,.06v.19s0,0,0,.07,0,.06,0,.06H.7s0,.07,0,.07H.58v.71s0,0,0,.07H.7s0,.05,0,.06H.58s0,.06,0,.07v.71s0,.06,0,.07.1,0,.12,0,0,.05,0,.06,0,.06,0,.07H.58s0,.05,0,.06v.07a.48.48,0,0,0-.12,0v.06a.48.48,0,0,0,.12,0s0,.05,0,.07v.91s0,0,0,.06-.11,0-.12,0,0,.06,0,.07,0,.05,0,.06H.58s0,.05,0,.07,0,0,0,.06v1.1s0,.06,0,.07.12,0,.12,0,0,0,0,.06,0,.05,0,.07-.1,0-.12,0,0,0,0,.06v2.73s0,0,0,.06,0,.06,0,.07H.46s0,.05,0,.06v.2s0,.05,0,.06.11,0,.12,0,0,.06,0,.07,0,0,0,.06v.59s0,0,0,.06v.13s0,.05,0,.07,0,.06,0,.06H.46v.07H.58v.06a2.17,2.17,0,0,0,0,.26v.13s0,0,0,.07,0,0,0,.06a.57.57,0,0,1-.13,0v.07s0,0,0,.06.11,0,.13,0,0,.06,0,.07,0,0,0,.06,0,.06,0,.07H.46v.06H.59s0,.05,0,.07v.06H.47s0,.06,0,.07v.06s0,0,0,.07,0,0,0,.06,0,.06,0,.07.12,0,.12,0v1.75H.47v.06H.59V149a.48.48,0,0,1,.12,0V149H.59s0,0,0,.07v1.1s0,.06,0,.06H.71s0,.06,0,.07-.11,0-.12,0,0,.05,0,.06v.52s0,.06,0,.07H.71s0,.05,0,.06,0,.06,0,.07H.59s0,.05,0,.06v.2s0,0,0,.06,0,.06,0,.07a.48.48,0,0,1,.12,0s0,0,0,.06v.2s0,0,0,.06H.59s0,.05,0,.07,0,0,0,.06v.13s0,.06,0,.07H.71s0,.05,0,.06-.1,0-.12,0,0,.06,0,.07v1.62s0,.05,0,.06,0,.06,0,.07H.47v.13s0,0,0,.06H.59s0,.06,0,.07,0,0,0,.06v1s0,.06,0,.07H.71s0,.06,0,.06-.11,0-.12,0,0,.05,0,.07v.06H.71v.07s-.12,0-.12,0v.06s0,0,0,.07H.71s0,0,0,.06H.59s0,.06,0,.07,0,0,0,.06v.07s0,.05,0,.06H.71s0,.06,0,.07,0,.05,0,.06-.1,0-.12,0,0,.06,0,.07.12,0,.12,0,0,0,0,.06,0,.06,0,.06-.12,0-.12,0v.2s0,.06,0,.06H.71s0,.07,0,.07H.59s0,.05,0,.06H.71s0,.06,0,.07,0,.06,0,.06H.59s0,.05,0,.07v.26s0,0,0,.06v.07s0,.06,0,.06H.71a.09.09,0,0,1,0,.07H.59s0,0,0,.06v.07s0,.05,0,.06H.71s0,.06,0,.07-.1,0-.12,0,0,.05,0,.06,0,.06,0,.07-.11,0-.11,0,0,.05,0,.06,0,.05,0,.07-.11,0-.13,0,0,0,0,.06H.59s0,.06,0,.07,0,0,0,.06v.07s0,0,0,.06,0,.06,0,.07H.48s0,.05,0,.06,0,.05,0,.07v.06s0,.05,0,.07v.13s0,0,0,.06.11,0,.12,0,0,.06,0,.07v.06s0,0,0,.07v.06s0,0,0,.07,0,.05,0,.06H.72s0,.06,0,.07H.6s0,.05,0,.06a.16.16,0,0,0,0,.07v.06s0,.05,0,.07H.72s0,.05,0,.06,0,.06,0,.07-.12,0-.12,0,0,0,0,.06v.07s0,0,0,.06v3.77s0,0,0,.06,0,.06,0,.06H.72s0,.06,0,.07-.11,0-.12,0,0,.05,0,.06v.07s0,0,0,.06v.39s0,.05,0,.07,0,.06,0,.06H.72s0,.06,0,.07H.6v1.1s0,0,0,.07,0,0,0,.06H.72s0,.06,0,.07H.6s0,.05,0,.06v.2s0,0,0,.06.11,0,.12,0,0,.06,0,.07,0,.06,0,.06H.6v1.23s0,0,0,.07,0,.06,0,.06H.72s0,0,0,.07V168H.6V168H.72s0,.06,0,.06a.48.48,0,0,1-.12,0s0,.06,0,.07H.72s0,.06,0,.06a.48.48,0,0,1-.12,0s0,.05,0,.07,0,0,0,.06H.72s0,.06,0,.07a.48.48,0,0,0-.12,0s0,0,0,.06v.07s0,.05,0,.06H.72s0,.06,0,.07,0,.06,0,.06H.6s0,.05,0,.07V169s0,.05,0,.06a.48.48,0,0,0,.12,0s0,.06,0,.07a.48.48,0,0,0-.12,0s0,0,0,.06,0,.06,0,.07H.72v.13s0,0,0,.06H.6s0,.06,0,.07,0,.06,0,.06H.72s0,.06,0,.07H.6s0,.05,0,.06,0,.05,0,.07v1.81a.16.16,0,0,1,0,.07s0,0,0,.06a.48.48,0,0,0,.12,0s0,.06,0,.07,0,.06,0,.06H.6s0,0,0,.07v.32H.72a.09.09,0,0,1,0,.07H.6s0,.05,0,.06.12,0,.12,0a.09.09,0,0,1,0,.07H.6s0,.05,0,.06v.07s0,0,0,.06,0,.06,0,.07-.09,0-.12,0v.13H.72V173s0,0,0,.06-.11,0-.12,0v.07H.72s0,.05,0,.06v.13s0,0,0,.07a.48.48,0,0,0-.12,0s0,0,0,.06,0,.06,0,.07H.72s0,0,0,.06,0,.06,0,.07H.6v.06a.17.17,0,0,0,0,.07s0,.05,0,.06H.72s0,.06,0,.07H.61s0,.05,0,.06v.07s0,0,0,.06v.58s0,.05,0,.07,0,0,0,.06,0,.06,0,.07H.72s0,.06,0,.06a.4.4,0,0,1-.11,0s0,.05,0,.07v.26s0,.06,0,.06H.49s0,0,0,.07v.06H.61s0,.06,0,.07v.06s0,.05,0,.07V176s0,0,0,.06-.11,0-.12,0,0,.06,0,.07,0,.06,0,.06.11,0,.12,0,0,0,0,.07,0,0,0,.06v1.89s0,.05,0,.06H.49s0,.06,0,.06.12,0,.12,0v.46H.49s0,.06,0,.06H.61s0,.06,0,.07v.06s0,.05,0,.07,0,.06,0,.06.12,0,.12,0,0,.06,0,.07-.11,0-.12,0,0,.05,0,.06v1.24s0,.05,0,.06H.73s0,.06,0,.07H.61s0,.05,0,.06H.73s0,.06,0,.07,0,.06,0,.06-.11,0-.12,0,0,.05,0,.07v.71H.73s0,.06,0,.07a.48.48,0,0,0-.12,0s0,0,0,.06H.73v.07s-.12,0-.12,0v.06s0,0,0,.06H.73s0,.06,0,.07,0,.06,0,.07H.61s0,0,0,.06v.06H.73s0,.06,0,.07,0,.05,0,.06v.07H.61v.06H.73s0,.05,0,.07v.19s-.11,0-.12,0,0,.06,0,.07v.06s0,.06,0,.07H.73s0,0,0,.06V183s0,.06,0,.07H.61s0,.06,0,.06H.73s0,.06,0,.07H.61v.26s0,0,0,.06,0,0,0,.07H.73s0,0,0,.06H.61s0,.06,0,.07v.06s0,.06,0,.07H.73s0,.05,0,.06V184s0,.06,0,.06-.11,0-.12,0,0,.05,0,.07v.06H.73s0,.05,0,.07,0,0,0,.06v.13s0,.06,0,.07H.61s0,0,0,.06v.13a.16.16,0,0,1,0,.07H.73s0,.05,0,.06,0,.06,0,.07H.61s0,.05,0,.06-.12,0-.12,0,0,.06,0,.07.1,0,.12,0v.12s0,.06,0,.07.11,0,.12,0,0,.06,0,.06a.16.16,0,0,1,0,.07s0,0,0,.06,0,.06,0,.07H.61s0,.06,0,.06,0,.06,0,.07H.73s0,.05,0,.06v.13s-.11,0-.12,0,0,.06,0,.07V186s0,.06,0,.07.11,0,.12,0,0,0,0,.06,0,.06,0,.07-.11,0-.12,0,0,0,0,.06v.13H.73s0,.06,0,.07,0,0,0,.06H.61s0,.06,0,.07v.06s.12,0,.12,0,0,.06,0,.07H.61v.06a.48.48,0,0,0,.12,0s0,.05,0,.07v.32H.61s0,.06,0,.07,0,0,0,.06v.13s0,.06,0,.07H.73s0,.05,0,.06v.13s0,.06,0,.07a.48.48,0,0,0-.12,0v.06s.11,0,.12,0,0,.06,0,.07,0,0,0,.06-.1,0-.12,0,0,.06,0,.07,0,.05,0,.06H.73s0,.06,0,.07v.26s0,0,0,.06v.13s0,0,0,.07,0,0,0,.06-.1,0-.12,0,0,.06,0,.07v.06s0,.05,0,.07H.73s0,.05,0,.06,0,0,0,.06H.61v.07s0,0,0,.06v.2s0,0,0,.06v.13s0,.06,0,.07H.73s0,0,0,.06a.2.2,0,0,1,0,.07V190s0,0,0,.06v.26s0,.06,0,.07H.62s0,.06,0,.06.1,0,.12,0v.07s0,0,0,.06v.07s0,0,0,.06,0,.06,0,.07H.62s0,0,0,.06v.52s0,0,0,.07v.06s0,.05,0,.07,0,.05,0,.06.1,0,.12,0,0,.06,0,.07,0,.06,0,.06-.12,0-.12,0a.09.09,0,0,0,0,.07s0,0,0,.06H.74s0,.06,0,.07a.48.48,0,0,0-.12,0s0,0,0,.06,0,.06,0,.07H.5s0,.05,0,.06H.62s0,0,0,.07H.74s0,.05,0,.06,0,.05,0,.07-.1,0-.12,0-.1,0-.12,0v.06H.62v.13s0,.05,0,.07a.48.48,0,0,1,.12,0s0,0,0,.06a.16.16,0,0,0,0,.07s-.12,0-.12,0,0,0,0,.06,0,0,0,.06,0,.06,0,.07.1,0,.12,0,0,.06,0,.06V193s0,.06,0,.06H.62s0,0,0,.07,0,.06,0,.06H.74s0,.06,0,.07-.11,0-.12,0,0,.05,0,.06,0,.05,0,.07v1.36s0,.06,0,.07H.5s0,.06,0,.06H.62s0,.05,0,.07V195H.5v.07s.12,0,.12,0v.71s0,.05,0,.07,0,.05,0,.06.1,0,.12,0,0,.06,0,.07,0,0,0,.06-.1,0-.12,0,0,0,0,.07a.48.48,0,0,1,.12,0s0,0,0,.06H.62s0,.06,0,.07v1.16H.74v.07H.62s0,.05,0,.06a.48.48,0,0,1-.12,0s0,.06,0,.07.1,0,.12,0v.58s0,.05,0,.07,0,.06,0,.06.1,0,.12,0,0,.06,0,.07H.62s0,.05,0,.06v.07s0,0,0,.06,0,0,0,.07v.06s0,0,0,.07,0,.05,0,.06H.5s0,0,0,.07H.62s0,.05,0,.06,0,.05,0,.07H.74s0,0,0,.06,0,.05,0,.07H.62s0,.05,0,.06v.07s0,0,0,.06.11,0,.12,0,0,.06,0,.07,0,0,0,.06-.11,0-.12,0,0,0,0,.07v.77s0,0,0,.07v.06s0,0,0,.07,0,.06,0,.06H.5s0,.06,0,.07H.62s0,.05,0,.06,0,.05,0,.07,0,0,0,.06,0,.05,0,.07,0,.06,0,.06a.48.48,0,0,0,.12,0s0,.06,0,.07-.11,0-.12,0,0,0,0,.06v.07s0,.06,0,.06H.74s0,.06,0,.07H.62v.45s0,.05,0,.07v.19s0,0,0,.07H.5s0,0,0,.06,0,0,0,.07v.19s0,.06,0,.07H.62a.06.06,0,0,1,0,.06s0,.06,0,.07H.5s0,.05,0,.06.11,0,.12,0,0,.05,0,.07,0,0,0,.06v.2s0,0,0,.06v.13s0,.05,0,.06.11,0,.12,0,0,.06,0,.07H.62s0,.06,0,.06,0,.05,0,.07v.06s0,.06,0,.07.11,0,.12,0,0,.06,0,.06v.13s0,0,0,.07H.62s0,.06,0,.06,0,0,0,.07v.19H.74a.09.09,0,0,1,0,.07H.62s0,.06,0,.06v.2s0,0,0,.06.11,0,.12,0,0,.06,0,.07,0,0,0,.06-.1,0-.12,0,0,.06,0,.07,0,0,0,.06v1s0,0,0,.06H.74s0,.06,0,.07,0,0,0,.06-.11,0-.11,0,0,.06,0,.07v.06a.16.16,0,0,0,0,.07s0,.06,0,.06H.74a.17.17,0,0,1,0,.07s0,0,0,.06-.11,0-.12,0,0,.06,0,.07,0,.05,0,.06H.75s0,.06,0,.07H.63s0,.06,0,.06H.75s0,.06,0,.07-.11,0-.12,0,0,.05,0,.06,0,.06,0,.06a.48.48,0,0,0,.12,0s0,.05,0,.07V207s-.12,0-.12,0,0,.06,0,.07v.06a.16.16,0,0,0,0,.07v.19H.75v.07H.63s0,0,0,.06v.07s0,.06,0,.06H.51s0,.05,0,.07.1,0,.12,0,0,.05,0,.06v.13s0,.05,0,.07v.45s0,.06,0,.07.1,0,.12,0,0,.05,0,.06,0,.06,0,.07-.11,0-.12,0,0,0,0,.06,0,.05,0,.07v.19s0,0,0,.07,0,.05,0,.06H.51v.13H.63s0,.06,0,.07,0,0,0,.06,0,.05,0,.07,0,.06,0,.06H.75s0,.06,0,.07-.1,0-.12,0,0,0,0,.06,0,0,0,.07V210a.16.16,0,0,0,0,.07v.06s0,.06,0,.07H.75s0,.05,0,.06-.1,0-.12,0,0,.05,0,.07,0,0,0,.06v1.49s0,.06,0,.07-.1,0-.12,0,0,.05,0,.06,0,.06,0,.07a.48.48,0,0,1,.12,0s0,0,0,.06v2.08s0,.06,0,.07H.51v.06s0,.06,0,.06H.63s0,.05,0,.07v.45s0,0,0,.07H.51s0,.05,0,.06,0,.06,0,.07.1,0,.12,0,0,.05,0,.06,0,.05,0,.07v.19s.1,0,.12,0v.07s-.11,0-.12,0-.1,0-.12,0v.06s.1,0,.12,0v.13s0,0,0,.07,0,.05,0,.06H.75s0,.05,0,.07H.63s0,.05,0,.06,0,.05,0,.07v.32s-.1,0-.12,0v.07s.11,0,.12,0,0,0,0,.06.11,0,.12,0,0,0,0,.07H.63s0,.05,0,.06,0,0,0,.07H.51s0,.05,0,.06H.63s0,.05,0,.07,0,0,0,.06V219s0,.06,0,.07H.51s0,.06,0,.06H.63s0,.06,0,.07,0,0,0,.06v.26s0,.05,0,.07v.26s0,0,0,.06.11,0,.12,0a.09.09,0,0,1,0,.07H.63v.78s0,.06,0,.06H.52a.09.09,0,0,0,0,.07H.63s0,.05,0,.06,0,0,0,.07v.58s0,0,0,.06v.07a.16.16,0,0,1,0,.07s0,0,0,.06,0,.06,0,.06H.52a.09.09,0,0,0,0,.07s.11,0,.11,0,0,.05,0,.06v.07a.13.13,0,0,0,0,.06v.07s0,.06,0,.06H.52a.09.09,0,0,0,0,.07s0,.06,0,.06H.64v.72s0,0,0,.06H.76v.07H.64s0,0,0,.06v2.34s0,.06,0,.06H.52a.09.09,0,0,0,0,.07H.64s0,.06,0,.06V226s0,.05,0,.07H.52s0,.06,0,.06v.13s0,.05,0,.07a.48.48,0,0,1,.12,0v.06a.48.48,0,0,1-.12,0v.07s0,0,0,.06,0,.06,0,.07H.64s0,0,0,.06H.52s0,.06,0,.07,0,.05,0,.06H.64s0,.06,0,.07H.52v.06H.64V227s0,.06,0,.06a.48.48,0,0,1-.12,0s0,.06,0,.07-.12,0-.12,0,0,.06,0,.06.1,0,.12,0,0,.05,0,.07a.48.48,0,0,1,.12,0s0,0,0,.06,0,0,0,.07v.32s0,.06,0,.07H.52v.06s0,.06,0,.07H.64s0,.05,0,.06-.1,0-.12,0,0,.06,0,.07v.06s0,0,0,.07a.48.48,0,0,1,.12,0s0,0,0,.06v.39H.52s0,.05,0,.06,0,.06,0,.07.1,0,.12,0,0,.06,0,.06v.13s0,.05,0,.07-.11,0-.12,0,0,.06,0,.06v.07H.64s0,0,0,.06,0,0,0,.07v.13H.52s0,.05,0,.06,0,.05,0,.07,0,.06,0,.06a.48.48,0,0,0,.12,0V230s0,.06,0,.07H.52s0,0,0,.06v.2s0,.05,0,.06a.48.48,0,0,0,.12,0s0,.06,0,.07v.06H.52s0,.06,0,.07a.48.48,0,0,1,.12,0s0,0,0,.06v.78s0,.06,0,.07a.48.48,0,0,0-.12,0s0,0,0,.06.11,0,.12,0,0,.06,0,.07v.19s0,.06,0,.07H.52s0,.05,0,.06H.64s0,.05,0,.07v.13s0,0,0,.06v1s-.11,0-.12,0,0,.06,0,.07H.64s0,.06,0,.06v.07s0,0,0,.06-.1,0-.12,0,0,.06,0,.07H.64s0,.06,0,.06v.07s0,.06,0,.06H.52s0,.05,0,.07v.13s0,.06,0,.06.12,0,.12,0,0,.05,0,.07v.13H.52s0,0,0,.06,0,.06,0,.07H.64s0,.05,0,.06,0,.05,0,.07v.13s0,.05,0,.06.11,0,.12,0,0,.06,0,.07H.64s0,.05,0,.06,0,.05,0,.07v.06a.16.16,0,0,1,0,.07v.26s0,0,0,.06v.26a.16.16,0,0,1,0,.07s0,0,0,.06,0,.06,0,.07a.48.48,0,0,0-.12,0v.06a.15.15,0,0,1,0,.07s0,0,0,.06v.07s0,0,0,.06H.64s0,.06,0,.06v.07s0,0,0,.06v.26s0,.05,0,.07,0,0,0,.06,0,.06,0,.07.1,0,.11,0,0,0,0,.06a.09.09,0,0,1,0,.07H.65s0,.06,0,.06H.76s0,.06,0,.07,0,.06,0,.06H.65s0,.05,0,.07v.13s0,0,0,.06v.07s0,0,0,.06-.11,0-.12,0,0,.06,0,.07H.65s0,0,0,.06v.07s0,.06,0,.06H.53s0,0,0,.07V238s0,.05,0,.07,0,0,0,.06.1,0,.12,0,0,.06,0,.07-.12,0-.12,0,0,0,0,.06v.07s0,0,0,.06,0,.06,0,.07H.65s0,.06,0,.06H.53a.09.09,0,0,0,0,.07s.1,0,.12,0,0,.05,0,.06v.39H.53s0,.06,0,.07H.65s0,0,0,.06v.26s0,.05,0,.07-.11,0-.12,0,0,.05,0,.06H.65s0,.06,0,.07,0,0,0,.06v.65s0,.05,0,.06H.53s0,.06,0,.07v.06s.11,0,.12,0v.07H.53s0,0,0,.06.1,0,.12,0,0,.06,0,.07,0,.06,0,.06H.53s0,0,0,.07V241s0,.05,0,.06H.65s0,.06,0,.07H.53s0,.06,0,.06v.52s0,0,0,.07v.06s0,.06,0,.07H.65V242s0,0,0,.06,0,.05,0,.07-.11,0-.12,0,0,.05,0,.06,0,.05,0,.07v.13s0,0,0,.06-.1,0-.12,0,0,0,0,.07,0,.05,0,.06H.53s0,0,0,.07H.65s0,.05,0,.06v.13s0,.06,0,.07H.53s0,0,0,.06v.33s0,0,0,.06,0,0,0,.06H.65s0,.06,0,.07,0,.06,0,.06H.53s0,.06,0,.07H.65s0,.05,0,.06,0,.05,0,.07v.13s0,.06,0,.06a.48.48,0,0,1-.12,0s0,.05,0,.07v.19s0,.06,0,.07H.65s0,0,0,.06v.2s0,.05,0,.06H.53s0,.06,0,.07,0,0,0,.06v.33s0,0,0,.06,0,.06,0,.07H.41s0,.05,0,.06v.07s.1,0,.12,0,0,.05,0,.06,0,.05,0,.07,0,0,0,.06,0,.05,0,.07,0,0,0,.06.11,0,.12,0v.07s-.1,0-.12,0v.13H.65v.06s-.11,0-.12,0,0,0,0,.07,0,.05,0,.06H.41v.13H.53s0,.06,0,.07,0,0,0,.06,0,.05,0,.07,0,0,0,.06,0,.06,0,.07.1,0,.12,0v.13s-.1,0-.12,0,0,0,0,.06,0,0,0,.07,0,.05,0,.06H.41s0,0,0,.06,0,0,0,.07H.29s0,.05,0,.06H.41s0,.06,0,.07,0,.06,0,.06H.53s0,.06,0,.07.1,0,.12,0v.13s0,0,0,.06a.48.48,0,0,1-.12,0s0,.06,0,.07v.06s0,0,0,.07,0,.06,0,.06H.65v.07s0,.05,0,.06,0,.06,0,.07H.53s0,.05,0,.06,0,.05,0,.07,0,.06,0,.06a.48.48,0,0,1-.12,0s0,.05,0,.07.11,0,.12,0,0,.05,0,.06.11,0,.12,0,0,.06,0,.07a.48.48,0,0,0-.12,0v.06H.65s0,.06,0,.07v.06s0,0,0,.07v.19H.53v.07H.65s0,0,0,.06V249s0,.05,0,.07v.13s0,0,0,.06,0,.06,0,.07H.53s0,.05,0,.06v.07H.65s0,.05,0,.06v.07s0,0,0,.06,0,.05,0,.07H.53s0,.05,0,.06v.52s0,.06,0,.06H.65s0,0,0,.07,0,.05,0,.06H.53s0,.06,0,.07v.06s0,.06,0,.07H.65s0,.06,0,.06a.48.48,0,0,1-.12,0s0,.05,0,.07v.06s0,.06,0,.07.11,0,.12,0,0,0,0,.06H.53s0,.06,0,.07v.13s0,.05,0,.06H.65s0,.06,0,.07,0,0,0,.06,0,.05,0,.07,0,.06,0,.06-.12,0-.12,0v.2s0,0,0,.06,0,0,0,.07H.66s0,0,0,.06,0,.06,0,.07H.53s0,.05,0,.06v.26s0,.06,0,.07.11,0,.13,0,0,0,0,.06v.13s0,.06,0,.07H.53v.13H.66v.06s0,.05,0,.07H.53v.06H.66s0,.06,0,.07,0,0,0,.06v.07s0,.05,0,.06-.11,0-.12,0,0,.06,0,.07,0,0,0,.06v.2H.42s0,.05,0,.06H.54s0,0,0,.07-.1,0-.12,0,0,.05,0,.06H.54s0,.05,0,.07v.06s0,.05,0,.06,0,.06,0,.07H.66s0,.06,0,.06a.56.56,0,0,1-.13,0v.13s0,.06,0,.07.12,0,.13,0,0,0,0,.06v.13s0,.06,0,.07H.53s0,.06,0,.06H.66s0,.06,0,.07,0,.06,0,.06H.54a.16.16,0,0,0,0,.07s0,.05,0,.06.1,0,.12,0,0,.06,0,.07,0,.06,0,.06a.47.47,0,0,1-.12,0s0,.05,0,.07v.13s0,0,0,.06,0,.06,0,.07H.66s0,.06,0,.06H.54s0,0,0,.07,0,0,0,.06H.66s0,.06,0,.07H.54s0,.05,0,.06.11,0,.12,0,0,.06,0,.07,0,.06,0,.06a.48.48,0,0,1-.12,0v.2s0,0,0,.06H.66s0,.06,0,.07,0,0,0,.06v.39s0,.05,0,.07,0,.05,0,.06H.54s0,.06,0,.07H.66s0,.05,0,.06,0,.05,0,.07v.26s0,0,0,.06-.12,0-.12,0,0,0,0,.07v.06s0,0,0,.07v.19H.66s0,.06,0,.07H.54s0,.05,0,.06,0,0,0,.06v.39s0,.05,0,.07H.66s0,.05,0,.06,0,.05,0,.07v.06s0,.06,0,.07-.11,0-.12,0,0,.05,0,.06v.07s0,0,0,.06V259s0,0,0,.07v.06s0,.05,0,.07,0,.05,0,.06H.66v.07s0,0,0,.06,0,.06,0,.07H.54s0,0,0,.06,0,.05,0,.07,0,.05,0,.06H.66s0,.06,0,.07H.54s0,.05,0,.06,0,.05,0,.07H.42s0,.05,0,.06,0,.05,0,.07v.19s0,.05,0,.07H.54s0,.05,0,.06v.07s0,0,0,.06,0,.06,0,.07-.12,0-.12,0,0,0,0,.06.11,0,.12,0,0,0,0,.07v.06s0,0,0,.07v.32s0,.05,0,.07H.66s0,.05,0,.06H.54s0,.05,0,.07,0,0,0,.06v1.95s0,0,0,.06,0,.06,0,.07H.66s0,0,0,.06,0,.05,0,.07H.54s0,.05,0,.06v.46s0,.05,0,.06H.66s0,.06,0,.07H.54s0,.05,0,.06,0,.05,0,.07v.06s0,0,0,.07,0,.05,0,.06H.66s0,.06,0,.07,0,.05,0,.06H.54s0,.05,0,.07,0,0,0,.06v.32s0,.06,0,.07.12,0,.12,0,0,.05,0,.06v.07H.54s0,.06,0,.06.12,0,.12,0,0,.06,0,.07v.06s-.11,0-.12,0v.07s.12,0,.12,0,0,.06,0,.06v.07s0,0,0,.06,0,.06,0,.07H.54s0,.05,0,.06,0,.06,0,.07H.66s0,.05,0,.06v.07H.54s0,.06,0,.06H.66s0,.06,0,.07v.13s0,.05,0,.06H.54s0,.06,0,.07H.66s0,.05,0,.06a.09.09,0,0,1,0,.07H.54s0,.05,0,.06v.07s0,.05,0,.06H.66s0,.06,0,.07,0,0,0,.06,0,.05,0,.07H.54v.06H.66v.07s0,0,0,.06,0,.06,0,.07a.48.48,0,0,0-.12,0v.06s0,0,0,.07,0,.05,0,.06H.42s0,0,0,.07,0,.05,0,.06H.54s0,.05,0,.07H.67v.06H.54s0,.05,0,.07v.06s0,0,0,.07,0,.05,0,.06H.67s0,.06,0,.07v.06s0,.05,0,.07H.54s0,.05,0,.06v.07s0,0,0,.06,0,.05,0,.06H.67s0,.06,0,.07H.54v.07H.67s0,.05,0,.06,0,.06,0,.06a.57.57,0,0,1-.13,0v.07H.67s0,0,0,.06,0,.05,0,.07-.11,0-.13,0V269a.2.2,0,0,1,0,.07s0,0,0,.06v1.24s0,0,0,.06,0,.06,0,.07a.48.48,0,0,1,.12,0s0,0,0,.06v.13s0,0,0,.07H.55s0,0,0,.06,0,.06,0,.07H.43s0,.05,0,.06,0,.06,0,.07H.55s0,.05,0,.06H.67s0,.06,0,.07,0,.05,0,.06H.55s0,.05,0,.07v.13s0,.05,0,.06H.67s0,.06,0,.07v.06s0,.06,0,.07H.43s0,.05,0,.06H.55s0,.05,0,.07,0,0,0,.06,0,.05,0,.06H.67s0,.06,0,.07-.1,0-.12,0,0,.06,0,.07,0,0,0,.06,0,.05,0,.06,0,.06,0,.07-.1,0-.12,0v.13s0,0,0,.06H.55s0,0,0,.07,0,0,0,.06,0,.06,0,.07H.67s0,.06,0,.06-.1,0-.12,0v.72H.43s0,.05,0,.06H.55s0,.06,0,.07v.06s0,.06,0,.07-.1,0-.12,0,0,.05,0,.06,0,.06,0,.07.1,0,.12,0,0,.05,0,.06v1.24s0,0,0,.06,0,.06,0,.07H.43s0,.06,0,.06H.55s0,.05,0,.07v.25s0,.05,0,.07H.43s0,.06,0,.06v.07s0,.06,0,.06H.55s0,0,0,.07v.26s0,0,0,.06H.43v.07H.55v.06s0,.05,0,.07H.43v.06H.55v.13s0,.05,0,.07H.43v.06H.55v.33H.43v.06a.48.48,0,0,0,.12,0s0,.05,0,.07v.39s0,0,0,.06,0,.06,0,.07H.43s0,.05,0,.06,0,.05,0,.07V278H.55s0,.05,0,.06,0,.06,0,.07H.43s0,.05,0,.06v.07s0,.06,0,.06H.55s0,.05,0,.07v.13H.43s0,.05,0,.06H.55s0,.06,0,.07v.13s0,.06,0,.06H.43s0,.06,0,.07.11,0,.12,0,0,0,0,.06v.2s0,.05,0,.06H.43v.06s0,.06,0,.07H.55s0,.05,0,.06v.46s0,.05,0,.06H.43s0,.06,0,.07H.55s0,.06,0,.06v.13s0,.05,0,.07H.43s0,.06,0,.06v.07H.55s0,.06,0,.06v.07s0,0,0,.06v.2s0,0,0,.06,0,.06,0,.07H.43s0,.05,0,.06,0,.06,0,.07H.55s0,.05,0,.06a.09.09,0,0,1,0,.07s0,.06,0,.06H.43s0,.06,0,.07H.55s0,.05,0,.06H.43s0,.06,0,.07v.06H.55s0,.06,0,.07,0,0,0,.06,0,.05,0,.07,0,.05,0,.06H.67v.13H.43V282H.55v.91s0,0,0,.06v.65s0,.06,0,.06H.44a.09.09,0,0,0,0,.07s0,.06,0,.06H.55s0,.05,0,.07v.06a.56.56,0,0,0,.13,0V284s-.1,0-.13,0a.57.57,0,0,0,0,.13v.52s0,0,0,.06,0,.05,0,.07H.44v.06H.56s0,.05,0,.07v.06s0,.06,0,.07H.44s0,.05,0,.06H.56s0,.06,0,.07,0,0,0,.06v.13s0,0,0,.07,0,0,0,.06a.48.48,0,0,1-.12,0v.07H.56s0,.06,0,.06a.48.48,0,0,1-.12,0,.09.09,0,0,0,0,.07s.1,0,.12,0,0,0,0,.06v1.11s0,.05,0,.06H.44s0,.06,0,.06,0,.06,0,.07H.56s0,.05,0,.06v.46s0,0,0,.06,0,0,0,.07H.44v.06H.56v.33H.44s0,.06,0,.06v.07s0,0,0,.06v.26s0,.05,0,.07,0,.05,0,.06H.56s0,.06,0,.07v.13s0,0,0,.06-.11,0-.12,0V289s.12,0,.12,0v.13s0,0,0,.06,0,0,0,.07H.44s0,0,0,.06H.56s0,.06,0,.07,0,0,0,.06,0,.05,0,.07v.32s0,.05,0,.07H.44s0,.05,0,.06V290H.56s0,.05,0,.06,0,.05,0,.07H.44s0,.05,0,.06v.45s.11,0,.12,0,0,.06,0,.07,0,0,0,.06-.11,0-.12,0,0,.06,0,.07-.1,0-.12,0,0,0,0,.06,0,.06,0,.07H.44s0,0,0,.06,0,.06,0,.07H.56s0,.06,0,.06H.44s0,.06,0,.07,0,.05,0,.06H.56s0,.06,0,.07,0,.05,0,.06H.44s0,.06,0,.07,0,0,0,.06v.2s0,.06,0,.06H.56s0,.05,0,.07V292H.44s0,.05,0,.06H.56s0,.06,0,.07v.06s-.1,0-.12,0,0,.06,0,.07,0,0,0,.06,0,.05,0,.07-.11,0-.12,0,0,0,0,.06-.1,0-.12,0v.07s.1,0,.12,0,0,0,0,.06,0,0,0,.07v.06s0,0,0,.07,0,.05,0,.06H.44s0,.06,0,.07,0,0,0,.06v.84s0,.05,0,.07H.32V294a.48.48,0,0,0,.12,0v.91s0,.05,0,.07,0,0,0,.06,0,.06,0,.07H.32s0,.05,0,.06H.44s0,.06,0,.07,0,0,0,.06v.52s0,.05,0,.07V296s0,0,0,.06,0,0,0,.07,0,.06,0,.06H.33s0,.06,0,.07H.44s0,.05,0,.06,0,.05,0,.07v.13s0,0,0,.06v.13H.56v.07H.44s0,0,0,.06v.32s0,.06,0,.07.11,0,.12,0,0,.05,0,.06H.44v.07H.56s0,.06,0,.06-.1,0-.12,0,0,.06,0,.07v.13s0,0,0,.06,0,0,0,.07v.13s0,.06,0,.06H.33s0,.05,0,.07v.06s0,.06,0,.07H.45s0,.05,0,.06,0,.05,0,.07v.06s0,.05,0,.07H.57s0,.05,0,.06H.45s0,.06,0,.07,0,.06,0,.06H.57v.13s0,.06,0,.07H.45V299s0,.05,0,.07,0,.06,0,.06.11,0,.12,0v.07H.45v.52H.33s0,.05,0,.06,0,.06,0,.07H.45v.06s0,.05,0,.07,0,.05,0,.06H.57v.13H.45s0,.06,0,.07,0,0,0,.06,0,.05,0,.07,0,.05,0,.06H.33s0,.05,0,.07H.45s0,.05,0,.06,0,.05,0,.07H.57v.06s-.1,0-.12,0a.16.16,0,0,0,0,.07s0,0,0,.06.09,0,.12,0,0,.05,0,.07-.11,0-.12,0,0,0,0,.06,0,0,0,.06V301s0,.06,0,.06-.1,0-.12,0v.07s0,.05,0,.06,0,.06,0,.07H.45v.19s0,.06,0,.07H.33v.06s0,.05,0,.07H.45s0,.06,0,.06,0,.05,0,.07H.33s0,.05,0,.06,0,.06,0,.07H.45s0,.05,0,.06v.65s0,.06,0,.07H.57s0,.06,0,.06-.11,0-.12,0,0,.06,0,.07v3.5s0,.05,0,.07H.33s0,.06,0,.06v.07H.45s0,.05,0,.06,0,.05,0,.07v.65s0,.05,0,.06H.33s0,.06,0,.07.12,0,.12,0,0,0,0,.06v.13s0,.06,0,.07H.33s0,0,0,.06.1,0,.12,0,0,.06,0,.07v.26H.33s0,.05,0,.06H.45s0,.06,0,.07v.25s0,.06,0,.07H.33v.32H.45s0,.06,0,.07H.33V309H.45v.07s0,.05,0,.06-.11,0-.12,0,0,.06,0,.07v.39s0,.06,0,.06H.45s0,.05,0,.07v.13s0,.06,0,.06H.33s0,.05,0,.07,0,0,0,.06v.2s0,.06,0,.06H.45v.2s0,.06,0,.06H.33v.13s0,.05,0,.07.11,0,.12,0,0,.05,0,.06H.33s0,.05,0,.07v.32s0,0,0,.07H.45s0,.05,0,.06,0,0,0,.07,0,0,0,.06H.33v.07H.45v.52s0,0,0,.06,0,.06,0,.06H.33s0,.05,0,.07v.13H.45s0,.05,0,.06,0,.05,0,.07v.19s0,0,0,.07,0,0,0,.06,0,.06,0,.07H.33v.13H.45s0,.05,0,.06,0,.05,0,.07H.33s0,.05,0,.06v.26a.17.17,0,0,0,0,.07H.45v.06H.34s0,.06,0,.07H.45s0,.06,0,.06H.34a.09.09,0,0,0,0,.07V314s0,.05,0,.07,0,.05,0,.06.11,0,.11,0,0,.05,0,.07v.13s0,0,0,.06v.2s0,0,0,.06,0,.06,0,.07H.34s0,.05,0,.06H.45s0,.06,0,.07,0,0,0,.06V315a.13.13,0,0,0,0,.06v.46s0,0,0,.06v.06H.34s0,.07,0,.07H.46s0,.06,0,.07H.34a.06.06,0,0,0,0,.06s0,.06,0,.06.12,0,.12,0V316s0,.06,0,.07-.11,0-.12,0,0,0,0,.06a.16.16,0,0,0,0,.07s0,0,0,.06,0,.06,0,.07H.46s0,.06,0,.06v.33H.34s0,.05,0,.06,0,.05,0,.07,0,.06,0,.06H.46v.33H.34s0,.05,0,.06H.46s0,.06,0,.07v.06s0,.05,0,.07v.19s0,0,0,.07,0,0,0,.06-.1,0-.12,0-.1,0-.12,0v.07H.34s0,.05,0,.06H.46s0,.06,0,.07,0,.06,0,.06H.34s0,.05,0,.07,0,0,0,.06,0,.06,0,.07H.46s0,.05,0,.06,0,.05,0,.07v.19H.34v.07H.46s0,.05,0,.06H.34s0,.05,0,.07v.06s0,.06,0,.06H.46s0,.07,0,.07H.34s0,0,0,.06,0,.05,0,.07,0,.06,0,.06-.1,0-.12,0,0,.06,0,.07.11,0,.12,0,0,.05,0,.06,0,.05,0,.07.11,0,.12,0,0,0,0,.06,0,0,0,.07,0,0,0,.06v.07s0,.05,0,.06H.34s0,.06,0,.07H.46s0,.06,0,.06H.34s0,.06,0,.07,0,.06,0,.06H.46s0,.06,0,.07H.34v.06s0,.05,0,.07,0,.06,0,.06H.46s0,.06,0,.07H.34s0,.05,0,.06v.07s0,0,0,.06v.33s0,.05,0,.06a.48.48,0,0,0,.12,0s0,.06,0,.07-.12,0-.12,0,0,0,0,.06,0,.06,0,.07.12,0,.12,0v.06s0,0,0,.07H.34s0,0,0,.06,0,.06,0,.07H.46s0,.06,0,.06H.34s0,.06,0,.07v.58s0,.05,0,.07H.46s0,.05,0,.06,0,0,0,.07v.13s0,.05,0,.06H.34s0,.06,0,.07H.46s0,0,0,.06v.13s0,0,0,.06,0,.06,0,.07H.34V323s0,0,0,.07H.22s0,.05,0,.06,0,.06,0,.07H.34s0,.06,0,.06V324s0,0,0,.06v.07s0,.05,0,.06-.11,0-.12,0,0,.06,0,.07v.13s0,0,0,.06,0,.06,0,.07.12,0,.12,0,0,0,0,.06,0,0,0,.07H.46s0,.05,0,.06H.34s0,.06,0,.07,0,0,0,.06,0,.05,0,.07v1.42s0,.06,0,.07H.22s0,.06,0,.06H.34a.16.16,0,0,1,0,.07v.39s0,0,0,.06v.07s0,.05,0,.06H.22s0,.06,0,.07H.34s0,.05,0,.06,0,.05,0,.07v.06a.16.16,0,0,1,0,.07v.78s0,.06,0,.06H.22s0,.05,0,.07v.06H.34s0,.06,0,.07,0,0,0,.06v.07s0,0,0,.06v.2s0,0,0,.06V329H.22v.06H.35v.26s0,.06,0,.07a.57.57,0,0,0-.13,0v.06H.35s0,.06,0,.07a.56.56,0,0,0-.13,0s0,0,0,.06v.07H.35s0,.05,0,.06,0,0,0,.07v.06a.16.16,0,0,0,0,.07v1.62s0,0,0,.06v.07s0,.06,0,.06H.23s0,.05,0,.07,0,.05,0,.06H.35s0,.06,0,.07V332H.23s0,.06,0,.07,0,.06,0,.06H.35v.52s0,.06,0,.07-.12,0-.12,0,0,0,0,.06,0,.06,0,.07.12,0,.12,0v.26s0,.05,0,.06H.23s0,.05,0,.07v.06H.35s0,.06,0,.07,0,.05,0,.06H.23s0,0,0,.07v.32s0,.05,0,.07,0,.05,0,.06H.35s0,.05,0,.06,0,.06,0,.07H.23s0,.05,0,.06,0,.06,0,.07H.35v.52s0,.06,0,.06H.23v.07s0,.05,0,.06H.35s0,.06,0,.07v.13s0,0,0,.06,0,.06,0,.07H.23s0,.05,0,.06v.2s0,.06,0,.06H.35V336s0,.06,0,.07H.23s0,.05,0,.06v.13H.35s0,0,0,.07,0,0,0,.06v.2s0,0,0,.06H.23v.07H.35v.06s0,.05,0,.07,0,.05,0,.06H.23s0,.06,0,.07V337s0,.05,0,.07,0,.05,0,.06H.35s0,.05,0,.07,0,0,0,.06v.26s0,.06,0,.06H.23s0,.05,0,.07v.06s0,.05,0,.07H.35v.06a.48.48,0,0,1-.12,0s0,.05,0,.07,0,.06,0,.06-.1,0-.12,0V338s0,.06,0,.06H.23v.39s0,.06,0,.07H.35s0,.05,0,.06H.23s0,.06,0,.07,0,.06,0,.06H.35v.13s0,.05,0,.07H.23V339H.35v.07s0,.06,0,.06H.23s0,.06,0,.07H.35s0,.05,0,.06v.2s0,0,0,.06,0,.05,0,.07-.1,0-.12,0,0,0,0,.06v1.49s0,.05,0,.07,0,0,0,.06,0,.06,0,.07H.11v.19H.23s0,.06,0,.07,0,0,0,.06v.46s0,.05,0,.06H.11s0,.06,0,.07H.23s0,.05,0,.06,0,.05,0,.07v.39s0,0,0,.06,0,.06,0,.07-.1,0-.12,0,0,0,0,.06v.13s0,.06,0,.07H.23v.13s0,0,0,.06H.11v.07H.23s0,.05,0,.06,0,.05,0,.07H.11s0,.05,0,.06v.13a.15.15,0,0,1,0,.07s0,0,0,.06V344s0,.05,0,.07,0,.05,0,.06H.23s0,.05,0,.06v.07s0,0,0,.06v.46s0,0,0,.06V345s0,0,0,.07,0,.06,0,.06H.12s0,.05,0,.07v.06H.23s0,.06,0,.07v.06s0,.05,0,.07v.78s0,0,0,.06v.2s0,0,0,.06-.12,0-.12,0,0,0,0,.07v.06H.24s0,.06,0,.07v.06s0,.05,0,.07v.19a.16.16,0,0,0,0,.07v.19s0,.05,0,.07v.06s0,.05,0,.07H.36s0,.05,0,.06H.24s0,.05,0,.07,0,.05,0,.06H.12s0,.06,0,.07H.24s0,0,0,.06V348s0,.06,0,.07-.11,0-.12,0,0,.06,0,.06,0,.06,0,.07H.24s0,0,0,.06,0,.06,0,.07H.36s0,.05,0,.06H.24s0,.05,0,.07,0,.05,0,.06,0,.06,0,.07H.12s0,.06,0,.06H.24s0,.06,0,.07v.32s0,.05,0,.07v.06s0,.06,0,.07H.12s0,.05,0,.06,0,.06,0,.07H.24s0,.05,0,.06v.2s0,0,0,.06-.11,0-.12,0,0,.06,0,.07a.48.48,0,0,1,.12,0s0,0,0,.06H.12v.07H.24v.58s0,.05,0,.07,0,.05,0,.06H.12s0,.06,0,.07v.06H.24s0,.05,0,.07,0,0,0,.06v.2s0,0,0,.06-.11,0-.12,0v.07s.12,0,.12,0v.06s0,.05,0,.07,0,0,0,.06-.1,0-.12,0,0,.06,0,.07H.24s0,0,0,.06,0,0,0,.07v.32s0,.06,0,.06H.12s0,.06,0,.07H.24s0,.05,0,.06v.72H.12s0,.05,0,.06,0,.05,0,.07,0,.06,0,.06a.48.48,0,0,0,.12,0v.59s0,0,0,.06v.07s0,.05,0,.06H.12s0,.06,0,.07v.06H.24s0,.06,0,.07,0,0,0,.06v.13s0,.06,0,.07H.12s0,.05,0,.06v.2s0,0,0,.06,0,.06,0,.07.12,0,.12,0,0,0,0,.06V355H.12s0,.06,0,.07H.24s0,.05,0,.06v.07H.12s0,.05,0,.06,0,.05,0,.07,0,.05,0,.06H.24v.71s0,.05,0,.07,0,.05,0,.06-.1,0-.12,0,0,.06,0,.07v.06s0,.05,0,.07a.48.48,0,0,1,.12,0s0,.06,0,.06v.13s0,0,0,.07,0,.06,0,.06H.12v.33H.24s0,.05,0,.06,0,.05,0,.07,0,.06,0,.06H.12s0,.06,0,.07H.24s0,.05,0,.06v.13s0,.06,0,.07H.12s0,.05,0,.06v.07H.24s0,.05,0,.06,0,.05,0,.07,0,.06,0,.06-.12,0-.12,0v.72s0,.05,0,.06H.24s0,.06,0,.07,0,0,0,.06,0,.05,0,.07H.13s0,.05,0,.06V359s0,0,0,.06v.19s0,.05,0,.07v.06s0,.05,0,.07,0,0,0,.06,0,.06,0,.07H.24s0,.06,0,.06a.4.4,0,0,1-.11,0s0,.05,0,.07v.13s0,0,0,.06v.26s0,.05,0,.07v.06s0,.06,0,.07H0s0,.05,0,.06H.13s0,.06,0,.07v1.43s0,.06,0,.06H0a.09.09,0,0,0,0,.07H.13s0,.05,0,.06v1s0,0,0,.06H.25s0,.06,0,.07H.13s0,0,0,.06,0,0,0,.07v.45H0s0,.06,0,.07H.13s0,.05,0,.06v.07H0s0,.05,0,.06a.09.09,0,0,0,0,.07H.13s0,.05,0,.06v.59s0,0,0,.06V365s0,0,0,.06H.25s0,.06,0,.07v.06H.13s0,.06,0,.07,0,.05,0,.06,0,.06,0,.07H0s0,0,0,.06v.2H.13s0,.05,0,.06H.25v.07s0,.05,0,.06H.13v1.1s0,.06,0,.07H.25s0,.06,0,.06H.13v.33H.25s0,.06,0,.06H.13s0,.06,0,.07v.39s0,.05,0,.06A.48.48,0,0,1,0,368S0,368,0,368H.13s0,.05,0,.06,0,.05,0,.07v.19s0,0,0,.07,0,.05,0,.06H0v.07s0,0,0,.06,0,.05,0,.07H.13s0,.05,0,.06,0,.06,0,.07H0s0,.05,0,.06V369s0,.05,0,.07,0,.05,0,.06H.13s0,.06,0,.07v.58s.1,0,.12,0,0,.06,0,.06-.11,0-.12,0,0,.06,0,.07,0,.06,0,.06H0S0,370,0,370H.13v.19s0,0,0,.07v.06s0,.06,0,.07H0s0,.05,0,.06v.07s0,.05,0,.06,0,.06,0,.07H.13s0,.06,0,.06H0s0,.06,0,.07H.13s0,.06,0,.06H.25s0,.06,0,.07H.13s0,.06,0,.06H.25a.09.09,0,0,1,0,.07H.13s0,.05,0,.06H0s0,.06,0,.07H.13s0,.05,0,.06v.07s0,.05,0,.06-.1,0-.12,0,0,.06,0,.07,0,.06,0,.06.12,0,.12,0,0,.05,0,.07v.06s0,0,0,.07v.53h3Z" transform="translate(0 -0.5)"/></g></g></svg>