<svg xmlns="http://www.w3.org/2000/svg" viewBox="0 0 137 137"><defs><style>.\33 e09fad3-1c5d-4def-92ef-5048144cddc6{fill:#e82a1f;}.\38 e8f6459-018e-405c-909d-5505ef8bec9f{fill:#fff;}</style></defs><path class="3e09fad3-1c5d-4def-92ef-5048144cddc6" d="M0,97.13c0,7.2,3.7,11,7.9,13.2l60.6,26.2,60.6-26.2c4.2-2.2,7.9-6,7.9-13.2V39.73c0-7.2-3.7-11-7.9-13.2L68.5.33,7.9,26.53c-4.2,2.2-7.9,6-7.9,13.2Z"/><path class="8e8f6459-018e-405c-909d-5505ef8bec9f" d="M115.1,86.83V40.23L68.5,61.33,22,40.23v46.7c0,5.9-.1,8.7,4.1,11a107.11,107.11,0,0,0,10.7,4.4V65.83l31.8,14,31.8-14v36.5a107.11,107.11,0,0,0,10.7-4.4C115.2,95.63,115.1,92.83,115.1,86.83Z"/></svg>
