<svg viewBox="0 0 73.15 71.22" xmlns="http://www.w3.org/2000/svg"><circle cx="36.58" cy="35.44" fill="#3b5a9d" r="34.27"/><g fill="#fff"><path d="m72.27 29.85a2.77 2.77 0 0 0 .25-1c1-14-15.08-23.15-26.08-27-11.6-4.15-23.81-.92-33.15 6.15-3.54 1.62-6.29 4.65-8.29 8.39a1.24 1.24 0 0 1 -.14.18 3 3 0 0 0 -.47 1c-3.83 7.75-4.93 18-4.06 25-.79 13.92 15.15 23 26.1 26.85 15.57 5.51 32.22-2.21 41.57-14.77 5.52-8.22 6-15.95 4.27-24.8zm-41.87 36.57c-10.13-2-27-11.11-26.19-23.7a2.63 2.63 0 0 0 -.21-1.32c-.62-5.68.55-15.79 4-22.71l.16-.17a36.59 36.59 0 0 1 6.51-6.75 3 3 0 0 0 1.49-1.13 33.49 33.49 0 0 1 26.22-5.84 43.45 43.45 0 0 1 10.88 3.92 2.64 2.64 0 0 0 2.06 2.7c4.06 1.09 8.66 9 10.83 12.25a18.78 18.78 0 0 1 2.43 5.33 2.66 2.66 0 0 0 .21.83c1.9 7.72-.16 16.86-4.19 22.85-7.93 10.69-20.95 16.32-34.2 13.74z"/><path d="m47.11 20.53h-1.59c-.94 0-1.87 0-2.81 0a8.13 8.13 0 0 0 -1.7.26 2.61 2.61 0 0 0 -1.94 2.32 10 10 0 0 0 -.1 1.34v4.72c0 .32 0 .32.33.32h7.49c-.09.66-.17 1.29-.24 1.92l-.33 2.59-.42 3.21c0 .2-.15.16-.26.16h-6.25c-.32 0-.32 0-.32.33v19.6c0 .41 0 .36-.37.36h-7.38c-.32 0-.32 0-.32-.33v-19.68c0-.32 0-.33-.32-.33h-6.23c-.24 0-.31-.07-.31-.31q0-3.62 0-7.22c0-.24.06-.31.31-.31h6.2c.34 0 .35 0 .35-.34 0-2 0-4.06 0-6.09a10.89 10.89 0 0 1 1.46-5.48 8.51 8.51 0 0 1 4.5-3.68 12.94 12.94 0 0 1 5-.68c1.08 0 2.15.06 3.22.12.67 0 1.34.11 2 .17z"/></g></svg>