<svg viewBox="0 0 380.11 114.46" xmlns="http://www.w3.org/2000/svg"><g transform="translate(0 -14.42)"><path d="m3 99.77a3.69 3.69 0 0 1 1-.26c6.47.34 13-.3 19.44 1 3.38.67 7 .44 10.46.38 4.29-.07 8.58-.46 12.88-.6 8.59-.29 17.17-.52 25.76-.75 5.8-.15 11.59-.33 17.38-.33 4.88 0 9.8.7 14.63.26 9.21-.85 18.33.46 27.49.55 6.57.06 13.14.82 19.71 1.21 3.29.2 6.59.26 9.88.41 1 0 2 .23 3 .3s1.72 0 2.58 0c1.39 0 2.78-.1 4.16 0 3.59.15 7.17.37 10.76.55a10.7 10.7 0 0 1 1.79 0c6 1.4 12.12.52 18.14 1.34 3 .41 6.18.06 9 1.67.32.18.89 0 1.34-.11a15 15 0 0 1 3.22-.44c7.25.61 14.49 1.18 21.75 1.66 2.68.18 5.33.81 8 1.13 11.51 1.35 23 2.66 34.54 4 8.15 1 16.29 1.93 24.44 2.88 5.65.66 11.3 1.42 17 1.83 1.34.1 2.25 1.7 4 .64 1-.61 2.87.2 4.35.27 2.39.13 4.85-.18 7.15.33 4.75 1 9.53.2 14.27.7 2.75.29 5.57-.07 8.11 1.6.8.53 2.13.41 3.21.36 5-.26 9.62 1.34 14.2 3.08.17.06.28.27.42.41-1.08 2.22-1.15 2.22-3.22 2-4.17-.51-8.35-.88-12.5-1.43-3.64-.49-7.25-1.22-10.9-1.69a51.67 51.67 0 0 0 -7.14-.45 101.57 101.57 0 0 1 -20.52-1.79 16.11 16.11 0 0 0 -3.57-.42 11.72 11.72 0 0 1 -6.34-1.37 2.27 2.27 0 0 0 -1.9-.22c-1.79 1.27-3.67.76-5.5.46-4.14-.69-8.25-1.54-12.4-2.19-1.32-.2-2.75.25-4.07 0-2.36-.37-4.67-1-7-1.54a2.81 2.81 0 0 0 -.85-.22c-8.07.94-15.85-1.11-23.72-2.19-5.05-.69-10.12-1.23-15.18-1.81-2.78-.32-5.56-.63-8.36-.86-3.38-.27-6.78-.39-10.16-.68-5.08-.43-10.15-.94-15.22-1.42-1.09-.1-2.18-.23-3.27-.29-5.79-.27-11.58-.39-17.35-.82-4.75-.35-9.46-1.13-14.21-1.56-1.65-.15-3.37.37-5 .27-10.36-.67-20.71-1.43-31.07-2.15-4.88-.34-9.76-.73-14.64-.94-3.19-.14-6.39 0-9.58 0-6.59-.06-13.17-.11-19.76-.24-3.76-.07-7.51-.34-11.27-.43-1.59 0-3.18.21-4.78.24-7.19.15-14.38.24-21.57.4-7.49.17-15 .65-22.49.51-5.77-.11-11.53-1-17.3-1.48-3.29-.28-6.58-.51-9.87-.78-1.13-.1-2.25-.25-3.37-.38.02-.21.02-.37.02-.6z" fill="none" stroke="#2a2530" stroke-linecap="round" stroke-linejoin="round" stroke-width="6"/><g fill="#2a2530"><path d="m4.21 24.47c0-8.91.45-9.67 2-10 2.72-.26 5.41.25 6.89 1.86 1.09 1.6 1.8 5.12 2.41 17.16.44 7.38.9 14.08 2.33 42.13 1.06 6.54-2.67 7.63-5.38 7.5-3.85-.56-6.58-2.23-6.8-5.73-.52-5.39-1.48-43.63-1.45-52.92z"/><path d="m50.55 49c0-34.28 0-33 2.33-34.18 6.74-1.14 8 2 8.4 2.81s.49 48.54.34 51.73c.38 9.27.38 9.46-1.26 10.64s-4.31 1.06-7.35-.34c-4.16-2.22-16.91-22-18.18-23.78.28 2.43 0 23.73-.48 25.35-.5 2.4-1.22 3.24-3.92 3.11-2.72.27-5.76-1-6.44-3.1-.36-.79-.55-5-.06-24.21 1.26-35.87 1.14-33.36 2-34.58.81-.74 1.58-.7 2.74-.65a6 6 0 0 1 5.93 5.89c-.06 1.25.55 2.83 1.62 4.91.66 1.69 13.68 30.47 14.08 30.1 0 0 .28-6.09.25-13.7z"/><path d="m84.46 21.07a38.7 38.7 0 0 1 8-2c5.27-.92 9.43-.73 11.59.54 3.48 2.28 2.39 5 1.19 5.76-12.59 2.24-15.15 3.09-20.45 4.68-3 1-3 .93-3.59 4.29-.66 6-.75 7.91 0 7.56 0 0 2-.69 3.84-1.37 11.65-4.8 15.43-2.69 16.55-1.86 3.3 2 3.59 4.23.91 5.66-15.11 4.15-14.86 5-19.52 7.43-2.98 1.74-2.98 1.74-2.98 10.36-.37 8.21.06 15.79.25 20-.07 3.68-2.51 4-5.12 3.93-4.83-.22-6.6-1.75-7.16-6.33-.5-6 .83-37.15 2.59-50.24.57-4.14 2.19-7.74 3.4-8.85.81-.74 3.52-.71 5.69.55 1.09.82 1.35.9 4.81-.11z"/><path d="m110 31.92c.1-10.64.14-11.51.95-12.25s5.35-.53 7 .32c2 1.35 2.38 3 2.6 6.7.58 4.1.5 25 .27 38.46-.26 5.7-.1 10.65-.1 10.65a13.69 13.69 0 0 0 2.92-.26 36.25 36.25 0 0 1 10.21-1.54c3.69-.22 6.09 2.31 6 4.73-.57 3.94-18 6.44-25 9.12-1.68.7-4.4-1.08-5.58-2.78-.74-.8-.82-1.19-.29-21.22.48-11.42.75-25.85 1.02-31.93z"/><path d="m170.28 26.94a3.38 3.38 0 0 1 1.46-4.39c8.81-2 10.89 3.3 11.2 5 1.46 4.14 1.43 23.8-.26 33.11-3.24 22.28-11.09 26.47-15.24 28.34-14.07 2.84-17.37-5.64-18.88-8.61-2.63-5.84-3.4-14.49-2.84-26.77.75-16.33 3.34-28.41 6.68-29.52 2.45-.66 6.09.28 7.65 2 1.2 1.31 1 5.28-.05 11.81-1.19 9-2.1 18.4-2 24.51.37 9 2 17.23 3.3 16.9 1.7-.32 6.15-9.52 7.7-16.42 3-12.16 3.49-31.41 1.28-35.96z"/><path d="m194.16 27.74c2.18-1 10.57-2.33 19.24-3.38 7.18-.35 9-.36 11.45 1.59 2.79 2.45.82 5.26 0 5.33-10 .6-22 1.89-22 1.89-.39 0-.93 11.87-1.45 14.76-.2 4.34-.23 5 .16 5 .37.4 8.3-1.46 9.36-1.41 4.35.2 7.11 3.23 5.94 5.69-.75 1.42-7.71 3.23-14.63 4.37-1.86.3-1.85.2-2.1 5.62.11 6.1.36 9 1.31 11.58.93 3 .64 2.93 6.55-1.44 3-2 4.87-2.69 8-1.48s4.11 3.39 2.53 6.22c-1.16 2.08-5.29 5.57-7.86 6.52-21.51 8.7-22.47-12.56-22.53-17.6-.23-11.92 3.85-37.59 4.31-39a1.06 1.06 0 0 0 .06-1.45c-.27-.67.57-2.18 1.66-2.81z"/><path d="m255.9 58.36c0-34.28 0-33 2.34-34.18 6.74-1.14 8 2 8.4 2.81s.49 48.54.34 51.73c.35 9.31.34 9.5-1.26 10.69s-4.31 1.06-7.35-.34c-4.16-2.22-16.91-22-18.18-23.78.27 2.43 0 23.72-.48 25.35-.5 2.4-1.22 3.24-3.92 3.11-2.73.27-5.77-1-6.45-3.1-.35-.79-.54-5-.05-24.21 1.25-35.87 1.14-33.36 2-34.58a3.23 3.23 0 0 1 2.74-.65 6 6 0 0 1 5.93 5.89c-.06 1.25.55 2.83 1.61 4.91.7 1.68 13.72 30.46 14.12 30.09-.03 0 .25-6.1.21-13.74z"/><path d="m274.1 54.25c3.62-15.62 9.72-24 18-25.71 6.54-1.15 13.5 1.39 16.2 5.78s1.41 9.36-2.16 9.2c-2.9-.14-6.4-2-6.33-3.49 0-.68-.92-3.24-1.31-3.25a11.19 11.19 0 0 0 -1.48.61c-6.47 1.83-8.88 14.31-9.68 16.79-3.05 11.68-2.24 25.66 1.79 30.88 1.64 2.2 3.49 2 8.7-1.73 8.65-7.16 12.64-1.27 13.29-.56 0 9.49-14.27 13.39-19.95 12.74-15.95-.63-17.26-14.44-18.4-21.27-.46-4 .48-16.06 1.33-19.99z"/><path d="m319.23 26.78c1.06-4.21 4.65-4.34 7-4.91 8.13.28 9.1 6.52 9.08 9 .21 5.91-3.5 13.1-7.37 15.15a4.77 4.77 0 0 1 -6.88-2.15c-.8-1.59-.57-2.26 1.58-5 3-2.86 1.64-4.08-.3-6-2.45-1.51-3.58-4.17-3.11-6.09z"/><path d="m340.81 29.12a4.25 4.25 0 0 1 2.43-2.21c2.34-.28 6.25 1.06 7 1.87 0 .39 1.53.46 3.08.53 27.13 1.82 26.44 25.42 26.61 30.07.08 6.69-2 13.28-4.75 19.25-3.86 8.15-13.91 16.12-16.71 17.93-7.07 4.42-12.95-.59-13.23-2.93a7.24 7.24 0 0 0 -.57-2.35c-1.17-2-3.12-27-3.06-28.23-.64-3.12-.92-22.22-1.19-24.94a4.55 4.55 0 0 0 -.62-3.22c-1.85-2-1.68-3.57-.1-4.27a1.89 1.89 0 0 0 1.11-1.5zm27.45 30.8c1.21-9.34-2.31-17.15-9.47-21.45a8.38 8.38 0 0 0 -4.3-1.36c-2.69-.51-2.68-.61-2.35.67.61 28.88 2.6 42.63 3.33 45.66 11.53-8.28 12.69-21.2 12.79-23.52z"/></g></g></svg>