<svg enable-background="new 0 0 638 318" viewBox="0 0 638 318" xmlns="http://www.w3.org/2000/svg"><path d="m241.6 154c-1.3-.2-3.8-.4-3.8-1.2 0-1.3 2.9-1.4 3.5-1.4 1.8 0 3.6.9 4 1.6l.8 1.3 6.5-3-.8-1.6c-1.3-2.6-3.7-4.5-6.6-5.1v-3.1-22.9l-7.5 1.8v21.1 3.1c-4.7 1-7.6 4.1-7.6 8.1 0 7.2 6.7 8 10.7 8.4 3.1.4 4.2 1.1 4.2 1.6 0 1.8-3.3 1.9-3.9 1.9-2.1 0-4.4-1.1-4.9-2.4l-.7-1.6-7 3 .7 1.6c1.5 3.4 4.7 5.9 8.4 6.4v3.3h7.6v-3.5c4.6-.9 7.7-4.3 7.7-8.7.1-7.3-7-8.2-11.3-8.7z" fill="#2a2530"/><g fill="#2a2530"><path d="m107.3 132.1v29.8c0 2.9 2 3.4 4.1 4.1 11.6 4.2 31.7 12.5 54.7 12.5s41.7-8.3 53.6-12.5c2.1-.7 4.1-1.2 4.1-4.1v-29.6l-57.7 16.7z"/><path d="m166.1 91.5-.1.1-91.4 24.3 32.7 9.4 58.8 16.9 57.6-16.8 32.9-9.5z"/><path d="m89.1 242.2-10.7-14.4v14.4h-3.4v-20.1h3.3l10.7 14.4v-14.4h3.3v20.1z"/><path d="m102.8 225.1v5.4h9.8v3h-9.8v5.5h11.3v3h-14.7v-20h14.3v3z"/><path d="m136.5 242.2h-4l-5.4-7.6-5.4 7.6h-4l7.3-10.3-6.8-9.8h3.9l4.9 7 4.9-7h3.9l-6.7 9.6z"/><path d="m148.8 225.1v17h-3.4v-17h-6.3v-3h16.1v3z"/><path d="m185.5 232.3v7.4c-2.3 1.7-5 2.6-7.8 2.6-1.9 0-3.7-.4-5.3-1.3-3.2-1.8-5.2-5.2-5.2-8.8 0-1.8.5-3.6 1.4-5.1s2.3-2.8 3.9-3.6c1.7-.9 3.6-1.4 5.5-1.4 1.4 0 2.8.3 4.2.8 1.3.5 2.5 1.2 3.5 2.1l-1.9 2.5c-1.6-1.5-3.6-2.3-5.8-2.3-1.3 0-2.6.3-3.7.9s-2 1.5-2.7 2.6-1 2.3-1 3.6.3 2.5 1 3.6c.6 1.1 1.6 2 2.7 2.6s2.4 1 3.7.9c.8 0 1.6-.1 2.3-.4.8-.2 1.6-.6 2.3-1v-5.6h2.9z"/><path d="m195.4 225.1v5.4h9.8v3h-9.8v5.5h11.3v3h-14.7v-20h14.3v3z"/><path d="m226.6 242.2-10.7-14.4v14.4h-3.4v-20.1h3.3l10.8 14.4v-14.4h3.4v20.1z"/><path d="m259.9 223.9c1.4 1.3 2.2 3.2 2.1 5.1.1 2-.6 3.9-2.1 5.3-1.6 1.3-3.7 2-5.9 1.9h-4.6v6h-3.4v-20.1h8c2.2-.1 4.3.5 5.9 1.8zm-10.4 9.2h4.5c1.3.1 2.6-.3 3.6-1 .9-.8 1.3-1.9 1.2-3 .1-1.1-.4-2.2-1.2-2.9-1.1-.7-2.3-1.1-3.6-1h-4.5z"/><path d="m270.4 225.1v5.4h9.8v3h-9.8v5.5h11.3v3h-14.7v-20h14.3v3z"/><path d="m296.6 236.1c-.2 0-.5 0-.9 0h-4.7v6h-3.4v-20h8.1c2.1-.1 4.3.5 6 1.8 1.5 1.3 2.2 3.1 2.1 5.1.1 1.4-.3 2.8-1.1 4.1-.7 1.1-1.8 2-3.1 2.4l4.5 6.7h-3.9zm2.7-4c.9-.7 1.3-1.9 1.3-3 .1-1.1-.4-2.2-1.3-2.9-1.1-.7-2.3-1.1-3.6-1h-4.7v8h4.8c1.2 0 2.5-.4 3.5-1.1z"/><path d="m320.3 222.5c1.2.3 2.3.8 3.3 1.5l-1.4 3c-1-.6-2-1.1-3.1-1.4-.9-.3-1.8-.4-2.8-.5-.8 0-1.7.1-2.4.6-.6.3-.9.9-.9 1.6 0 .6.2 1.1.6 1.5s.9.8 1.4 1c.8.3 1.6.6 2.4.8 1.1.3 2.2.7 3.3 1.2.9.4 1.6 1 2.2 1.8.6.9.9 1.9.9 3s-.3 2.2-1 3.1-1.6 1.6-2.7 2c-1.2.5-2.6.7-3.9.7-1.5 0-3-.3-4.4-.9-1.4-.5-2.7-1.3-3.8-2.3l1.5-2.9c1 .9 2.1 1.6 3.3 2.2 1.1.5 2.3.7 3.5.8 1 .1 1.9-.2 2.8-.6.6-.4 1-1.1 1-1.8 0-.6-.2-1.1-.6-1.5s-.9-.7-1.5-.9-1.4-.5-2.4-.8c-1.1-.3-2.2-.7-3.3-1.2-.8-.4-1.6-1-2.1-1.7-.6-.9-1-1.9-.9-3 0-1.1.3-2.1.9-3s1.5-1.6 2.6-2c1.2-.5 2.5-.7 3.8-.7 1.2-.2 2.5 0 3.7.4z"/><path d="m343.9 223.4c1.6.8 2.9 2.1 3.8 3.6 1.9 3.2 1.9 7.1 0 10.3-.9 1.5-2.3 2.8-3.8 3.7-3.4 1.8-7.4 1.8-10.8 0-1.6-.9-2.9-2.1-3.8-3.7s-1.4-3.3-1.4-5.2c0-1.8.5-3.6 1.4-5.1s2.3-2.8 3.8-3.6c3.4-1.8 7.4-1.8 10.8 0zm-9 2.6c-1.1.6-2 1.5-2.6 2.6-1.3 2.2-1.3 4.9 0 7.1.6 1.1 1.6 2 2.6 2.6 3.4 2 7.8.8 9.8-2.6.6-1.1 1-2.3 1-3.6s-.3-2.5-1-3.6c-.6-1.1-1.5-1.9-2.5-2.6-1.1-.6-2.3-1-3.6-.9-1.4 0-2.6.4-3.7 1z"/><path d="m368.5 242.2-10.7-14.4v14.4h-3.4v-20.1h3.3l10.8 14.4v-14.4h3.3v20.1z"/><path d="m381.7 237.6-1.9 4.5h-3.5l8.9-20.1h3.5l8.8 20.1h-3.6l-1.9-4.5zm5-11.9-3.7 8.9h7.6z"/><path d="m413.8 239.1v3.1h-12.1v-20.1h3.4v17z"/><path d="m431.2 225.1v5.8h9.1v3h-9.1v8.2h-3.4v-20.1h13.5v3z"/><path d="m446 242.2v-20.1h3.4v20.1z"/><path d="m470.5 242.2-10.7-14.4v14.4h-3.4v-20.1h3.3l10.8 14.4v-14.4h3.3v20.1z"/><path d="m483.6 237.6-1.9 4.5h-3.5l8.8-20.1h3.5l8.8 20.1h-3.6l-1.9-4.5zm5.1-11.9-3.8 8.9h7.6z"/><path d="m517.7 242.2-10.7-14.4v14.4h-3.4v-20.1h3.4l10.8 14.4v-14.4h3.3v20.1z"/><path d="m541.1 222.8c1.3.5 2.5 1.3 3.5 2.3l-2 2.5c-.7-.8-1.6-1.4-2.6-1.9-2.1-1-4.6-.9-6.6.2-1.1.6-2 1.5-2.6 2.6-2 3.4-.8 7.7 2.5 9.7h.1c1.1.6 2.3 1 3.6.9 1 0 2.1-.2 3-.6 1-.4 1.9-1 2.6-1.8l2 2.2c-1 1-2.3 1.8-3.6 2.4s-2.7.9-4.2.9c-1.8 0-3.7-.4-5.3-1.3s-2.9-2.1-3.8-3.7-1.4-3.4-1.4-5.2.5-3.6 1.4-5.1 2.2-2.8 3.8-3.6c3-1.5 6.5-1.7 9.6-.5z"/><path d="m553.1 225.1v5.4h9.8v3h-9.8v5.5h11.3v3h-14.7v-20h14.3v3z"/><path d="m319.5 102.3c-7.7 0-14.1 2.2-19.1 6.6v-4.8h-17.4v73.3h17.4v-38.7c0-12.6 6-19.5 16.8-19.5 9 0 13.9 5.2 13.9 14.5v43.7h17.4v-44.4c0-18.6-11.4-30.7-29-30.7z"/><path d="m414 104.1v6.7c-6.2-5.6-14.3-8.7-22.6-8.5-20.9 0-37.3 16.7-37.3 38s16.4 38.1 37.3 38.1c8.4.2 16.5-2.9 22.6-8.6v1.9c0 11.2-7.4 17.9-19.8 17.9-13 0-17.3-5.2-19.5-9.8l-1.3-2.7-15.3 8.6 1.3 2.4c6 11.6 18.3 18 34.6 18 9.8 0 18.9-3 25.6-8.6 7.6-6.3 11.7-15.2 11.7-25.9v-67.6h-17.3zm0 36.2c.3 11.7-9.1 21.5-20.8 21.7-11.7.3-21.5-9.1-21.7-20.8 0-.3 0-.6 0-.9 0-12 9.1-21.1 21.2-21.1s21.3 9.1 21.3 21.1z"/></g><path d="m482.6 102.3c-8.4-.2-16.5 2.9-22.7 8.5v-6.8h-17.4v100.3h17.4v-33.8c6.2 5.6 14.4 8.7 22.7 8.5 20.4 0 37-17.2 37-38.4s-16.6-38.3-37-38.3zm19.6 38.4c0 12.2-9.1 21.4-21.1 21.4s-21.2-9.2-21.2-21.4 9.1-21.4 21.2-21.4 21.1 9.2 21.1 21.4z" fill="#2a2530"/><path d="m561 92.3 3 .2v-17l-2.6-.2c-10.4-.7-18.5 1.6-24.2 6.9-5.3 5-8.2 12.5-8.4 21.8h-10.8v17h10.8v56.3h17.4v-56.3h17.8v-17h-17.8c.1-4.3 1.2-7.4 3.2-9.3 2.3-2 6.2-2.8 11.6-2.4z" fill="#2a2530"/></svg>
