<svg xmlns="http://www.w3.org/2000/svg" viewBox="0 0 85.82 37.47"><defs></defs><g id="Layer_2" data-name="Layer 2"><g id="overlay_modal" data-name="overlay modal" fill="#FFFFFF"><path class="cls-1" d="M7.9,4l4.31,15.14H8.83L8.06,16H3.81l-.74,3.11H0L4.54,4ZM4.45,13.42h3L5.93,7.27Z" transform="translate(0 -3.77)"/><path class="cls-1" d="M23.41,9.63l-3,.23c-.14-2.41-.84-3.38-2.13-3.38C16.69,6.48,16,7.93,16,11.83c0,3.55.7,4.84,2.27,4.84,1.2,0,1.88-.93,2.15-3l3.07.2c-.3,3.45-2.29,5.54-5.29,5.54-3.7,0-5.7-2.9-5.7-7.79s2-7.81,5.74-7.81C21.41,3.77,23.25,5.88,23.41,9.63Z" transform="translate(0 -3.77)"/><path class="cls-1" d="M33.13,4V6.84H30v12.3H26.73V6.84h-3V4Z" transform="translate(0 -3.77)"/><path class="cls-1" d="M37.63,4V19.14H34.31V4Z" transform="translate(0 -3.77)"/><path class="cls-1" d="M50.94,11.58c0,5.11-1.87,7.79-5.5,7.79S40,16.76,40,11.58s1.86-7.81,5.49-7.81S50.94,6.43,50.94,11.58Zm-5.5,5.09c1.45,0,2-1.18,2-5.09,0-4.06-.61-5.1-2-5.1s-2,1.06-2,5.1C43.44,15.33,43.92,16.67,45.44,16.67Z" transform="translate(0 -3.77)"/><path class="cls-1" d="M56.82,4l3.88,9.4V4h2.59V19.14h-3l-4.6-11v11H53.12V4Z" transform="translate(0 -3.77)"/><path class="cls-1" d="M75.28,7.29,72.51,8.36c-.39-1.27-1.11-1.88-2.13-1.88a1.45,1.45,0,0,0-1.59,1.38c0,.77.59,1.27,1.95,1.77a14,14,0,0,1,3.06,1.43,4,4,0,0,1,1.78,3.48c0,2.81-2.07,4.83-5.36,4.83A5,5,0,0,1,65,15.22l2.91-.82c.36,1.52,1.15,2.27,2.43,2.27A1.7,1.7,0,0,0,72.21,15c0-.85-.45-1.37-2.42-2-3.12-1-4.23-2.41-4.23-4.58A4.5,4.5,0,0,1,70.4,3.77C72.94,3.77,74.58,4.86,75.28,7.29Z" transform="translate(0 -3.77)"/><path class="cls-1" d="M7.24,25.88c3.36,0,4.66,2.13,4.66,4.74,0,3-1.48,4.81-4.82,4.81H5.2V41H1.88V25.88Zm-2,6.94H6.43c1.54,0,2-.88,2-2.27,0-1.65-.75-2.22-2.07-2.22H5.2Z" transform="translate(0 -3.77)"/><path class="cls-1" d="M22.68,25.88v2.61H16.8V32h4.57v2.61H16.8v3.73h5.88V41H13.49V25.88Z" transform="translate(0 -3.77)"/><path class="cls-1" d="M24.32,25.88h5.45c2.91,0,4.54,1.63,4.54,4.61a4,4,0,0,1-2.13,3.92L35,41H31.34l-2-6H27.64v6H24.32Zm3.32,6.72h1.52c1.16,0,1.9-.71,1.9-2.18s-.74-2.09-1.9-2.09H27.64Z" transform="translate(0 -3.77)"/><path class="cls-1" d="M49.07,25.88v2.83H46V41H42.67V28.71h-3V25.88Z" transform="translate(0 -3.77)"/><path class="cls-1" d="M53.57,25.88v8.76c0,2.11,0,3.91,2.16,3.91,1.72,0,2-1.12,2-3.21V25.88h2.79v10c0,3.23-1.36,5.34-5.11,5.34-4.36,0-5.17-2.36-5.17-6V25.88Z" transform="translate(0 -3.77)"/><path class="cls-1" d="M63.41,25.88h5.44c2.91,0,4.55,1.63,4.55,4.61a4,4,0,0,1-2.14,3.92L74.05,41H70.42l-2-6H66.72v6H63.41Zm3.31,6.72h1.52c1.16,0,1.91-.71,1.91-2.18s-.75-2.09-1.91-2.09H66.72Z" transform="translate(0 -3.77)"/><path class="cls-1" d="M79.35,25.88l3.88,9.4v-9.4h2.59V41h-3l-4.61-11V41H75.65V25.88Z" transform="translate(0 -3.77)" /></g></g></svg>
