<svg viewBox="0 0 73.15 71.22" xmlns="http://www.w3.org/2000/svg"><circle cx="36.58" cy="35.44" fill="#44b3c1" r="34.27"/><g fill="#fff"><path d="m72.27 29.85a2.77 2.77 0 0 0 .25-1c1-14-15.08-23.15-26.08-27-11.6-4.15-23.81-.92-33.15 6.15-3.54 1.62-6.29 4.65-8.29 8.39a1.24 1.24 0 0 1 -.14.18 3 3 0 0 0 -.47 1c-3.83 7.75-4.93 18-4.06 25-.79 13.92 15.15 23 26.1 26.85 15.57 5.51 32.22-2.21 41.57-14.77 5.52-8.22 6-15.95 4.27-24.8zm-41.87 36.57c-10.13-2-27-11.11-26.19-23.7a2.63 2.63 0 0 0 -.21-1.32c-.62-5.68.55-15.79 4-22.71l.16-.17a36.59 36.59 0 0 1 6.51-6.75 3 3 0 0 0 1.49-1.13 33.49 33.49 0 0 1 26.22-5.84 43.45 43.45 0 0 1 10.88 3.92 2.64 2.64 0 0 0 2.06 2.7c4.06 1.09 8.66 9 10.83 12.25a18.78 18.78 0 0 1 2.43 5.33 2.66 2.66 0 0 0 .21.83c1.9 7.72-.16 16.86-4.19 22.85-7.93 10.69-20.95 16.32-34.2 13.74z"/><path d="m15.39 48.7a16.79 16.79 0 0 0 9.53-1.7 16 16 0 0 0 2.67-1.7 8.31 8.31 0 0 1 -6.29-3.14 7.57 7.57 0 0 1 -1.38-2.65 7.92 7.92 0 0 0 3.59-.13 8.33 8.33 0 0 1 -6.51-8.23c.42.18.8.36 1.19.52a7.39 7.39 0 0 0 1.22.35 8.63 8.63 0 0 0 1.28.15 8.28 8.28 0 0 1 -3.6-6.36 8.16 8.16 0 0 1 1.11-4.71 23.73 23.73 0 0 0 8.19 6.43 23.19 23.19 0 0 0 7.2 2.09 15.24 15.24 0 0 0 1.67.14c0-.13 0-.24-.06-.35a6 6 0 0 1 -.12-1.11c0-.14 0-.29 0-.43a8.72 8.72 0 0 1 .58-3 8.41 8.41 0 0 1 3.76-4.24 8.12 8.12 0 0 1 2.39-.85 6.4 6.4 0 0 1 1.38-.14h.77a6.83 6.83 0 0 1 1.18.16 7.9 7.9 0 0 1 2 .73 8.37 8.37 0 0 1 1.86 1.32l.3.3c0 .06.1.05.16 0l.61-.13a15.71 15.71 0 0 0 3-1c.49-.23.95-.49 1.42-.74l.14-.07a.34.34 0 0 1 0 .11 8.16 8.16 0 0 1 -1 2 8.83 8.83 0 0 1 -1.03 1.28 7.75 7.75 0 0 1 -1.35 1.07.64.64 0 0 1 -.14.1 17.66 17.66 0 0 0 4.66-1.26.93.93 0 0 1 -.05.1 15.81 15.81 0 0 1 -1.23 1.6c-.25.27-.49.55-.75.81a16.44 16.44 0 0 1 -2 1.68.29.29 0 0 0 -.13.27v1.54c0 .34 0 .68-.06 1s0 .52-.07.79c-.07.53-.14 1.07-.23 1.6a22.69 22.69 0 0 1 -.73 2.95c-.23.73-.48 1.46-.78 2.16s-.54 1.2-.84 1.79a23.24 23.24 0 0 1 -2.65 4.2c-.3.37-.62.74-.94 1.09s-.68.73-1 1.07a19.67 19.67 0 0 1 -1.84 1.58 20.9 20.9 0 0 1 -2.06 1.42c-.41.24-.84.47-1.26.7a18.56 18.56 0 0 1 -2.13 1 19.4 19.4 0 0 1 -2.8.89c-.62.15-1.25.28-1.88.39s-1 .14-1.57.21l-.87.08c-.38 0-.75 0-1.12 0h-1.22a14.84 14.84 0 0 1 -1.63-.09c-.52-.06-1-.11-1.56-.19a19.68 19.68 0 0 1 -2.51-.54 22.43 22.43 0 0 1 -3.47-1.25 23.43 23.43 0 0 1 -2.62-1.36l-.39-.24z"/></g></svg>