<svg viewBox="0 0 266.0619 243.0061" xmlns="http://www.w3.org/2000/svg"><g fill="#e46f80"><path d="m178.7646 109.8068c2.25-1.48 4.1-4.08 4.1-6.56a8.71 8.71 0 0 0 -4.53-7.45c3.65-2.63 5.06-7.25 3.68-12-1.29-4.41-5.77-6.91-10-6.95a10.87 10.87 0 0 0 -1.93-12.84c-2-1.87-4.88-1.93-7.39-1.65-4.36.49-9.45 1-13.84.23a1.52 1.52 0 0 0 0-.38c.15-9 3.54-20.39-.48-28.88-2.92-6.17-8.9-10.21-15.65-8.32a1.28 1.28 0 0 0 -.44.21c-2.52-.21-3.46 2.64-4 4.94-1.36 6 3.75 9.8 3 15.84-1 8.5-3.55 15.23-9.24 21.5-4.57 5.05-12.74 7.44-19.6 7.46a1.6 1.6 0 0 0 -.13-2 6.52 6.52 0 0 1 -1.14-2.22 3.6 3.6 0 0 0 -2-2.28 1.28 1.28 0 0 0 -.95 0 1.82 1.82 0 0 0 -1.28-1.48c-3.16-.91-7.74.08-11 .16-8.25.22-16.35 1.17-24.57 1.54a1.59 1.59 0 0 0 -1.06 2.67l.06.06-.32.15a1.5019 1.5019 0 1 0 -3 .15c0 14.81 3.86 29.16 4.91 43.85.27 3.79.65 7.58 1.06 11.36.21 2 .09 5.1 1.75 6.41a1.15 1.15 0 0 0 1.05.26 1.49 1.49 0 0 0 1.38 2c5.94-.16 12-.64 17.95-1.2 6.41-.61 12.75-2.18 19.19-2.31a1.53 1.53 0 0 0 1.42-1.89 4.3993 4.3993 0 0 0 2.1-1.81 1.53 1.53 0 0 0 .22-.79c18.37-1.23 36.75 3.4 54.85-.76 6.07-1.4 14.07-1.83 17-8.58 1.43-3.21 1.3901-6.86-1.17-8.44zm-118.35-30.91v-.03l.09.05.3.51a1.47 1.47 0 0 0 .21.39l-.47.51c-.0499-.46-.0899-.95-.1299-1.43zm2.03 4.01h-.11a1.58 1.58 0 0 0 -1.09 1.51 16.5284 16.5284 0 0 0 0 1.73c-.14-1.06-.27-2.12-.39-3.17a1.26 1.26 0 0 0 1.01.13v-.03c.2-.07.38-.17.58-.25zm.76 15.6c.0293.7675.0944 1.5323.1781 2.295q-.171-1.1474-.3481-2.295a.9848.9848 0 0 0 .1701-.0001zm1.27 10.82c-.2075-2.0748-.4716-4.1529-.7624-6.2324.08.4355.165.87.2624 1.3024a1.7483 1.7483 0 0 0 .24.57c.09.57.18 1.15.26 1.72a10.64 10.64 0 0 1 .0001 2.64zm35.12-35.05a3.9325 3.9325 0 0 0 .3533.53h-.4233a1.3606 1.3606 0 0 1 .0701-.53zm-1.23 19.25c.45 3.71.72 7.42.95 11.15-.12-.57-.28-1.1-.38-1.73v-.02a56.86 56.86 0 0 0 -.4-6.75 1.72 1.72 0 0 0 -.38-.88c.0701-.57.1501-1.17.2101-1.77zm-2.99-24.43v-.02a1.61 1.61 0 0 0 1.91 1.47 24.8917 24.8917 0 0 0 -.52 2.48c-.05-.14-.11-.27-.16-.41a1.54 1.54 0 0 0 -1.3-2.25h-.8a2.8692 2.8692 0 0 0 -.14-.66c.6701-.13 1.0301-.34 1.0101-.61zm1.7747 16.7237-.0447-.0638a1.5375 1.5375 0 0 0 -.36-.36l.18-1.16c.1076.528.1126 1.0559.2248 1.5838zm-2.1348 31.6363v.22l-.2-.06zm-.39-40.41a30.5036 30.5036 0 0 1 -.59 6.92c-.07-.4-.13-.79-.18-1.19q.3902-2.8701.7702-5.73zm-1.81 49.13a4.4585 4.4585 0 0 0 1 0l-.15.05-.85.11zm-2.11-55.79a1.3656 1.3656 0 0 0 .32-.08c.18-.07.31 0 .4.23l-.72.04a1.3387 1.3387 0 0 0 .0002-.19zm-.67 45.83-.71.51a1.9316 1.9316 0 0 0 -.3.27l-.11-.06zm-1.28-11.74c0 .3-.07.6-.09.91l-.53.45c.1901-.46.4002-.91.6201-1.36zm-2.84-29.65a1.5985 1.5985 0 0 0 .16-.8h.14a1.6185 1.6185 0 0 0 -.1.54 1.5887 1.5887 0 0 0 .04.37h.02c-.26.25-.51.49-.78.72a7.2063 7.2063 0 0 0 .5202-.83zm-3.95 4.24a1.7108 1.7108 0 0 0 -.07.58h-.56c.2002-.2.4202-.39.6302-.58zm-5.26-4.74a1.4406 1.4406 0 0 0 .41-.59 14.231 14.231 0 0 1 2.26-.24v-.04a1.4416 1.4416 0 0 0 .18.25 38.3844 38.3844 0 0 0 -4.48 2.07zm-1.85 21.42a1.5506 1.5506 0 0 0 -.31.19l.02.05a2.12 2.12 0 0 1 -.28-.76c.1801.18.3701.35.5701.52zm-.63 7.24a2.8613 2.8613 0 0 1 .66-.15.417.417 0 0 1 0 .05 3.1471 3.1471 0 0 1 -.53.32 1.5471 1.5471 0 0 0 -.17-.22zm-3.22-32.11a1.8334 1.8334 0 0 0 -.03.36v-.03a1.51 1.51 0 0 0 -.61-.26zm-4.05.46 2.69-.3a1.6173 1.6173 0 0 0 -.52.33v-.03l-.75.72a1.47 1.47 0 0 0 -1.42-.65zm.85 36.06-.1.11a.34.34 0 0 0 -.03-.11zm-1.66 15.27c-.06.31-.1.62-.15.92a1.3847 1.3847 0 0 0 -.11.21 5.385 5.385 0 0 0 -.2.51c-.05-1.18-.1-2.21-.14-2.73-.12-1.26-.22-2.51-.32-3.77a.48.48 0 0 1 .33.09c.05.37.11.73.2 1.11a1.38 1.38 0 0 0 .76 1 20.2738 20.2738 0 0 1 -.3698 2.66zm.53-7.83v-.18a2.8828 2.8828 0 0 0 .68.17h.02l-.07.13a1.5267 1.5267 0 0 0 -.37 0zm5 17.45c-1.5.07-3 .12-4.46.16a1.5094 1.5094 0 0 0 -.33.13l-.01-.07a1.8586 1.8586 0 0 0 .09-.47l5-.43a1.33 1.33 0 0 0 -.2898.68zm.3-59.55a.9032.9032 0 0 0 -.28.08 2.2662 2.2662 0 0 0 0-.25 1.7907 1.7907 0 0 0 .32.13zm.8 14.43a1.8193 1.8193 0 0 0 -.4.11l.12-.17.36-.63a1.7576 1.7576 0 0 1 .36-.36l.02.05a7.22 7.22 0 0 0 -.4599 1zm3.62 24.41a16.0553 16.0553 0 0 0 -2.44 1.43c.28-.28.55-.57.84-.85a14.4218 14.4218 0 0 0 2-.93c-.07.1-.15.19-.23.29a.7539.7539 0 0 0 -.1698.06zm-.67-5.4q1-.42 1.92-.81c-.57.5-1.14 1-1.73 1.47a1.1865 1.1865 0 0 0 -.0694-.3672 1.4338 1.4338 0 0 0 -.1205-.2928zm1.91 14.25a1.3 1.3 0 0 0 -.16 1.17l-.76.47a1.65 1.65 0 0 0 .42-1.24h.04l.67-.68zm.29 7.4.59-.43a1.43 1.43 0 0 0 .63-.14h.03a36.685 36.685 0 0 0 4.18-2.69 1.6984 1.6984 0 0 0 .71.26 30.2375 30.2375 0 0 1 -6.1398 3zm2.51-5.51a19.6979 19.6979 0 0 0 2.52-1.25c-.8552.6094-1.6816 1.2084-2.5168 1.77a1.2793 1.2793 0 0 0 -.003-.52zm3.69-30.68v-.06a5.6 5.6 0 0 1 -5 2.69 4.34 4.34 0 0 1 -3.66-5.93 1.48 1.48 0 0 0 .94-.67 3.795 3.795 0 0 1 .4-.5 1.7419 1.7419 0 0 0 .18-.11 1.6009 1.6009 0 0 0 .48-.53 5 5 0 0 1 5.44-.63c2.1802 1.29 2.4201 3.68 1.2202 5.74zm-.79-8.82c2.2.5 3.97 2.16 4.56 5.48h.04l-.09.36a6.69 6.69 0 0 0 -2.59-4.78 7.4108 7.4108 0 0 0 -1.9198-1.06zm2.7 11.32a1.5582 1.5582 0 0 0 -.13.44.9141.9141 0 0 0 -.11-.16l.17-.19zm-.28 29.44.04-.02a1.4689 1.4689 0 0 0 .74-.05l.54-.19c-.55.22-1.09.48-1.63.75a2.2615 2.2615 0 0 1 .3101-.49zm1.26 7.43-.93.13c.45-.07.91-.15 1.37-.21a33.1812 33.1812 0 0 0 7.76-1.94 19.7714 19.7714 0 0 0 6.69-1.86 18.5353 18.5353 0 0 0 .78 1.88c-5.2497.29-10.4598 1.33-15.6697 2zm13.28-7.28a1.55 1.55 0 0 0 .64-.29 3.41 3.41 0 0 0 .15.69 4.1058 4.1058 0 0 1 -.55.45v-.05a1.43 1.43 0 0 0 -.2398-.8zm74.76-12.76a1.58 1.58 0 0 0 1.35 1.17c3.03.44.83 5 .21 6.19l-.01-.03c-1.55 3-6 3.67-8.88 4.26-7 1.43-13.85 3.51-21 3.23-12.91-.5-25.52-2.23-38.45-1.35a1.24 1.24 0 0 0 -1.16-.13l-.84.3a1.73 1.73 0 0 0 -1 2.17 14.1724 14.1724 0 0 1 -.85-2.56 1.44 1.44 0 0 0 -.4-1.51c-.49-2.83-.87-5.85-1.17-8.7-.46-4.43-.47-8.92-.69-13.36-.39-7.54-2.89-15.19-2.84-22.73a.66.66 0 0 0 .15 0c12.51 1.36 23.28-4.87 30.15-15.42 3.5-5.39 4.15-11.81 4.88-18.08.35-3-1-5.49-2.3-8a8.0005 8.0005 0 0 1 -1.23-4c0-.29.63-4.21 1-4.13a1.41 1.41 0 0 0 1.19-.23l.31-.06c9.08-2.53 13.2 6.9 13.53 14.61.29 6.52-1.07 13.06-1.17 19.58a1.47 1.47 0 0 0 .46 1.15 1.44 1.44 0 0 0 .91 2.11c4.38 1 9.49.72 14 .24 2.63-.28 5.16-.94 7.33 1.07s2.16 7.33.17 9.37a1.48 1.48 0 0 0 -.36 1.54c-.8 1 0 3 1.54 2.54a7.79 7.79 0 0 1 9.25 4.4 7.26 7.26 0 0 1 -3.59 9.26 1.6 1.6 0 0 0 -1 1.23c-1.38.56-1.22 3.08.51 3a5 5 0 0 1 4.72 5.2651q-.0041.0726-.01.1448c-.33 1.95-2.84 4.38-4.71 4.33s-1.9197 3.09.0003 3.1301z"/><path d="m75.8447 106.4668.0005.0028c.005.0163.015.0307.0194.0472z"/><path d="m133.1246 96.2068c-1.2782 0-2.5442.051-3.81.0848.0008-.2617-.0041-.5232 0-.7849 0-1.47-.7583-3.6345-.3657-5.0587a1.5625 1.5625 0 0 0 .0858-.4912v-.08a1.58 1.58 0 0 0 -3.11-.44c-.6 1.84.19 4.18.23 6.07-.001.26.0069.5207.0087.7811-.2531-.0083-.5048-.0064-.7587-.0211-1.29-.07-3.55-.54-4.72.24-1.6224 1.0753-.2994 3.6773 1.3077 3.0127a1.17 1.17 0 0 0 .2923-.0127 10.9317 10.9317 0 0 1 1.28 0c.74 0 1.48.06 2.22.1.1587.009.3162.0063.4746.0127.0646 1.2059.1646 2.41.29 3.6111a1.5379 1.5379 0 0 0 .4156 1.5062l.07.07c1.24 1.27 2.85-.06 2.65-1.61-.1342-1.1871-.229-2.3779-.2918-3.57 1.2406-.0361 2.4811-.0945 3.7317-.11 1.9998 0 1.9998-3.34-.0002-3.31zm-10.84 3.17c-.0257.0082-.0351.0127-.0577.02.0193-.0117.0383-.0173.0577-.03z"/><path d="m156.9334 105.519a1.6821 1.6821 0 0 0 -.7188-.2123q-2.0688-.11-4.1375-.1878c.3042-5.4173.0676-10.815.0676-16.2721a1.5737 1.5737 0 0 0 -.1216-.6065c.6881-1.4274-1.2423-3.1728-2.5784-1.8635-1.7 1.67-3.48 3.24-5.2 4.88-1.57 1.51-3.36 2.83-4.82 4.44s.83 3.89 2.23 2.34v.04a44.3832 44.3832 0 0 1 4.27-4c1.0516-.8834 2.0745-1.8122 3.08-2.7608.0456 4.59.1669 9.1719-.0838 13.7052-1.8384-.0685-3.7171-.4545-5.5559-.4545-2.01 0-2 3.32 0 3.32s4.05.47 6.07.48c2.0421 0 4.0844.1156 6.1266.2262a1.3354 1.3354 0 0 0 1.9434-.6462l.07-.14a1.68 1.68 0 0 0 -.6416-2.2877z"/><path d="m222.6213 83.2772c-.11-6.54-1.4-12.91-1.66-19.42a1.87 1.87 0 0 0 -1.9282-1.81q-.0709.0022-.1417.01a2.0027 2.0027 0 0 0 -.5-.07c-3.71-.05-7.36-.65-11-1a1.52 1.52 0 0 0 -1.7554 1.2408c-.0062.0362-.0111.0727-.0146.1092a1.81 1.81 0 0 0 -.45 1.22c-.06 18.28.12 36.46.37 54.74.05 3.48.24 6.92.12 10.4-.07 2-1.23 5.28-.64 7.45.81 2.92 6.3 2.69 10.25 2.34a1.84 1.84 0 0 0 2.42-.14l.09-.08c.39 0 .74-.06 1-.06a1.92 1.92 0 0 0 .79-.16 1.89 1.89 0 0 0 3.15-1.37c.15-12 .28-23.88 0-35.87-.1001-5.87-.0501-11.7-.1001-17.53zm-13.84 13.17v-.13h.06zm-.04-4.71v-1.11l.05.05a1.7813 1.7813 0 0 0 .51.38c-.1899.22-.38.45-.56.68zm.1-25.9.04-.05v-1l1 .12c-.38.36-.72.65-1.0401.93zm10.14 39.6v.19l-.09-.08zm-.02-2.69a1.429 1.429 0 0 0 -.64-.37l.04-.06.33-.29a2.3565 2.3565 0 0 0 .27-.28zm-.01-11.84-.25-.13.25-.13zm-7.42-7.51a47.2389 47.2389 0 0 1 6.82-7.94c.06.56.12 1.11.17 1.67a1.74 1.74 0 0 0 -1.5.58l.04-.05c-1.88 1.88-3.76 3.75-5.53 5.74zm7.28-2.18c-.0191.5453-.0188 1.0355-.0014 1.5323a2.2159 2.2159 0 0 0 -1.2285-.3123zm-1.19 6-.01-.05c.45-.52.89-1.05 1.31-1.58v1.66a1.52 1.52 0 0 0 -1.3-.03zm1.32 6.95v1.07a1.58 1.58 0 0 0 -1-.21zm-.35 4.62.36-.1529v1.2129a2.1 2.1 0 0 0 -1-.76 2.2028 2.2028 0 0 1 .6399-.3zm-.26 10.16.67-.67v.94a2.0527 2.0527 0 0 0 -.71-.22zm.69 11.96a1.4916 1.4916 0 0 0 -.52-.06l.52-.52zm0-4.64a1.5917 1.5917 0 0 0 -.34-.01l.04-.05.3-.23z"/><path d="m265.334 116.9267c-.2363.379-.4881.7482-.7027 1.1405a1.76 1.76 0 0 0 0 1.86 1.8 1.8 0 0 0 -1.1.23c.01.08-.07.14-.16.18a2.07 2.07 0 0 0 -3.23-.89l-.29.26a1.75 1.75 0 0 0 -2.47.08c-.1.11-.21.22-.32.32a1.71 1.71 0 0 0 -2.06-.81 2.11 2.11 0 0 0 -.65-.58 2.0055 2.0055 0 0 0 0-.42 11.5 11.5 0 0 0 5 .56 7.7877 7.7877 0 0 0 5.9827-5.0045v-24.5676a31.5289 31.5289 0 0 0 -4.1328-.6279 2.1 2.1 0 0 0 -2-.1 32.3829 32.3829 0 0 0 -10.25 1.43 1.82 1.82 0 0 0 -.94.64c-10.62 4-18 16.35-15 27.55 3.47 13.12 20.08 19.11 31.9 15.27.142-.0461.2816-.1.4227-.1482zm-29.5227-2.7095-.03-.22.11.11a.7572.7572 0 0 1 -.08.11zm.05-2.99c.06-.47.12-.93.22-1.39a1.38 1.38 0 0 0 .13.6c-.1301.25-.24.52-.35.79zm2.22 9.11a.8239.8239 0 0 1 -.08-.12l.08.01zm13.68-18.93.49-.57a2.4715 2.4715 0 0 0 .31.46 9.4509 9.4509 0 0 0 -3.1 2.48 2.11 2.11 0 0 0 -1.2-1.31 10.7388 10.7388 0 0 1 1.11-.91 1.71 1.71 0 0 0 2.3901-.15zm-2.41-5.73c-.31.41-.65.94-1.01 1.47a1.4642 1.4642 0 0 0 -.36 0zm.52 20.37a2.33 2.33 0 0 0 -1-.77 1.93 1.93 0 0 0 -1-1.25 3.1273 3.1273 0 0 1 .4-.22 9.8091 9.8091 0 0 0 1.89 2.14zm1.3-4.65c-1.24-1.96.45-5.15 2.55-6.46a1.59 1.59 0 0 0 2.14.21c5.5-3.66 10.09 9.08 2.67 10.07-2.74.37-5.92-1.58-7.36-3.82zm10.73 18.43a1.66 1.66 0 0 0 -.34.73l-.49.11.36-.54c.26-.37.53-.73.8-1.09a1.9826 1.9826 0 0 0 .23.06c-.18.25-.3799.49-.56.73z"/></g><path d="m39.7261 2.0668a4.87 4.87 0 0 1 -.8687-2.0668h-7.51c.3865 7.8907 1.1744 15.7968 1.3345 23.52-6.215-3.4568-17.3513-1.4905-22.8362.6269-6.58 2.54-13.34 11.08-7.8 17.77 5.74 6.92 17.92 8.93 26 5.28 7.5815-3.4223 9.9147-9.8817 8.2417-16.82.0805-.5431.1494-1.0875.2014-1.6314a1.8691 1.8691 0 0 0 .0569-.439c0-.1188-.002-.2375-.0022-.3562.0632-.8909.1009-1.7791.0922-2.6538a1.92 1.92 0 0 0 -.112-.6392c-.0469-6.8474-.1769-13.6947-.1387-20.5421 1.6994 3.1082 4.63 5.9364 6.8307 7.9814 1.77 1.64 4.43-1 2.65-2.66a41.3678 41.3678 0 0 1 -6.1396-7.3698zm-31.97 30.91a1.9191 1.9191 0 0 0 -.0106-.4955c1.1-1.2839 3.377-2.0683 4.6705-2.4445.87-.26 2.13-.65 2.52.37a7.7393 7.7393 0 0 1 .43 2.86c.0001 3-7.8399 1.8301-7.6098-.2899z" fill="#f1adad"/><path d="m92.2226 5.8032c1.62 1.8 4.27-.87 2.65-2.65a11.8 11.8 0 0 1 -2.1056-3.1532h-6.1607c-.0439 5.4626-.1143 10.9224-.2438 16.3658a37.722 37.722 0 0 0 -7.32-.7027 24.56 24.56 0 0 0 -12.12 2.83c-7.64 3.78-7.94 12.3-1.72 17.59 6.56 5.58 17.57 4.21 24.52.31 7.852-4.4025 5.604-13.4422.3737-18.7749q.175-7.1358.2411-14.3016a18.6514 18.6514 0 0 0 1.8853 2.4866zm-18.15 18.12a3.09 3.09 0 0 1 -3.21 1.85c-.75-.12-2.5-1-1.7-2a6.92 6.92 0 0 1 3.1827-1.5779c.0173.0119.0294.0262.0474.0379.54.35 1.48.72 1.67 1.39a.8124.8124 0 0 1 .0241.2682z" fill="#e46f80"/><path d="m200.2784 4.0048a.7575.7575 0 0 0 1.2857-.0318c3.8322 1.2233 6.8085-.7334 8.1423-3.973h-1.3164c-.4444 1.79-1.4713 3.1506-3.6716 2.974a5.3165 5.3165 0 0 0 1.299-1.4911 4.2807 4.2807 0 0 0 .4184-.6892 2.6447 2.6447 0 0 0 .6486-.7937h-2.8138c-.0017.0372-.0037.0743-.0038.1119a1.1021 1.1021 0 0 1 -.1308.1c.0479-.0693.0893-.1415.1346-.2119h-5.9171a12.3992 12.3992 0 0 0 1.1287 2.7853.8.8 0 0 0 .1442.26 9.6249 9.6249 0 0 0 .652.9595z" fill="#f1adad"/><path d="m201.4383 7.9148a4.5119 4.5119 0 0 0 -1.6694 3.5206 5.54 5.54 0 0 0 .1394 3.0994c1.15 3.27 6.56 3.71 9.23 2.32 3.61-1.87 4.7-6.12 1.59-9a7 7 0 0 0 -9.29.06zm6.9366 4.9463-.0015-.0221a2.4471 2.4471 0 0 0 .065-.2387c-.0212.0871-.0343.175-.0635.2608zm.0973-.4a2.5529 2.5529 0 0 0 -.93-2.2389 1.9533 1.9533 0 0 1 .93 2.239z" fill="#f1adad"/><path d="m265.2735 0h-10.5463a5.6641 5.6641 0 0 0 1.0312 7.6448 7.1411 7.1411 0 0 0 3.2474 1.2928 4.9508 4.9508 0 0 0 2.3927.1872 4.8447 4.8447 0 0 0 1.5872-.6126 4.0675 4.0675 0 0 0 2.2426-2.2574c.0175-.0444.0308-.0907.0475-.1354a5.4036 5.4036 0 0 0 .46-4.6073 6.7367 6.7367 0 0 0 -.4623-1.5121zm-4.2451 1.0033a1.7345 1.7345 0 0 0 -.7168-.114 2.7245 2.7245 0 0 1 .5684-.5162 4.1158 4.1158 0 0 1 .6909.0994 2.2655 2.2655 0 0 1 .5564.9793 1.8238 1.8238 0 0 0 -1.0989-.4485z" fill="#f1adad"/><path d="m235.7481 3.9648c-2.84-.93-6.49.68-6.9 3.84a6.3681 6.3681 0 0 0 .4387 2.6891 2.8712 2.8712 0 0 0 .1513.6309 2.5419 2.5419 0 0 0 .1741.3432 6.4147 6.4147 0 0 0 .1463.6868 3.25 3.25 0 0 0 3.7326 2.355 4.8238 4.8238 0 0 0 5.907-3.015c.5-1.3.9-3.1.22-4.41a6.45 6.45 0 0 0 -3.87-3.12zm-3.6381 5.7052a2.9421 2.9421 0 0 1 -.3114-.7807 4.2743 4.2743 0 0 1 2.2492-1.1542 2.4252 2.4252 0 0 1 1.6743.7173 3.8253 3.8253 0 0 0 -3.6121 1.2176z" fill="#f1adad"/><path d="m265.334 234.1834a1.3884 1.3884 0 0 1 -1.9549-1.5143 31.3551 31.3551 0 0 1 1-3.6h-.23c.09 0 .17-.1.26-.15.2883-.93.6022-1.847.9249-2.7585v-23.3319c-4.6113 2.4518-9.1015 5.12-13.6337 7.7741.0805-9.32.2645-18.5425-.7912-27.8836a12.18 12.18 0 0 1 1.6.42v-.1l.67.34a21.7507 21.7507 0 0 1 2.6 1.13l.3.11a62.5567 62.5567 0 0 1 7 4.47c.7347.5186 1.4969 1.0194 2.2548 1.5229v-26.665c-5.2812-.1612-10.5622-.34-15.8345-.458-9.21-.2-20.65-2.57-29.27 1.36-7.44 3.4-6.4 15-6.76 21.61-.65 11.78-1.15 23.64-.19 35.41.53 6.55 1.15 16.27 8.17 19.14 4.93 2 13.87 1.31 19 1.17a206.2882 206.2882 0 0 1 21.57.69c1.1043.061 2.21.0911 3.3145.137zm-47.904-51.7342a4.2841 4.2841 0 0 0 .52.94l-.65 2c.02-1.01.06-1.9701.13-2.94zm-.0723 42.8657c-.1123-1.1366-.1909-2.1938-.2678-3.1258a2 2 0 0 0 .93.32c-.2628.8937-.4764 1.8447-.6627 2.8058zm12.2522-47.0457v.32a24.9828 24.9828 0 0 1 -.59 3.72c-.1-1.13-.29-2.26-.46-3.39a1.53 1.53 0 0 0 -.67-1.08h.23a3.0007 3.0007 0 0 0 1.46.34zm-2.78-8.15.03.05a1.6 1.6 0 0 0 1.12.68 1.44 1.44 0 0 0 .25.18c-.52.16-1 .34-1.52.53a1.43 1.43 0 0 0 .1201-1.4401zm-1.4 19.7.05.05v1.56a1.6772 1.6772 0 0 0 -.32.09c.0601-.6001.1701-1.1501.2701-1.7zm-.52 9.36.03.01c0 .28.92.56-.33.84v.15c0 2.73-.92 5.46-1.45 8.2 0-1 .32-2.07.31-3.11.13-2.14.31-4.27.55-6.41a1.28 1.28 0 0 0 .8901.3199zm-6.15-26.86c.0137-.0459.0352-.0881.05-.1335l.01.0034a.7517.7517 0 0 0 -.0606.1301zm.0733-.1967a6.9928 6.9928 0 0 1 4.9967-4.6033 14.939 14.939 0 0 0 -4.9973 4.6033zm8.8169 60.9067a1.4694 1.4694 0 0 0 -1.1179.149 23.2137 23.2137 0 0 1 -2.1622-.919 7.76 7.76 0 0 1 -2.47-6.53 1.64 1.64 0 0 0 -.61-1.41c.33-1.26.7-2.48 1-3.64a1.8872 1.8872 0 0 0 .51.38 14.42 14.42 0 0 0 -.42 6.42 1.63 1.63 0 0 0 1.36 1.32 5.42 5.42 0 0 0 3.91 4 1.8012 1.8012 0 0 0 0 .23zm-.16-4.74.07.06a3.492 3.492 0 0 1 -.55-1.36 1.79 1.79 0 0 0 1.33.13 1.91 1.91 0 0 0 .57 2 2 2 0 0 1 -1.4201-.8301zm2.07-4.19-.32-1 .91.57zm-.77-5.92.06.04-.51-.32a1.61 1.61 0 0 1 1.68 0 1.9632 1.9632 0 0 1 .19.12 8.7289 8.7289 0 0 0 -1.4201.1599zm17.88-41.83.06.09 1.75.06a1.6249 1.6249 0 0 0 -.4.18l-1.41-.1a.5915.5915 0 0 0 -.0001-.23zm.07 10.05a11.5187 11.5187 0 0 1 1.65.16 1.4064 1.4064 0 0 0 0 .29 1.49 1.49 0 0 0 -1.2824 1.672q.0053.0392.0124.078c.05.49.1 1.08.16 1.67l.01.11a1.7792 1.7792 0 0 0 -1.16-.17c.1792-1.2701.3791-2.5401.6091-3.81zm-5.31.15.03.09c.41-.29.83-.58 1.26-.85q-.87 2.69-1.8 5.36a45.148 45.148 0 0 0 .5099-4.6001zm-2.63 21.67c-.06.84-.12 1.68-.16 2.52l-.26-1.26zm-3.7-9.49.06.09c.27-1 .54-2 .82-3v.72c-.31 1.15-.62 2.29-1 3.44a10.6361 10.6361 0 0 1 .1199-1.2501zm.5766 39.9712c.0852-.0528.1726-.1036.2532-.1611.36.07.72.14 1.08.19a7.5824 7.5824 0 0 0 -1.3338-.0293zm10.0934-4.8811.06.11c-.52.13-1 .25-1.58.35a1.9989 1.9989 0 0 0 -.51-.87l1.87-.26.32.12a1.527 1.527 0 0 0 .08.19 1.9113 1.9113 0 0 0 -.2401.3599zm3.96-12.19c-.5 3.62-7.59 6.37-10.42 3.86-.13 2.34-.33 4.68-.64 7a1.32 1.32 0 0 1 -2.44.66 2.22 2.22 0 0 1 -.13-2.05 1.3394 1.3394 0 0 1 .14-.32 119.3927 119.3927 0 0 0 .65-12.68 1.25 1.25 0 0 1 1.53-1.23l.1-.12a7 7 0 0 1 6.58-1.15l.19.03c2.6692.8399 4.8491 2.9999 4.4391 5.9999zm1.3464 16.7583c.5094-.1266 1.1284-.2955 1.5736-.4183a1.2612 1.2612 0 0 0 .28 0 57.9088 57.9088 0 0 1 6.17.7c-2.4009-.1526-5.0563-.2314-8.0245-.2818zm8.7539-4.7283.01.11c-2.85-.21-4.11-.29-7-.29a1.32 1.32 0 0 1 -1.31-1.31c0-5 .58-10 .63-15a1.31 1.31 0 0 1 2.62 0c0 4.57-.48 9.13-.59 13.71 2.4 0 3.21.11 5.61.28 1.6996.0198 1.7096 2.6199.0296 2.4999z" fill="#f1adad"/><path d="m240.31 218.4592a1.23 1.23 0 0 1 -.88.35c0 1.18 0 2.37-.06 3.55a1.31 1.31 0 0 1 1.49.88c.24.69 2.74.19 3.29 0a4.86 4.86 0 0 0 2.75-1.65l-.19-.06c.12-.3.25-.6.38-.9-.31-2.68-4.91-3.86-6.78-2.17z" fill="#f1adad"/><path d="m265.334 25.335c-9.1422-.1231-18.3126-2.4752-27.4057-1.75a1.8933 1.8933 0 0 0 -1.0305.398 1.7921 1.7921 0 0 0 -1.0393.272c-4.77 2.86-9.9 5.42-14.89 7.86-4.1758 2.047-7.84 5.3825-11.7317 8.1027a17.7965 17.7965 0 0 0 .9517-1.9427c1.3777-3.4046 2.5278-7.0189 4.1551-10.3159a1.8707 1.8707 0 0 0 .3249-.9241v-.19a1.7277 1.7277 0 0 0 -.2371-.8749 1.6506 1.6506 0 0 0 -.9228-1.5251 9.75 9.75 0 0 0 -6.09-.58c-3.726.6085-7.58.9027-11.3728 1.2658a1.9686 1.9686 0 0 0 -.907-.3558c-3.46-.44-6.48.37-9.86 1-5.36 1.06-11.44.85-16.87.5a10.58 10.58 0 0 1 -2.4214-.439c.2525-.0878.5059-.1729.7512-.281a1.88 1.88 0 0 0 .68-2.56 1.92 1.92 0 0 0 -2.57-.68 5.9089 5.9089 0 0 1 -2.54.33 1.8607 1.8607 0 0 0 -.9189.3289c-.1463-.1493-.2835-.3088-.4234-.4653a4.6682 4.6682 0 0 1 1.0523-.1836c2.41-.08 2.42-3.83 0-3.75a8.0545 8.0545 0 0 0 -2.17.39c-.29.09-.57.2-.86.3l-.2319.0718a22.3819 22.3819 0 0 1 -.9718-2.0338 23.8325 23.8325 0 0 1 2.7838-.498c2.41-.07 2.42-3.82 0-3.75-1.29 0-2.6.55-3.78.58a2.0481 2.0481 0 0 0 -.2368.03c-.1463-.5341-.2975-1.0674-.4466-1.6011.8062-.0795 1.6114-.1774 2.4234-.1894 2.42 0 2.43-3.79 0-3.76-1.16 0-2.3064.1883-3.4625.2584q-.5049-1.775-.9977-3.5519a29.836 29.836 0 0 1 3.3-.5065c2.42-.06 2.42-3.82 0-3.75a21.5259 21.5259 0 0 0 -3.2668.4727 1.8613 1.8613 0 0 0 -.793-.1826h-.3l-.0061.0007q-.1113-.4276-.2236-.8553h-3.9065c.0377.141.0666.2842.1058.4248 2.57 10.22 4.29 21.83 13.48 28.22 3.87 2.69 10.94 1.6 15.25 1.47 4.6964-.1573 9.7759-1.62 14.5245-1.7222a1.4977 1.4977 0 0 0 1.5456.7122c3.14-.35 6.24-.82 9.39-1.06 1.7643-.1428 5.1469-1.0427 7.3413-.7-.9247 2.0879-1.6854 4.25-2.5613 6.35-1.55 3.74-3.76 7-5.49 10.59-.62 1.3.43 3.45 2.12 2.76 5.38-2.18 10.06-6.6 14.88-9.8 5.72-3.81 12.41-6.21 18.3-9.75a2.054 2.054 0 0 0 .2028-.1516c7.3107-.5831 15.168.8723 22.5171 1.3416 1.6176.1253 3.2373.1831 4.8557.1849z" fill="#e46f80"/></svg>