<svg xmlns="http://www.w3.org/2000/svg" viewBox="0 0 205.16 292.94"><defs><style>.a{fill:none;}.b,.e{fill:#faa338;}.b,.d{fill-rule:evenodd;}.c,.d{fill:#facf69;}</style></defs><path class="a" d="M34.09,114.59c-.52.84-1,1.71-1.58,2.52-1.84,2.66-3.75,5.29-5.56,8-1.25,1.86-2.45,3.56-.44,6,1.56,1.88,2.77,3,5.19,2.38a22.21,22.21,0,0,0,4.61-1.71c4.37-2.2,8.68-4.51,13.06-6.77a3,3,0,0,1,4.24.69,3.1,3.1,0,0,1,.29.5,33.82,33.82,0,0,1,1.56,3.06c1.94,3.7,3.86,7.42,5.85,11.11a12.33,12.33,0,0,0,5.55,5.26,3.44,3.44,0,0,0,4.73-1.15,3.23,3.23,0,0,0,.25-.49,11.24,11.24,0,0,0,.92-2.84A32.12,32.12,0,0,0,72.29,129a29.49,29.49,0,0,1-.44-4.87,4.18,4.18,0,0,1,3.05-4.44l9.37-3.56a10.77,10.77,0,0,0,4.91-3.26c1.37-1.71,1.44-2.92-.34-4.22a25.94,25.94,0,0,0-5.73-3.08c-3-1.19-6.27-2-9.35-3.12-4.27-1.56-4.29-1.62-4.75-6.26-.41-4-.74-8-1.19-12.06-.28-2.88-2.06-4.18-4.85-3.42a10.47,10.47,0,0,0-3.25,1.46c-4.22,3-8.47,6-12.48,9.26a5.8,5.8,0,0,1-5.34,1.26c-3.79-.83-7.58-1.67-11.41-2.37a11.14,11.14,0,0,0-4.15,0,4.4,4.4,0,0,0-3.06,6.58,75.73,75.73,0,0,0,5.6,7.5A43.32,43.32,0,0,0,33,108.51,4.55,4.55,0,0,1,34.09,114.59Z"/><path class="b" d="M34.09,114.59A4.54,4.54,0,0,0,33,108.65a44.4,44.4,0,0,1-4.08-4.15,78.57,78.57,0,0,1-5.6-7.5,4.41,4.41,0,0,1,3.06-6.59,11.19,11.19,0,0,1,4.16,0c3.82.67,7.62,1.52,11.4,2.37a5.77,5.77,0,0,0,5.34-1.26c4-3.26,8.31-6.24,12.48-9.25A10,10,0,0,1,63,80.81c2.79-.76,4.57.53,4.86,3.41.39,4,.71,8,1.18,12.06.47,4.64.48,4.75,4.75,6.26,3.09,1.13,6.3,1.92,9.35,3.12a25.64,25.64,0,0,1,5.74,3.09c1.78,1.29,1.71,2.5.33,4.21a10.8,10.8,0,0,1-4.9,3.26l-9.38,3.56a4.18,4.18,0,0,0-3,4.44,29.4,29.4,0,0,0,.44,4.87,32.17,32.17,0,0,1,.47,12.17,11.29,11.29,0,0,1-.92,2.83A3.45,3.45,0,0,1,67.36,146a3.23,3.23,0,0,1-.49-.25,12.33,12.33,0,0,1-5.55-5.26c-2-3.69-3.91-7.4-5.85-11.11-.47-1-1-2.07-1.56-3.06a3,3,0,0,0-4-1.48,3.1,3.1,0,0,0-.5.29c-4.33,2.26-8.64,4.57-13.06,6.77a22.34,22.34,0,0,1-4.6,1.71c-2.38.58-3.64-.55-5.2-2.37-2-2.38-.81-4.14.44-6,1.81-2.68,3.72-5.3,5.56-8C33.07,116.3,33.57,115.45,34.09,114.59Zm-4.75,15,.39.45a16.48,16.48,0,0,0,2.71-.55,48.43,48.43,0,0,0,4.75-2.14c3.8-1.88,7.5-4,11.36-5.71a5.82,5.82,0,0,1,7.68,2.95l.06.13c1.72,3.56,3.34,7.12,5.27,10.57a20.39,20.39,0,0,0,3.89,4.88c2.1,2,3.23,1.66,3.48-1.18.4-4.64.35-9.33.51-14a20.09,20.09,0,0,1,.29-4.58c.87-3.15,3.2-4.75,6.37-5.38a51.35,51.35,0,0,0,6.79-1.67c.91-.31,2.24-1.42,2.18-2.08a3.58,3.58,0,0,0-2-2.37c-3.81-1.57-7.69-3-11.64-4.23-2.77-.84-4.23-2.23-4.54-5.12-.38-3.62-.68-7.26-1.31-10.83C65,85.7,62.4,85,60,86.88q-3.94,3.21-7.91,6.39a12.79,12.79,0,0,1-8.74,2.88C39,96,34.6,95.9,30.23,95.78q-.68,0-1.35,0c-2,.24-2.53,1.19-1.19,2.72a81,81,0,0,0,6.42,7c3.09,2.92,4.08,6.28,2.45,10.15-1.26,3-2.92,5.85-4.44,8.76-1,1.73-1.91,3.42-2.84,5.11Z"/><path class="a" d="M29.28,129.57c.93-1.69,1.88-3.38,2.77-5.07,1.52-2.91,3.18-5.76,4.44-8.76,1.62-3.87.64-7.23-2.45-10.15a82.43,82.43,0,0,1-6.42-7c-1.3-1.57-.82-2.48,1.19-2.72q.68,0,1.35,0c4.37.12,8.75.2,13.13.37A12.8,12.8,0,0,0,52,93.3q4-3.17,7.91-6.38c2.38-1.94,5-1.19,5.52,1.83.63,3.56.93,7.2,1.31,10.82.31,2.9,1.77,4.29,4.54,5.13,3.94,1.19,7.83,2.66,11.64,4.22a3.59,3.59,0,0,1,2,2.38c0,.65-1.27,1.77-2.19,2.08A51.21,51.21,0,0,1,76,115.05c-3.17.6-5.5,2.23-6.37,5.38a20.06,20.06,0,0,0-.29,4.58c-.16,4.66-.11,9.35-.51,14-.25,2.83-1.38,3.15-3.48,1.19a20.59,20.59,0,0,1-3.89-4.88c-1.93-3.43-3.57-7-5.27-10.58a5.83,5.83,0,0,0-7.61-3.13l-.13.06c-3.86,1.76-7.56,3.82-11.36,5.71-1.56.78-3.15,1.51-4.75,2.14a15.48,15.48,0,0,1-2.71.54Zm19.56-12.43a8.55,8.55,0,0,0,2.57.71,34.12,34.12,0,0,0,5.23-.55,1.31,1.31,0,0,0,.74-1.08c0-.29-.62-.65-1-.78a2.56,2.56,0,0,0-1.45-.07c-3.08.85-4.75.25-6.67-2.27-.3-.4-1.19-.86-1.38-.73a2.24,2.24,0,0,0-.94,1.48C45.75,115.22,46.83,116.4,48.84,117.14ZM51.68,105c.89-1.84,0-3.35-1.53-3.07a8,8,0,0,0-3.23,1.68c-.76.58-.5,2.79.26,3.45A2,2,0,0,0,50,107l.09-.1A16.47,16.47,0,0,0,51.68,105ZM64.29,110a1.93,1.93,0,0,0-1-2.55,2,2,0,0,0-.84-.17A4.76,4.76,0,0,0,58.62,110a1.74,1.74,0,0,0,.66,2.36,1.86,1.86,0,0,0,.69.22A5.64,5.64,0,0,0,64.29,110Z"/><path class="b" d="M48.84,117.14c-2-.74-3.09-1.92-2.93-3.29a2.24,2.24,0,0,1,.94-1.48c.25-.13,1.08.33,1.38.73,1.87,2.52,3.56,3.12,6.67,2.27a2.56,2.56,0,0,1,1.45.07c.41.13,1,.49,1,.78a1.31,1.31,0,0,1-.74,1.08,34.12,34.12,0,0,1-5.23.55A8.55,8.55,0,0,1,48.84,117.14Z"/><path class="b" d="M51.68,105a16,16,0,0,1-1.55,1.83,2,2,0,0,1-2.84.27l-.11-.09c-.76-.66-1-2.86-.26-3.44a7.93,7.93,0,0,1,3.23-1.64C51.72,101.62,52.57,103.13,51.68,105Z"/><path class="b" d="M64.29,110A5.64,5.64,0,0,1,60,112.56a1.74,1.74,0,0,1-1.56-1.9,1.8,1.8,0,0,1,.21-.68,4.76,4.76,0,0,1,3.87-2.66,1.92,1.92,0,0,1,2,1.88A2,2,0,0,1,64.29,110Z"/><path class="c" d="M20.5,39.5c-.32.53-.64,1.07-1,1.59-1.16,1.67-2.36,3.33-3.5,5-.79,1.18-1.54,2.25-.28,3.78,1,1.18,1.75,1.89,3.27,1.49a14,14,0,0,0,2.9-1.07c2.75-1.39,5.47-2.84,8.22-4.26a1.91,1.91,0,0,1,2.67.43,2,2,0,0,1,.19.31c.36.63.68,1.27,1,1.93,1.22,2.33,2.43,4.67,3.68,7A7.84,7.84,0,0,0,41.14,59a2.17,2.17,0,0,0,3-.73,2.1,2.1,0,0,0,.15-.3,7.07,7.07,0,0,0,.58-1.79,20.16,20.16,0,0,0-.3-7.66,19.66,19.66,0,0,1-.27-3.06,2.62,2.62,0,0,1,1.92-2.8l5.9-2.24a6.84,6.84,0,0,0,3.09-2.06c.87-1.07.91-1.83-.21-2.65a16.12,16.12,0,0,0-3.61-1.94c-1.92-.75-3.95-1.26-5.89-2-2.69-1-2.7-1-3-3.94-.26-2.52-.46-5.06-.75-7.59-.18-1.82-1.3-2.63-3.05-2.15a6.21,6.21,0,0,0-2,.92C34,21,31.31,22.83,28.79,24.89a3.66,3.66,0,0,1-3.37.79c-2.38-.52-4.77-1.05-7.18-1.5a7.21,7.21,0,0,0-2.62,0,2.78,2.78,0,0,0-2.27,3.21,2.89,2.89,0,0,0,.35.94,49.14,49.14,0,0,0,3.52,4.73,28.78,28.78,0,0,0,2.57,2.61A2.86,2.86,0,0,1,20.5,39.5Z"/><path class="d" d="M20.5,39.5a2.86,2.86,0,0,0-.7-3.74,28.78,28.78,0,0,1-2.57-2.61,49.24,49.24,0,0,1-3.53-4.73,2.78,2.78,0,0,1,1-3.8,2.89,2.89,0,0,1,.94-.35,7.21,7.21,0,0,1,2.62,0c2.4.43,4.8,1,7.18,1.5A3.64,3.64,0,0,0,28.79,25c2.53-2.06,5.23-3.93,7.86-5.83a6.16,6.16,0,0,1,2-.92c1.76-.48,2.88.33,3.06,2.15.25,2.53.45,5.07.75,7.59.29,2.93.3,3,3,3.94,1.94.71,4,1.21,5.89,2A16.12,16.12,0,0,1,55,35.82c1.12.82,1.07,1.58.21,2.65a6.84,6.84,0,0,1-3.09,2.06l-5.9,2.24a2.62,2.62,0,0,0-1.92,2.8,18.51,18.51,0,0,0,.27,3.06,20.16,20.16,0,0,1,.3,7.66,7.49,7.49,0,0,1-.58,1.79,2.17,2.17,0,0,1-2.83,1.18,1.68,1.68,0,0,1-.3-.15,7.79,7.79,0,0,1-3.5-3.31c-1.25-2.33-2.46-4.67-3.69-7-.29-.66-.62-1.3-1-1.93a1.94,1.94,0,0,0-2.55-.93,2,2,0,0,0-.31.19c-2.73,1.42-5.44,2.87-8.22,4.26A14.22,14.22,0,0,1,19,51.46c-1.5.37-2.29-.34-3.27-1.49-1.27-1.5-.51-2.6.27-3.78,1.15-1.68,2.35-3.34,3.51-5C19.86,40.57,20.18,40,20.5,39.5Z"/><path class="e" d="M104.64,142c-.25.41-.49.82-.76,1.22-.89,1.29-1.82,2.56-2.7,3.85-.6.9-1.18,1.73-.21,2.9.76.91,1.34,1.45,2.52,1.15a10.42,10.42,0,0,0,2.22-.83c2.12-1.06,4.2-2.18,6.32-3.27a1.48,1.48,0,0,1,2,.33,1.23,1.23,0,0,1,.14.25,13.69,13.69,0,0,1,.75,1.48c1,1.79,1.88,3.58,2.83,5.37a6,6,0,0,0,2.69,2.54,1.67,1.67,0,0,0,2.29-.55l.12-.24a5.1,5.1,0,0,0,.44-1.37,15.57,15.57,0,0,0-.22-5.89,14.17,14.17,0,0,1-.22-2.35,2,2,0,0,1,1.48-2.15l4.53-1.72a5.13,5.13,0,0,0,2.37-1.58c.67-.82.71-1.41-.16-2a12.53,12.53,0,0,0-2.77-1.49c-1.47-.57-3-1-4.52-1.51-2.07-.75-2.08-.78-2.3-3-.2-1.95-.36-3.89-.57-5.84a1.69,1.69,0,0,0-2.35-1.65,4.75,4.75,0,0,0-1.57.71c-2,1.45-4.1,2.89-6,4.47a2.76,2.76,0,0,1-2.58.61c-1.83-.4-3.67-.81-5.52-1.15a5.66,5.66,0,0,0-2,0,2.14,2.14,0,0,0-1.74,2.47,2.08,2.08,0,0,0,.26.72,38,38,0,0,0,2.71,3.63,22,22,0,0,0,2,2A2.2,2.2,0,0,1,104.64,142Z"/><path class="b" d="M104.64,142a2.2,2.2,0,0,0-.54-2.87,23.48,23.48,0,0,1-2-2,37.93,37.93,0,0,1-2.7-3.63,2.12,2.12,0,0,1,.76-2.92,2.23,2.23,0,0,1,.72-.27,5.66,5.66,0,0,1,2,0c1.84.33,3.68.74,5.51,1.15a2.81,2.81,0,0,0,2.59-.61c1.94-1.58,4-3,6-4.48a5,5,0,0,1,1.57-.7,1.69,1.69,0,0,1,2.35,1.65c.19,2,.35,3.89.58,5.83.22,2.25.23,2.3,2.29,3,1.5.55,3,.93,4.53,1.51a12.76,12.76,0,0,1,2.77,1.49c.86.63.83,1.21.16,2a5.23,5.23,0,0,1-2.37,1.58l-4.54,1.72a2,2,0,0,0-1.47,2.15,15.32,15.32,0,0,0,.21,2.35,15.57,15.57,0,0,1,.23,5.89,5.64,5.64,0,0,1-.45,1.37,1.66,1.66,0,0,1-2.17.91,1,1,0,0,1-.23-.12,5.91,5.91,0,0,1-2.69-2.54c-1-1.79-1.89-3.58-2.83-5.37-.23-.51-.48-1-.75-1.49a1.47,1.47,0,0,0-2-.71,2,2,0,0,0-.25.14c-2.09,1.09-4.18,2.21-6.31,3.27a10.5,10.5,0,0,1-2.23.83c-1.15.28-1.76-.26-2.51-1.15-1-1.15-.39-2,.21-2.9.88-1.3,1.8-2.56,2.69-3.85C104.15,142.84,104.39,142.44,104.64,142Z"/><path class="e" d="M178,28c-.25.41-.49.83-.76,1.23-.89,1.28-1.82,2.55-2.7,3.85-.6.9-1.18,1.72-.21,2.9.76.9,1.35,1.45,2.52,1.15a11,11,0,0,0,2.22-.83c2.12-1.06,4.2-2.18,6.32-3.27a1.46,1.46,0,0,1,2.05.33,1.16,1.16,0,0,1,.14.24,14.68,14.68,0,0,1,.75,1.48c1,1.79,1.88,3.59,2.84,5.38A5.94,5.94,0,0,0,193.87,43a1.69,1.69,0,0,0,2.41-.79,5.58,5.58,0,0,0,.45-1.38,15.53,15.53,0,0,0-.23-5.88,14.37,14.37,0,0,1-.22-2.35,2,2,0,0,1,1.48-2.15l4.53-1.72a5.29,5.29,0,0,0,2.38-1.58c.66-.83.7-1.42-.17-2a12.31,12.31,0,0,0-2.77-1.49c-1.47-.58-3-1-4.52-1.51-2.07-.76-2.07-.78-2.3-3-.2-1.94-.35-3.89-.57-5.83A1.69,1.69,0,0,0,192,11.54a5.3,5.3,0,0,0-1.57.71c-2,1.46-4.1,2.9-6,4.48a2.81,2.81,0,0,1-2.58.61c-1.83-.4-3.67-.81-5.52-1.15a5.66,5.66,0,0,0-2,0,2.15,2.15,0,0,0-1.48,3.19A36.68,36.68,0,0,0,175.5,23a18.79,18.79,0,0,0,2,2A2.2,2.2,0,0,1,178,28Z"/><path class="b" d="M178,28a2.2,2.2,0,0,0-.54-2.87,19.69,19.69,0,0,1-2-2,35.67,35.67,0,0,1-2.71-3.63,2.13,2.13,0,0,1,.76-2.92,2,2,0,0,1,.72-.26,5.23,5.23,0,0,1,2,0c1.85.32,3.68.73,5.51,1.15a2.84,2.84,0,0,0,2.59-.61c1.94-1.58,4-3,6-4.48a5.06,5.06,0,0,1,1.57-.71,1.69,1.69,0,0,1,2.35,1.66c.19,1.94.35,3.89.58,5.83.22,2.24.23,2.3,2.29,3,1.5.54,3,.93,4.53,1.51a12.35,12.35,0,0,1,2.77,1.49c.86.62.83,1.21.16,2a5.21,5.21,0,0,1-2.37,1.57l-4.54,1.73a2,2,0,0,0-1.47,2.14A15.56,15.56,0,0,0,196.5,35a15.52,15.52,0,0,1,.23,5.88,5.58,5.58,0,0,1-.45,1.38,1.67,1.67,0,0,1-2.17.91l-.23-.12a5.93,5.93,0,0,1-2.69-2.55c-1-1.78-1.89-3.58-2.83-5.37a15.79,15.79,0,0,0-.75-1.48,1.47,1.47,0,0,0-2-.72,1,1,0,0,0-.24.15c-2.1,1.09-4.18,2.21-6.32,3.27a11,11,0,0,1-2.23.82c-1.15.29-1.75-.26-2.51-1.14-1-1.15-.39-2,.21-2.9.88-1.3,1.8-2.57,2.69-3.86Z"/><path class="c" d="M75.71,85.63a22.28,22.28,0,0,0,7.56-5.2c4.52-4.36,10.22-7.64,15.3-11.32,9.33-6.75,17-15.44,25.87-22.73,1.87-1.54-.8-4.18-2.65-2.66-7.6,6.25-14.31,13.45-21.91,19.7-4.45,3.65-9.36,6.75-14,10.13C82.19,76.22,79,80.35,74.74,82c-2.23.86-1.26,4.49,1,3.62Z"/><path class="c" d="M82.5,91.6c11.59-3.1,21.27-11.1,30.94-17.72,6.92-4.73,14.26-8.81,21.12-13.62,4.06-2.84,7.79-5.8,12.16-8.19,2.13-1.17.23-4.41-1.89-3.24a90.63,90.63,0,0,0-11.15,7.46c-6.54,4.88-13.8,8.79-20.59,13.31C103.09,76.25,93.38,84.8,81.5,88c-2.34.63-1.34,4.25,1,3.62Z"/><path class="c" d="M92.59,97.24c24.11-10,47.18-22.61,71.46-32.23,2.23-.88,1.26-4.51-1-3.62C138.76,71,115.69,83.57,91.58,93.62c-2.2.91-1.24,4.55,1,3.62Z"/><path class="c" d="M90.06,194.22a29.49,29.49,0,0,0-16.58-17.08c-7.24-2.92-14.92-1.5-21.69,1.8-.86-7.05-11.29-11.11-17.28-12.33-7.39-1.55-15.81-.61-21.24,4.06,0,0,0-.08,0-.13-1.68-6.91-7-10.63-13.25-12.2v3.81c4.59,1.41,8.36,4.33,9.59,9.39a1.69,1.69,0,0,0,1.55,1.36,16.28,16.28,0,0,0-3,6.26c-.58,2.38,3.08,3.39,3.66,1v0c4.07-16.67,38.35-10.36,36,.94-1.08.67-2.12,1.38-3.12,2.12-1.94,1.44,0,4.74,1.92,3.28v0c13.62-10.08,30.71-9.26,38.93,6.85,2.73,5.35,3.65,12.24.8,17.71-3.7,7.09-12.75,7.5-19.85,6.54a17.38,17.38,0,0,0,2-4.08c.78-2.33-2.89-3.32-3.66-1-2.9,8.68-13.71,12.6-21.6,15-11.79,3.65-24.33,4.9-36.62,5.17-2.2.05-4.42,0-6.63,0v3.81c1.8,0,3.6,0,5.37,0,13.75-.09,27.83-1.72,41-6,6-1.95,12.81-4.85,17.46-9.52h.06c8.45,1.43,18.39,1.38,24.31-5.83C93,209.37,92.55,201,90.06,194.22Z"/><path class="b" d="M124.28,1c-.51-.37-1-.71-1.59-1h-7.56c1.11.43,2.22.87,3.32,1.32a3.58,3.58,0,0,1,2.06,2.38c.06.65-1.27,1.77-2.19,2.08a51,51,0,0,1-6.79,1.67c-3.17.63-5.49,2.23-6.36,5.38a20.06,20.06,0,0,0-.29,4.58c-.16,4.66-.11,9.35-.52,14-.24,2.85-1.37,3.17-3.47,1.19A20.89,20.89,0,0,1,97,27.71c-1.92-3.45-3.55-7-5.27-10.58a1.12,1.12,0,0,0,0-.13A5.83,5.83,0,0,0,84,14.06c-3.85,1.76-7.56,3.82-11.35,5.71-1.54.78-3.13,1.51-4.75,2.14a15.67,15.67,0,0,1-2.71.54L64.78,22h-.06l2.84-5.1C69.08,14,70.74,11.14,72,8.14A8.07,8.07,0,0,0,71.28,0h-4c.38.36.75.74,1.14,1.09A4.55,4.55,0,0,1,69.53,7c-.52.84-1,1.71-1.58,2.53-1.84,2.66-3.75,5.28-5.57,8-.81,1.21-1.59,2.35-1.5,3.67A4,4,0,0,0,62,23.65c1.57,1.83,2.83,3,5.2,2.38a22.79,22.79,0,0,0,4.61-1.71c4.41-2.2,8.72-4.51,13.06-6.77a2.72,2.72,0,0,1,.5-.29,3,3,0,0,1,4,1.48A31.34,31.34,0,0,1,90.9,21.8c1.95,3.7,3.87,7.42,5.86,11.11a12.28,12.28,0,0,0,5.55,5.26,4.44,4.44,0,0,0,.49.24,3.43,3.43,0,0,0,4.48-1.88,11,11,0,0,0,.93-2.84,33,33,0,0,0-.49-12.31c-.13-.78-.23-1.57-.31-2.36s-.11-1.57-.11-2.36a4.17,4.17,0,0,1,3-4.44l9.37-3.56a10.77,10.77,0,0,0,4.91-3.26,3.45,3.45,0,0,0,1-2.35A2.64,2.64,0,0,0,124.28,1Z"/><path class="d" d="M20.41,269.24a16.53,16.53,0,0,0-3.61-1.94c-1.92-.75-4-1.25-5.89-2-2.69-1-2.7-1-3-3.94-.26-2.53-.46-5.06-.75-7.6-.18-1.81-1.3-2.63-3-2.15a6.55,6.55,0,0,0-2.05.92L0,254.05v29.42c1,1.95,2,3.9,3.08,5.84a7.71,7.71,0,0,0,3.49,3.31l.31.16a2.18,2.18,0,0,0,2.83-1.19,7.49,7.49,0,0,0,.58-1.79,19.89,19.89,0,0,0,.21-3.93,19.83,19.83,0,0,0-.52-3.82c-.08-.49-.15-1-.19-1.49s-.07-1-.08-1.48a2.64,2.64,0,0,1,1.92-2.8c2-.74,3.93-1.49,5.91-2.24A6.66,6.66,0,0,0,20.62,272a2.08,2.08,0,0,0,.63-1.48A1.65,1.65,0,0,0,20.41,269.24Z"/></svg>