<svg viewBox="0 0 436.025 344.7264" xmlns="http://www.w3.org/2000/svg"><path d="m46.3726 6.4158c-2-6.08-8.46-7.41-13.94-5.77-2.4589.7362-6.7094 2.9434-8.741 5.68a45.2236 45.2236 0 0 0 -3.9189-3.35c-2-1.34-4.8-1.53-7.11-1.53-4.69 0-8.13 4.27-10.41 7.82-8.51 13.22 10.86 21 18 27.54a1.817 1.817 0 0 0 1.9975.3665c-.1647 1.6529 1.8627 3.2063 3.1225 1.6334 8.1099-10.11 26.3699-16.12 20.9999-32.3899zm-5.57 13.56c-2.46 4.11-7.64 6.45-11.32 9.29a40.8547 40.8547 0 0 0 -5.9966 5.891 1.8532 1.8532 0 0 0 -.5533-1.0409l-.4-.4a1.8994 1.8994 0 0 0 -.3587-.2554c-5.99-5.0782-14.5617-7.8927-17.6213-15.5945-2.46-6.22 5-13.3 10.76-12.46 3.2373.4714 5.0291 3.2655 7.5523 5.0393a1.952 1.952 0 0 0 1.58.81 1.9918 1.9918 0 0 0 2.1325-2.6153c1.2518-2.0349 6.8814-4.34 8.2951-4.7643 10.82-3.24 8.9001 11.15 5.9301 16.1001z" fill="#9ed7f5"/><path d="m164.7526 241.9092c-9.1 3.56-11.26 18-7.62 25.9 5.55 12 21.59 14.91 32.24 9 10.3-5.75 14.93-19.56 9.22-29.94-6.29-11.42-23.8-9.64-33.5-4.73-2.18 1.11-.26 4.38 1.92 3.28 8.05-4.08 19.38-5.25 26.59 1.22 7.83 7 2.71 19.08-3.48 24.95-8.07 7.63-19.69 5.16-27-1.93-5.31-5.13-5.77-20.76 2.64-24 2.25-.88 1.27-4.56-1-3.66z" fill="#9ed7f5"/><path d="m164.3427 256.5591c-.08-1.18 2.57-1.9 3.44-2.1 1.88-.42 2.5 1.21 3.74 2.24 1.87 1.55 4.57-1.13 2.68-2.69-1-.84-1.75-1.89-2.81-2.68-1.31-1-3.13-.75-4.62-.53-2.66.39-6.45 2.69-6.22 5.76.18 2.42 4 2.44 3.79 0z" fill="#9ed7f5"/><path d="m181.6427 252.2491h-.4l1.35 3.24c1.46-1.33 6.12-3.32 6.84-.43.59 2.37 4.25 1.37 3.66-1-1.55-6.19-9.57-4.54-13.19-1.24a1.91 1.91 0 0 0 1.34 3.24h.4a1.9 1.9 0 0 0 0-3.8z" fill="#9ed7f5"/><path d="m165.0227 264.2691c.66 3.46 5.31 5.23 8.36 5.61s9 .37 10.48-3.08a1.94 1.94 0 0 0 -.69-2.6l-.14-.07c-2.19-1.07-4.11 2.21-1.91 3.28l.14.07c-.23-.87-.46-1.73-.68-2.6-.71 1.63-4.23 1.29-5.51 1.29-1.78 0-6-.66-6.39-2.91s-4.12-1.38-3.66 1z" fill="#9ed7f5"/><path d="m227.5727 245.1291c8.21-3.22 17.05-1.46 23 5 6.89 7.56 6.31 18.24-2.58 23.62-7.43 4.5-18.56 4.77-24.84-1.6-3.26-3.32-5.05-9.36-5.12-13.88-.08-5.41 6.19-13.11 11.57-14 2.41-.39 1.38-4.05-1-3.66-5.68.92-9.89 6.4-12.59 11.12-3 5.18-1.74 11.49.56 16.64 5.53 12.39 18 14.56 30 10.2 10.25-3.73 15.76-14.6 10.77-24.75-5.73-11.68-18.32-17.29-30.76-12.41-2.25.88-1.27 4.56 1 3.66z" fill="#21bced"/><path d="m225.2127 252.6491c.35-.29 1.93-.1 2.47-.08 1.14 0 2.26.22 3.4.24 2.45 0 2.44-3.75 0-3.8-2.8 0-6.2-1-8.56 1-1.88 1.58.82 4.25 2.69 2.68z" fill="#21bced"/><path d="m242.2927 252.8091c2.22.05 5.69 1.09 7.35-1a1.93 1.93 0 0 0 0-2.68 1.89 1.89 0 0 0 -2.6729-.0071l-.0071.0071c-.23.27 0 0 .1 0a2.9924 2.9924 0 0 0 -.41.09 11.0049 11.0049 0 0 1 -1.62 0c-.91-.05-1.82-.21-2.74-.23-2.45 0-2.44 3.75 0 3.8z" fill="#21bced"/><path d="m223.8327 264.2891.13.21a1.91 1.91 0 0 0 3 .38c2.63-2.94 4.9-4.58 9-4.84 2.34-.15 4.59.17 6.38 1.8.74.68.71 2.32 1.16 3.25 1.07 2.2 4.34.28 3.28-1.92-1-2-.7-3.54-2.9-5a12.5593 12.5593 0 0 0 -6.76-1.95c-5.47-.2-9.31 2-12.82 6l3 .39a2.3494 2.3494 0 0 1 -.13-.21c-1.31-2.06-4.6-.15-3.28 1.92z" fill="#21bced"/><path d="m66.7632 63.8887c-6.52.42-10.12 7.11-9.36 13.17.73 5.74 6.7 9.28 12.19 8.18a12.31 12.31 0 0 0 10.12-11.87c.19-6.08-6.38-10.78-11.86-11.42-5.67-.65-11.72 3.38-12.38 9.31a12 12 0 0 0 8.68 12.62c13.06 4 19.63-17.65 5.69-20.66-7.86-1.69-15.32 6.36-13.9 14.07 1.77 9.67 13.14 10.17 19.41 4.6 6-5.32 5.7-16.88-3.16-18.85-6.69-1.49-17.11 4.62-12.09 12.14 1.36 2 4.65.13 3.28-1.92-3.72-5.56 8.09-8.88 11.29-4.27 4.18 6-3.12 13.08-9.08 12.91-8.15-.24-6.78-10.55-1.84-13.92 6.5-4.45 12.76 3.07 9 9.21-4.07 6.67-13.24 2.1-13.58-4.56-.16-3.12 2.61-5.94 5.42-6.81 3.11-1 6.76.86 9 2.88 5.43 4.87.39 12.56-5.83 12.94-8.48.52-8.74-13.45-1-14 2.43-.16 2.45-3.95 0-3.79z" fill="#21bced"/><path d="m52.1632 89.7087c-5.58 4.16-6.76 11.48-12 15.92l3 2.3c4.67-6.41 9.28-12.84 13.32-19.67l-3.47-1.47c-2 6.32-7.06 10.9-11.09 15.95l3 2.3c2.63-5.36 7.39-9.11 11.28-13.51l-2.69-2.68c-4.08 5.25-8.15 10.5-11.87 16-1.38 2 1.9 3.91 3.28 1.92 3.53-5.09 8-9.38 11.58-14.47 1.22-1.77-1.65-4-3-2.3-4.44 5.61-9.43 10.76-13.6 16.59l3.27 1.91a69.872 69.872 0 0 1 10.7-14.08c-1-.77-2-1.54-3-2.3-1.91 2.52-3.87 5-5.79 7.52-1.48 1.95 1.82 3.84 3.28 1.92 1.91-2.52 3.88-5 5.79-7.53 1.33-1.75-1.51-3.8-3-2.3a73.22 73.22 0 0 0 -11.29 14.86c-1.24 2.16 1.87 3.87 3.27 1.91 4-5.56 8.78-10.46 13-15.82l-3-2.3c-3.53 5.09-8 9.38-11.58 14.47l3.28 1.92c3.54-5.25 7.4-10.25 11.28-15.25 1.46-1.87-1-4.55-2.69-2.68-4.1 4.64-9.09 8.62-11.87 14.27-.89 1.82 1.56 4.09 3 2.3 4.47-5.6 9.86-10.61 12.07-17.62.66-2.09-2.39-3.29-3.47-1.46-4 6.83-8.65 13.27-13.31 19.68-1.35 1.85 1.44 3.61 3 2.3 4.93-4.22 6-11.49 11.19-15.33 1.94-1.45 0-4.75-1.92-3.28z" fill="#9ed7f5"/><path d="m34.2332 111.6587c-6.29-9.91-17.9 3.08-20.39 9.58-5.18 13.53 8 20.56 20.06 18.43 10.22-1.8 13.21-13.24 9.53-21.79-4.47-10.39-14.87-11-22.31-3.23-1.68 1.77 1 4.46 2.69 2.68 5.14-5.4 11.56-6.24 15.54.76 3.16 5.57 2.63 13.61-3.39 16.9-7.81 4.29-21.67-.19-19.2-10.55.87-3.61 9.9-17.62 14.19-10.87 1.31 2.06 4.6.16 3.28-1.91z" fill="#21bced"/><path d="m32.5932 109.0287a18.78 18.78 0 0 0 -17.88 17.27c-.62 9.24 9.68 15 17.8 13.81 7.25-1.07 11.76-8.48 12.58-15.17 1-8.21-5.37-13.92-13-15v3.66c8.86-2.47 9.73 9.61 7.21 15.07-2.22 4.81-7.44 6.4-12.38 6.26a10.35 10.35 0 0 1 -8.33-4.66c-2.34-3.73 1.69-7.48 4.29-9.56 1.91-1.53-.79-4.2-2.68-2.69-5.85 4.67-8.93 13.22-1.26 18 6.59 4.15 15.89 3.46 21.41-2.2 7.5-7.68 4.38-27.81-9.19-23.93-1.66.48-1.95 3.38 0 3.66 5.63.8 10 3.78 10.21 9.82a13.78 13.78 0 0 1 -6.72 11.9c-5.71 3.41-14-.42-15.91-6.5-2.5-8 6.59-15.69 13.77-16 2.44-.1 2.45-3.9 0-3.79z" fill="#21bced"/><path d="m50.7132 130.1087c3.4 0 6.78-.39 10.18-.42a1.9011 1.9011 0 0 0 0-3.8 43.4794 43.4794 0 0 1 -10.31-.88c-.17 1.24-.34 2.36-.51 3.63h9.55c-.17-1.27-.38-2.39-.55-3.63-3.1.75-6.68.78-9.21-.32v3.67a53.2708 53.2708 0 0 1 7.81-.78c-.17-1.24-.32-2.48-.49-3.73-2.45.94-5.18.89-7.75 1.2s-2.26 3.5.18 3.8a84.3335 84.3335 0 0 0 10.37.42 1.9 1.9 0 0 0 0-3.8 73.4871 73.4871 0 0 1 -10.12-.42v3.8c2.53-.36 5.81-.29 8.56-1.34 1.91-.73 1.66-3.76-.61-3.73a64.0051 64.0051 0 0 0 -8.83.91c-2 .33-1.6 3.09 0 3.67a19.23 19.23 0 0 0 11.17.31c2.11-.51 1.61-3.83-.51-3.83h-9.55c-2.12 0-2.43 3.32-.32 3.83a49.2919 49.2919 0 0 0 11.5 1v-3.8c-3.8 0-7 .39-10.36.43-2.45 0-2.63 3.82-.18 3.79z" fill="#9ed7f5"/><path d="m77.7132 117.0387c-5.52-.54-10.79 4.06-11.64 9.42a8 8 0 0 0 7.53 9.28 11 11 0 0 0 10.31-6.48 9.36 9.36 0 0 0 -4.15-11.45c-7.52-4-16.66 5.72-13 13a8.05 8.05 0 0 0 10.27 3.82 14 14 0 0 0 7.33-8.36c1.1-3.17-.13-6.33-3.65-6.73-2.43-.27-2.41 3.53 0 3.8.4.05.28.32.23 1a7.0682 7.0682 0 0 1 -1.13 2.82 8.76 8.76 0 0 1 -5.49 4.37c-2.61.55-4.79-2.52-4.74-4.8s2.46-4.6 4.51-5.46a4.48 4.48 0 0 1 6.25 2.6c1.31 3.1-.46 5.77-3.17 7.27s-5.95 1-7.13-2c-1.74-4.41 3.77-8.71 7.71-8.32 2.44.24 2.42-3.56 0-3.8z" fill="#21bced"/><path d="m19.7932 144.1687c-.91 5-3.89 9.82-6.14 14.31-1.08 2.18 2.1 4.08 3.28 1.92 2-3.71 3.77-7.53 5.49-11.39l-3.47-1.46c-1.28 3.12-3.32 5.85-4.87 8.83l3.28 1.91c1.66-3.25 3.56-6.37 5.06-9.7a1.9 1.9 0 1 0 -3.28-1.92 52.5608 52.5608 0 0 0 -6.52 12.69c-.76 2.35 2.86 3.29 3.66 1 1.33-3.77 3.22-7.3 4.87-10.94a1.9 1.9 0 0 0 -3.28-1.91c-2.09 3-3.81 6.26-5.9 9.28-1.42 2.05 1.83 3.82 3.28 1.91a53.4887 53.4887 0 0 0 7.36-13.53l-3.66-1a54.33 54.33 0 0 1 -6.56 13.05c-1.35 2.05 1.94 3.95 3.28 1.91a57.89 57.89 0 0 0 6.94-13.95c.75-2.36-2.81-3.26-3.66-1a50.0009 50.0009 0 0 1 -7 12.63l3.28 1.91c2.08-3 3.81-6.26 5.9-9.28l-3.28-1.91c-1.78 3.93-3.81 7.75-5.25 11.84l3.66 1a49.0014 49.0014 0 0 1 6.14-11.78l-3.28-1.92c-1.5 3.33-3.4 6.46-5.06 9.71-1.11 2.17 2.14 4.09 3.28 1.91 1.71-3.28 3.84-6.29 5.25-9.73.81-2-2.6-3.42-3.47-1.47-1.72 3.86-3.46 7.69-5.49 11.39l3.28 1.92c2.38-4.76 5.56-9.93 6.52-15.22.44-2.39-3.22-3.41-3.66-1z" fill="#9ed7f5"/><path d="m39.2732 147.2887c4.77 4.8 7.58 11.81 11.62 17.29 4.43 6 9 11.82 13 18.18 1.3 2.11 4.31.27 3.28-1.92-5.79-12.2-15.8-21.59-22.36-33.32-1.09-2-3.92-.59-3.47 1.46 1.31 6 5.91 10.51 9.79 15.06 5.65 6.62 9.29 14.81 14.74 21.64l2.69-2.69c-10.17-10.8-18.17-23.21-25-36.32l-3.28 1.92c6.4 11.28 14.27 21.63 20.68 32.9 1.23 2.19 4.23.27 3.27-1.91-.05-.24-.1-.49-.16-.73-.15-2.43-3.95-2.45-3.79 0a6.4208 6.4208 0 0 0 .68 2.64l3.27-1.91c-6.4-11.28-14.27-21.63-20.67-32.91-1.21-2.14-4.41-.24-3.28 1.92 7 13.39 15.23 26.06 25.61 37.09 1.72 1.82 4.18-.82 2.69-2.69-4.67-5.84-8.23-12.41-12.37-18.61-3.69-5.51-9.72-9.64-11.19-16.41l-3.47 1.46c6.56 11.74 16.57 21.12 22.36 33.33l3.28-1.92c-4.32-7-9.43-13.38-14.29-20-3.88-5.25-6.28-11.62-10.9-16.27-1.73-1.74-4.41.95-2.68 2.69z" fill="#9ed7f5"/><path d="m84.9132 190.4487c-12.84.06-19.14 21.58-4.28 23.68 10.81 1.54 20.84-15 10.43-21.91-5.55-3.71-14.52-1.63-18.93 2.94-5.67 5.88-1.66 16.77 5.27 19.64 5.77 2.39 13.47-.1 16-6.06 2.1-5 .53-10.62-2.84-14.65a11.51 11.51 0 0 0 -11.4-3.64c-5.68 1.22-10.88 7.8-7.68 13.41 1.22 2.12 4.5.21 3.28-1.92-2.29-4 3-7.3 6.13-8a7.26 7.26 0 0 1 5.45 1.38c3.06 2 4.63 6.43 4.14 10-.7 5.1-6.36 7.55-11 6.28-4.45-1.22-6.67-6.8-6-10.94.61-3.67 4.34-5.26 7.53-6 4.5-1.08 9.63-.16 10.25 5.16a10.21 10.21 0 0 1 -5.14 9.83c-4.56 2.58-10.37-.19-10.48-5.47-.1-5 4.22-9.86 9.26-9.88 2.44 0 2.44-3.81 0-3.8z" fill="#21bced"/><path d="m67.1432 184.2187a66.9976 66.9976 0 0 1 -3.61-8.83 1.9 1.9 0 0 0 -3.66 1c1 4.32 3.38 7.42 6.4 10.54 1.26 1.31 3.85 0 3.17-1.84-2.89-7.73-9.27-13-14.12-19.44-4.37-5.83-11.71-11.93-12.88-19.38l-3.47 1.46a281.4021 281.4021 0 0 0 15.5 23.86c4.05 5.72 7.6 12 13.45 16.06.31-1.18.63-2.36.95-3.54a7.0015 7.0015 0 0 1 -2.44-.35c-1.48-.42-3.19 1.4-2.15 2.79.42.56.77 1.12 1.19 1.68 1.3 1.72 3.4.73 3.4-1.46v-.66c-1.26.16-2.24.31-3.4.46.57.84 1.17 1.69 1.73 2.53a1.91 1.91 0 0 0 3.29-1.92c-3.37-7.17-9.17-12.7-14.32-18.59-5.33-6.09-12.54-15-13.74-23.14-.35-2.42-4-1.39-3.66 1 1.13 7.68 6.85 14.13 11.17 20.28 5.44 7.74 13.21 13.67 17.29 22.36l3.28-1.92-1.68-2.53c-.84-1.25-3.15-1.28-3.47.46a6.111 6.111 0 0 0 0 2.69l3.47-1.46c-.43-.56-.85-1.13-1.27-1.69l-2.14 2.79a13.37 13.37 0 0 0 3.45.49 1.931 1.931 0 0 0 1-3.54c-6.16-4.27-9.73-11.56-14.16-17.46a203.2647 203.2647 0 0 1 -13.5-21.09c-1.14-2-3.79-.55-3.47 1.46 1 6.31 6.24 11.54 10.15 16.26 5.63 6.79 13.76 14.3 16.85 22.55l3.17-1.84c-2.56-2.65-4.61-5.21-5.42-8.87l-3.66 1a74.8616 74.8616 0 0 0 4 9.74c1.06 2.2 4.34.27 3.28-1.92z" fill="#9ed7f5"/><path d="m100.6032 196.1087c5-.88 9.28-3.76 14.3-4.55 2.26-.35 1.46-3.54-.51-3.73-5.22-.5-10.06 1.9-14.61 4.16-2.06 1-.51 3.81 1.47 3.47 4.76-.82 9-3.15 13.65-4.55a1.91 1.91 0 0 0 -.51-3.73c-5-.5-9.55 1.34-14 3.51-2 1-.57 4 1.47 3.47a99.3665 99.3665 0 0 0 14.1-5.39c2-.85.56-4.16-1.46-3.47a68.09 68.09 0 0 0 -12.16 5.39c-2.14 1.25-.26 4.33 1.92 3.28 3.07-1.47 6.29-2.59 9.1-4.55l-1.92-3.28c-2.7 1.92-5.74 3.28-8.45 5.2-2 1.41-.08 4.7 1.92 3.28 2.7-1.92 5.74-3.28 8.45-5.2 2-1.4.1-4.69-1.92-3.28-2.81 2-6 3.08-9.1 4.55l1.92 3.28a62.2273 62.2273 0 0 1 11.25-5l-1.47-3.47a92.932 92.932 0 0 1 -13.19 5l1.46 3.47c3.84-1.89 7.69-3.43 12-3-.17-1.24-.34-2.48-.5-3.73-4.6 1.4-8.88 3.73-13.65 4.55l1.46 3.47c4-2 8.12-4.08 12.69-3.64-.17-1.24-.34-2.49-.5-3.73-5 .78-9.33 3.67-14.3 4.55-2.41.43-1.39 4.09 1 3.66z" fill="#9ed7f5"/><path d="m54.4532 202.9287c2.09.4 4.22.61 6.32.95.34-1.22.68-2.44 1-3.66a38.5517 38.5517 0 0 0 -5.88-.38c-2.45 0-2.44 3.75 0 3.8a57.2565 57.2565 0 0 1 6.77.88l.51-3.73h-1.9a1.9 1.9 0 1 0 0 3.79h1.9c2.08 0 2.83-3.43.66-3.72a66.1564 66.1564 0 0 0 -7.62-1v3.8a33.3509 33.3509 0 0 1 4.71.24c2.39.37 3.35-3.27.93-3.66-2.1-.34-4.27-.55-6.36-1-2.4-.45-3.46 3.21-1 3.66z" fill="#9ed7f5"/><path d="m37.2132 189.1087a8.75 8.75 0 0 0 -5.95 10.11c.89 4.73 5.18 7.38 9.86 6.62 8.73-1.43 11.53-13.61 2.67-17.06a9.27 9.27 0 0 0 -11.3 3.86c-2.08 3.31-1.66 8.16 1.64 10.5a8.62 8.62 0 0 0 11.42-1.24c2.26-2.57 3.29-7.06 1.1-10a5.85 5.85 0 0 0 -5.5-2.11c-2.41.25-2.44 4 0 3.8 5.34-.56 2.31 7.31-1.95 7.37-6.58.09-4.44-9 1.16-9 6.28-.05 6.53 7.13 1.77 9.67a4.9238 4.9238 0 0 1 -7-2.42 5 5 0 0 1 2.9975-6.4043l.0726-.0257c2.34-.7 1.34-4.37-1-3.67z" fill="#21bced"/><path d="m79.8432 276.9387c-16.33.85-9.42 28.4 4.36 24.76 10.25-2.71 10.41-15.61 5-22.6-7.55-9.77-21.62.32-19.63 10.79.46 2.4 4.12 1.38 3.67-1-.81-4.24 2.16-8.18 6-9.59 4.44-1.6 7.8 2.4 9.17 6.09 1.79 4.8-.86 14-7.5 12.8-7.39-1.34-10.53-17-1.12-17.44 2.44-.13 2.45-3.93 0-3.8z" fill="#21bced"/><path d="m85.8632 277.1987c-14.41-6.8-24 17.93-9.87 23.88 9.33 3.94 17.38-4.45 17.73-13.41.4-9.84-11.43-16-18.17-8.07-1.58 1.86 1.1 4.56 2.68 2.69 2.76-3.25 6.33-3.49 9.48-.62 2.63 2.42 2.51 6.45 1.64 9.59-1.78 6.45-9.84 9.34-14.71 4.41-5.65-5.71 1.22-19 9.31-15.19 2.2 1 4.13-2.24 1.91-3.28z" fill="#21bced"/><path d="m97.0632 218.5787c2.13 2.17 4.12 4.58 6.72 6.21.63-1.1 1.27-2.19 1.91-3.28a15.7408 15.7408 0 0 1 -5.65-5.23c-1 .77-2 1.54-3 2.3a52.3669 52.3669 0 0 0 7.56 6.21 1.91 1.91 0 0 0 2.6-2.6c-1.8-2.69-3.67-5.45-6.59-7a1.91 1.91 0 0 0 -2.3 3 18.2328 18.2328 0 0 1 3.08 4.26c1.13 2.17 4.4.25 3.28-1.92a21.3529 21.3529 0 0 0 -3.68-5l-2.3 3c2.35 1.25 3.79 3.49 5.23 5.65l2.6-2.6a46.8551 46.8551 0 0 1 -6.79-5.61c-1.5-1.48-4.23.48-3 2.3a19.5192 19.5192 0 0 0 7 6.59 1.9457 1.9457 0 1 0 1.98-3.35c-2.29-1.45-4.05-3.69-5.94-5.61-1.72-1.75-4.41.94-2.69 2.68z" fill="#9ed7f5"/><path d="m116.6332 226.3787c-9.11-3.46-15.31 14-5 16.2 8.34 1.76 15.59-10.62 7.91-15.9-5.66-3.89-14.22 2.23-13.87 8.6.25 4.49 4.18 6.79 8.32 6.66 4.4-.14 8.41-2.69 9-7.19.51-3.7-1.06-7.32-5.29-6.68-2.42.36-1.39 4 1 3.66.78-.12.6 1.56.59 2a3.67 3.67 0 0 1 -1.48 3.08c-1.81 1.31-6.1 2.3-7.68.11-2.45-3.42 1.82-7.36 5.15-7.64 2-.17 3 1.18 3.44 3 .7 2.83-1.34 5.3-3.88 6.27-7.5 2.89-5.17-10.77.74-8.53 2.29.87 3.28-2.8 1-3.66z" fill="#21bced"/><path d="m116.5332 263.1687c-12.7 2.45-3.71 23.08 6.66 15.55 4.75-3.45 6-12.06.57-15.44-4.87-3-12.58.42-12.37 6.4.09 2.44 3.89 2.45 3.8 0-.12-3.54 4.56-4.41 7.06-2.87 3.26 2 .46 7.83-1.89 9.24-5 3-9.84-7.87-2.82-9.22 2.41-.47 1.38-4.12-1-3.66z" fill="#21bced"/><path d="m84.5532 153.1687c-6.94 1.14-8.48 9.24-5.64 14.72 3.18 6.14 12.53 5.33 16.29.18 7-9.55-12.2-23.56-17-9.64-.81 2.32 2.86 3.31 3.66 1 2.64-7.6 13 .31 10.73 5.67-1.55 3.65-7.87 4.58-10.12 1.28s-1.31-8.83 3.12-9.56c2.41-.4 1.39-4.06-1-3.66z" fill="#21bced"/><path d="m95.3832 305.1087a82.4342 82.4342 0 0 1 6.32 5.48c.77-1 1.54-2 2.3-3a56.7782 56.7782 0 0 0 -7.2-4c-.34 1.22-.67 2.45-1 3.67a23.5578 23.5578 0 0 1 5.49 3.3c.77-1 1.54-2 2.3-3a36.4562 36.4562 0 0 0 -5.06-3.37l-1.92 3.28a7.75 7.75 0 0 1 1.73 1c1.84 1.59 4.54-1.08 2.68-2.69a11.6967 11.6967 0 0 0 -2.49-1.56c-2.18-1.09-4.1 2.14-1.92 3.28a37.1844 37.1844 0 0 1 5.07 3.37c1.72 1.29 4-1.65 2.3-3a30.004 30.004 0 0 0 -7.17-4.29 1.9 1.9 0 0 0 -2.33 1.33 1.94 1.94 0 0 0 1.32 2.34 50.41 50.41 0 0 1 6.3 3.6 1.91 1.91 0 0 0 2.3-3 78.3811 78.3811 0 0 0 -6.33-5.48 1.92 1.92 0 0 0 -2.68 0 1.89 1.89 0 0 0 -.0071 2.6728l.0071.0072z" fill="#9ed7f5"/><path d="m118.3232 311.5987c-12.24-3.56-14.14 18.32-2.4 17.55a9.58 9.58 0 0 0 6.79-15.47c-5.63-7-18-.08-13.73 8.3 1.11 2.19 4.39.26 3.28-1.91-2.75-5.41 7.19-7.52 8.7-1.67.94 3.6-3.13 8.44-6.94 6.76-2.31-1-2.56-4.29-2.11-6.41.59-2.79 2.57-4.3 5.38-3.49 2.35.69 3.35-3 1-3.66z" fill="#21bced"/><path d="m74.5032 306.8587c-.33 2.15-.3 4.6-1.38 6.55l3.47 1.47.81-5c.39-2.39-3.26-3.42-3.66-1a22.5152 22.5152 0 0 1 -1.22 4.93 1.89 1.89 0 0 0 1.3131 2.3281l.0069.0019a1.94 1.94 0 0 0 2.34-1.32 22.5138 22.5138 0 0 0 1.22-4.93l-3.66-1-.81 5c-.32 2 2.36 3.47 3.47 1.46 1.29-2.32 1.37-4.9 1.76-7.47a1.94 1.94 0 0 0 -1.33-2.33 1.89 1.89 0 0 0 -2.3262 1.3164l-.0038.0136z" fill="#9ed7f5"/><path d="m69.5332 320.4587c-10.54-4.42-12.58 18.33.13 18.33 7.37 0 11.32-8.13 8.25-14.43-2.63-5.41-13.58-9.4-15.49-1.31-.57 2.38 3.09 3.39 3.66 1 .62-2.62 3.8-1.84 5.64-1a6.47 6.47 0 0 1 3.4 5.12c.54 4.28-3 7.81-7.3 6.54-4.48-1.33-4.72-12.89.7-10.62 2.25 1 3.23-2.72 1-3.66z" fill="#21bced"/><path d="m60.4432 241.4987c-6.12-.47-7.38 6.76-5.66 11.24 2.36 6.17 9.63 6.74 14.19 2.43 7.88-7.43-10.56-21.25-13.74-8.48-.59 2.38 3.07 3.39 3.66 1 1.48-6 9.86.64 7.74 4.37-.79 1.38-3.12 2.07-4.58 2.21-1.62.15-2.72-.95-3.46-2.26-1.14-2-1.56-7 1.85-6.72 2.44.18 2.42-3.61 0-3.8z" fill="#21bced"/><path d="m68.3132 221.7987c-.93 4.64-2.92 9-4.22 13.5l3.66 1c.42-1.56.94-3.08 1.48-4.6.32-.92.61-1.84.89-2.77a14.0082 14.0082 0 0 1 .45-2.33 1.92 1.92 0 0 0 -.84-3.17 1.91 1.91 0 0 0 -2.14.87 3.501 3.501 0 0 0 -.51 1.3c-.52 2.38 3.14 3.4 3.66 1a3.5451 3.5451 0 0 0 .13-.39l-2.16.9-.83-3.17c-1.18 1.35-1.2 3.23-1.71 4.93-.65 2.16-1.5 4.25-2.09 6.44a1.9 1.9 0 0 0 3.66 1c1.3-4.54 3.29-8.86 4.22-13.5.48-2.39-3.18-3.41-3.66-1z" fill="#9ed7f5"/><path d="m64.2832 265.0287c2.13 3 4 6.17 6.63 8.82 1.71 1.76 4.37-.92 2.68-2.68-2.3-2.4-3.82-5.44-5.91-8-1.54-1.9-4.21.8-2.68 2.68 2.09 2.59 3.59 5.61 5.91 8l2.68-2.68a64.0754 64.0754 0 0 1 -6-8.06c-1.4-2-4.7-.09-3.28 1.92z" fill="#9ed7f5"/><path d="m115.0732 247.1987c.06 3.53.79 7 .84 10.54a1.9 1.9 0 0 0 3.8 0c0-3.28.47-6.8-1.1-9.82-1.13-2.17-4.41-.25-3.28 1.92s.6 5.43.58 7.9h3.8c-.05-3.53-.78-7-.84-10.54 0-2.45-3.84-2.45-3.8 0z" fill="#9ed7f5"/><path d="m100.6332 284.2687c1.21-.82 2.32-1.93 3.76-2.34-.33-1.22-.67-2.44-1-3.66a18.54 18.54 0 0 0 -4.25 1.88 1.9 1.9 0 1 0 1.92 3.28c.53-.27 1.05-.59 1.57-.88l.83-.46.35-.17-.18.08c.34-.11.07-.12-.81 0l-.84-.49h.19a3.5692 3.5692 0 0 1 -.38-1.34 3.8911 3.8911 0 0 1 .08-1s.28-.39-.07 0c-1.7 1.76.94 4.45 2.64 2.69a2.19 2.19 0 0 0 .56-2.68c-.66-1.12-1.87-1.08-2.91-.63s-1.95 1.08-2.94 1.59l1.91 3.28a14.6023 14.6023 0 0 1 3.35-1.5c2.3-.77 1.36-4.32-1-3.66-1.83.51-3.15 1.68-4.68 2.72a1.94 1.94 0 0 0 -.68 2.6 1.9 1.9 0 0 0 2.5994.68h.0006z" fill="#9ed7f5"/><path d="m99.7132 284.8887c2.64-.95 4.75-2.72 7.21-4 2.17-1.13.25-4.41-1.92-3.28s-4 2.79-6.3 3.6-1.3 4.5 1 3.67z" fill="#9ed7f5"/><path d="m78.3732 140.0387a15.4914 15.4914 0 0 0 2.79 7.92 1.91 1.91 0 0 0 3.53-1 20.1693 20.1693 0 0 0 -2.15-8.55c-.83-1.72-3.61-.87-3.54 1 .09 2.51 1.14 4.53 2 6.84s4.49 1.3 3.67-1c-.69-1.93-1.76-3.73-1.83-5.83l-3.54 1a16.0019 16.0019 0 0 1 1.64 6.64l3.53-1a11.8786 11.8786 0 0 1 -2.27-6c-.08-2.44-3.88-2.45-3.79 0z" fill="#9ed7f5"/><path d="m5.9332 124.8487c-.2519 0-.5008-.0212-.7516-.0271a1.8062 1.8062 0 0 0 -2.1284-1.1728c-.4424.09-.8788.2036-1.3166.3115-.5767.08-1.157.12-1.7366.1691v5.8366c.4211-.0282.842-.0582 1.262-.0972h1.8213c-.01-.0777-.021-.164-.0315-.2437.1738-.0319.3483-.0581.5214-.0964a1.7121 1.7121 0 0 0 .7724-.3739 1.8911 1.8911 0 0 0 .7794-.5451c.3728.0156.745.0435 1.1182.0491 2.45 0 2.1301-3.77-.31-3.8101z" fill="#9ed7f5"/><g fill="#21bced"><path d="m0 168.0574v16.9276a9.789 9.789 0 0 0 6.5347.4372 8.7493 8.7493 0 0 0 4.5686-1.5835 7.6915 7.6915 0 0 0 2.7126-3.3248 12.1836 12.1836 0 0 0 1.7473-3.0752c3.1274-8.2054-9.5357-13.4681-15.5632-9.3813zm10.2072 10.6926a13.7865 13.7865 0 0 1 -4.8534 2.9976 5.7547 5.7547 0 0 1 -4.8656-3.749 1.7839 1.7839 0 0 0 -.005-1.82 3.4053 3.4053 0 0 1 -.4493-1.4186 5.4661 5.4661 0 0 1 .1294-.6714 6.0081 6.0081 0 0 1 .27-.7876 3.9912 3.9912 0 0 1 1.6508-1.3652 10.0258 10.0258 0 0 1 1.7218-.5714 6.9748 6.9748 0 0 1 4.0073.2342 5.3693 5.3693 0 0 1 2.394 7.1514z"/><path d="m432.551 339.3262a1.87 1.87 0 0 0 3-1.28 68.2039 68.2039 0 0 0 .25-13.55 1.7069 1.7069 0 0 0 -.07-.34 1.85 1.85 0 0 0 -.57-2 1.82 1.82 0 0 0 -.41-.36c-2.27-1.41-4.28-3.16-6.39-4.78a1.789 1.789 0 0 0 -.47-.25 1.46 1.46 0 0 0 -1.37-.64c-11.31.55-22.64 1.06-34 .69a1.78 1.78 0 0 0 -1.79 2.19 1.8406 1.8406 0 0 0 0 1.18c-1 4.36-.87 8.87-1.51 13.28a1.44 1.44 0 0 0 .66 1.54 1.75 1.75 0 0 0 .43 1.19c1.58 1.89 3.84 3 5.76 4.48a1.48 1.48 0 0 0 1.67.2 31.3861 31.3861 0 0 1 5-.49l-.18 4.27h3.62l.18-4.1v-.19l2.28.05c0 1.41-.1 2.83-.15 4.24h3.63c.07-2.13.15-4.25.2-6.38a1.86 1.86 0 0 0 -3-1.42 1.497 1.497 0 0 0 -.37 0 70.919 70.919 0 0 0 -10.1.23 23.2624 23.2624 0 0 1 -.05-3.92 56.56 56.56 0 0 0 .63-6.88c10.94 0 21.87-.89 32.81-.82a52.5205 52.5205 0 0 1 -.17 10.26c-3.26-.13-6.48-.39-9.71.26a1.73 1.73 0 0 0 -1.09 2.68 41.3352 41.3352 0 0 0 -1 6h3.56a36.4321 36.4321 0 0 1 1-5.43 57.469 57.469 0 0 1 7.72.09zm-37.3-6.35a13.0923 13.0923 0 0 0 -.06 2.65 11.11 11.11 0 0 1 -2.12-1.87l-.15-.14c.51-3.49.48-7.09 1-10.59l1.39 1.32a1.79 1.79 0 0 0 .57 1.52 35.0043 35.0043 0 0 1 -.64 7.11zm3.51-10.33c-.74-.71-1.47-1.43-2.22-2.12 9.85.15 19.71-.3 29.55-.77a2.9976 2.9976 0 0 0 .31.3c.77.58 1.52 1.18 2.27 1.78-9.98.12-19.95.89-29.92.81z"/><path d="m195.251 327.9662a1.76 1.76 0 0 0 1.3-1.24 1.931 1.931 0 0 0 .21-.84c0-4.52.77-9 1.16-13.46a10.1642 10.1642 0 0 0 -2.23-2.13 1.6806 1.6806 0 0 0 -.67-.58 59.4405 59.4405 0 0 1 -8.22-4.3 1.63 1.63 0 0 0 -1.19-.32 1.54 1.54 0 0 0 -1.33-.61c-9.36.17-18.71.23-28.07-.16a1.62 1.62 0 0 0 -1.31.49 1.67 1.67 0 0 0 -1.44 1.63c-.24 5.45-.35 10.91-.59 16.36a1.8213 1.8213 0 0 0 .06.54 1.74 1.74 0 0 0 .75 1.34 25.5586 25.5586 0 0 0 6.14 3.49 1.71 1.71 0 0 0 1.37.76c1.49 0 3 .06 4.42.06-.44 5.22-.71 10.45-.89 15.69h3.62c.18-5.18.45-10.36.88-15.52a2.4319 2.4319 0 0 0 0-.27 14.1974 14.1974 0 0 0 1.59-.13q0 8-.09 15.92h3.62c.05-6 .09-12 .09-17.92a1.83 1.83 0 0 0 -2.21-1.84 44.0967 44.0967 0 0 1 -9 .43c.16-3.85.16-7.69.69-11.53 10.1-.1 20.21-.39 30.3-.07-.37 3.67-.89 7.32-1 11-2.82.44-5.87-.11-8.7.19a1.49 1.49 0 0 0 -1.31 2 2.0058 2.0058 0 0 0 0 .51c.4 5.75.55 11.49.57 17.24h3.61c0-5.44-.16-10.89-.52-16.33 2.69-.0799 5.63.3601 8.39-.4zm-35.7-3.81a23.3814 23.3814 0 0 1 -3.1-1.9c.15-3.62.27-7.24.39-10.87a13.3684 13.3684 0 0 0 2.49 1.76 1.46 1.46 0 0 0 .86.59 103.8438 103.8438 0 0 0 -.64 10.4201zm1.91-14a9.75 9.75 0 0 1 -2.94-2.18c8.51.28 17 .23 25.53.08a1.6541 1.6541 0 0 0 .33 0 1.8605 1.8605 0 0 0 .4.39 25.5631 25.5631 0 0 0 2.49 1.53c-8.58-.08-17.18.16-25.79.21z"/><path d="m321.411 343.3163a1.75 1.75 0 0 0 -1-.36c-2.3-.07-4.84.37-7.11-.2.09-.61.18-1.16.23-1.6.22-2.07.56-4.12.79-6.19a99.3765 99.3765 0 0 0 13.36.44 1.83 1.83 0 0 0 3.26-1v-.37a1.7953 1.7953 0 0 0 0-.4c.12-3.91-.18-7.84.06-11.75a1.7307 1.7307 0 0 0 -.1-.74v-.11a1.84 1.84 0 0 0 -.57-2.23 32.13 32.13 0 0 1 -3.29-3.41 11.1591 11.1591 0 0 0 -4.7-3 2.4705 2.4705 0 0 1 -2.13-.72c-9.54-1.37-19.05-.39-28.61.09a1.87 1.87 0 0 0 -1.75 1.45 1.64 1.64 0 0 0 -1 1.51c-.49 10-.77 20-1.58 30h3.42c.65-9.28 1.2-18.54 1.67-27.85 1.92 1.24 3.31 3.35 5.13 4.76a229.9953 229.9953 0 0 0 -2.39 23.09h3.66a224.2087 224.2087 0 0 1 2.32-23.06c8.65-.71 17.6.45 26.26 1-.13 3.06 0 6.13 0 9.2a106.1013 106.1013 0 0 1 -14.79-.64 1.73 1.73 0 0 0 -1.75 2.32c-.29 3.14-1.47 7.36-1.47 11.15h14.09c-.09-.15-.2-.29-.28-.44a1.67 1.67 0 0 0 -1.73-.94zm-22.21-25.14h-.21c-1.17-1-2.15-2.08-3.21-3.1 8.1-.48 16.17-1 24.26.15a2.1755 2.1755 0 0 0 .35 0 1.7089 1.7089 0 0 0 .83.53 9.9106 9.9106 0 0 1 4.18 3.07c-8.7-.5601-17.55-1.52-26.2-.65z"/><path d="m280.771 319.4263a2.07 2.07 0 0 0 -.71-2.2 1.88 1.88 0 0 0 -.65-1c-2.34-1.89-5.22-2.92-7.64-4.68a1.58 1.58 0 0 0 -1-.34c-3.36-1.05-7.06.08-10.46-.66a1.89 1.89 0 0 0 -.82 0 1.86 1.86 0 0 0 -2.08-.17 1.92 1.92 0 0 0 -1 2.68c-.57 2.9-.92 5.84-1.26 8.77q-.08-3-.22-6a1.83 1.83 0 0 0 -1.28-1.7l-.14-.23a10.0009 10.0009 0 0 0 -3.05-2.67 2 2 0 0 0 -2.15-1.78c-3.85.35-7.68-.29-11.52.34a.6968.6968 0 0 0 -.14 0 1.7 1.7 0 0 0 -1.61.21 1.78 1.78 0 0 0 -1.63 1.64c-.74 7.67-.68 15.6-2.22 23.19a121.6882 121.6882 0 0 1 -1.39-21.05 1.75 1.75 0 0 0 -1.93-1.82 1.6 1.6 0 0 0 -1-.63 25.7485 25.7485 0 0 1 -5.4-2.28 1.71 1.71 0 0 0 -1.62-1.32c-4.82-.22-8.07-.31-12.06-.22a1.83 1.83 0 0 0 -1.36.6 1.75 1.75 0 0 0 -1.44.22 1.7794 1.7794 0 0 0 -1.58 2.13q3.27 17 5.35 34.23h3.3c-1.33-10.35-2.58-20.69-4.39-31 1.26 1.36 2.48 2.75 4.4 3.33h.06a2.386 2.386 0 0 0 0 .27c.78 9.14 2 18.26 3.31 27.38h3.59c-1.26-9.07-2.52-18.13-3.29-27.21a2 2 0 0 0 -.19-.73 50.2808 50.2808 0 0 1 10.6-.47c0 9.52 1.36 19 3 28.39h3.66l-.26-1.52a1.8345 1.8345 0 0 0 .23-.44c3.29-8.81 3.32-18.35 4-27.65a14.6249 14.6249 0 0 1 .82 1.32c.73 9.6-1.52 18.94-3.39 28.32h3.55c1.71-8.81 3.75-17.58 3.5-26.6l10.2.46c.3 7.78.34 15.56.73 23.33.05.94.11 1.88.18 2.81h3.63c-.06-.88-.14-1.76-.2-2.64-.07-1.21-.13-2.41-.19-3.62a1.3106 1.3106 0 0 0 .08-.17c2.55-7.22 2.61-14.84 3.86-22.29l.15.17a18.7963 18.7963 0 0 0 1.78 1.79 2.002 2.002 0 0 0 -.09.29c-1.78 8.79-2.61 17.64-3.7 26.47h3.58c1-8.23 1.82-16.48 3.43-24.69a46.77 46.77 0 0 0 13.36.56c-1.75 8.12-4.14 16.13-6.64 24.13h3.77c2.41-7.72 4.7-15.45 6.37-23.29a1.86 1.86 0 0 0 -.79-1.96zm-67.33-6-.32.1a7.7992 7.7992 0 0 1 -3.24-2.47c2.66 0 5.23.06 8.4.19a2.6521 2.6521 0 0 0 .76.55l1.89.94a46.917 46.917 0 0 0 -7.49.71zm27.56 1a1.34 1.34 0 0 0 -1-1.09l-.2-.3c2.28-.14 4.58 0 6.87 0a2.08 2.08 0 0 0 .9.69 7.5786 7.5786 0 0 1 1.88 1.09zm24.46 2a1.42 1.42 0 0 0 -.62-.64 7.43 7.43 0 0 1 -2.06-1.59c2.49 0 5-.32 7.29.52a47.4453 47.4453 0 0 0 4.14 2.41 40.8943 40.8943 0 0 1 -8.75-.65z"/><path d="m365.851 336.3563a69.3075 69.3075 0 0 0 13.36.44 1.82 1.82 0 0 0 1.36-.66 1.8505 1.8505 0 0 0 .53-1.07c.63-4.31 1.21-8.62 1.43-13a1.6 1.6 0 0 0 -.68-1.48 1.48 1.48 0 0 0 -.8-.71 1.72 1.72 0 0 0 -.55-.52 29.7131 29.7131 0 0 1 -6.16-4.42 1.54 1.54 0 0 0 -1.6-1.2c-8.57.07-17.13.64-25.7.71a1.76 1.76 0 0 0 -1.45.74 1.82 1.82 0 0 0 -1.4017 2.1587l.0117.0513a195.8205 195.8205 0 0 0 -2.72 27.33h3.55a191.3286 191.3286 0 0 1 2.31-24.8 28.2939 28.2939 0 0 1 3.27 2.4c-1.06 7.4-1.71 14.86-2.06 22.4h3.62c.33-7 .89-13.88 1.85-20.78 8.26.57 16.53-.63 24.8-.54-.23 3.31-.63 6.6-1.1 9.88a52.27 52.27 0 0 1 -12.56-.64 1.93 1.93 0 0 0 -2.26 1.38 1.81 1.81 0 0 0 -.55 1.08 51.5208 51.5208 0 0 0 -.11 9.62h3.6a59.2387 59.2387 0 0 1 .01-8.37zm-11.57-16.06a1.6 1.6 0 0 0 -1.49-.87v-.05a20.2924 20.2924 0 0 0 -1.79-1.4c6.89-.17 13.79-.53 20.68-.61a19.731 19.731 0 0 0 2.83 2.4c-6.76.27-13.4901.96-20.2301.53z"/><path d="m22.9937 249.5782c.0007-.0473-.0018-.0937-.0007-.141a1.8269 1.8269 0 0 0 -.21-.92c-.93-4.2792-2.95-9.0565-6.04-10.14-5.3436-1.8472-11.0308-1.8239-16.743-1.1281v4.0009c2.2563-.1011 4.5142-.1523 6.723-.2627 4.43-.23 8.27-.4 10.48 3.81a18.9987 18.9987 0 0 1 1.9768 5.4033 79.6429 79.6429 0 0 0 .6731 11.5867 151.4155 151.4155 0 0 1 .88 16.9c.16 6.22.81 12.4.82 18.64.01 5.9979 1.3012 14.9551-4.3072 18.75a100.19 100.19 0 0 0 -10.0627 1.89 37.7917 37.7917 0 0 1 -7.183.7149v3.6823a45.8661 45.8661 0 0 0 6.493-.5373c3.4841-.5727 6.9176-1.4638 10.42-1.9035a1.7969 1.7969 0 0 0 1.55-.1265c4.23-2.28 6.17-4.5 6.62-9.34.69-7.41.38-15.14.1-22.57s-.3-14.85-.83-22.2c-.2583-3.7118-.8423-7.3281-1.1567-11.0029a1.9874 1.9874 0 0 0 .1667-.6871 20.1253 20.1253 0 0 0 -.3693-4.419z"/><path d="m4.5974 332.4165a8.2719 8.2719 0 0 0 2.4856-2.4992 1.7124 1.7124 0 0 0 -.6385-2.4968l-.0033-.0051a1.8887 1.8887 0 0 0 -.141-.2241c-.0185-.0245-.04-.0464-.06-.07a1.8781 1.8781 0 0 0 -.1439-.1689c-.017-.0162-.0384-.0264-.0557-.042-.0288-.0254-.0625-.0461-.0932-.07a1.91 1.91 0 0 0 -.6348-.3432 5.4228 5.4228 0 0 0 -4.4172-.0811 6.43 6.43 0 0 0 -.8954.1029v7.4678a3.96 3.96 0 0 0 4.5974-1.5703z"/><path d="m34.7131 234.1673a1.7647 1.7647 0 0 0 -.3307-1.133l.0007-.0071c-.17-10.39-11-12.55-19.32-12.78-5.0252-.0471-10.0486.0993-15.063.4045v3.8864c.579-.0495 1.1541-.0915 1.723-.1208 7.54-.4 28.67-3.69 28.86 8.61a1.8059 1.8059 0 0 0 .3366 1.09c-.001.0175-.006.0321-.0065.05-.81 25 3 49.9 2.15 74.9a2.0511 2.0511 0 0 0 .0212.3185 2.12 2.12 0 0 0 -.0611.4315c-.22 5.34-.16 10.62-.19 16 0 9.16-7.81 12.19-15.53 11.15a1.9931 1.9931 0 0 0 -1.8007.6622c-5.211.1085-10.2334.8022-15.5023.448v3.7938c5.6879.2851 11.1118-.4447 16.7731-.4741a1.75 1.75 0 0 0 1.38-.596c5.3045.52 11.19.1279 14.66-4.604 5.57-7.61 3.65-17.49 4-26.38a2.0427 2.0427 0 0 0 -.0159-.2951 2.0889 2.0889 0 0 0 .0659-.4549c.7997-25-3.0004-49.8899-2.1503-74.8999z"/><path d="m8.593 228.9772c-2.8816.0566-5.7346.4259-8.593.7531v3.7929c2.8584-.3282 5.7114-.695 8.593-.746 2.45 0 2.45-3.8401 0-3.8z"/></g><path d="m9.863 256.8272q-4.9165.68-9.863 1.086v3.7954q4.9439-.4116 9.863-1.0813c2.3901-.3001 2.4201-4.1001 0-3.8001z" fill="#9ed7f5"/><path d="m0 254.4415c2.9994-.3621 5.9939-.7667 9.0131-.9943 2.43-.18 2.45-4 0-3.79-3.0138.2228-6.0124.63-9.0131.9947z" fill="#9ed7f5"/><path d="m6.063 310.4073a1.9 1.9 0 0 0 0 3.8s2.53-3.8 0-3.8z" fill="#9ed7f5"/><path d="m1.0031 310.4073a1.8846 1.8846 0 0 0 -1.0031.2953v3.21a1.8838 1.8838 0 0 0 1.0031.2951 1.9 1.9 0 0 0 0-3.8z" fill="#9ed7f5"/><path d="m11.1631 299.1273c-.5327-5.3008-.4371-17.9421-6.9291-19.6008a1.6146 1.6146 0 0 0 .2723-.8394 5.049 5.049 0 0 0 1.9268-1.65 6.54 6.54 0 0 0 -.15-6.93 5.8968 5.8968 0 0 0 -5.56-2.4125 3.5327 3.5327 0 0 0 -.7231-.1296v36.1811c2.5439-.14 5.1018-.17 7.6355-.39a6.0554 6.0554 0 0 0 2.5676.1008 1.88 1.88 0 0 0 1.39-1.83v-.42a1.9288 1.9288 0 0 0 -.6636-1.4021 1.0813 1.0813 0 0 0 .2336-.6775zm-6.6192-14.764c.0008-.0173 0-.0339.0005-.0508.0183.0217.0354.046.0534.0682-.0178-.0065-.0358-.0115-.0539-.0174z" fill="#9ed7f5"/></svg>