<svg viewBox="0 0 416.62 645.96" xmlns="http://www.w3.org/2000/svg"><g fill="#f9f5eb"><path d="m416.43 47.3a1.6 1.6 0 0 0 -.27-.59l.23-.46c.01.35.03.75.04 1.05z"/><path d="m394.24 141.47a6.77 6.77 0 0 0 1.25-1.26 9.55 9.55 0 0 0 -.59 2.06 2 2 0 0 0 -.66-.8z"/><path d="m394.52 79.67-.65.6a2.17 2.17 0 0 0 -1.24-1l1.17-.79a2.29 2.29 0 0 0 .72 1.19z"/><path d="m388 66.44-.52.3z"/><path d="m346.49 169.78h-.25a1.73 1.73 0 0 0 -.78-1c.34-.4.67-.8 1-1.19-.03.74-.01 1.47.03 2.19z"/><path d="m393.58 45.17-1.76 1.49a1.22 1.22 0 0 0 -.17-.29c.63-.37 1.27-.82 1.93-1.2z"/><path d="m394.62 144.45.14-.19a.41.41 0 0 0 0 .11 2 2 0 0 0 .26.91c-.68.35-1.36.69-2 1 .51-.59 1.07-1.2 1.6-1.83z"/><path d="m372.87 14.69c2-.25 4.11-1.82 5.92-3.4.26.09.52.16.78.23h-.05a57.39 57.39 0 0 1 -6.91 4c.09-.23.18-.52.26-.83z"/><path d="m330.55 16.13-1.14 1a2.32 2.32 0 0 0 -.31-.44c.46-.91 1-1.82 1.56-2.72 0 .45-.06.84-.07 1.15s-.03.69-.04 1.01z"/><path d="m368.68 14.38c0-.1-.09-.2-.13-.31h.24c-.04.07-.07.19-.11.31z"/><path d="m403.41 135.27c.06-.34.13-.67.18-1 0-.08.09-.16.14-.24v1.3z"/><path d="m403.77 143.8a1.94 1.94 0 0 0 -2.1-.78c.68-1.12 1.5-2.19 2.27-3.22l.12 4.11a1.43 1.43 0 0 0 -.29-.11z"/><path d="m410.6 4.38a1.71 1.71 0 0 0 -1.11-.68c.37-.22.73-.44 1.09-.68.01.45.01.9.02 1.36z"/><path d="m371.42 3.48a15.87 15.87 0 0 0 -3.84 1.36 1.73 1.73 0 0 0 -.37.11 2.46 2.46 0 0 0 -.58-.39 38.21 38.21 0 0 1 5.06-1.27z"/><path d="m370.16 113.88a1.71 1.71 0 0 0 -.52-.38l1.39-.58c-.28.32-.58.64-.87.96z"/><path d="m371.17 34.79a12.54 12.54 0 0 0 -.3 1.75c-.44.5-.9 1-1.36 1.46.6-1 1.16-2.11 1.66-3.21z"/><path d="m363.06 52.07a22.08 22.08 0 0 0 2.6-.48c-.88.37-1.76.79-2.66 1.25 0-.26 0-.52.06-.77z"/><path d="m372.84 49.05q1.31-.11 2.61-.09a3.37 3.37 0 0 0 .19.32 26.81 26.81 0 0 0 -5.15.71c.78-.3 1.56-.62 2.35-.94z"/><path d="m408.67 55.45a20.69 20.69 0 0 0 2.72-1 9.9 9.9 0 0 1 -3.52 1.71z"/><path d="m414.87 0 .06 3a2.17 2.17 0 0 0 -.56-.13 1.75 1.75 0 0 0 -1.25-1.61z"/><path d="m378.58 97.7.12-.13a62.94 62.94 0 0 1 9.12 1.83 1.93 1.93 0 0 0 0 .24 36.52 36.52 0 0 0 -9.24-1.94z"/><path d="m415.45 51.28a5.82 5.82 0 0 0 1-3.11l.15 3.66a1.79 1.79 0 0 0 -1.15-.55z"/><path d="m54.51 52.93a1.68 1.68 0 0 0 -.27-.59l.23-.45c.01.35.03.69.04 1.04z"/><path d="m44.36 40.77a7 7 0 0 0 1.24-1.26 10.84 10.84 0 0 0 -.6 2.06 2 2 0 0 0 -.64-.8z"/><path d="m38.48 29.11-.66.59a2.12 2.12 0 0 0 -1.23-1l1.17-.79a2.32 2.32 0 0 0 .72 1.2z"/><path d="m45.3 147.13-.65.6a2.09 2.09 0 0 0 -1.24-1l1.17-.79a2.33 2.33 0 0 0 .72 1.19z"/><path d="m.48 75.64-.48.36z"/><path d="m1.59 146.81h-.25a1.73 1.73 0 0 0 -.78-1c.35-.4.67-.8 1-1.19-.03.74-.01 1.47.03 2.19z"/><path d="m9.09 207.24a1.15 1.15 0 0 0 -.26 0 1.72 1.72 0 0 0 -.77-1c.34-.41.66-.81 1-1.2-.06.75-.06 1.47.03 2.2z"/><path d="m31.66 50.8-1.76 1.5a1.11 1.11 0 0 0 -.17-.3c.63-.41 1.27-.81 1.93-1.2z"/><path d="m128.47 84.79a2.14 2.14 0 0 0 .13-.19v.11a2 2 0 0 0 .27.91c-.68.35-1.37.69-2.06 1 .57-.62 1.12-1.2 1.66-1.83z"/><path d="m62.75 112.5c2-.25 4.11-1.82 5.91-3.4.26.09.53.15.79.23a57.39 57.39 0 0 1 -6.91 4c.04-.23.13-.53.21-.83z"/><path d="m116.91 28.24-1.15 1a1.9 1.9 0 0 0 -.3-.44c.46-.91 1-1.82 1.56-2.72 0 .45-.06.84-.07 1.15s-.03.68-.04 1.01z"/><path d="m6.76 20c0-.11-.09-.21-.13-.31l.24-.05c-.04.14-.07.26-.11.36z"/><path d="m53.52 34.57c.06-.34.13-.67.18-1 0-.08.1-.16.14-.24v1.3a1.93 1.93 0 0 0 -.32-.06z"/><path d="m145.88 43.74a1.94 1.94 0 0 0 -2.1-.77c.68-1.11 1.5-2.18 2.27-3.21l.12 4.11z"/><path d="m54.44 231.46a1.94 1.94 0 0 0 -2.1-.77v-.05c.68-1.11 1.5-2.18 2.27-3.21l.12 4.11z"/><path d="m127.73 128.37a1.94 1.94 0 0 0 -2.1-.77c.68-1.11 1.5-2.18 2.27-3.21l.12 4.11z"/><path d="m48.68 10a1.75 1.75 0 0 0 -1.11-.68l1.1-.67c0 .46 0 .91.01 1.35z"/><path d="m9.5 9.11a16.34 16.34 0 0 0 -3.84 1.37 1.3 1.3 0 0 0 -.37.11 2 2 0 0 0 -.58-.39 38 38 0 0 1 5.07-1.28z"/><path d="m104.11 130a15.72 15.72 0 0 0 -3.84 1.36 1.36 1.36 0 0 0 -.38.11 1.74 1.74 0 0 0 -.58-.39 38.39 38.39 0 0 1 5.07-1.28z"/><path d="m1.68 11.94a1.43 1.43 0 0 0 -.52-.38c.46-.21.93-.4 1.39-.59-.28.33-.55.65-.87.97z"/><path d="m9.25 40.42a12.68 12.68 0 0 0 -.25 1.76c-.44.49-.9 1-1.36 1.46.55-1.05 1.11-2.12 1.61-3.22z"/><path d="m.59 108.11a22.47 22.47 0 0 0 2.6-.48c-.88.37-1.77.79-2.67 1.25.03-.25.03-.52.07-.77z"/><path d="m10.92 54.69a25.29 25.29 0 0 1 2.61-.09 3.21 3.21 0 0 0 .19.31 26.83 26.83 0 0 0 -5.15.72z"/><path d="m68.49 94.81a18.91 18.91 0 0 0 2.72-1 9.5 9.5 0 0 1 -3.52 1.71c.31-.24.54-.47.8-.71z"/><path d="m53 5.64.06 3a2.19 2.19 0 0 0 -.56-.14 1.72 1.72 0 0 0 -1.25-1.6z"/><path d="m169 87.72.06 3a2.19 2.19 0 0 0 -.56-.14 1.72 1.72 0 0 0 -1.25-1.6c.62-.39 1.21-.82 1.75-1.26z"/><path d="m21.28 89.37.13-.13a64.55 64.55 0 0 1 9.12 1.82 1 1 0 0 0 0 .25 36.1 36.1 0 0 0 -9.25-1.94z"/><path d="m110.62 56.39a5.87 5.87 0 0 0 1-3.1l.15 3.65a1.91 1.91 0 0 0 -1.15-.55z"/><path d="m240.62 52.93a1.88 1.88 0 0 0 -.27-.59l.23-.45c.01.35.02.69.04 1.04z"/><path d="m230.46 40.77a6.77 6.77 0 0 0 1.25-1.26 10.16 10.16 0 0 0 -.59 2.06 2 2 0 0 0 -.66-.8z"/><path d="m224.58 29.11-.65.59a2.12 2.12 0 0 0 -1.23-1l1.17-.79a2.23 2.23 0 0 0 .71 1.2z"/><path d="m231.41 147.13-.65.6a2.09 2.09 0 0 0 -1.24-1l1.17-.79a2.33 2.33 0 0 0 .72 1.19z"/><path d="m186.59 75.64-.52.3z"/><path d="m187.7 146.81h-.25a1.73 1.73 0 0 0 -.78-1c.35-.4.67-.8 1-1.19-.03.74-.01 1.47.03 2.19z"/><path d="m195.19 207.24h-.25a1.76 1.76 0 0 0 -.77-1q.51-.62 1-1.2c-.04.75-.02 1.47.02 2.2z"/><path d="m217.77 50.8-1.77 1.5a1.46 1.46 0 0 0 -.17-.3c.64-.41 1.28-.81 1.94-1.2z"/><path d="m314.57 84.79a2.31 2.31 0 0 0 .14-.19v.11a2.07 2.07 0 0 0 .26.91c-.67.35-1.36.69-2.05 1 .57-.62 1.08-1.2 1.65-1.83z"/><path d="m248.86 112.5c2-.25 4.11-1.82 5.91-3.4.26.09.52.15.79.23h-.06a57.26 57.26 0 0 1 -6.9 4c.09-.23.17-.53.26-.83z"/><path d="m303 28.24-1.14 1a1.9 1.9 0 0 0 -.3-.44 30.06 30.06 0 0 1 1.56-2.72c0 .45-.06.84-.08 1.15s-.04.68-.04 1.01z"/><path d="m192.87 20-.13-.31.23-.05c-.03.14-.06.26-.1.36z"/><path d="m239.63 34.57c.06-.34.13-.67.18-1l.14-.24v1.3a2.25 2.25 0 0 0 -.32-.06z"/><path d="m332 43.74a2 2 0 0 0 -2.11-.77c.68-1.11 1.5-2.18 2.26-3.21q.08 2.05.12 4.11z"/><path d="m240.55 231.46a2 2 0 0 0 -2.11-.77v-.05c.68-1.11 1.5-2.18 2.26-3.21q.08 2.06.12 4.11z"/><path d="m313.84 128.37a1.94 1.94 0 0 0 -2.1-.77c.68-1.11 1.5-2.18 2.26-3.21q.08 2.05.12 4.11z"/><path d="m234.79 10a1.75 1.75 0 0 0 -1.11-.68l1.09-.67c.01.46.01.91.02 1.35z"/><path d="m195.61 9.11a16.18 16.18 0 0 0 -3.84 1.37 1.36 1.36 0 0 0 -.38.11 1.74 1.74 0 0 0 -.58-.39 38.39 38.39 0 0 1 5.07-1.28z"/><path d="m290.22 130a15.79 15.79 0 0 0 -3.85 1.36 1.4 1.4 0 0 0 -.37.11 1.85 1.85 0 0 0 -.58-.39 38.39 38.39 0 0 1 5.07-1.28z"/><path d="m187.79 11.94a1.62 1.62 0 0 0 -.52-.38c.46-.21.92-.4 1.39-.59z"/><path d="m195.36 40.42a11.35 11.35 0 0 0 -.3 1.76c-.44.49-.9 1-1.36 1.46.6-1.05 1.16-2.12 1.66-3.22z"/><path d="m186.7 108.11a22.47 22.47 0 0 0 2.6-.48c-.88.37-1.77.79-2.67 1.25.03-.25.03-.52.07-.77z"/><path d="m197 54.69a25.29 25.29 0 0 1 2.61-.09 3.21 3.21 0 0 0 .19.31 26.83 26.83 0 0 0 -5.15.72z"/><path d="m254.6 94.81a19.36 19.36 0 0 0 2.72-1 9.57 9.57 0 0 1 -3.52 1.71z"/><path d="m239.06 5.64c0 1 0 2 .06 3a2.19 2.19 0 0 0 -.56-.14 1.73 1.73 0 0 0 -1.26-1.6z"/><path d="m355.15 87.72c0 1 0 2 .06 3a2.19 2.19 0 0 0 -.56-.14 1.73 1.73 0 0 0 -1.26-1.6c.61-.39 1.17-.82 1.76-1.26z"/><path d="m207.39 89.37a1.59 1.59 0 0 1 .13-.13 64.55 64.55 0 0 1 9.12 1.82 1 1 0 0 0 0 .25 36.1 36.1 0 0 0 -9.25-1.94z"/><path d="m296.73 56.39a5.78 5.78 0 0 0 1-3.1c.06 1.21.11 2.43.16 3.65a1.94 1.94 0 0 0 -1.16-.55z"/><path d="m416.43 263.2a1.63 1.63 0 0 0 -.27-.58l.23-.46c.01.35.03.7.04 1.04z"/><path d="m394.24 357.38a6.77 6.77 0 0 0 1.25-1.26 9.55 9.55 0 0 0 -.59 2.06 1.93 1.93 0 0 0 -.66-.8z"/><path d="m394.52 295.58-.65.6a2.13 2.13 0 0 0 -1.24-1l1.17-.79a2.29 2.29 0 0 0 .72 1.19z"/><path d="m388 282.35-.52.3z"/><path d="m346.49 385.69h-.25a1.73 1.73 0 0 0 -.78-1c.34-.4.67-.8 1-1.19-.03.74-.01 1.5.03 2.19z"/><path d="m393.58 261.08-1.76 1.49a1.52 1.52 0 0 0 -.17-.3c.63-.41 1.27-.81 1.93-1.19z"/><path d="m394.62 360.36.14-.19a.41.41 0 0 0 0 .11 2 2 0 0 0 .26.91c-.68.35-1.36.69-2 1 .51-.59 1.07-1.19 1.6-1.83z"/><path d="m372.87 230.6c2-.25 4.11-1.82 5.92-3.4.26.09.52.15.78.23h-.05a57.39 57.39 0 0 1 -6.91 4c.09-.23.18-.53.26-.83z"/><path d="m330.55 232-1.14 1a2.32 2.32 0 0 0 -.31-.44c.46-.91 1-1.82 1.56-2.72 0 .45-.06.84-.07 1.15s-.03.73-.04 1.01z"/><path d="m368.68 230.29c0-.1-.09-.2-.13-.31h.24c-.04.07-.07.19-.11.31z"/><path d="m403.41 351.18c.06-.34.13-.67.18-1 0-.08.09-.16.14-.24v1.3a1.51 1.51 0 0 0 -.32-.06z"/><path d="m403.77 359.71a1.94 1.94 0 0 0 -2.1-.78c.68-1.12 1.5-2.19 2.27-3.22l.12 4.11a1.43 1.43 0 0 0 -.29-.11z"/><path d="m410.6 220.29a1.71 1.71 0 0 0 -1.11-.68c.37-.22.73-.44 1.09-.68.01.45.01.9.02 1.36z"/><path d="m371.42 219.39a15.87 15.87 0 0 0 -3.84 1.36 1.73 1.73 0 0 0 -.37.11 2.19 2.19 0 0 0 -.58-.39 36.72 36.72 0 0 1 5.06-1.27z"/><path d="m370.16 329.79a1.56 1.56 0 0 0 -.52-.38c.46-.2.93-.4 1.39-.58-.28.32-.58.64-.87.96z"/><path d="m371.17 250.7a12.29 12.29 0 0 0 -.3 1.75c-.44.5-.9 1-1.36 1.46.6-1.05 1.16-2.11 1.66-3.21z"/><path d="m363.06 268a22.08 22.08 0 0 0 2.6-.48c-.88.37-1.76.79-2.66 1.25 0-.28 0-.54.06-.77z"/><path d="m372.84 265q1.31-.1 2.61-.09a3.37 3.37 0 0 0 .19.32 26.81 26.81 0 0 0 -5.15.71c.78-.34 1.56-.66 2.35-.94z"/><path d="m403.67 272.37h-.1z"/><path d="m408.67 271.36a20.69 20.69 0 0 0 2.72-1 9.9 9.9 0 0 1 -3.52 1.71z"/><path d="m414.87 215.91.06 3a2.17 2.17 0 0 0 -.56-.13 1.74 1.74 0 0 0 -1.25-1.61z"/><path d="m378.58 313.61.12-.13a64.27 64.27 0 0 1 9.12 1.82 2 2 0 0 0 0 .25 36.52 36.52 0 0 0 -9.24-1.94z"/><path d="m415.45 267.19a5.82 5.82 0 0 0 1-3.11l.15 3.66a1.79 1.79 0 0 0 -1.15-.55z"/><path d="m54.51 268.84a1.68 1.68 0 0 0 -.27-.59l.23-.45c.01.35.03.69.04 1.04z"/><path d="m44.36 256.68a7 7 0 0 0 1.24-1.26 10.84 10.84 0 0 0 -.59 2.06 1.91 1.91 0 0 0 -.65-.8z"/><path d="m38.48 245-.66.59a2.12 2.12 0 0 0 -1.23-1l1.17-.79a2.32 2.32 0 0 0 .72 1.2z"/><path d="m45.3 363-.65.6a2.15 2.15 0 0 0 -1.24-1l1.17-.78a2.33 2.33 0 0 0 .72 1.18z"/><path d="m.48 291.55-.52.3z"/><path d="m1.59 362.72h-.25a1.73 1.73 0 0 0 -.78-1c.35-.4.67-.8 1-1.19-.03.74-.01 1.47.03 2.19z"/><path d="m9.09 423.15a1.15 1.15 0 0 0 -.26 0 1.72 1.72 0 0 0 -.77-1c.34-.41.66-.81 1-1.2-.06.75-.06 1.47.03 2.2z"/><path d="m31.66 266.71-1.76 1.5a1.11 1.11 0 0 0 -.17-.3c.63-.41 1.27-.82 1.93-1.2z"/><path d="m128.47 300.7a2.14 2.14 0 0 0 .13-.19v.11a2 2 0 0 0 .27.91c-.68.35-1.37.68-2.06 1 .57-.59 1.12-1.2 1.66-1.83z"/><path d="m62.75 328.41c2-.25 4.11-1.82 5.91-3.4.26.09.53.15.79.23a57.39 57.39 0 0 1 -6.91 4c.04-.24.13-.53.21-.83z"/><path d="m116.91 244.15-1.15 1a1.9 1.9 0 0 0 -.3-.44c.46-.91 1-1.82 1.56-2.72 0 .45-.06.84-.07 1.15s-.03.68-.04 1.01z"/><path d="m6.76 235.93c0-.11-.09-.21-.13-.31l.24-.05c-.04.12-.07.24-.11.36z"/><path d="m53.52 250.47c.06-.33.13-.66.18-1 0-.08.1-.16.14-.24v1.3a1.91 1.91 0 0 0 -.32-.06z"/><path d="m145.88 259.65a1.94 1.94 0 0 0 -2.1-.77v-.05c.68-1.11 1.5-2.18 2.27-3.21l.12 4.11z"/><path d="m54.44 447.37a1.94 1.94 0 0 0 -2.1-.77v-.05c.68-1.11 1.5-2.18 2.27-3.21l.12 4.11z"/><path d="m127.73 344.28a1.94 1.94 0 0 0 -2.1-.77v-.05c.68-1.11 1.5-2.18 2.27-3.21l.12 4.11z"/><path d="m48.68 225.92a1.75 1.75 0 0 0 -1.11-.68l1.1-.67c0 .43 0 .9.01 1.35z"/><path d="m9.5 225a16.34 16.34 0 0 0 -3.84 1.37 1.3 1.3 0 0 0 -.37.11 2 2 0 0 0 -.58-.39 38 38 0 0 1 5.07-1.28z"/><path d="m104.11 345.88a15.72 15.72 0 0 0 -3.84 1.36 1.36 1.36 0 0 0 -.38.11 1.74 1.74 0 0 0 -.58-.39 38.39 38.39 0 0 1 5.07-1.28z"/><path d="m1.68 227.85a1.43 1.43 0 0 0 -.52-.38c.46-.21.93-.4 1.39-.59-.28.33-.55.65-.87.97z"/><path d="m9.25 256.33a12.43 12.43 0 0 0 -.3 1.76c-.44.49-.9 1-1.36 1.46.6-1.05 1.16-2.12 1.66-3.22z"/><path d="m.59 324a22.47 22.47 0 0 0 2.6-.48c-.88.37-1.77.79-2.67 1.25.03-.23.03-.5.07-.77z"/><path d="m10.92 270.59c.87-.07 1.74-.09 2.61-.08a3.21 3.21 0 0 0 .19.31 26.83 26.83 0 0 0 -5.15.72c.78-.31 1.56-.62 2.35-.95z"/><path d="m68.49 310.72a18.91 18.91 0 0 0 2.72-1 9.5 9.5 0 0 1 -3.52 1.71c.31-.24.54-.43.8-.71z"/><path d="m53 221.55.06 3a2.19 2.19 0 0 0 -.56-.14 1.72 1.72 0 0 0 -1.25-1.6z"/><path d="m169 303.63.06 3a1.84 1.84 0 0 0 -.56-.14 1.72 1.72 0 0 0 -1.25-1.6c.62-.39 1.21-.82 1.75-1.26z"/><path d="m21.28 305.28.13-.14a66 66 0 0 1 9.12 1.86 1 1 0 0 0 0 .25 36.1 36.1 0 0 0 -9.25-1.97z"/><path d="m110.62 272.3a5.87 5.87 0 0 0 1-3.1l.15 3.65a1.91 1.91 0 0 0 -1.15-.55z"/><path d="m240.62 268.84a1.88 1.88 0 0 0 -.27-.59l.23-.45c.01.35.02.69.04 1.04z"/><path d="m230.46 256.68a6.77 6.77 0 0 0 1.25-1.26 10.16 10.16 0 0 0 -.59 2.06 1.93 1.93 0 0 0 -.66-.8z"/><path d="m224.58 245-.65.59a2.12 2.12 0 0 0 -1.23-1l1.17-.79a2.23 2.23 0 0 0 .71 1.2z"/><path d="m231.41 363-.65.6a2.15 2.15 0 0 0 -1.24-1l1.17-.78a2.33 2.33 0 0 0 .72 1.18z"/><path d="m186.59 291.55-.52.3z"/><path d="m187.7 362.72h-.25a1.73 1.73 0 0 0 -.78-1c.35-.4.67-.8 1-1.19-.03.74-.01 1.47.03 2.19z"/><path d="m195.19 423.15h-.25a1.76 1.76 0 0 0 -.77-1q.51-.62 1-1.2c-.04.75-.02 1.47.02 2.2z"/><path d="m217.77 266.71-1.76 1.5a1.46 1.46 0 0 0 -.17-.3c.63-.41 1.27-.82 1.93-1.2z"/><path d="m314.57 300.7a2.31 2.31 0 0 0 .14-.19v.11a2.11 2.11 0 0 0 .26.91c-.67.35-1.36.68-2.05 1 .57-.59 1.08-1.2 1.65-1.83z"/><path d="m248.86 328.41c2-.25 4.11-1.82 5.91-3.4.26.09.52.15.79.23h-.06a57.26 57.26 0 0 1 -6.9 4c.09-.24.17-.53.26-.83z"/><path d="m303 244.15-1.14 1a1.9 1.9 0 0 0 -.3-.44 30.06 30.06 0 0 1 1.56-2.72c0 .45-.06.84-.08 1.15s-.04.68-.04 1.01z"/><path d="m192.87 235.93-.13-.31.23-.05c-.03.12-.06.24-.1.36z"/><path d="m239.63 250.47c.06-.33.13-.66.18-1l.14-.24v1.3a2.29 2.29 0 0 0 -.32-.06z"/><path d="m332 259.65a2 2 0 0 0 -2.11-.77v-.05c.68-1.11 1.5-2.18 2.26-3.21q.08 2.06.12 4.11z"/><path d="m240.55 447.37a2 2 0 0 0 -2.11-.77v-.05c.68-1.11 1.5-2.18 2.26-3.21q.08 2.06.12 4.11z"/><path d="m313.84 344.28a1.94 1.94 0 0 0 -2.1-.77v-.05c.68-1.11 1.5-2.18 2.26-3.21q.08 2.06.12 4.11z"/><path d="m234.79 225.92a1.75 1.75 0 0 0 -1.11-.68l1.09-.67c.01.43.01.9.02 1.35z"/><path d="m195.61 225a16.18 16.18 0 0 0 -3.84 1.37 1.36 1.36 0 0 0 -.38.11 1.74 1.74 0 0 0 -.58-.39 38.39 38.39 0 0 1 5.07-1.28z"/><path d="m290.22 345.88a15.79 15.79 0 0 0 -3.85 1.36 1.4 1.4 0 0 0 -.37.11 1.85 1.85 0 0 0 -.58-.39 38.39 38.39 0 0 1 5.07-1.28z"/><path d="m187.79 227.85a1.62 1.62 0 0 0 -.52-.38c.46-.21.92-.4 1.39-.59z"/><path d="m195.36 256.33a11.15 11.15 0 0 0 -.3 1.76c-.44.49-.9 1-1.36 1.46.6-1.05 1.16-2.12 1.66-3.22z"/><path d="m186.7 324a22.47 22.47 0 0 0 2.6-.48c-.88.37-1.77.79-2.67 1.25.03-.23.03-.5.07-.77z"/><path d="m197 270.59c.87-.07 1.74-.09 2.61-.08a3.21 3.21 0 0 0 .19.31 26.83 26.83 0 0 0 -5.15.72c.81-.31 1.59-.62 2.35-.95z"/><path d="m254.6 310.72a19.36 19.36 0 0 0 2.72-1 9.57 9.57 0 0 1 -3.52 1.71z"/><path d="m239.06 221.55c0 1 0 2 .06 3a2.19 2.19 0 0 0 -.56-.14 1.73 1.73 0 0 0 -1.26-1.6z"/><path d="m355.15 303.63c0 1 0 2 .06 3a1.84 1.84 0 0 0 -.56-.14 1.73 1.73 0 0 0 -1.26-1.6c.61-.39 1.17-.82 1.76-1.26z"/><path d="m207.39 305.28.13-.14a66 66 0 0 1 9.12 1.83 1 1 0 0 0 0 .25 36.1 36.1 0 0 0 -9.25-1.94z"/><path d="m296.73 272.3a5.78 5.78 0 0 0 1-3.1c.06 1.21.11 2.43.16 3.65a1.94 1.94 0 0 0 -1.16-.55z"/><path d="m416.43 461.71a1.63 1.63 0 0 0 -.27-.58l.23-.46c.01.33.03.7.04 1.04z"/><path d="m394.24 555.88a6.72 6.72 0 0 0 1.25-1.25 9.39 9.39 0 0 0 -.59 2.06 2 2 0 0 0 -.66-.81z"/><path d="m394.52 494.09-.65.6a2.09 2.09 0 0 0 -1.24-1l1.17-.79a2.33 2.33 0 0 0 .72 1.19z"/><path d="m388 480.86-.52.31z"/><path d="m346.49 584.2a1.9 1.9 0 0 0 -.25 0 1.74 1.74 0 0 0 -.78-1c.34-.41.67-.81 1-1.2-.03.75-.01 1.48.03 2.2z"/><path d="m393.58 459.58-1.76 1.5a1.28 1.28 0 0 0 -.17-.3c.63-.41 1.27-.78 1.93-1.2z"/><path d="m394.62 558.87.14-.2a.48.48 0 0 0 0 .12 2 2 0 0 0 .26.91c-.68.35-1.36.68-2 1 .51-.59 1.07-1.2 1.6-1.83z"/><path d="m372.87 429.11c2-.25 4.11-1.82 5.92-3.4.26.09.52.15.78.23h-.05a57.39 57.39 0 0 1 -6.91 4c.09-.23.18-.53.26-.83z"/><path d="m330.55 430.55-1.14 1a2.77 2.77 0 0 0 -.31-.45c.46-.91 1-1.81 1.56-2.71 0 .44-.06.84-.07 1.15s-.03.69-.04 1.01z"/><path d="m368.68 428.8c0-.11-.09-.21-.13-.31l.24-.05c-.04.12-.07.24-.11.36z"/><path d="m403.41 549.68c.06-.33.13-.66.18-1 0-.08.09-.16.14-.24v1.3a1.53 1.53 0 0 0 -.32-.06z"/><path d="m403.77 558.21a1.94 1.94 0 0 0 -2.1-.77v-.05c.68-1.11 1.5-2.18 2.27-3.21l.12 4.11z"/><path d="m410.6 418.79a1.75 1.75 0 0 0 -1.11-.68l1.09-.67c.01.45.01.9.02 1.35z"/><path d="m371.42 417.89a16.34 16.34 0 0 0 -3.84 1.37 1.3 1.3 0 0 0 -.37.11 2 2 0 0 0 -.58-.39 38.25 38.25 0 0 1 5.06-1.28 2.61 2.61 0 0 1 -.27.19z"/><path d="m370.16 528.3a1.43 1.43 0 0 0 -.52-.38c.46-.21.93-.4 1.39-.58-.28.32-.58.66-.87.96z"/><path d="m371.17 449.2a12.68 12.68 0 0 0 -.3 1.76c-.44.5-.9 1-1.36 1.46.6-1.05 1.16-2.12 1.66-3.22z"/><path d="m363.06 466.49a24.36 24.36 0 0 0 2.6-.49c-.88.38-1.76.79-2.66 1.26 0-.26 0-.52.06-.77z"/><path d="m372.84 463.47a25.29 25.29 0 0 1 2.61-.09 3.21 3.21 0 0 0 .19.31 26.83 26.83 0 0 0 -5.15.72z"/><path d="m408.67 469.87a22.22 22.22 0 0 0 2.72-1 9.71 9.71 0 0 1 -3.52 1.7c.27-.23.53-.46.8-.7z"/><path d="m414.87 414.42.06 3a2.19 2.19 0 0 0 -.56-.14 1.73 1.73 0 0 0 -1.25-1.6z"/><path d="m378.58 512.12.12-.14a65.74 65.74 0 0 1 9.12 1.83 2 2 0 0 0 0 .25 36.1 36.1 0 0 0 -9.24-1.94z"/><path d="m415.45 465.69a5.76 5.76 0 0 0 1-3.1l.15 3.65a1.89 1.89 0 0 0 -1.15-.55z"/><path d="m54.51 467.35a1.6 1.6 0 0 0 -.27-.59l.23-.45c.01.34.03.69.04 1.04z"/><path d="m44.36 455.18a7 7 0 0 0 1.24-1.25 10.64 10.64 0 0 0 -.6 2.07 2 2 0 0 0 -.64-.82z"/><path d="m38.48 443.52c-.22.21-.44.4-.66.6a2.12 2.12 0 0 0 -1.23-1l1.17-.79a2.25 2.25 0 0 0 .72 1.19z"/><path d="m45.3 561.54c-.22.21-.43.41-.65.6a2.17 2.17 0 0 0 -1.24-1l1.17-.79a2.25 2.25 0 0 0 .72 1.19z"/><path d="m.48 490.06-.52.3z"/><path d="m1.59 561.23h-.25a1.74 1.74 0 0 0 -.78-1c.35-.41.67-.81 1-1.2-.03.75-.01 1.47.03 2.2z"/><path d="m9.09 621.65h-.26a1.71 1.71 0 0 0 -.77-1c.34-.4.66-.8 1-1.19-.06.75-.06 1.47.03 2.19z"/><path d="m31.66 465.22-1.76 1.49a1.22 1.22 0 0 0 -.17-.29c.63-.42 1.27-.82 1.93-1.2z"/><path d="m128.47 499.2a1.27 1.27 0 0 0 .13-.19v.12a2 2 0 0 0 .27.91c-.68.35-1.37.68-2.06 1 .57-.59 1.12-1.2 1.66-1.84z"/><path d="m62.75 526.92c2-.26 4.11-1.82 5.91-3.4l.79.23a58.75 58.75 0 0 1 -6.91 4c.04-.23.13-.53.21-.83z"/><path d="m116.91 442.65-1.15 1a1.9 1.9 0 0 0 -.3-.44 31.12 31.12 0 0 1 1.56-2.72c0 .45-.06.84-.07 1.15s-.03.69-.04 1.01z"/><path d="m6.76 434.43-.13-.3.24-.05z"/><path d="m53.52 449c.06-.33.13-.66.18-1 0-.08.1-.16.14-.24v1.3a1.35 1.35 0 0 0 -.32-.06z"/><path d="m145.88 458.16a1.94 1.94 0 0 0 -2.1-.78c.68-1.12 1.5-2.18 2.27-3.22l.12 4.11z"/><path d="m54.44 645.88a1.94 1.94 0 0 0 -2.1-.77v-.05c.68-1.12 1.5-2.18 2.27-3.21l.12 4.11z"/><path d="m127.73 542.79a1.94 1.94 0 0 0 -2.1-.78c.68-1.12 1.5-2.18 2.27-3.21l.12 4.1z"/><path d="m48.68 424.43a1.71 1.71 0 0 0 -1.11-.68l1.1-.67c0 .45 0 .92.01 1.35z"/><path d="m9.5 423.53a15.87 15.87 0 0 0 -3.84 1.36 1.73 1.73 0 0 0 -.37.11 2.15 2.15 0 0 0 -.58-.38 36.53 36.53 0 0 1 5.07-1.28z"/><path d="m104.11 544.38a16.18 16.18 0 0 0 -3.84 1.37 1.78 1.78 0 0 0 -.38.1 1.88 1.88 0 0 0 -.58-.38 38.39 38.39 0 0 1 5.07-1.28z"/><path d="m1.68 426.35a1.53 1.53 0 0 0 -.52-.37c.46-.21.93-.4 1.39-.59-.28.33-.55.61-.87.96z"/><path d="m9.25 454.84a12.54 12.54 0 0 0 -.3 1.75c-.44.5-.9 1-1.36 1.46.6-1.05 1.16-2.11 1.66-3.21z"/><path d="m.59 522.53a22.47 22.47 0 0 0 2.6-.48c-.88.37-1.77.79-2.67 1.25.03-.3.03-.52.07-.77z"/><path d="m10.92 469.1c.87-.07 1.74-.09 2.61-.08a3.21 3.21 0 0 0 .19.31 26.83 26.83 0 0 0 -5.15.72z"/><path d="m68.49 509.23a20.17 20.17 0 0 0 2.72-1 9.82 9.82 0 0 1 -3.52 1.71c.31-.24.54-.47.8-.71z"/><path d="m53 420.05.06 3a2.17 2.17 0 0 0 -.56-.13 1.72 1.72 0 0 0 -1.25-1.6c.53-.41 1.12-.83 1.75-1.27z"/><path d="m169 502.14.06 3a2.17 2.17 0 0 0 -.56-.13 1.72 1.72 0 0 0 -1.25-1.6c.62-.41 1.21-.83 1.75-1.27z"/><path d="m21.28 503.79.13-.14a66 66 0 0 1 9.12 1.83 1 1 0 0 0 0 .25 36.1 36.1 0 0 0 -9.25-1.94z"/><path d="m110.62 470.81a5.91 5.91 0 0 0 1-3.11l.15 3.66a1.81 1.81 0 0 0 -1.15-.55z"/><path d="m240.62 467.35a1.78 1.78 0 0 0 -.27-.59l.23-.45c.01.34.02.69.04 1.04z"/><path d="m230.46 455.18a6.72 6.72 0 0 0 1.25-1.25 10 10 0 0 0 -.59 2.06 2 2 0 0 0 -.66-.81z"/><path d="m224.58 443.52c-.21.21-.43.4-.65.6a2.12 2.12 0 0 0 -1.23-1l1.17-.79a2.17 2.17 0 0 0 .71 1.19z"/><path d="m231.41 561.54c-.22.21-.43.41-.65.6a2.17 2.17 0 0 0 -1.24-1l1.17-.79a2.25 2.25 0 0 0 .72 1.19z"/><path d="m186.59 490.06-.52.3z"/><path d="m187.7 561.23a1.9 1.9 0 0 0 -.25 0 1.74 1.74 0 0 0 -.78-1c.35-.41.67-.81 1-1.2-.03.75-.01 1.47.03 2.2z"/><path d="m195.19 621.65h-.25a1.75 1.75 0 0 0 -.77-1c.34-.4.66-.8 1-1.19-.04.75-.02 1.47.02 2.19z"/><path d="m217.77 465.22-1.77 1.49a1.69 1.69 0 0 0 -.17-.29c.64-.42 1.28-.82 1.94-1.2z"/><path d="m314.57 499.2a1.33 1.33 0 0 0 .14-.19v.12a2.11 2.11 0 0 0 .26.91c-.67.35-1.36.68-2.05 1 .57-.59 1.08-1.2 1.65-1.84z"/><path d="m248.86 526.92c2-.26 4.11-1.82 5.91-3.4l.79.23h-.06a58.62 58.62 0 0 1 -6.9 4c.09-.23.17-.53.26-.83z"/><path d="m303 442.65-1.14 1a1.9 1.9 0 0 0 -.3-.44 28.76 28.76 0 0 1 1.56-2.72c0 .45-.06.84-.08 1.15s-.04.69-.04 1.01z"/><path d="m192.87 434.43c-.05-.1-.09-.2-.13-.3l.23-.05c-.03.12-.06.23-.1.35z"/><path d="m239.63 449c.06-.33.13-.66.18-1l.14-.24v1.3a1.53 1.53 0 0 0 -.32-.06z"/><path d="m332 458.16a2 2 0 0 0 -2.11-.78c.68-1.12 1.5-2.18 2.26-3.22q.08 2.06.12 4.11z"/><path d="m240.55 645.88a2 2 0 0 0 -2.11-.77v-.05c.68-1.12 1.5-2.18 2.26-3.21q.08 2.05.12 4.11z"/><path d="m313.84 542.79a2 2 0 0 0 -2.1-.78c.68-1.12 1.5-2.18 2.26-3.21.05 1.37.09 2.74.12 4.1z"/><path d="m234.79 424.43a1.71 1.71 0 0 0 -1.11-.68l1.09-.67c.01.45.01.92.02 1.35z"/><path d="m195.61 423.53a15.72 15.72 0 0 0 -3.84 1.36 1.82 1.82 0 0 0 -.38.11 1.88 1.88 0 0 0 -.58-.38 36.89 36.89 0 0 1 5.07-1.28z"/><path d="m290.22 544.38a16.25 16.25 0 0 0 -3.85 1.37 1.86 1.86 0 0 0 -.37.1 2 2 0 0 0 -.58-.38 38.39 38.39 0 0 1 5.07-1.28z"/><path d="m187.79 426.35a1.76 1.76 0 0 0 -.52-.37c.46-.21.92-.4 1.39-.59-.29.33-.58.61-.87.96z"/><path d="m195.36 454.84a11.22 11.22 0 0 0 -.3 1.75c-.44.5-.9 1-1.36 1.46.6-1.05 1.16-2.11 1.66-3.21z"/><path d="m186.7 522.53a22.47 22.47 0 0 0 2.6-.48c-.88.37-1.77.79-2.67 1.25.03-.3.03-.52.07-.77z"/><path d="m197 469.1c.87-.07 1.74-.09 2.61-.08a3.21 3.21 0 0 0 .19.31 26.83 26.83 0 0 0 -5.15.72z"/><path d="m254.6 509.23a20.69 20.69 0 0 0 2.72-1 9.9 9.9 0 0 1 -3.52 1.71z"/><path d="m239.06 420.05c0 1 0 2 .06 3a2.17 2.17 0 0 0 -.56-.13 1.73 1.73 0 0 0 -1.26-1.6z"/><path d="m355.15 502.14c0 1 0 2 .06 3a2.17 2.17 0 0 0 -.56-.13 1.73 1.73 0 0 0 -1.26-1.6z"/><path d="m207.39 503.79.13-.14a66 66 0 0 1 9.12 1.83 1 1 0 0 0 0 .25 36.1 36.1 0 0 0 -9.25-1.94z"/><path d="m296.73 470.81a5.81 5.81 0 0 0 1-3.11c.06 1.22.11 2.44.16 3.66a1.83 1.83 0 0 0 -1.16-.55z"/></g></svg>