<svg viewBox="0 0 467 188.936" xmlns="http://www.w3.org/2000/svg"><g fill="#d8c4e0"><path d="m297.88 42.366h-.03a22.1 22.1 0 0 0 7.56-5.2c4.52-4.36 10.22-7.64 15.3-11.32 9.33-6.75 17-15.44 25.87-22.73 1.87-1.54-.8-4.18-2.65-2.66-7.6 6.25-14.31 13.45-21.91 19.7-4.45 3.65-9.36 6.75-14 10.13-3.69 2.67-6.87 6.8-11.14 8.46-2.23.86-1.26 4.49 1 3.62z"/><path d="m303.64 44.716c-2.34.63-1.34 4.25 1 3.62 11.59-3.1 21.27-11.1 30.94-17.72 6.92-4.73 14.26-8.81 21.12-13.62 4.06-2.84 7.79-5.8 12.16-8.19 2.13-1.17.23-4.41-1.89-3.24a93.0114 93.0114 0 0 0 -11.15 7.46c-6.54 4.88-13.8 8.79-20.59 13.31-10 6.65-19.71 15.2-31.59 18.38z"/><path d="m314.72 53.976h.01c24.11-10 47.18-22.61 71.46-32.23 2.23-.88 1.26-4.51-1-3.62-24.29 9.63-47.36 22.18-71.47 32.23-2.2.9099-1.24 4.5499 1 3.62z"/><path d="m117.65 170.206c-3.4-1.38-6.65-.84-10.06-.66 2.37-14.45-30.62-18.74-36.52-4-8-7.93-25.36-7.63-30.76 2.61-7.52-9.71-24.68-4.51-24.91 8.26-6.54 2.46-12.4 5.89-15.4 12.46h4.65c2.31-4.31 8.12-6.86 12.3-8.41a2.18 2.18 0 0 0 1.29-1.19 1.9 1.9 0 0 0 1.51-2c-.38-9.8 13.23-13.69 18-5.06a2.12 2.12 0 0 0 3.64.08 1.73 1.73 0 0 0 2.2473-.9671l.0127-.0329c4.2-9.63 21.93-8.83 26.34.23.88 1.81 3 1.2 3.77-.21a2.15 2.15 0 0 0 .78-1.6c.69-14.27 32.87-9.27 28.24.87a2.2 2.2 0 0 0 1.74 3.46h.05a1.5476 1.5476 0 0 0 .43 0c2.59.12 5.13-.3 7.72-.43 3.49-.19 6.46 2.56 8.67 4.9 2.56 2.7 4.85 6.57 5 10.42h4.28a18.84 18.84 0 0 0 -4.58-11.51c-2.37-2.96-4.9-5.77-8.44-7.22z"/><path d="m214.38 153.8459a16.3753 16.3753 0 0 0 -3.25-3 1.29 1.29 0 0 0 -2.06-1.49l-.23.17c-7.06-3.42-16.07-1.61-23.12 2.14a1.11 1.11 0 0 0 -.72.4c-.45.25-.9.5-1.32.77-8.3 5.14-10.15 14.5-10.59 23.73v.16l-.06 1.73a1.23 1.23 0 0 0 -.05 2.13v4.69a1.1807 1.1807 0 0 0 -.73.61l-.66.3a27.8378 27.8378 0 0 0 -3.16 1.75 14.136 14.136 0 0 0 -1.25.9h14.59c-1.05-8.89.53-19.47 4.81-27.07 2.36-4.2 7.19-5.36 11.59-5.75 1.21-.11 2.39-.1 3.59-.3s2.3-.37 3.44-.58q7.11-2.26 5.15 8.11c-5.8 2.4-11.92-1.12-16.11 4.85-3.6 5.13-.81 13.8-1.53 19.59a1 1 0 0 0 .65 1.15h8a21.9491 21.9491 0 0 1 3.44 0h6.7c-3.57-3.77-11.7-2.21-16.15-2.15.43-5.69-1.31-11.94 1.08-17.28s12.07-1.53 16.27-4.36c4.79-3.22 4.77-7.55 2-10.27a1.2806 1.2806 0 0 0 -.32-.93zm-37.2 12.35a.8085.8085 0 0 1 .07-.22 1.2832 1.2832 0 0 0 .09.16zm.82-2.32a.8737.8737 0 0 1 0-.15l.11.13zm1.61 9.49-.01.01-.68-.9a1.46 1.46 0 0 0 .9-1.16h.2c-.14.6701-.28 1.3601-.41 2.0501zm4.18-17.22-.01.01a.9182.9182 0 0 0 -.22-.11l.23-.19zm7-3.66-.01.01a3.0072 3.0072 0 0 0 -.13-.56l.36-.13c-.07.2201-.14.4501-.22.6801z"/><path d="m316.67 157.456a5.79 5.79 0 0 0 -5.39-4.16c-12.65-6.11-17.63 10.75-18.8 22.93a1.19 1.19 0 0 0 -.09 1.1c-.07.82-.12 1.61-.15 2.36-.12 3-.2 6.09-.29 9.13h9.66c-.58-10.81-1.28-22.89 5.26-31.78a1.2027 1.2027 0 0 0 .4-.16 7.0005 7.0005 0 0 1 3.41-1 21.5268 21.5268 0 0 1 2.8 1.84 1.3988 1.3988 0 0 0 .64.28 4.168 4.168 0 0 1 .19 1.06 1.27 1.27 0 0 0 .2.63 154.4832 154.4832 0 0 0 -2.26 29.13h2.68c-.05-10.01.33-20.01 2.38-29.94a1.29 1.29 0 0 0 -.64-1.42zm-17.98 24.06-.15-.06.15-.14zm.37-9.78v-.01a1.2907 1.2907 0 0 0 -.55 0c.2-.27.41-.54.63-.8-.03.29-.05.55-.08.81zm.43-3.05v-.01a1.0043 1.0043 0 0 0 -.21-.19l.27-.16c-.03.13-.04.25-.06.36zm4.58-12.21s-.05-.07-.07-.1l.19-.08z"/><path d="m276.51 183.256a1.32 1.32 0 0 0 -.22-1.34 22.1687 22.1687 0 0 0 -12.1-7.41c-9.88-3.59-21.17-2.74-30.7 1.6a27.66 27.66 0 0 0 -12.67 12.42 1.1721 1.1721 0 0 0 -.24.3h13.18a1.3484 1.3484 0 0 0 -.09-.33h.4a1.5091 1.5091 0 0 0 .59-.18l-.3.53h2.9c3.93-6.32 8.51-11.16 16.21-12.08a28.6 28.6 0 0 1 11.43.86c.75.32 1.49.66 2.21 1a1.27 1.27 0 0 0 .85.14 18.6812 18.6812 0 0 1 5.64 4.11 3.3454 3.3454 0 0 0 .16.79 1.2 1.2 0 0 0 .18 1.57 16.2059 16.2059 0 0 1 2.69 3.63h2.94a20.1653 20.1653 0 0 0 -3-4.59 1.29 1.29 0 0 0 -.06-1.02zm-39.91 1.93-.68-.19a1.1014 1.1014 0 0 0 .28-.33h.14a1 1 0 0 0 .73-.2c-.16.24-.31.48-.47.72zm1.4-2h-.02c-.15.2-.29.42-.44.62a1.52 1.52 0 0 0 -.08-1.13 1.1 1.1 0 0 0 .55-.41 1.0091 1.0091 0 0 0 .18.05 5.6915 5.6915 0 0 0 .54-2h.53a1.3007 1.3007 0 0 0 .84-.36h.83a20.286 20.286 0 0 0 -2.93 3.23z"/><path d="m256.15 184.876a9.3089 9.3089 0 0 0 -5.32 4h14.9c-2.23-3.27-5.29-5.15-9.58-4z"/><path d="m363.11 92.966h.06c-.09-.09-.09-.09-.06 0z"/><path d="m377.2 141.316a1.51 1.51 0 0 0 0-3.01c-1.08 0-2.14-.22-3.22-.24a1.5009 1.5009 0 0 0 0 3c1.08 0 2.14.23 3.22.25z"/><path d="m363.17 99.306a1.5026 1.5026 0 1 0 -2.12-2.13l-2 2a1.5026 1.5026 0 0 0 2.12 2.13z"/><path d="m360 88.976-.33-.43c.17.22-.12-.17-.12-.17a2.15 2.15 0 0 1 -.16-.25v-.18a1.5042 1.5042 0 0 0 -2.9.8 4.6094 4.6094 0 0 0 .8 1.5c.25.33.21.26.46.63a1.4013 1.4013 0 0 1 .23.59c.44 1.88 3.34 1.08 2.89-.8a4.4591 4.4591 0 0 0 -.87-1.69z"/><path d="m361.1 92.486a1.51 1.51 0 0 0 -.54 2.06 5.1026 5.1026 0 0 0 1.38 1.24l.65.41.09.06a1.42 1.42 0 0 0 1.37 1 1.5 1.5 0 0 0 1.5-1.5 2.64 2.64 0 0 0 -1.25-2c-.24-.18-.5-.33-.75-.49l-.39-.25-.0835-.0557a1.5367 1.5367 0 0 0 -1.9765-.4743zm1.49 3.28a2.0007 2.0007 0 0 0 .1.42.8214.8214 0 0 1 -.1-.42z"/><path d="m359.705 103.121a1.5025 1.5025 0 0 0 -2.125-.005 3.0689 3.0689 0 0 0 -.85 1.51 5.82 5.82 0 0 0 -.83 3 1.5008 1.5008 0 0 0 3 0 4.0013 4.0013 0 0 1 .27-1.38c0 .09 0 .06.08-.1-.18.3.34-.63.33-.6a1.8489 1.8489 0 0 0 .03-.19l.09-.11a1.5027 1.5027 0 0 0 .005-2.125zm-.0817 2.075c.0117-.09.0193-.09.0267 0z"/><path d="m357.1 124.736a1.53 1.53 0 0 0 2.05.54 1.51 1.51 0 0 0 .54-2.06c-1-1.3-1-3.05-1.73-4.45-.94-1.7-3.53-.18-2.59 1.51.78 1.42.74 3.12 1.73 4.46z"/><path d="m363.92 136.536a5.32 5.32 0 0 0 4.41 2.83 1.5 1.5 0 1 0 .07-3l-.04-.02a1.9973 1.9973 0 0 1 -.35-.1l-.25-.09-.35-.17c-.2-.11-.39-.23-.58-.35 0 0-.17-.15-.19-.17a1.46 1.46 0 0 0 -1.72-.78 1.5 1.5 0 0 0 -1 1.85z"/><path d="m383.6094 138.2067c-.0169.016-.0334.0325-.0493.0493a.1479.1479 0 0 0 0 .06h-1.62a1.51 1.51 0 0 0 0 3c1.28 0 2.89.21 3.79-.94a1.54 1.54 0 0 0 0-2.12 1.5 1.5 0 0 0 -2.1207-.0493z"/><path d="m402.19 141.846c-.12-.07-.32-.18-.48-.27-.42-.26-.82-.56-1.23-.83a1.51 1.51 0 0 0 -2.06.53 1.53 1.53 0 0 0 .54 2.06 7.3989 7.3989 0 0 0 3.73 1.69 1.5 1.5 0 0 0 1.5-1.5 1.52 1.52 0 0 0 -1.5-1.5c.24 0-.3-.08-.38-.11.09 0 0 0-.12-.07z"/><path d="m449.9846 78.5414q.0072.0275.0154.0545a1.51 1.51 0 0 0 1.85 1 11.65 11.65 0 0 0 2.58-1.14 1.43 1.43 0 0 0 .7-1.25 1.32 1.32 0 0 0 1.26.71 7.7115 7.7115 0 0 0 1.18-.06h.55a1.6791 1.6791 0 0 1 .24.09 1.5 1.5 0 0 0 1.51-2.59 6.26 6.26 0 0 0 -3.48-.45 1.46 1.46 0 0 0 -1.4534 1.4667c0 .0311.0014.0623.0035.0933a1.36 1.36 0 0 0 -2-.61 8.6756 8.6756 0 0 1 -1.87.83 1.52 1.52 0 0 0 -1.0855 1.8555z"/><path d="m387.96 137.036h-.37a1.5008 1.5008 0 0 0 0 3 4.751 4.751 0 0 0 2.74-1 1.5016 1.5016 0 0 0 -1.52-2.59v.09l-.68.44z"/><path d="m467 143.5129v-2.7375a5.9912 5.9912 0 0 0 -.61 1.0806 1.4952 1.4952 0 0 0 .61 1.6569z"/><path d="m463.69 79.9659a18.161 18.161 0 0 0 -7.23-.25 19.2073 19.2073 0 0 0 -6 2.08 15.9116 15.9116 0 0 0 -1.52-5.8 1.57 1.57 0 0 0 .44.28 1.53 1.53 0 0 0 2-.54 1.49 1.49 0 0 0 -.5244-2.0409l-.0157-.0091a8.2926 8.2926 0 0 1 -.39-.79 4.28 4.28 0 0 0 -1.31-1.67 1.51 1.51 0 0 0 -2 .54 1.48 1.48 0 0 0 .37 1.91 1.19 1.19 0 0 1 .11.19 11.1112 11.1112 0 0 0 -5.46-3.87 17.6305 17.6305 0 0 0 -10.73.16 13.2342 13.2342 0 0 0 -2.24.93c2.72-12.2-9.65-20.92-21.47-22.06-12.92-1.26-33.61 6.24-36.9 20.32a5.096 5.096 0 0 0 -.7-.08 11.71 11.71 0 0 0 -4.48 1.6c-3.6 1.85-4.42 6-4.77 9.73-.4 4.16 1.44 8.53 4 11.75a15.0931 15.0931 0 0 0 3.5 3.61c-9.43 7.58-11.16 19.26-4.27 29.59 6.5 9.74 19.92 13.89 29.94 7.48 2.58 5.1 7.61 7.9 13.21 8.73a1.68 1.68 0 0 0 -.35 1.45 1.5374 1.5374 0 0 0 1.8021 1.0078l.0978.0622a4.4359 4.4359 0 0 1 .7.46 5.8225 5.8225 0 0 0 1.67.93c1.86.56 2.64-2.34.8-2.9h-.16c-.14-.08-.27-.17-.4-.26l-.67-.49c8 0 16.34-3.6 20.14-10.09a17.79 17.79 0 0 0 1.26 2.8 1.56 1.56 0 0 0 -.93-.05 1.53 1.53 0 0 0 -1 1.85 6.52 6.52 0 0 0 2.29 2.77 1.45 1.45 0 0 0 1.88-1.56c7.7782 8.4976 23.7818 8.6964 32.62 1.0267v-4.2661c-8.7631 11.0459-33.1919 8.9773-34.11-7.8006a.7275.7275 0 0 0 -.05-.2c.18-1.82-2.6-2.56-2.9-.69a.4518.4518 0 0 1 0 .1 1.61 1.61 0 0 0 -.2.94c-3.33 13.15-28.38 17.67-33.5 3.66a1.49 1.49 0 0 0 -1-.94 1.19 1.19 0 0 0 -1.5 0c-9.22 6.9-20.52 2.85-27-5.6-7-9-4.27-20.42 4.8-26.7a1.53 1.53 0 0 0 .48-2 1.59 1.59 0 0 0 -1.88-1.7c-.59.12-2.92-3.15-3.26-3.62a15.1007 15.1007 0 0 1 -3-9.38c.09-3.35 1.22-6.07 4.19-7.6a3.27 3.27 0 0 1 2.76-.33 1.38 1.38 0 0 0 2.49-.88v-.5c0-.22.14-.43.05-.62 1.9-11.9 18.92-17.67 29.2-18.63 11.73-1.1 29.51 7.27 22.5 21.71l-.44.38c-1.41.58-.58 3 1.18 2.8h.21a1.45 1.45 0 0 0 1-1 1.27 1.27 0 0 0 .65-.66.6848.6848 0 0 1 .13-.29 25.6966 25.6966 0 0 1 5.81-2.34 12.45 12.45 0 0 1 8.5.61c4.51 2 5.71 7 5.32 11.43a7.699 7.699 0 0 0 -.73 1.56c-.62 1.84 2.28 2.62 2.89.79 1-3.08 5.38-4.16 8.26-4.44 1.91-.19 4.46-.24 6 1 .76.61 1.38 1.28 2.07 1.9a1.4954 1.4954 0 0 0 1.0802 1.4894v-4.7061c-.0093.0227-.0208.0439-.03.0668a7.17 7.17 0 0 0 -3.28-2.3401z"/><path d="m466.54 75.6559a1.5006 1.5006 0 0 0 .46 1.1393v-2.5552a3.1275 3.1275 0 0 0 -.46 1.4159z"/><path d="m465.16 76.986a1.5192 1.5192 0 0 0 -.7-.48 3.58 3.58 0 0 1 -1.31-.61 1.54 1.54 0 0 0 -2.13 0 1.52 1.52 0 0 0 -.02 2.13 7.17 7.17 0 0 0 2.64 1.37 1.37 1.37 0 0 0 1.21-.19 1.66 1.66 0 0 0 1.42.74 1.4937 1.4937 0 0 0 .73-.21v-2.6131a1.6356 1.6356 0 0 0 -1.84-.1369z"/><path d="m393.24 139.5059a4.7678 4.7678 0 0 0 .82.86 2 2 0 0 0 1 .21 1.51 1.51 0 0 0 .47-2.9 15.1219 15.1219 0 0 1 -1.2-1.34 1.4775 1.4775 0 1 0 -2.54 1.51 15.2537 15.2537 0 0 0 1.45 1.66z"/><path d="m430.4226 61.9492q.008.0336.0173.0668a8 8 0 0 1 .69 1.83 1.64 1.64 0 0 0 1.26 1.57 1.56 1.56 0 0 0 1.23 2.38h.25s.06-.13.1-.13c.87 0 1.74-.27 2.62-.28a1.42 1.42 0 0 0 1.32-.91 2.5333 2.5333 0 0 0 .1.37c.68 1.53 2.8 1.27 4.12 1.67a.86.86 0 0 1 1.31.85 4.9194 4.9194 0 0 0 1.51.9l.29.1h.06a.1508.1508 0 0 0 .08 0 1.2318 1.2318 0 0 0 .06.12 1.5016 1.5016 0 0 0 2.59-1.52 3.1088 3.1088 0 0 0 -1.35-1.29 7.4143 7.4143 0 0 0 -.78-.31.92.92 0 0 1 -.33-.19 1.59 1.59 0 0 0 -1.6-.33 1.39 1.39 0 0 0 -1-1.29 9.4754 9.4754 0 0 0 -1.49-.26 8.2063 8.2063 0 0 1 -.86-.18h-.1a1.54 1.54 0 0 0 -1.92-.37 1.4 1.4 0 0 0 -.56.65 1.33 1.33 0 0 0 -1.4-1.1c-.88 0-1.75.17-2.63.23a1.4286 1.4286 0 0 0 .17-.71 8.942 8.942 0 0 0 -.8-2.62 1.52 1.52 0 0 0 -1.84-1.05 1.5 1.5 0 0 0 -1.1173 1.8032z"/><path d="m436.99 144.676a1.504 1.504 0 0 0 1.05-1.85 13.5134 13.5134 0 0 0 -1.39-2.78 1.53 1.53 0 0 0 -2.06-.54 1.51 1.51 0 0 0 -.54 2 10.1359 10.1359 0 0 1 1.09 2.12 1.5042 1.5042 0 0 0 1.85 1.05z"/><path d="m442.65 147.406c.3.12.59.24.89.34a2.81 2.81 0 0 0 2.22-.19c1.63-.91.29-3.34-1.32-2.68a5.8445 5.8445 0 0 1 -.7-.25 4.9 4.9 0 0 0 -1.46-.37 1.5 1.5 0 0 0 -1.5 1.5 1.53 1.53 0 0 0 1.5 1.51c-.38 0 .25.09.37.14z"/><path d="m460.59 144.496a1.5 1.5 0 0 0 0 3 10.4117 10.4117 0 0 0 3.12-1 1.5042 1.5042 0 0 0 -.8-2.9v-.04a9.12 9.12 0 0 1 -2.32.94z"/><path d="m454.65 145.486a11.0012 11.0012 0 0 1 -3.81-.69 1.5 1.5 0 0 0 -1.8356 1.0633l-.0044.0167a1.52 1.52 0 0 0 1 1.85 13.0906 13.0906 0 0 0 4.6.79 1.5152 1.5152 0 1 0 .05-3.03z"/><path d="m403.16 187.306a9.26 9.26 0 0 0 -8.45.83 1.381 1.381 0 0 0 -.33.2c-.22.15-.44.33-.66.49h14.79a5.09 5.09 0 0 0 -5.35-1.52z"/><path d="m417 181.436v-.09a31.209 31.209 0 0 0 -9.26-10.18v-.12a1.27 1.27 0 0 0 -1.49-.88 29.32 29.32 0 0 0 -19.55-3.89 1.38 1.38 0 0 0 -1.79.32c-.62.13-1.24.29-1.86.46a1.29 1.29 0 0 0 -1.12.15c-.83-.47-2.13 0-2.09 1a29.76 29.76 0 0 0 -16.44 17.29c-.42 1.1-.8 2.22-1.15 3.35h18.35a31.58 31.58 0 0 1 8.61-10.37c8.38-6.34 19.1-2.3 25.72 4.43a.6.6 0 0 0 .08.08 19.58 19.58 0 0 1 3.89 5.86h2.87a21.58 21.58 0 0 0 -3.61-6.18 11.9842 11.9842 0 0 1 -1.16-1.23zm-51.49 5.55a.7479.7479 0 0 1 0-.11l.12.05zm1.58-3.53.15-.3a.7429.7429 0 0 0 .13.06l.57.16zm2.08-2.81h-.45c.15-.23.3-.46.46-.68l.11.12a1.3486 1.3486 0 0 0 -.12.5599zm5.1911-5.09c-.2722-.1372-.518-.283-.8012-.41a1.4817 1.4817 0 0 0 -.2 0c.37-.34.76-.67 1.15-1a9.2971 9.2971 0 0 0 -.1488 1.41zm4.4856 10.8286-.0568-.0487a1.11 1.11 0 0 0 -.87-.75 1.2386 1.2386 0 0 0 0-.54 1.5564 1.5564 0 0 0 .27-.24c.46-.18.93-.39 1.4-.61l.48.12c-.4276.6664-.835 1.3628-1.2232 2.0687zm2.6932-4.1287a1.58 1.58 0 0 0 -.41-.34 1.0891 1.0891 0 0 0 -.08-.15 6.8557 6.8557 0 0 0 1.12-.29zm5.9845-5.8363a1.3308 1.3308 0 0 0 -.0744-.1737l-.23-.31.08-.11a1.16 1.16 0 0 0 .65-.23l.11.08a1.5056 1.5056 0 0 0 .39.18 7.2142 7.2142 0 0 0 -.9256.5641zm2.3355-1.3836a1.6213 1.6213 0 0 0 .09-.57h.24a1.32 1.32 0 0 0 .3.24zm8.11-5.82a1.35 1.35 0 0 0 -1.28 0l-.45-.63c.59.13 1.18.29 1.76.47z"/><path d="m364.39 130.876a8.9165 8.9165 0 0 0 -1.48-1.71 4.6306 4.6306 0 0 1 -1.24-1.5 1.5 1.5 0 0 0 -2.05-.54 1.53 1.53 0 0 0 -.54 2c.59 1.34 2 2.05 2.72 3.22 1.04 1.69 3.64.18 2.59-1.47z"/><path d="m359.79 160.136-.48-.35a15.84 15.84 0 0 0 -6.85-6.13c0-.08-.12-.16-.18-.25a1.24 1.24 0 0 0 -1.6869-.4791l-.033.0191a13.16 13.16 0 0 0 -10.2 1.24 1.59 1.59 0 0 0 -.82.53 15.9264 15.9264 0 0 0 -3.48 3.1c-3 3.64-4.78 8.38-6 13.38a1.39 1.39 0 0 0 -.52 2.29c-1.12 5.27-1.82 10.69-3 15.34h12.4599c1.23-6.44 2.08-12.94 3.57-19.32a20.13 20.13 0 0 1 4.25-9c3-3.4 7.4-1.08 10.52 1.1.07.13.16.26.23.39a1.8133 1.8133 0 0 0 .18.25c-1.13 8.93-2.77 17.77-4.45 26.6h2.7c1.73-9.13 3.4-18.27 4.53-27.51a1 1 0 0 0 -.74-1.2zm-30.41 28c.06-.27.13-.55.19-.82a1.2087 1.2087 0 0 0 .3.41zm.91-3.69v-.04a.24.24 0 0 0 -.06.08l.3-1.4a1.1606 1.1606 0 0 0 .72.22h.41c-.46.37-.93.74-1.37 1.14zm1.35-6.37v-.07h.08zm6.83-1a.9035.9035 0 0 0 -.21-.08l.24-.13zm.54-4a1.2392 1.2392 0 0 0 -.56-.4l.68-.45zm.83-4.5a1.11 1.11 0 0 0 -1.16-.23l-4.34 1.4a29.1278 29.1278 0 0 1 3.48-1.41 14.15 14.15 0 0 0 2.18-.46zm1.43-4.62a1.0014 1.0014 0 0 0 -.08-.22h.2zm.94-1.86v-.09a1.2313 1.2313 0 0 0 -.3-.45 1.24 1.24 0 0 0 .25-.35l.45.16c-.14.3-.28.51-.4.7299z"/><path d="m354.57 115.3459a1.88 1.88 0 1 0 3.75.2741 1.844 1.844 0 0 0 0-.2741v-3.75a1.88 1.88 0 0 0 -3.75 0z"/><path d="m354.67 81.1559c.08 1.48 1 2.7 1.3 4.11.42 1.9 3.31 1.1 2.88-.79a11.8782 11.8782 0 0 0 -.73-2c-.09-.22-.18-.43-.26-.65s-.09-.26-.13-.38-.07-.54-.06-.29c-.1-1.9299-3.1-1.94-3 0z"/><path d="m460.89 186.0859a1.2 1.2 0 0 0 -1.11 1.26.6286.6286 0 0 0 0 .13c-.33.45-.64.93-.94 1.41l8.16-.0035v-3.7964l-.09-.09.09-.04v-3.111c-.2485.0725-.4961.15-.74.2409a13.5909 13.5909 0 0 0 -5.37 4z"/><path d="m421.49 140.786c-1.44.07-2.76.91-4.2.74a1.51 1.51 0 0 0 -1.51 1.5 1.55 1.55 0 0 0 1.51 1.51 6.1 6.1 0 0 0 2.32-.26 8.9991 8.9991 0 0 1 1.88-.49c1.93-.09 1.94-3.09 0-3z"/><path d="m452.42 188.746a8.65 8.65 0 0 0 -2.19-3.24c-2.73-4.89-10.06-7.24-15.11-5.5a8.6315 8.6315 0 0 0 -2.55 1.4 1.0907 1.0907 0 0 0 -.58.35l-.33-.21c-1.2-.77-2.32.69-1.8 1.79.12.25.25.48.37.71l-.13.2a1.28 1.28 0 0 0 -1 2.09c-.14.35-.27.7-.4 1a1.46 1.46 0 0 0 -.45 1.45h8.99c.0007-.0067-.001-.0135 0-.02a1.5418 1.5418 0 0 0 .24-.48 4.88 4.88 0 0 1 .64-.92h.17a1.57 1.57 0 0 0 1.73-1.39 7.0908 7.0908 0 0 1 2.12-.58 8.13 8.13 0 0 1 6 1.75c0 .13.12.25.17.38a1.29 1.29 0 0 0 .93.86c.1.14.18.31.27.46h3.55a1 1 0 0 0 -.64-.1zm-15.72-5.67c-.28-.18-.59-.34-.88-.5l.33-.12c.5.24 1 .5 1.47.76a7 7 0 0 1 -.92-.14z"/><path d="m427.67 136.286a12.54 12.54 0 0 0 -2.78 2.71c-1.35 1.39.77 3.52 2.12 2.12a11.2181 11.2181 0 0 1 2.17-2.23c1.7-.93.19-3.52-1.51-2.6z"/><path d="m437.25 188.7861h-.01a.3606.3606 0 0 0 0 .09z"/><path d="m427.11 56.746a11.1212 11.1212 0 0 0 2 2.21 1.5015 1.5015 0 0 0 1.52-2.59l-.16-.17-.28-.33a14.7727 14.7727 0 0 0 -1-1.25c-1.29-1.4-3.41.72-2.08 2.13z"/><path d="m404.17 47.776c1.08 0 2.14.24 3.22.25a1.5 1.5 0 0 0 0-3c-1.08 0-2.14-.24-3.22-.25-1.94-.03-1.93 2.97 0 3z"/><path d="m398.24 47.776c.91 0 1.8.23 2.72.25a1.501 1.501 0 0 0 0-3c-.92 0-1.81-.24-2.72-.25-1.94-.04-1.94 2.96 0 3z"/><path d="m410.85 48.766c1 0 2 .23 3 .25a1.5007 1.5007 0 0 0 0-3c-1 0-2-.23-3-.25-1.94-.04-1.93 2.97 0 3z"/><path d="m417.78 50.256h.31a6.3661 6.3661 0 0 1 .66.18 2.043 2.043 0 0 1 .43.18 1.2605 1.2605 0 0 1 .3215.208 1.5069 1.5069 0 1 0 2.0685-2.188 6.2291 6.2291 0 0 0 -3.79-1.43c-1.94-.02-1.93 2.99 0 3.05z"/><path d="m422.41 52.046c.3.28.63.52.95.78l.52.46c.06.06.2.26.12.07a1.54 1.54 0 0 0 1.85 1 1.51 1.51 0 0 0 1.05-1.85c-.49-1.21-1.45-1.78-2.37-2.64-1.4-1.28-3.53.84-2.12 2.18z"/><path d="m373.31 60.2059a8.9983 8.9983 0 0 0 1.48-2c.9-1.71-1.69-3.22-2.59-1.51a6.49 6.49 0 0 1 -1 1.43 1.43 1.43 0 0 0 -.07 2 1.48 1.48 0 0 0 -1.9438.7761 1.5059 1.5059 0 0 0 -.0562.1539 4.618 4.618 0 0 1 -.64 1.08 5.5632 5.5632 0 0 0 -.85 1.64c-.64 1.78 2.29 2.57 2.84.72a4.3118 4.3118 0 0 1 .65-1.08 5.59 5.59 0 0 0 .84-1.65 1.31 1.31 0 0 0 -.18-1.21 1.34 1.34 0 0 0 1.52-.35z"/><path d="m356.17 74.0159c-.19.37-.37.74-.53 1.13a3.8018 3.8018 0 0 0 -.24 2.21 1.51 1.51 0 0 0 1.8495 1.0676c.02-.0054.04-.0113.06-.0176a1.52 1.52 0 0 0 1-1.84v-.14a2.2383 2.2383 0 0 1 .25-.6 13.6072 13.6072 0 0 0 .68-1.44 1.5 1.5 0 0 0 -1-1.84 1.53 1.53 0 0 0 -1.85 1.05c.1205-.3099-.1695.3301-.2195.42z"/><path d="m361.08 70.126a2.5542 2.5542 0 0 1 .22-.35v-.06l.1-.11c.1-.12.21-.23.32-.34s.21-.18.23-.21l.32-.2h.12c.7 0 1.35-.08 1.55-.82v-.15h3c1.25 0 1.25-3.75 0-3.75h-3.24a1.54 1.54 0 0 0 -1.4517 1.6236l.0017.0265c-1.88 0-3.7 1.89-4.21 3.62a1.5692 1.5692 0 0 0 3.04.78.1515.1515 0 0 0 0-.0601z"/><path d="m382.6 49.7159c-1.42 1.3.7 3.42 2.1 2.08a3.5988 3.5988 0 0 1 1.9-1c1.93-.08 1.94-3.08 0-3a6.3094 6.3094 0 0 0 -4 1.92z"/><path d="m378.97 51.716c-.46.31-.9.64-1.35 1a8.0751 8.0751 0 0 1 -.69.44l-.23.11a1.54 1.54 0 0 0 -1.5 1.5 1.52 1.52 0 0 0 1.5 1.43c1.46-.1 2.58-1.16 3.73-1.94a1.51 1.51 0 0 0 .54-2 1.49 1.49 0 0 0 -2-.54z"/><path d="m390.85 49.756a8.8405 8.8405 0 0 0 3.83-.7 1.48 1.48 0 0 0 .47-2 1.41 1.41 0 0 0 -1.903-.5958q-.0495.0259-.097.0558a7.1719 7.1719 0 0 1 -2.35.29c-2.45-.05-2.45 2.95.05 2.95z"/></g><path d="m319.99 100.936c-14.94 3.3-25.11-4.15-32.67-16.31-2.23-3.58-3.75-6.28-7.72-8a19.0763 19.0763 0 0 0 -7.2478-1.2866 11.9819 11.9819 0 0 0 4.4714-8.1047 1.8841 1.8841 0 0 0 2.2364.4112c4.31-2.09 6.42-6.85 9.57-10.2a1.89 1.89 0 0 0 -1.33-3.2 39.0021 39.0021 0 0 0 -7.48.23c-2.44.2-6.28.87-8.16-1.1a1.7534 1.7534 0 0 0 -2.72.1747c-5.4621-3.1017-12.8022-3.6328-18.5105-2.4446-8.15 1.68-12.29 10.06-15.63 16.76a2.0937 2.0937 0 0 0 -.1553.4248c-2.3169 3.5049-2.915 7.062-3.1045 11.3852-.26 6.11-1.13 11.63-.08 17.76 1.82 10.67 10.12 17.49 19.68 21.29.4927.1961.99.3816 1.4869.5673-3.271 2.8136-5.1427 9.0942-6.5268 12.0526-.768 1.536-2.617 3.6608-3.4356 5.5383a3.3386 3.3386 0 0 0 -.5444.0518c-3.17.35-6.13 1.92-9.11 3-2.28.79-1.3 4.42 1 3.62l-.01-.09c1.8644-.6456 3.6877-1.4038 5.5558-2.0405-.4424.5514-.7579.9557-.7459.9405-1 1.2-1.51 1.25-1.51 2.85a1.88 1.88 0 0 0 3.76 0c0-.427 1.01-1.4852 2.1023-2.5873a4.6447 4.6447 0 0 0 2.1278 2.1074c2.17 1 4.08-2.2 1.89-3.24-.7246-.3462-.9565-1.2141-1.227-2.0511.2893-.51.4375-.8465-.063-.3789a10.7889 10.7889 0 0 0 1.61-2.24c1.54-2.48 5.33-15.23 8.66-15.19a1.7086 1.7086 0 0 0 1.4373-.6915 54.9525 54.9525 0 0 0 20.7219 2.1649c-.0464 5.21-.2891 10.4125-.4806 15.6145-3.6542 2.0244-8.1592 3.8735-9.3885 8.0921-.68 2.33 3 3.32 3.62 1h.04c.6579-2.2371 3.1854-3.6675 5.6014-4.8752-.0383 1.4582-.0808 2.9164-.0914 4.3752a1.876 1.876 0 0 0 3.75 0c.0083-1.1413.0454-2.2821.0714-3.4231.7754.633 1.5863 1.2389 2.3386 1.9231 1.88 1.71 4.45-1 2.66-2.65-1.61-1.47-3.72-2.52-4.66-4.57a1.8582 1.8582 0 0 0 -.1776-.2463c.1867-4.9933.4107-9.987.4618-14.9876.004-.0324.0134-.0631.0159-.0961v-.6986c.8652-.16 1.7292-.3376 2.59-.5514a170.4347 170.4347 0 0 0 20.49-6.37c5.82-2.28 10.45-7 15.27-10.85a1.95 1.95 0 0 0 .1787-.1745c.1268-.0268.255-.0475.3814-.0755 2.3699-.5202 1.3699-4.1402-1.0001-3.6101zm-36.553-42.9245c-1.7916 2.4935-3.5691 5.0817-6.2771 6.3944a1.9249 1.9249 0 0 0 -.3894.2391 14.3334 14.3334 0 0 0 -2.4889-6.2317c2.9009.356 6.1659-.1705 9.1554-.4018zm18.733 54.7945c-4.71 1.84-9.76 2.71-14.55 4.32-10.1 3.39-20.57 3-30.66-.24-9.83-3.11-18.2-8.21-21.42-18.49-1.57-5-1-10.09-.52-15.19.53-5.29.25-9.69 3.66-14.16a1.52 1.52 0 0 0 .3355-1.2651c4.678-8.8376 10.1174-14.8944 21.5246-13.105 5.79.92 12.52 4.84 12.84 11.33.19 3.79-3.67 6.87-6.4 8.71-1.64 1.11-7.71 4.42-9.65 2.75a1.89 1.89 0 0 0 -2.65 0l-.53.63c-1.4084 1.6829.678 4.0573 2.2383 3.0219 2.77 1.0738 6.2771.0844 9.4429-1.4967a1.8437 1.8437 0 0 0 2.3789-.4421c1.8586.002 3.7091.0093 5.55.0569 5.29.22 7.79 3.09 10.33 7.31a54.2612 54.2612 0 0 0 9.46 12c5.555 5.1506 12.83 7.1336 20.1355 6.92-3.5634 2.8995-7.177 5.638-11.5157 7.3401z" fill="#b08bc0"/><path d="m255.14 68.3419c.014.01.03.0153.0446.0246a5.7082 5.7082 0 0 0 3.8957.4894 3.8 3.8 0 0 0 3.53-3.3 2.6929 2.6929 0 0 0 -1.1245-2.4 3.6938 3.6938 0 0 0 -6.3655-1.33 4.93 4.93 0 0 0 -.9 5.45 2.8507 2.8507 0 0 0 .9197 1.066z" fill="#b08bc0"/><path d="m411.83 86.876c-5-2.08-11.28-.31-16.57-1.58a7.4624 7.4624 0 0 0 -2.32-.9h-.2a4.229 4.229 0 0 1 -1.66-1.49 6.104 6.104 0 0 0 -.32-.68c-.72-2.4 1.81-5.31 4.47-6.74a15.91 15.91 0 0 1 10-1.56c-.12 2.48 1 4.83 4.15 5.2 3.8.44 6.26-2.81 6.57-6.29.36-4.06-3.15-6.68-6.62-7.73a11.5306 11.5306 0 0 0 -6.48.25 26.4676 26.4676 0 0 0 -5.11 1.71h-.12c-3.41 0-6.91 3.58-9.41 5.69a13.63 13.63 0 0 0 -5 10.33c-.39 11.54 13.12 11.4 20.92 11.3 6.68-.08 14.72 3.54 10.29 11.4-1.9 3.36-5.48 5.63-9 6.81-4.49 1.49-7.86-1.23-11-4-1.95-1.69-6.3-5-9.1-3.29s-3 4.83-2 7.84c2.6 8 12.18 9.66 19.38 8.5 9.95-1.6 18.56-6.2 22.12-16.09 3.18-9.05-5.82-15.68-12.99-18.68zm-21.79 22.4a1.2441 1.2441 0 0 0 -.32.12c-1.18-.49-2 .87-1.84 1.84a1.7074 1.7074 0 0 0 .09.39 2 2 0 0 0 -.79.64 3.12 3.12 0 0 0 -.52 1.1c-1.78-2.41-.76-3.88 3.09-4.4v-.02c.14.07.27.15.4.23z" fill="#b08bc0"/><path d="m464.31 110.656c0-2.33-1.24-4.41-2.17-6.49-1.06-2.34-2.17-5.39-3.72-7.43a1.0938 1.0938 0 0 0 -.19-.18 3.8312 3.8312 0 0 0 -1.36-1.87 1.18 1.18 0 0 0 -1.5332-.6587c-.0294.0118-.0585.0247-.0868.0387a1.58 1.58 0 0 0 -.93.48 20.91 20.91 0 0 0 -3.08 2.46 39.4861 39.4861 0 0 1 -4.6 3.28 9.4187 9.4187 0 0 0 -2.86-1.86c-1.51-.74-2.5-2.15-4-2.84l-.18-.13a1.29 1.29 0 0 0 -1.19-.18 1.4 1.4 0 0 0 -.89.5 1.33 1.33 0 0 0 -.56.81 10.09 10.09 0 0 0 -1.29 4.49 14.254 14.254 0 0 1 -.59 2.89c-.43 1.18-.65 3.14-1.39 4.35a6.25 6.25 0 0 0 -5.88 4c-1 3.53 1.18 6.66 4.42 7.89 2.61 1 6.33.52 7.55-2.31a5.91 5.91 0 0 0 -1.24-6.07c.5-2.22 1.2-4.47 1.57-6.72.83.55 1.57 1.3 2.36 1.87.42.31 2.32.92 2.28 1.38a1.41 1.41 0 0 0 .22.9c-.28 1.58 2.33 2.17 3 .49s3.27-2.45 4.56-3.54c.42-.36.8-.74 1.19-1.12a8.68 8.68 0 0 1 1.12 1.42 25.8173 25.8173 0 0 1 2.5 4.53c-1.72.7-2.8 3.09-2.92 5-.25 3.73 3.57 5.57 6.7 5.44a7.3919 7.3919 0 0 0 5.88-3.405v-4.4365a6.7442 6.7442 0 0 0 -2.69-2.9785z" fill="#b08bc0"/></svg>